<?xml version="1.0" encoding="UTF-8"?><svg id="Layer_1" xmlns="http://www.w3.org/2000/svg" viewBox="0 0 771.95 977.91"><defs><style>.cls-1{fill:#dfb88f;}.cls-2{fill:#fedfb1;}.cls-3{fill:#7e57c1;}.cls-4{fill:#feebb2;}.cls-5{fill:#311b92;}</style></defs><path class="cls-3" d="M695.03,975.82c-196.93,.63-393.87,1.95-590.8,1.51-64.79-.15-101.8-32.49-102.35-98.06C-.22,630.82-1.42,382.28,3.03,133.89,4.71,39.93,54.75,.86,148.51,.69,336.91,.33,525.32,1.29,713.72,0c39.56-.27,58.61,9.9,58.23,53.88-2.13,244.14-2.17,488.31-2.93,732.46-19.02,33.82-52.3,27.58-82.68,29.61-176.32,3.26-352.69-.46-528.99,2.48-30.01,.5-71.4-15.31-84.32,33.32,5.31,54.6,46.83,54.06,85.41,54.42,147.01,1.36,294.04,.12,441.06,.78,31.64,.14,64.28-3.92,93.52,13.94,15.64,17.77,16.91,36.06,2.01,54.92Z"/><path class="cls-5" d="M695.03,975.82c-.75-16.92-1.49-33.85-2.24-50.77-18.61-22.08-16.36-48.59-16.01-74.74-.3-19.31,3.92-37.16,17.12-52.03,25.37-1.87,51.98,4.03,75.11-11.93,.77,40.09,.48,80.24,2.55,120.27,2.87,55.47-21.55,78.77-76.54,69.2Z"/><path class="cls-4" d="M391.97,283.42c-72.48,0-145.18-3.39-217.38,1.12-53.38,3.33-47.79-29.15-45.32-60.83,2.28-29.26-18.72-70.81,42.62-69.71,151.32,2.71,302.74,2.57,454.06,.07,61.62-1.02,39.33,41.28,42.05,70.21,3.03,32.28,6.72,63.38-45.86,60.3-76.49-4.48-153.43-1.15-230.18-1.15Z"/><path class="cls-2" d="M692.12,849.63c.23,25.14,.46,50.28,.68,75.42-189.59,.42-379.19-.33-568.75,1.98-57.06,.69-78.33-22.91-70.31-77.34,22.04-22.17,50.74-20.72,78.34-20.86,160.56-.77,321.13-.77,481.7,0,27.59,.13,56.3-1.39,78.35,20.79Z"/><path class="cls-1" d="M692.12,849.63c-212.8,.02-425.59,.04-638.39,.06-7.05-53.16,28.61-52.16,64.87-52.08,191.77,.45,383.54,.48,575.31,.66-.6,17.12-1.19,34.24-1.79,51.35Z"/></svg>