<?xml version="1.0" encoding="UTF-8"?><svg id="Layer_1" xmlns="http://www.w3.org/2000/svg" viewBox="0 0 96 96"><defs><style>.cls-1{fill:#ede7be;}.cls-2{fill:#f0eabe;}.cls-3{fill:#556080;}.cls-4{fill:#7b8ac1;}.cls-5{fill:#56d7af;}.cls-6{fill:#7182bb;}.cls-7{fill:#41b790;}.cls-8{fill:#cac292;}.cls-9{fill:#cec697;}.cls-10{fill:#7383be;}</style></defs><path class="cls-10" d="M85.49,79.49c.02,3.14-.1,6.29,.12,9.41,.19,2.8-1.17,4.68-3.01,6.43h-22.84c-3.5-1.98-3.2-5.32-3.11-8.6,.06-2.45,.03-4.9,.05-7.35,2.89-2.27,6.3-1.27,9.48-1.37,3.45-.1,5.24-1.44,5.02-5.01-.02-.33,.01-.65,.01-.98-.1-10.13,1.3-11.29-9.97-11.03-1.62,.04-3.3-.03-4.58-1.32,0-1.31,.16-2.63-.02-3.92-.78-5.59,.47-10.44,4.94-14.18,4.34,.69,8.72,.65,13.09,.64,2.1,0,4.25-.06,6,1.45,3.61,.78,5.07,3.08,4.93,6.68-.12,3.08-.06,6.16-.07,9.24-8.08,4.72-8.09,15.02-.02,19.91Z"/><path class="cls-5" d="M39.96,3.88c.95,1.54,1.52,2.91,3.96,3.37,5.74,1.09,9.08,5.31,10.92,10.73,1.62,2.23,1.69,4.45-.01,6.67-1.99,5.77-5.68,9.96-11.85,10.94-2.35,.37-1.82,2.36-3.05,3.16-1.38-1.22-1.54-2.9-1.57-4.55-.14-8.6-.15-17.2,0-25.8,.03-1.65,.2-3.33,1.6-4.53Z"/><path class="cls-2" d="M56.64,59.67c3.79,.02,7.57,.1,11.36,.05,3.24-.04,4.89,1.18,4.7,4.68-.19,3.61-.12,7.24-.02,10.86,.08,2.94-1.21,4.19-4.14,4.12-3.95-.09-7.9,0-11.85,0-1.46-6.57-1.4-13.14-.04-19.71Z"/><path class="cls-3" d="M67.59,27.89c-2.04-.91-5.75,1.82-6.09-2.79-1.52-2.51-1.5-5.01,0-7.52,.22-.77,.38-2.19,.66-2.21,5.3-.45,10.74-1.68,15.8,.85,2.18,1.09,2.98,3.47,2.61,5.92-.52,3.34-2.76,5.03-5.93,5.67-2.32,1.78-4.67,1.68-7.03,.08Z"/><path class="cls-7" d="M39.96,3.88c-.01,11.63-.02,23.25-.03,34.88-.84,1.82-2.25,2.42-4.02,1.56-1.45-.7-2-2.03-1.99-3.68,.04-10.24,.03-20.49,0-30.73,0-1.62,.38-3.03,1.98-3.63,1.74-.65,3.26-.31,4.06,1.61Z"/><path class="cls-1" d="M85.49,79.49c-6.5-.34-6.64-.49-6.67-6.76,0-1.96,0-3.92,0-5.88,.02-6.82,.06-6.87,6.69-7.26,0,6.64-.01,13.27-.02,19.91Z"/><path class="cls-3" d="M80.64,43.67c-4.93,0-9.86,.03-14.79,.02-1.77,0-3.76,.41-4.29-2.12-.6-5.01,3.08-3.9,5.85-4.1,2.5-1.47,4.99-1.51,7.47,.03,5-.82,6.34,1.78,5.76,6.17Z"/><path class="cls-4" d="M74.88,37.5c-2.49,0-4.98-.02-7.47-.03,.06-3.19,.12-6.39,.18-9.58,2.34-.03,4.69-.05,7.03-.08-.2,3.24-.5,6.48,.26,9.69Z"/><path class="cls-6" d="M61.49,17.58c0,2.51,0,5.02,0,7.52-2.23-.15-4.45-.3-6.68-.45,0-2.23,0-4.45,.01-6.67,2.22-.13,4.44-.26,6.65-.4Z"/><path class="cls-9" d="M61.7,64.36c2.16,.63,5.6-.81,5.34,2.17-.22,2.5-3.65,1.99-5.85,1.9-1.58-.07-4.27,.93-4.2-1.84,.1-3.59,3.41-1.11,4.71-2.22Z"/><path class="cls-8" d="M60.84,71.42c1.2,.33,3.28-.57,3.28,1.2,0,2.29-2.29,1.82-3.82,1.82-1.19,0-3.17,.55-3.18-1.27-.03-2.66,2.42-1.28,3.73-1.75Z"/></svg>