<?xml version="1.0" encoding="UTF-8"?><svg id="Layer_1" xmlns="http://www.w3.org/2000/svg" viewBox="0 0 96 96"><defs><style>.cls-1{fill:#fea91c;}.cls-2{fill:#f1ad94;}.cls-3{fill:#e59278;}.cls-4{fill:#fec81d;}.cls-5{fill:#763208;}.cls-6{fill:#fdd0be;}.cls-7{fill:#8a3f0c;}</style></defs><path class="cls-4" d="M55.34,66.9c9.34,.45,19.3-1.3,26.38,7.31,.63,1.43,1.2,2.88,1.67,4.38,2.75,8.8,1.06,11.64-8.13,11.86-15.65,.38-31.31,.37-46.96,0-6.95-.17-14.48,2.44-20.78-2.87,2.58-13.62,10.39-20.24,24.22-20.51,2.78-.05,5.57-.11,8.35-.16,.8-.54,1.6-.54,2.41-.03,2.26,1.96,.85,7.05,5.06,6.96,3.91-.09,3.2-4.87,5.35-6.97,.81-.51,1.62-.52,2.42,.03Z"/><path class="cls-6" d="M55.34,66.9l-1.76,.68c-3.91-1.88-7.82-1.88-11.73,0-.58-.23-1.17-.45-1.75-.68-.38-8.82-8.46-13.11-13.4-17.59-6.71-6.08-7.01-9.01-1.08-14.43,.2-.18-.59-1.44-.93-2.2,6.35-11.85,9.16-12.7,20.07-5.81,4.06,2.56,8.42,3.75,13.2,3.91,3.62,.12,7.56-.7,10.48,2.51,5.61,5.63,8.38,9.69,.11,17.04-4.76,4.23-13.47,7.53-13.22,16.57Z"/><path class="cls-7" d="M68.45,33.29c-11.1,.86-21.88,.48-30.22-8.42-2.24-2.39-3.4-1.05-5.12,.64-2.63,2.57-5.59,4.8-8.41,7.17-5.86-.62-3.82-4.94-3.2-7.85,1.32-6.18,4.63-11.41,9.4-15.64,19.1-6.69,35.06,2.27,39.56,22.21l-2.01,1.89Z"/><path class="cls-1" d="M7.53,87.57c21.82,.06,43.65-.14,65.46,.33,7.79,.17,12.33-.84,8.72-9.98-.42-1.07-.01-2.47,0-3.71,1.25,1.36,2.79,2.54,3.69,4.1,6.74,11.64,4.77,15.11-8.43,15.11-20.97,0-41.94,.07-62.9-.06-3.5-.02-9.33,1.73-6.55-5.78Z"/><path class="cls-5" d="M70.46,31.4c-3.81-3.07-4.49-8.04-7.24-11.79-8.31-11.29-20.06-11.55-32.32-10.42,13.93-13.48,38.71-4.95,43.36,15.13,.86,3.71,1.58,6.91-3.8,7.07Z"/><path class="cls-2" d="M41.85,67.58c3.91-6.89,7.81-6.9,11.73,0,.3,4.94-.37,10.05-6.46,9.82-5.72-.22-5.5-5.42-5.26-9.82Z"/><path class="cls-3" d="M47.99,55.9c-3.54-.13-7.23-.58-7.23-4.49,0-5.05,4.55-2.98,7.13-3.02,2.57-.04,7.15-1.91,6.9,3.27-.19,3.95-3.91,4.15-6.79,4.25Z"/></svg>