<?xml version="1.0" encoding="UTF-8"?><svg id="Layer_2" xmlns="http://www.w3.org/2000/svg" width="96" height="96" viewBox="0 0 96 96"><defs><style>.cls-1{fill:#c1fefe;}.cls-2{fill:#f45376;}.cls-3{fill:#f9c7d4;}.cls-4{fill:#ea0000;}</style></defs><g id="Layer_1-2" width="96" height="96" viewBox="0 0 96 96"><g><path class="cls-3" d="M69.29,73.22c-5.22,4.51-10.46,9.03-17.32,10.86-11.59,3.1-21.66-.07-30.59-7.68-1.24-1.06-2.49-2.12-3.73-3.18-2.29-1.97-3.85-4.47-4.9-7.25-1.05-2.81-2.38-5.24-5-7.03-2.49-1.7-3.43-4.37-2.47-7.38,.94-2.95,3.15-4.59,6.14-4.95,3.26-.39,6.48-.76,9.6-1.88,7.64-2.75,13.93-7.18,18.14-14.27,.66-1.12,1.25-2.32,2.36-3.1,1.26-.62,2.52-.63,3.79-.04,2.88,2.92,4.56,6.81,7.63,9.56,6.01,5.4,12.88,8.96,21.08,9.52,3.54,.24,6.45,1.54,7.6,5.15,1.19,3.71-.59,6.35-3.58,8.32-1.76,1.16-2.58,2.86-3.29,4.74-1.23,3.24-2.77,6.3-5.47,8.62Z"/><path class="cls-1" d="M45.37,27.84h-3.78c-3.72,2.18-8.06,2.59-12.02,4.09-2.01,.76-3.57-.42-4.53-2.06-1.72-2.95-3.8-5.76-4.27-9.29-1.11-3.48-3.01-6.55-4.96-9.59-1.43-2.23-1.17-3.94,1.46-5.11,17.47-7.83,34.92-7.83,52.4,0,2.63,1.18,2.89,2.88,1.47,5.11-1.95,3.05-3.85,6.11-4.96,9.59,.03,1.37-.58,2.53-1.18,3.7-3.78,7.43-4.71,10.08-12.74,5.92-2.14-1.1-4.9-.62-6.88-2.35Z"/><path class="cls-2" d="M20.77,20.58c2.44,2.49,3.54,5.78,5.2,8.73,.99,1.75,1.98,2.19,3.89,1.33,3.71-1.67,7.56-2.98,11.74-2.81-5.11,12.12-15,17.68-27.34,19.79-1.76,.3-3.63,0-5.29,.93-3.42,1.9-4.41,7.22-1.06,9.07,6.38,3.53,6.27,10.58,9.75,15.6-9.03-1.48-15.12-6.44-17.1-15.48-1.93-8.8,1.27-15.82,8.69-20.89,1.46-1,2.12-2.4,2.75-3.95,1.96-4.78,4.75-9,8.78-12.32Z"/><path class="cls-2" d="M45.37,27.84c3.99-.11,7.77,.85,11.28,2.61,2.3,1.15,3.42,.58,4.57-1.57,1.52-2.84,2.6-5.96,4.95-8.31,.95,.91,2.08,1.7,2.82,2.75,4.74,6.76,9.72,13.35,14.65,19.96,8.72,11.67,.13,28.37-14.36,29.94,1.34-4.19,4.51-7.59,5.18-12.09,.19-1.32,1.49-1.6,2.54-2.07,2.91-1.27,4.46-3.51,3.8-6.66-.72-3.4-3.31-4.49-6.61-4.73-11.79-.85-20.72-6.67-27.33-16.26-.72-1.04-1.01-2.37-1.5-3.57Z"/><path class="cls-2" d="M39.38,9.92c-.38-3.14,1.08-3.92,4.09-3.92,3.01,0,4.47,.78,4.09,3.92-.16,.2-.31,.39-.46,.59-2.14,1.07-4.36,.86-6.59,.37-.48-.19-.86-.51-1.12-.96Z"/><path class="cls-2" d="M39.38,18.1c-3.15,.38-3.92-1.09-3.92-4.09,0-3.02,.79-4.47,3.93-4.09l.32,.33c1.51,2.1,1.12,4.39,.65,6.69-.19,.5-.52,.89-.98,1.16Z"/><path class="cls-2" d="M47.56,9.92c3.14-.37,3.93,1.08,3.93,4.09,0,3.01-.77,4.48-3.92,4.09-.21-.19-.43-.37-.64-.56-1.06-2.48-1.29-4.93,.32-7.3l.32-.33Z"/><path class="cls-2" d="M47.56,18.1c.37,3.14-1.08,3.93-4.09,3.93-3.01,0-4.47-.79-4.09-3.93l.33-.32c2.51-1.62,5.02-1.62,7.54,0l.33,.32Z"/><path class="cls-4" d="M47.24,17.78c-2.51,0-5.02,0-7.54,0,0-2.51,0-5.02,0-7.54,2.51,0,5.02,0,7.54,0,0,2.51,0,5.02,0,7.54Z"/></g></g></svg>