<?xml version="1.0" encoding="UTF-8"?>
<svg id="Layer_1" data-name="Layer 1" xmlns="http://www.w3.org/2000/svg" width="96" height="96" viewBox="0 0 96 96">
  <defs>
    <style>
      .cls-1 {
        fill: #455a64;
      }

      .cls-2 {
        fill: #f34336;
      }

      .cls-3 {
        fill: #fefefe;
      }
    </style>
  </defs>
  <path class="cls-2" d="M62.34,26.17c4.93,.05,9.86,.07,14.79,.17,6.88,.14,10.81,3.88,10.87,10.65,.1,12.65,.11,25.31,0,37.96-.06,6.76-4,10.59-10.89,10.62-19.07,.07-38.15,.07-57.22,0-7.05-.03-10.85-3.96-10.89-11.11-.07-12.33-.07-24.65,0-36.98,.04-7.38,3.86-11.04,11.37-11.14,4.77-.07,9.53-.11,14.3-.16,1.26-1.05,2.77-1.2,4.32-1.23,6.34-.19,12.69-.2,19.04,0,1.55,.02,3.07,.17,4.33,1.24Z"/>
  <path class="cls-1" d="M38.62,26.17c-1.32,0-2.64,0-3.96,0-.11-12.3-.7-11.82,11.64-11.7,3.26,.03,6.53,.17,9.78-.04,4.69-.3,6.64,1.76,6.28,6.36-.14,1.78-.02,3.58-.02,5.38-1.32,0-2.64,0-3.96,0-1.31-1.23-.91-3.19-1.79-4.49-2.19-3.26-5.68-1.7-8.59-1.74-2.57-.03-5.77-1.4-7.61,1.73-.81,1.37-.46,3.27-1.78,4.5Z"/>
  <path class="cls-3" d="M48.34,36.22c10.91-.08,19.83,8.7,19.91,19.58,.08,10.88-8.72,19.82-19.59,19.9-10.89,.08-19.83-8.72-19.91-19.59-.07-10.91,8.7-19.82,19.59-19.89Z"/>
  <path class="cls-3" d="M38.62,26.17q0-7.74,7.66-7.74c1.48,0,2.96,0,4.44,0q7.66,0,7.66,7.74c-6.59,0-13.17,0-19.76,0Z"/>
  <path class="cls-2" d="M48.96,67.66c-3.39,.75-4.99-.31-4.41-3.72,.54-3.19-.73-4.61-3.99-4.03-3.4,.61-4-1.06-4.02-4.12-.02-3.01,.78-4.35,3.86-3.78,3.62,.66,4.74-1.07,4.15-4.36-.61-3.41,1.34-3.58,4-3.62,2.81-.05,4.52,.42,3.92,3.7-.63,3.43,.75,4.92,4.24,4.28,3.23-.59,3.83,1.01,3.74,3.88-.08,2.6-.11,4.65-3.58,4.04-3.23-.57-5.01,.42-4.43,4.11,.43,2.77-.2,4.76-3.47,3.64Z"/>
</svg>