<?xml version="1.0" encoding="UTF-8"?><svg id="Layer_2" xmlns="http://www.w3.org/2000/svg" width="96" height="96" viewBox="0 0 96 96"><defs><style>.cls-1{fill:#c1fefe;}.cls-2{fill:#f45376;}.cls-3{fill:#dcb9fe;}.cls-4{fill:#6c19fe;}.cls-5{fill:#ea0000;}</style></defs><g id="Layer_1-2" width="96" height="96" viewBox="0 0 96 96"><g><path class="cls-3" d="M71.09,47.34c5.62,4.97,5.46,7.63-.93,11.93-1.43,.96-1.65,2.21-2.09,3.64-4.01,12.9-16.77,22.11-30.49,22.11-13.73,0-26.48-9.2-30.5-22.1-.44-1.42-.66-2.68-2.09-3.64-6.4-4.31-6.56-6.96-.94-11.93,3.5-3.67,7.65-6.69,10.45-11.06,1.26-1.97,3.65-2.04,5.81-2.05,11.5-.06,23.01-.06,34.51,0,2.17,.01,4.55,.08,5.82,2.05,2.8,4.37,6.95,7.4,10.45,11.06Z"/><path class="cls-1" d="M13.71,16.22c.56-11.94,1.08-12.48,12.92-15.09C36.15-.97,45.4,0,54.63,2.83c4.86,1.49,7.73,3.92,6.69,9.45-.24,1.26,.06,2.61,.1,3.92,.45,1.24,.93,2.47,1.18,3.76,1.29,6.62-.75,9.2-7.56,9.27-11.32,.12-22.64,.08-33.96,.02-8.22-.04-10.27-2.78-8.15-10.69,.21-.79,.48-1.57,.77-2.34Z"/><path class="cls-4" d="M13.71,16.22c.05,.66,.12,1.31,.14,1.97q.2,9.49,9.93,9.49c11.01,0,22.02-.18,33.03,.1,3.77,.09,4.97-1.02,4.54-4.67-.27-2.26,.04-4.59,.09-6.89,9.12,8.54,10.45,19.51,9.66,31.13-4.8-1.52-8.11-4.86-10.43-9.12-1.11-2.04-2.41-2.69-4.64-2.68-12.3,.09-24.6,.09-36.9,0-2.23-.02-3.52,.65-4.65,2.67-2.34,4.23-5.58,7.65-10.42,9.13-.77-11.61,.52-22.59,9.66-31.12Z"/><path class="cls-2" d="M33.48,9.74c-.38-3.15,1.08-3.92,4.09-3.92,3.01,0,4.47,.78,4.09,3.92-.16,.2-.31,.39-.46,.59-2.14,1.07-4.36,.86-6.59,.37-.48-.19-.86-.51-1.12-.96Z"/><path class="cls-2" d="M33.48,17.92c-3.15,.39-3.92-1.09-3.92-4.09,0-3.02,.79-4.47,3.92-4.09l.32,.33c1.51,2.11,1.12,4.4,.65,6.69-.19,.5-.52,.89-.98,1.17Z"/><path class="cls-2" d="M41.66,9.74c3.13-.37,3.93,1.08,3.92,4.09,0,3.01-.77,4.48-3.92,4.09-.21-.19-.43-.37-.64-.56-1.06-2.48-1.29-4.93,.32-7.3l.32-.33Z"/><path class="cls-2" d="M41.66,17.92c.37,3.14-1.08,3.93-4.09,3.93-3.01,0-4.47-.79-4.09-3.93l.33-.32c2.51-1.62,5.02-1.62,7.53,0l.33,.32Z"/><path class="cls-5" d="M41.34,17.6c-2.51,0-5.02,0-7.53,0,0-2.51,0-5.03,0-7.54,2.51,0,5.02,0,7.53,0,0,2.51,0,5.03,0,7.54Z"/></g></g></svg>