<?xml version="1.0" encoding="UTF-8"?>
<svg id="Layer_1" data-name="Layer 1" xmlns="http://www.w3.org/2000/svg" width="96" height="99.21" viewBox="0 0 96 99.21">
  <defs>
    <style>
      .cls-1 {
        fill: #a3550f;
      }

      .cls-2 {
        fill: #a5570f;
      }

      .cls-3 {
        fill: #aa5b10;
      }

      .cls-4 {
        fill: #c06e14;
      }

      .cls-5 {
        fill: #a3560e;
      }

      .cls-6 {
        fill: #fd2212;
      }
    </style>
  </defs>
  <path class="cls-4" d="M61.47,27.64c7.61-3.02,10.14-1.5,10.18,5.75,.06,11.24,.08,22.49-.13,33.74-.19,10.28-6.89,16.12-17.17,17.09-15.35,1.45-27.66-3.3-37.17-15.46-2.47-3.15-5.89-6-2.13-10.23,4-4.51,7.03-.92,10.06,1.55,1.5,1.22,2.88,2.6,5.47,4.96,0-13.23-.02-25.2,.01-37.17,0-2.39-.83-5.92,1.42-6.74,4.88-1.77,10.19-2.27,14.58-5.5,.38-.28,2.32,.67,2.73,1.47,1.46,2.82,3.1,2.79,6.17,2.25,5.87-1.01,5.7,3.94,5.97,8.29Z"/>
  <path class="cls-6" d="M61.09,62.56c-.03,3.88-7.81,11.96-10.43,11.95-2.21-.01-9.49-8.31-9.51-10.84-.02-3.28,2.77-6.12,4.65-4.49,4.67,4.02,12.9-5.45,15.28,3.39Z"/>
  <path class="cls-1" d="M50.57,28.57c3.82,6.97,1.89,13.61,3.76,19.54,.3,.96-.11,2.4-1.58,2.26-1.53-.14-2.13-1.49-2.15-2.84-.07-5.86-.03-11.73-.03-18.96Z"/>
  <path class="cls-5" d="M42.46,48.84c-1.79-5.39-1.35-10.8-.57-16.23-.2,5.46,3.39,10.67,.57,16.23Z"/>
  <path class="cls-2" d="M63.69,43.1c.13,1.51,.09,3.06,.44,4.51,.44,1.85,1.83,4.57-.74,4.89-3.17,.4-2.13-2.94-2.29-4.85-.16-1.94-.02-3.91-.02-5.86,1.51-.84,1.88,.59,2.6,1.31Z"/>
  <path class="cls-3" d="M63.69,43.1c-.87-.44-1.74-.87-2.6-1.31,0-2.55,0-5.1,0-9.12,1.95,4.22,2.82,7.18,2.6,10.43Z"/>
</svg>