<?xml version="1.0" encoding="UTF-8"?><svg id="Layer_2" xmlns="http://www.w3.org/2000/svg" viewBox="0 0 79.26 89.15"><defs><style>.cls-1{fill:#dff4fd;}.cls-2{fill:#624438;}.cls-3{fill:#baddfa;}.cls-4{fill:#7a574a;}.cls-5{fill:#badcf7;}.cls-6{fill:#7d5b4e;}.cls-7{fill:#c58735;}.cls-8{fill:#7a584c;}.cls-9{fill:#c58632;}.cls-10{fill:#8fc9f8;}.cls-11{fill:#614438;}</style></defs><g id="Layer_1-2"><g><path class="cls-10" d="M62.27,83.03c-19.25,.02-38.5-.03-57.74,.12C1.18,83.18-.02,82.35,0,78.79,.14,53.95,.12,29.11,.02,4.27,0,1.12,.81-.05,4.14,0c12.17,.17,24.35,.12,36.52,.02,2.35-.02,4.02,.77,5.62,2.41,4.82,4.95,9.7,9.84,14.66,14.66,1.64,1.59,2.5,3.25,2.44,5.61-.17,6.9-.14,13.81-.19,20.72-2.83,.48-3.93-1.98-5.57-3.4-4.87-4.25-7.68-3.48-10.76,1.98-3.56,6.31-8.59,11.52-15.11,14.9-5.14,2.67-6.03,5.8-2.15,9.97,2.69,2.89,5.5,5.67,8.37,8.38,4.01,3.8,7.2,3.24,9.76-1.59,2.3-4.35,4.87-4.95,7.93-1.05,2.51,3.2,6.94,5.38,6.62,10.42Z"/><path class="cls-3" d="M62.27,83.03c-1.76-4.18-5.34-7-8.11-10.39-1.76-2.15-3.86-3.11-5.21,1.27-1.87,6.11-7.08,6.93-11.72,2.38-2.93-2.88-5.84-5.78-8.71-8.71-4.5-4.6-3.28-9.21,2.53-11.89,6.56-3.02,11.6-8.08,14.66-14.58,2.67-5.67,7.33-6.98,12.06-2.64,1.81,1.66,3.61,3.31,5.42,4.97,0,1.75,0,3.51,0,5.26-3.22-.16-4.44-3.09-6.57-4.75-1.38-1.07-2.47-3.21-4.5-2.33-2.28,.98-.42,3.26-.88,4.89-.18,.97-.7,1.72-1.51,2.26-5.39,1.83-8.98,5.47-10.84,10.84-.55,.82-1.3,1.34-2.28,1.53-1.62,.45-3.9-1.33-4.87,.9-.87,2,1.17,3.18,2.34,4.45,1.44,1.56,2.93,3.08,4.51,4.5,1.27,1.14,2.43,3.19,4.48,2.06,1.82-1,.36-3.01,.66-4.53,.12-.94,.56-1.71,1.3-2.31,1.82-.49,3.62-1.09,5.52-1.26,1.39,.55,2.74,1.19,4.21,1.54,1.32,.5,2.34,1.38,3.19,2.48,1.12,1.76,2.59,3.22,3.98,4.76,1.02,1.13,2.47,2.21,1.5,4.11-.5,1.71,.75,3.81-1.17,5.19Z"/><path class="cls-4" d="M63.44,77.84l-6.25-8.41c-.3-1.62,.66-2.35,1.98-2.84,2.26-.38,3.28,1.04,4.07,2.8,3.82,3.34,7.72,6.6,11.44,10.05,2.34,2.17,6.9,4.27,3.2,8.15-3.75,3.93-5.91-.52-8.16-2.86-2.15-2.24-4.19-4.59-6.28-6.89Z"/><path class="cls-8" d="M50.63,46.53c-.27-.92-.5-1.85-.82-2.75-.5-1.4-.22-2.58,.94-3.48,1.4-1.09,2.79-.73,3.97,.36,2.86,2.64,5.66,5.35,8.48,8.03,1.75,2.22,3.41,4.44,.12,6.75-1.69,1.34-3.24,.62-4.78-.3-2.44-3.04-5.48-5.54-7.9-8.61Z"/><path class="cls-5" d="M58.37,54.27c1.65,.39,3.3,.78,4.94,1.17-.03,4.65-.06,9.29-.09,13.94-1.23-.77-2.46-1.55-3.69-2.32-1.47-.25-2.43-1.1-2.94-2.49-.36-1.47-1.05-2.82-1.56-4.24,.1-1.73,.78-3.34,1.07-5.04,.56-.77,1.21-1.34,2.26-1.02Z"/><path class="cls-1" d="M41.59,3.7c6.15,6.2,11.88,11.98,17.94,18.09-5.19,0-10.35-.02-15.52,0-2.46,.01-2.43-1.68-2.42-3.39,0-4.77,0-9.54,0-14.7Z"/><path class="cls-9" d="M56.62,55.54c1.43,1.9-.04,3.2-.96,4.61-.98,2.61-2.77,4.41-5.39,5.39-1.41,.91-2.71,2.41-4.61,.97-3.23-1.61-5.65-4.03-7.26-7.26-.48-1.03-1.1-2.05-.05-3.11,2.63-2.63,5.27-5.27,7.9-7.9,1.05-1.05,2.08-.42,3.11,.05,3.23,1.61,5.65,4.03,7.26,7.26Z"/><path class="cls-8" d="M44.4,68.25c.27,.93,.51,1.86,.83,2.78,.49,1.42,.18,2.59-1,3.49-1.22,.93-2.55,.83-3.59-.17-3.41-3.3-6.77-6.67-10.08-10.08-1.01-1.04-1.1-2.37-.17-3.59,.9-1.18,2.08-1.49,3.49-1,.91,.32,1.85,.56,2.78,.83,2.83,2.34,5.41,4.92,7.74,7.74Z"/><path class="cls-2" d="M56.62,55.54c-2.79-2.05-5.2-4.47-7.26-7.26,.42-.58,.85-1.17,1.27-1.75,3.68,1.48,6.26,4.06,7.74,7.74-.58,.42-1.17,.85-1.75,1.27Z"/><path class="cls-11" d="M44.4,68.25c-3.68-1.48-6.26-4.06-7.74-7.74,.58-.42,1.17-.85,1.75-1.27,2.79,2.05,5.21,4.47,7.26,7.26-.42,.58-.84,1.17-1.27,1.75Z"/><path class="cls-6" d="M50.28,65.54c1.41-2.18,3.2-3.98,5.39-5.39,1.57,.98,1.95,2.36,1.36,4.07-.53,1.26-1.42,2.16-2.68,2.68-1.71,.61-3.09,.22-4.06-1.37Z"/><path class="cls-7" d="M54.34,66.9c.26-1.53,1.15-2.43,2.68-2.68,.84,.95,1.68,1.9,2.52,2.84-.79,.79-1.57,1.57-2.36,2.36-.95-.84-1.9-1.68-2.84-2.52Z"/></g></g></svg>