<?xml version="1.0" encoding="UTF-8"?>
<svg id="Layer_1" data-name="Layer 1" xmlns="http://www.w3.org/2000/svg" width="96" height="99.21" viewBox="0 0 96 99.21">
  <defs>
    <style>
      .cls-1 {
        fill: #c62a2a;
      }

      .cls-2 {
        fill: #455a64;
      }

      .cls-3 {
        fill: #273339;
      }

      .cls-4 {
        fill: #f34336;
      }

      .cls-5 {
        fill: #465b64;
      }

      .cls-6 {
        fill: #c4c9e8;
      }

      .cls-7 {
        fill: #f34437;
      }

      .cls-8 {
        fill: #fefefe;
      }
    </style>
  </defs>
  <path class="cls-6" d="M54.37,22.8c5.29-.62,9.43,1.15,12.86,5.36,5.86,7.2,12.07,14.1,17.99,21.25,1.21,1.46,1.79,3.44,2.66,5.19-1.92,1.71-4.31,1.45-6.58,1.45-21.89,.04-43.79,.04-65.68,0-2.28,0-4.66,.22-6.57-1.5-.03-8.05-.13-16.1-.07-24.15,.04-5.32,2.18-7.46,7.5-7.52,8.71-.1,17.43-.07,26.14-.09,1.73-1.47,3.82-1.33,5.88-1.32,2.07-.03,4.16-.15,5.88,1.33Z"/>
  <path class="cls-6" d="M87.94,62.29c.03,1.95,.11,3.89,.09,5.84-.06,5.96-1.62,7.56-7.76,8.12-1.41-.81-1.67-2.37-2.34-3.66-1.67-3.24-4.38-4.94-7.93-4.84-3.34,.09-5.89,1.77-7.45,4.84-.65,1.29-.92,2.84-2.33,3.66-7.16,0-14.31,0-21.47,0-1.41-.81-1.67-2.37-2.34-3.66-1.67-3.24-4.38-4.94-7.93-4.84-3.34,.09-5.89,1.77-7.45,4.84-.65,1.29-.92,2.84-2.33,3.66-9.14-.18-10.04-1.49-9.65-13.96,1.89-1.71,4.26-1.5,6.53-1.5,21.94-.04,43.88-.04,65.82,0,2.27,0,4.63-.21,6.53,1.5Z"/>
  <path class="cls-4" d="M87.94,62.29c-26.29,0-52.59,0-78.88,0,0-2.58,0-5.16,0-7.74,26.28,.02,52.55,.03,78.83,.05,.02,2.56,.04,5.13,.05,7.69Z"/>
  <path class="cls-5" d="M18.71,76.25c1.43-6.73,4.87-10.03,10.27-9.9,5.19,.13,8.38,3.35,9.78,9.9-1.49,6.61-4.97,9.94-10.27,9.8-5.14-.13-8.34-3.35-9.78-9.8Z"/>
  <path class="cls-5" d="M60.22,76.25c1.43-6.73,4.87-10.03,10.27-9.9,5.19,.13,8.38,3.35,9.78,9.9-1.49,6.61-4.97,9.94-10.27,9.8-5.14-.13-8.34-3.35-9.78-9.8Z"/>
  <path class="cls-7" d="M48.51,22.7c-1.96,.03-3.93,.06-5.89,.09,.02-2.4-.3-4.86,.16-7.17,.57-2.87,2.36-4.88,5.73-4.54,2.17,3.87,2.19,7.74,0,11.62Z"/>
  <path class="cls-1" d="M48.51,22.7c0-3.87,0-7.74,0-11.62,4.09-.11,5.65,2.34,5.89,5.97,.13,1.91,0,3.83-.02,5.75-1.95-.03-3.91-.07-5.86-.1Z"/>
  <path class="cls-4" d="M33.11,26.84c6.47,.24,11.71,5.93,11.39,12.37-.32,6.46-6.07,11.65-12.49,11.26-6.26-.38-11.32-5.88-11.16-12.12,.17-6.45,5.82-11.76,12.26-11.51Z"/>
  <path class="cls-2" d="M80.84,50.51c-7.44,0-13.75-.02-20.07,.02-1.61,0-2.4-.53-2.39-2.26,.05-5.73,0-11.46,.02-17.19,0-.93-.16-2.1,1.19-2.3,1.28-.19,2.69-.42,3.67,.74,5.64,6.7,11.25,13.43,17.57,21Z"/>
  <path class="cls-3" d="M32.68,76.1c-.31,2.39-1.55,4-4.06,3.95-2.23-.04-3.69-1.48-3.73-3.71-.04-2.47,1.47-3.99,3.96-3.98,2.26,.02,3.43,1.55,3.83,3.74Z"/>
  <path class="cls-3" d="M74.2,76.1c-.31,2.39-1.55,4-4.06,3.95-2.23-.04-3.69-1.48-3.73-3.71-.04-2.48,1.47-3.99,3.96-3.98,2.26,.02,3.43,1.55,3.83,3.74Z"/>
  <path class="cls-8" d="M40.55,38.84c.09,1.31-.57,1.91-1.76,1.77-2.98-.36-4.73,.42-4.17,3.88,.22,1.36-.4,2.08-1.93,2.08-1.51,0-2.14-.66-1.97-2.06,.35-2.79-.37-4.45-3.64-3.91-1.59,.27-2.4-.4-2.33-2.18,.07-1.69,1.08-1.86,2.3-1.72,2.59,.31,4.1-.36,3.68-3.37-.19-1.33-.09-2.58,1.91-2.6,1.97-.01,2.17,1.16,1.98,2.54-.4,2.92,.97,3.77,3.62,3.42,1.58-.2,2.57,.36,2.3,2.13Z"/>
</svg>