<?xml version="1.0" encoding="UTF-8"?><svg id="Layer_2" xmlns="http://www.w3.org/2000/svg" viewBox="0 0 69.25 75.36"><defs><style>.cls-1{fill:#f45376;}.cls-2{fill:#ea7900;}.cls-3{fill:#f4bc04;}.cls-4{fill:#fefcf7;}.cls-5{fill:#6c19fe;}.cls-6{fill:#ea0000;}</style></defs><g id="Layer_1-2"><g><path class="cls-5" d="M9.8,53.3l-.11-7.73c-1.26-1.63-1.16-3.53-1.14-5.43,.02-1.31,.07-2.63,.55-3.87,.2-.46,.51-.84,.93-1.12,.28-.15,.6-.24,.89-.38,1.65-.78,4.85,.64,4.93-1.86,.1-2.99-3.39-1.39-5.04-2.39-.43-.21-.77-.52-1-.94l-.11-5.75c-1.26-1.63-1.16-3.53-1.14-5.43,.02-1.31,.07-2.63,.55-3.87,.2-.46,.51-.84,.93-1.12,.28-.15,.6-.24,.89-.38,1.65-.78,4.85,.64,4.93-1.86,.1-2.99-3.39-1.39-5.04-2.39-.43-.21-.77-.52-1-.94Q9.93,.09,17.53,.09c15.8,0,31.59,.11,47.39-.09,3.55-.05,4.31,1.03,4.29,4.41-.15,22.06-.2,44.12,.03,66.18,.04,4.14-1.39,4.74-5,4.71-16.12-.17-32.25-.3-48.37,.06-4.91,.11-6.94-1.14-6.18-6.06-1.26-1.63-1.16-3.53-1.14-5.43,.02-1.31,.07-2.63,.55-3.87,.2-.46,.51-.84,.93-1.12,.28-.15,.6-.24,.89-.38,1.65-.78,4.85,.64,4.93-1.86,.1-2.99-3.39-1.39-5.04-2.39-.43-.21-.77-.52-1-.94Z"/><path class="cls-3" d="M9.69,17.89c0,1.98,0,3.95,0,5.93C3.31,23.53-.04,20.78,0,15.84c.04-4.83,3.2-7.41,9.8-8.01l.26,.29c1.33,1.9,1.33,3.79,0,5.69l-.26,.28c-2.04,1.2-1.72,2.48-.12,3.8Z"/><path class="cls-3" d="M9.69,39.64c0,1.98,0,3.95,0,5.93C3.31,45.28-.04,42.53,0,37.59c.04-4.83,3.2-7.41,9.8-8.01l.26,.29c1.33,1.9,1.33,3.79,0,5.69l-.26,.28c-2.04,1.2-1.72,2.48-.12,3.8Z"/><path class="cls-3" d="M9.69,63.37c0,1.98,0,3.95,0,5.93C3.31,69.01-.04,66.25,0,61.32c.04-4.83,3.2-7.41,9.8-8.01l.26,.29c1.33,1.9,1.33,3.79,0,5.69l-.26,.28c-2.04,1.2-1.72,2.48-.12,3.8Z"/><path class="cls-1" d="M37.41,33.59c.03-.98,.17-1.97,.09-2.94-.27-3.12-.01-5.07,4.22-5.03,4.29,.05,3.73,2.43,3.71,5.03,0,.98,.06,1.96,.1,2.94-.18,.2-.36,.4-.53,.61-2.35,1.05-4.7,1.05-7.05,0-.18-.2-.35-.41-.53-.61Z"/><path class="cls-1" d="M37.41,41.72c-.98-.03-1.97-.17-2.94-.09-3.12,.28-5.07,0-5.02-4.22,.05-4.3,2.44-3.73,5.03-3.71,.98,0,1.96-.07,2.94-.1l.23,.24c1.65,2.35,1.44,4.81,.4,7.31-.21,.19-.42,.38-.64,.57Z"/><path class="cls-1" d="M45.53,33.59c.98,.04,1.97,.18,2.94,.09,3.11-.27,5.08-.02,5.03,4.22-.05,4.29-2.42,3.74-5.02,3.72-.98,0-1.96,.06-2.94,.1-.21-.19-.42-.39-.63-.58-1.05-2.5-1.26-4.95,.39-7.31l.23-.24Z"/><path class="cls-1" d="M45.53,41.72c-.04,.98-.18,1.97-.09,2.94,.27,3.11,.02,5.08-4.22,5.03-4.3-.05-3.73-2.44-3.71-5.03,0-.98-.07-1.96-.1-2.94l.24-.23c2.55-1.7,5.1-1.7,7.64,0l.24,.23Z"/><path class="cls-2" d="M10.06,13.81c0-1.9,0-3.79,0-5.69,1.48-.04,2.96,.03,4.42-.15,2.54-.31,3.36,.6,3.37,3.24,0,2.75-1.38,2.86-3.37,2.73-1.47-.09-2.95-.09-4.42-.13Z"/><path class="cls-2" d="M10.06,35.56c0-1.9,0-3.79,0-5.69,1.48-.04,2.96,.03,4.42-.15,2.54-.31,3.36,.6,3.37,3.24,0,2.75-1.38,2.86-3.37,2.73-1.47-.09-2.95-.09-4.42-.13Z"/><path class="cls-2" d="M10.06,59.28c0-1.9,0-3.79,0-5.69,1.48-.04,2.96,.03,4.42-.15,2.54-.31,3.36,.6,3.37,3.24,0,2.75-1.38,2.86-3.37,2.73-1.47-.09-2.95-.09-4.42-.13Z"/><path class="cls-4" d="M9.69,17.89c-1.56-.06-3.65,.24-3.55-2.04,.09-2.21,2.04-1.98,3.67-1.75-.04,1.27-.08,2.53-.12,3.8Z"/><path class="cls-4" d="M9.69,39.64c-1.56-.06-3.65,.24-3.55-2.04,.09-2.21,2.04-1.98,3.67-1.75-.04,1.27-.08,2.53-.12,3.8Z"/><path class="cls-4" d="M9.69,63.37c-1.56-.06-3.65,.24-3.55-2.04,.09-2.21,2.04-1.98,3.67-1.75-.04,1.27-.08,2.53-.12,3.8Z"/><path class="cls-6" d="M45.29,41.48c-2.55,0-5.1,0-7.65,0,0-2.55,0-5.1,0-7.65,2.55,0,5.1,0,7.65,0,0,2.55,0,5.1,0,7.65Z"/></g></g></svg>