<?xml version="1.0" encoding="UTF-8"?>
<svg id="Layer_1" data-name="Layer 1" xmlns="http://www.w3.org/2000/svg" width="96" height="99.21" viewBox="0 0 96 99.21">
  <defs>
    <style>
      .cls-1 {
        fill: #39843d;
      }

      .cls-2 {
        fill: #cbe5b9;
      }

      .cls-3 {
        fill: #39833c;
      }

      .cls-4 {
        fill: #d5ebcf;
      }

      .cls-5 {
        fill: #8fc553;
      }

      .cls-6 {
        fill: #8ec451;
      }

      .cls-7 {
        fill: #90c553;
      }

      .cls-8 {
        fill: #bcdd9e;
      }

      .cls-9 {
        fill: #4daf51;
      }

      .cls-10 {
        fill: #36823a;
      }
    </style>
  </defs>
  <path class="cls-9" d="M59.69,36.43c2.73,5.35,5.7,9.31,11.61,2.91,1.28-1.39,3.41-1.24,5.1,.01,1.03,.76,1.43,1.87,1.08,3.01-.59,1.92-2.07,2.97-4.08,3.16-2.74,.25-5.5,.42-8.25,.62-1.19,4.12-.95,8.7-4.11,12.17l-.18,5.46c-1.4,.77-2.82-.04-4.23,.05l-4.1,.15c-2.39,.26-4.78,.76-7.19,.12l-4.09-.34c-1.17-.87-3,.25-3.95-1.28-1.14-4.65-3.46-5.67-7.19-2.24-1.01,.93-1.84,2.11-2.98,2.83-2.34,1.46-4.83,1.59-6.95-.41-1.66-1.57-1.88-3.68-.99-5.68,1.21-2.74,3.65-3.51,6.33-2.6,5.54,1.88,8.26,1.11,5.85-5.32-.9-1.46-1.24-3.11-1.59-4.75,5.35-3.83,5.48-5.87,.51-9.73-1.27-.98-2.81-1.62-4.08-2.6-2.07-1.62-2.57-3.8-1.52-6.16,.92-2.08,2.63-3.25,4.98-3.02,2.64,.26,4.65,1.97,4.6,4.4-.17,7.63,3.27,9.2,9.85,6.36,2.41,1.26,4.69,.08,7.01-.35l5.49,.34c1.44,.54,2.5,1.46,3.06,2.9Z"/>
  <path class="cls-6" d="M61.04,58.31c-.47-4.66,2.78-8.1,4.11-12.17-.62,8.02,.06,8.8,8.04,8.06,3.4-.32,6.08,.25,7.12,3.76,.7,2.39,.15,4.64-2.35,5.78-3.23,1.47-5.61,.22-7.84-2.36-2.29-2.66-4.59-6.31-9.08-3.08Z"/>
  <path class="cls-7" d="M45.35,64.1c2.38-1.23,4.74-2.93,7.19-.12-.7,3.47,.39,6.74,1.03,10.09,.56,2.95,.83,6.14-2.78,7.57-2.52,1-5.11,.81-6.8-1.65-2.24-3.25-.43-5.44,2.18-7.47,4.04-3.15,1.98-5.84-.81-8.41Z"/>
  <path class="cls-5" d="M51.14,33.19c-2.14,3.86-4.47,4.15-7.01,.35,4.17-2.98,1.03-6.05,.03-9.01-.79-2.34-2.33-4.59-.58-7.05,1.92-2.71,4.77-2.91,7.35-1.54,2.86,1.51,3.56,4.28,1.47,6.9-2.64,3.31-4.22,6.5-1.26,10.36Z"/>
  <path class="cls-1" d="M56.64,63.82c1.37-3.56,2.8-1.17,4.23-.05,1.48,.66,3.16,1.08,4.39,2.05,1.95,1.55,2.78,3.61,1.45,6.09-1.09,2.05-2.79,3.07-5.08,2.95-2.66-.14-4.43-1.65-4.81-4.18-.34-2.25-.14-4.57-.17-6.86Z"/>
  <path class="cls-1" d="M59.69,36.43c-1.85-.12-2.89-1.06-3.06-2.9,.11-1.79-.2-3.75,.44-5.34,.8-1.99,2.78-3.01,5.09-2.77,1.97,.21,3.48,1.21,4.27,3.03,.91,2.08,.52,3.96-1.1,5.62-1.55,1.59-3.66,1.81-5.65,2.36Z"/>
  <path class="cls-10" d="M29.79,44.3c3.66,.57,2.58,2.67,1.59,4.75-3.26-1.46-6.53-2.06-10.05-.66-1.86,.74-3.7,.22-4.8-1.63-.91-1.52-.87-3.14,.4-4.4,1.44-1.42,3.26-1.77,5.07-.65,2.4,1.48,4.99,2.33,7.8,2.59Z"/>
  <path class="cls-3" d="M37.31,62.48c1.45,.02,3.02-.3,3.95,1.28-2.91,1.52-4.13,3.8-4.07,7.12,.04,2.28-1.59,3.77-4.06,3.73-1.8-.03-2.98-1.11-3.42-2.85-.53-2.1,.4-3.53,2.32-4.36,2.36-1.03,4.68-2.07,5.28-4.91Z"/>
  <path class="cls-8" d="M45.5,38.16c3.35,.71,5.42,2.62,5.26,5.64-.16,3.04-2.35,4.97-5.59,4.76-3.18-.2-5.17-2.16-4.95-5.34,.22-3.12,2.48-4.64,5.27-5.06Z"/>
  <path class="cls-2" d="M56.32,55.08c-.4,2.53-1.72,4.1-4,4.15-2.22,.04-3.96-1.16-4.01-3.64-.05-2.39,1.33-3.83,3.71-3.92,2.41-.08,3.49,1.68,4.3,3.41Z"/>
  <path class="cls-4" d="M42.77,51.52c1.58,.21,2.63,1,2.45,2.64-.17,1.56-1.34,2.41-2.87,2.22-1.17-.15-2.09-1.02-2.12-2.3-.03-1.61,.92-2.44,2.53-2.56Z"/>
</svg>