<?xml version="1.0" encoding="UTF-8"?><svg id="Layer_2" xmlns="http://www.w3.org/2000/svg" width="96" height="96" viewBox="0 0 96 96"><defs><style>.cls-1{fill:#f45376;}.cls-2{fill:#3dd9b3;}.cls-3{fill:#f9c7d4;}.cls-4{fill:#f6c7d4;}.cls-5{fill:#ea0000;}.cls-6{fill:#f45477;}</style></defs><g id="Layer_1-2" width="96" height="96" viewBox="0 0 96 96"><g><path class="cls-5" d="M35.19,54.47c.13,2.29,.06,4.62,.42,6.87,.77,4.76-.82,7.04-5.86,6.11-7.97,2.37-15.95,2.37-23.92,0q-6.07-.21-5.68-9.94c.51-2.9,1.22-5.66,3.08-8.11,1.91-2.52,1.06-5.66,1.34-8.56,.4-4.3-1.28-8.84,1.46-12.86H26.69c-.9,4.5-4.36,7.57-6.35,11.46-1.2,2.33-2.98,4.34-4.23,6.66-2.48,4.61-1.58,9.48,2.2,12.38,3.63,2.79,9.53,2.25,13.09-1.18,1.14-1.1,1.82-2.84,3.8-2.83Z"/><path class="cls-2" d="M35.19,54.47c-1.02,1.26-1.98,2.59-3.09,3.78-3.73,4.04-9.93,4.72-14.27,1.62-4.44-3.16-6-9.13-3.06-13.95,3.73-6.13,7.93-11.97,11.92-17.94,6.83-3.08,11.37-2.61,15.18,1.56,3.25,3.56,3.8,8.78,1.22,13.16-1.15,1.96-2.59,3.76-3.86,5.65-1.37,2.02-2.7,4.07-4.04,6.11Z"/><path class="cls-1" d="M5.83,67.46c7.97,0,15.95,0,23.92,0-.04,4.11-.2,8.21-.06,12.31,.08,2.48-.59,3.52-3.28,3.44-5.74-.18-11.5-.18-17.24,0-2.69,.08-3.36-.96-3.28-3.44,.13-4.1-.03-8.21-.06-12.31Z"/><path class="cls-3" d="M27.49,13.8c-.56,6.13-3.43,9.45-8.69,10.05-4.48,.51-8.95-2.52-10.47-7.1-1.57-4.75,.8-9.13,6.71-12.43,1.69,6.39,6.98,8.04,12.44,9.48Z"/><path class="cls-6" d="M27.49,13.8c-8.19,.48-12.59-2.87-12.45-9.48,1.14-.06,2.37-.43,3.39-.11,3.03,.95,5.35,1.24,6.94-2.5,.75-1.77,3.24-2,5.24-1.04,1.73,.83,2.82,2.22,2.91,4.18,.1,2.4-1.14,4.52-3.33,4.76-3.14,.35-2.85,2.13-2.7,4.18Z"/><path class="cls-1" d="M6.01,27.98c-.03,2.12-.23,4.26-.05,6.37,.72,8.41,.04,16.43-5.82,23.17-.05-7.56-.12-15.13-.12-22.69,0-3.98,1.64-6.62,5.99-6.84Z"/><path class="cls-1" d="M49.26,7.93c.05-.98,.2-1.97,.12-2.93-.28-3.12,0-5.04,4.22-5,4.28,.05,3.74,2.4,3.71,5-.01,.98,.08,1.96,.13,2.94-.15,.2-.31,.39-.46,.59-2.15,1.07-4.36,.87-6.6,.37-.48-.19-.86-.51-1.12-.96Z"/><path class="cls-1" d="M49.26,16.12c-.98-.05-1.97-.21-2.94-.12-3.13,.28-5.04,0-5-4.22,.05-4.29,2.41-3.73,5-3.71,.98,0,1.96-.09,2.94-.13l.33,.33c1.51,2.11,1.12,4.39,.65,6.69-.19,.5-.52,.89-.98,1.16Z"/><path class="cls-1" d="M57.44,7.93c.98,.05,1.97,.21,2.93,.12,3.12-.28,5.05-.01,5,4.22-.05,4.28-2.39,3.75-5,3.72-.98-.01-1.96,.08-2.94,.13-.21-.19-.43-.37-.64-.56-1.06-2.48-1.29-4.93,.31-7.3l.32-.33Z"/><path class="cls-1" d="M57.45,16.12c-.05,.98-.21,1.97-.12,2.94,.28,3.12,0,5.05-4.22,5-4.29-.05-3.74-2.4-3.71-5,0-.98-.09-1.96-.13-2.94l.33-.33c2.51-1.61,5.02-1.61,7.53,0l.33,.33Z"/><path class="cls-4" d="M32.97,31.93c3.42,.12,6.53,3.37,6.48,6.76-.05,3.52-3.16,6.47-6.71,6.37-3.79-.11-6.35-2.82-6.29-6.67,.05-3.68,2.99-6.59,6.53-6.46Z"/><path class="cls-5" d="M57.12,15.79c-2.51,0-5.02,0-7.53,0,0-2.51,0-5.02,0-7.53,2.51,0,5.02,0,7.53,0,0,2.51,0,5.02,0,7.53Z"/></g></g></svg>