<?xml version="1.0" encoding="UTF-8"?>
<svg id="Layer_1" data-name="Layer 1" xmlns="http://www.w3.org/2000/svg" width="96" height="96" viewBox="0 0 96 96">
  <defs>
    <style>
      .cls-1 {
        fill: #f8b5cc;
      }

      .cls-2 {
        fill: #f7bacf;
      }

      .cls-3 {
        fill: #f8b0c8;
      }

      .cls-4 {
        fill: #f9acc6;
      }

      .cls-5 {
        fill: #f9abc5;
      }

      .cls-6 {
        fill: #fe80aa;
      }

      .cls-7 {
        fill: #fe80ab;
      }

      .cls-8 {
        fill: #f7b9ce;
      }

      .cls-9 {
        fill: #f7b8ce;
      }
    </style>
  </defs>
  <path class="cls-2" d="M46.52,48.69c0,10.52,.03,21.05,0,31.57-.02,6.82-3.3,9.45-10.07,8.16-18.95-3.59-27.28-14.46-25.37-33.87,1.29-13.11,5.16-25.33,14.23-35.43,3.34-3.72,7.08-6.79,11.7-8.7,5.62-2.33,9.46,.15,9.5,6.21,.06,10.69,.02,21.38,.02,32.06Z"/>
  <path class="cls-2" d="M50.47,49.13c0-10.69-.03-21.38,0-32.07,.02-6.66,4.01-9.33,9.99-6.42,13.52,6.58,19.86,18.68,23.42,32.37,2.13,8.21,3.34,16.69,1.28,25.27-3.33,13.87-16.54,20.25-28.6,20.26-4.44,0-6.13-3.13-6.11-7.35,.04-10.69,.01-21.38,.01-32.07Z"/>
  <path class="cls-6" d="M24.73,60.94c-11.05-1.36-10.53-7.62-9.5-15.12,.42-3.06,2.9-4.85,5.92-5.13,3.43-.32,6.01,1.46,7.56,4.47,1.49,2.91,2.94,5.64,6.95,4.92,1.18-.21,2.37-.43,2.57-1.83,.17-1.2-.79-1.66-1.75-2.03-2.78-1.06-5.42-2.64-4.48-6.02,1.02-3.67,4.03-3.12,6.9-2.17,.34,.11,.86-.3,2.09-.78-3.91-3.03-7.16-2.5-10.45-.18-4.59,3.23-7.96,1.77-8.72-3.78-.99-7.21,3.54-12.58,10.77-12.31,2.29,.09,1.93-1.08,2.04-2.33,.23-2.48,1.52-3.99,4.05-4.08,1.42-.05,3.34,1.28,2.38,2.12-3.55,3.11,.1,3.67,1.36,5.18,1.5,1.8,3.18,3.96,1.48,6.17-1.57,2.04-4.11,2.61-6.62,1.16-1.13-.66-2.36-1.24-3.3-2.12-1.96-1.85-3.77-2.37-6.05-.47-2.38,1.99-2.46,4.53-2.02,7.19,.23,1.41,1.2,1.24,2.2,.62,1.26-.78,2.5-1.58,3.83-2.21,2.84-1.35,5.74-1.37,8.55,.07,2.87,1.47,4.62,3.66,4.05,7.14-.6,3.66-3.62,2.55-5.99,2.93,.77,2,3.46,1.84,4,4.03,.59,2.41,.81,4.91-1.42,6.21-3.03,1.75-6.4,3.98-10.03,1.28-2.25-1.67-4.07-3.84-5.2-6.48-.65-1.51-1.75-2.35-3.47-2.2-1.78,.16-2.43,1.49-3.02,2.88-.99,2.34-.64,4.6,.82,6.55,1.5,2,3.65,2.8,6.12,2.07,3.24-.95,6.51-.79,9.76-.29,4.79,.73,7.69,3.63,8.36,8.4,.61,4.31-.47,7.94-5.45,9.18,1.19,2.4,3.91,4.15,1.82,6.82-1.95,2.5-4.69,3.44-7.83,3.17-7.72-.66-12.87-5.35-17.09-11.26-1.52-2.12-1.79-4.72,.47-6.72,2.28-2.02,4.21-.83,6,.97,.54,.54,1.23,.94,2.01,1.53,.69-2.35-.07-4.66,1.39-6.48,3.58-3,5.88-.82,8.07,1.97,.88,1.12,1.51,2.66,3.23,2.69,.74,.01,1.02-.75,.98-1.42-.13-2.07-1.31-3.36-3.29-3.69-3.32-.55-6.64-1.42-10.04-.59Z"/>
  <path class="cls-9" d="M24.73,60.94c3.56-1.82,7.39-1.16,10.99-.63,3.64,.54,4.31,3.74,3.76,6.88-.42,2.41-2.41,2.06-3.77,1.02-1.24-.95-2.18-2.42-2.98-3.81-1.66-2.88-3.9-3.73-6.95-2.42-.35-.35-.7-.7-1.05-1.04Z"/>
  <path class="cls-7" d="M61.31,55.13c-7.96-2.47-9-5.04-4.47-11.5-3.88-1.1-5.48-3.83-4.11-7.44,1.59-4.19,5.69-4.61,9.47-4.59,1.66,0,3.48,.73,4.93,1.99,.9,.78,1.6,2.65,3.08,1.8,1.68-.96,1.14-2.98,.93-4.53-.3-2.18-1.38-4.1-3.45-5.1-2.24-1.08-3.69,.46-5.11,1.88-1.43,1.42-3.08,2.44-5.14,2.66-2,.21-3.58-.53-4.53-2.3-.89-1.67-.24-3.06,.84-4.5,1.56-2.1,6.37-3.28,1.97-7.34-.94-.87,.67-2.56,2.63-2.11,3.93,.9,4.71,4.12,2,8.38-.25,.19-.51,.36-.76,.55,.27-.16,.53-.34,.77-.53,4.05-2.36,7.88-2.94,11.46,1,3.16,3.48,4.35,7.26,2.43,11.72-2.01,4.69-4.16,5.32-8.26,2.12-2.47-1.93-4.85-3.31-8.04-2.01-.81,.33-1.56,.71-1.33,1.73,.26,1.16,1.12,.85,1.94,.67,2.28-.5,4.77-1.2,5.64,1.98,.78,2.87-1.02,4.61-3.18,6.07-1.05,.71-3.75,.45-2.65,2.45,1.01,1.84,3.47,2.63,5.67,1.47,1.95-1.02,3.07-2.94,3.94-4.93,1.39-3.14,4.1-4.32,7.16-4.21,3.25,.12,5.2,2.27,6.32,5.35,2.05,5.63,.08,11.09-5.32,14.2-4.24,1.17-8.7-.05-12.94,1.24-.92,.28-1.93,.29-2.77,.85-1.15,.76-1.85,1.82-1.92,3.22-.04,.71,.21,1.36,1.02,1.34,1.32-.03,1.84-1.17,2.55-2.03,3.98-4.83,4.69-5.03,9.1-2.63,1.11,1.71,1.34,3.57,.3,5.7,1-.21,1.36-.2,1.61-.35,2.29-1.43,4.84-4.24,7.24-1.18,1.87,2.38,1.19,5.48-1.02,8.09-4.25,5-9.04,8.65-15.84,9.76-4.19,.69-6.85-.36-8.31-3.98-1.55-3.83,2.18-4.38,4.61-5.97-3.88-.2-6.73-1.4-7.28-5.46-.69-5.16,1.76-9.27,6.9-11.66,3.62-1.33,7.41-1.19,11.17-1.24,3.27-.05,5.34-1.43,5.79-4.78,.18-1.35,.04-2.75-1.34-3.43-1.57-.77-2.42,.42-3.18,1.52-.84,1.22-1.36,2.66-2.4,3.73-2.24,2.3-4.58,4.43-8.12,2.37Z"/>
  <path class="cls-8" d="M61.31,55.13c4.28,.2,7.06-1.84,8.8-5.68,.98-2.16,1.77-5.08,5.08-4.04,2.3,.72,3.12,3.04,2.74,5.19-.49,2.81-.92,6.2-4.84,6.36-4.56,.18-9.14,.02-13.71,0,.64-.61,1.28-1.22,1.92-1.84Z"/>
  <path class="cls-9" d="M71.18,62.02c-3.76-1.82-6.22-.31-7.95,3.09-1.04,2.05-1.89,4.48-4.97,3.57-1.47-.43-2.01-1.69-1.57-3.14,.8-2.67,1.43-5.57,5.17-5.55,4.76,.03,9.52,.03,14.27,.05-1.19,1.81-3.82,.04-4.96,1.98Z"/>
  <path class="cls-9" d="M23.84,73.8c3.39,.41,6.27-.07,7.14-4.37l3.59,3.95c-3.75,1.31-4.62,2.89-2.13,4.14,1.37,.69,3.35-.48,4.55,1.81-6.21,1.43-10.72-.74-14.29-5.49,.36-.44,.74-.45,1.14-.05Z"/>
  <path class="cls-5" d="M38.27,24.71c-1.45-.3-2.27-.97-2.25-2.59,1.44,.31,2.3,.95,2.25,2.59Z"/>
  <path class="cls-3" d="M23.84,73.8c-.38,.02-.76,.03-1.14,.05-.82-.71-1.64-1.42-3.11-2.69,2.67,.1,3.43,1.42,4.25,2.65Z"/>
  <path class="cls-9" d="M74.27,73.84c-3.63,4.68-8.23,7.17-14.8,6.71,1.25-2.67,4.05-1.41,5.12-3.08,1.93-3-1.82-2.24-2.46-3.77-.22-1.2,1.24-1.16,1.75-1.9,.55-.79,1.27-1.46,2.07-2.36,.94,4.13,3.73,4.83,7.2,4.34,.39-.4,.77-.38,1.13,.05Z"/>
  <path class="cls-4" d="M74.27,73.84c-.38-.02-.75-.03-1.13-.05,1.02-1.17,2.04-2.34,3.69-4.23-.09,2.72-1.3,3.52-2.57,4.28Z"/>
  <path class="cls-1" d="M60.35,22.43c-.6,1.37-1.58,2.29-3.17,2.89,.12-2.31,1.57-2.69,3.16-2.9h.01Z"/>
</svg>