<?xml version="1.0" encoding="UTF-8"?>
<svg id="Layer_1" data-name="Layer 1" xmlns="http://www.w3.org/2000/svg" width="96" height="96" viewBox="0 0 96 96">
  <defs>
    <style>
      .cls-1 {
        fill: #00abc0;
      }

      .cls-2 {
        fill: #364a52;
      }

      .cls-3 {
        fill: #fea945;
      }

      .cls-4 {
        fill: #fa930b;
      }

      .cls-5 {
        fill: #ced7db;
      }

      .cls-6 {
        fill: #374851;
      }

      .cls-7 {
        fill: #01abc0;
      }

      .cls-8 {
        fill: #814e1c;
      }

      .cls-9 {
        fill: #c2cbcf;
      }

      .cls-10 {
        fill: #26353b;
      }

      .cls-11 {
        fill: #01aabe;
      }

      .cls-12 {
        fill: #fa8f01;
      }

      .cls-13 {
        fill: #7c5747;
      }
    </style>
  </defs>
  <path class="cls-3" d="M37.64,60.39c-4.57-3.09-6.91-7.56-7.92-12.85-1.19-1.36-1.28-2.87-.67-4.5,2.53-2.52,.02-6.85,3.26-9.14,10.11-2.41,20.23-2.44,30.34-.04,3.38,2.23,.77,6.62,3.32,9.17,.63,1.63,.54,3.15-.65,4.51-.82,5.13-3.49,9.21-7.19,12.71-.27,.46-.59,.89-.94,1.29-7.68,4.51-14.9,4.08-19.53-1.15Z"/>
  <path class="cls-1" d="M63.28,35.17c-10.52-1.99-21.03-1.99-31.55,0-1.18,.99-2.37,1.86-3.84,.45-.65-4.47,.56-8.83,.9-13.23,.55-6.91,1.58-8.05,8.24-9.36,7.83-1.54,15.64-1.62,23.42,.48,3.14,.85,5.16,2.35,5.39,5.95,.33,5.39,1.81,10.69,1.27,16.15-1.46,1.41-2.65,.53-3.83-.45Z"/>
  <path class="cls-1" d="M53.32,92.91c-11.36,.03-22.71-.04-34.07,.14-3,.05-3.68-1.01-3.22-3.71,1.71-9.91,7.07-16.77,16.62-20.21,2.15,3.72,.28,7.17-.7,10.68-.56,.99-1.4,1.8-1.94,2.81-1.15,2.13-1.05,4.12,.85,5.75,1.7,1.46,3.6,1.54,5.39,.17,1.97-1.51,2.27-3.48,1.21-5.68-.5-1.04-1.32-1.86-1.94-2.83-1.91-4.15-1.11-7.97,1.36-11.6,3.01-1.07,3.56,1.63,4.58,3.22,2.01,3.13,3.26,6.75,6.01,9.94,2.55-2.74,3.71-5.99,5.47-8.86,1.17-1.91,1.62-4.88,4.98-4.46,3.55,5.92,3.48,9.34-.56,14.25-1.65,2-2.61,4.15-2.61,6.73-.05,1.39-.33,2.68-1.43,3.66Z"/>
  <path class="cls-12" d="M57.3,68.1c-3.14,5.33-6.28,10.65-9.76,16.55-3.42-5.77-6.62-11.16-9.82-16.56-2.18-2.18-1.03-4.48-.25-6.77,.06-.31,.11-.62,.17-.93,6.53,4.06,13.11,3.7,19.72,.2,1.32,2.51,2.16,5.03-.06,7.51Z"/>
  <path class="cls-7" d="M62.26,69.08c8.99,3.26,14.4,9.57,16.46,18.93,.8,3.64,.39,5.67-4,5.02-1.76-.26-3.58-.09-5.37-.12-1.1-.98-1.37-2.28-1.46-3.66-.21-3.08-1.78-5.46-3.57-7.9-2.67-3.65-4.28-7.7-2.07-12.27Z"/>
  <path class="cls-6" d="M62.26,69.08c.5,4.76,.18,9.67,4.69,13.19,1.91,1.49,2.33,4.23,2.16,6.78-1.03,.95-2.19,1.08-3.46,.59q-4.31-5.84-8.59,0c-1.28,.51-2.46,.37-3.49-.58-.32-2.42,.06-5.07,1.87-6.4,5.91-4.35,3.3-9.45,1.85-14.55,.02-2.5,.04-5.01,.06-7.51,.26-.09,.51-.2,.75-.33,1.38,2.94,2.77,5.88,4.15,8.82Z"/>
  <path class="cls-2" d="M37.47,61.32c.08,2.26,.17,4.51,.25,6.77-1.29,3.94-3.1,7.83-1.15,12.07,.08,1.52-.62,2.62-1.88,3.4-.67,.26-1.34,.26-2.02,.01-1.28-.77-1.98-1.87-1.89-3.41,1.41-3.54,1.37-7.33,1.88-11.03,1.51-2.66,2.16-5.85,4.8-7.82Z"/>
  <path class="cls-11" d="M57.27,89.06c.07-.49,.09-.99,.22-1.45,.59-2.06,1.13-4.48,3.85-4.33,3.5,.19,3.55,3.26,4.08,5.79,.95,1.35,.95,2.64-.23,3.85-2.56,0-5.12,0-7.68,0-1.18-1.22-1.19-2.51-.23-3.85Z"/>
  <path class="cls-13" d="M27.9,35.62c1.28-.15,2.56-.3,3.84-.45-.01,2.1-.05,4.2-.04,6.31,.01,1.62-.87,1.38-1.87,.94-1.27-.07-1.94-.78-2.12-2l.18-4.79Z"/>
  <path class="cls-13" d="M63.28,35.17c1.28,.15,2.56,.3,3.83,.45l.19,4.76c-.16,1.25-.84,1.96-2.12,2.03-1,.44-1.87,.67-1.86-.94,.01-2.1-.02-4.2-.03-6.3Z"/>
  <path class="cls-4" d="M27.71,40.41c.71,.67,1.41,1.34,2.12,2-.04,1.71-.08,3.42-.12,5.13-4.68-2.1-5.02-3.3-2-7.13Z"/>
  <path class="cls-4" d="M65.18,42.42c.71-.68,1.42-1.35,2.12-2.03,2.99,3.84,2.66,5.04-2,7.16-.04-1.71-.08-3.42-.12-5.13Z"/>
  <path class="cls-5" d="M57.27,89.06c.08,1.28,.16,2.57,.24,3.85-1.39,0-2.79,0-4.18,0,.08-1.29,.17-2.58,.25-3.87,1.23,0,2.46,0,3.7,.01Z"/>
  <path class="cls-5" d="M65.18,92.91c.08-1.28,.16-2.57,.23-3.85,1.23,0,2.47,0,3.7-.01,.08,1.29,.17,2.58,.25,3.86-1.39,0-2.79,0-4.18,0Z"/>
  <path class="cls-8" d="M41.41,43.67c-.26,1.14-.93,1.84-2.06,1.65-1.08-.18-1.73-1.01-1.49-2.12,.18-.81,.81-1.45,1.76-1.39,1.14,.07,1.72,.77,1.79,1.86Z"/>
  <path class="cls-8" d="M57.22,43.56c-.16,1.1-.74,1.81-1.91,1.77-.92-.03-1.53-.66-1.64-1.51-.14-1.12,.51-1.9,1.62-2.01,1.16-.11,1.75,.64,1.93,1.75Z"/>
  <path class="cls-10" d="M30.78,80.16l1.92,2.98c.64,1.55,1.29,1.59,1.94,0,.64-1,1.29-2,1.93-2.99,3.49,3.31,3.99,6.47,1.23,9.04-2.67,2.48-5.6,2.47-8.26,0-2.77-2.58-2.26-5.74,1.25-9.03Z"/>
  <path class="cls-9" d="M34.64,83.15c.74,1.1,1.58,2.21,.13,3.39-.72,.58-1.49,.58-2.21,0-1.45-1.18-.61-2.29,.14-3.39h1.94Z"/>
</svg>