<?xml version="1.0" encoding="UTF-8"?>
<svg id="Layer_1" data-name="Layer 1" xmlns="http://www.w3.org/2000/svg" width="96" height="96" viewBox="0 0 96 96">
  <defs>
    <style>
      .cls-1 {
        fill: #40646f;
      }

      .cls-2 {
        fill: #455a64;
      }

      .cls-3 {
        fill: #00e4fe;
      }
    </style>
  </defs>
  <path class="cls-2" d="M47.52,85.08c-8.71,0-17.43,.05-26.14-.01-6.47-.04-9.41-2.89-9.43-9.28-.06-17.59-.06-35.19,0-52.78,.02-6.1,3-9.04,9.14-9.06,17.59-.06,35.19-.06,52.78,0,6.15,.02,9.16,2.96,9.18,9.02,.07,17.76,.07,35.52,0,53.27-.03,5.78-3.08,8.75-8.9,8.81-8.88,.09-17.76,.02-26.64,.02Z"/>
  <path class="cls-3" d="M45.53,53.2c0-7.64,0-7.47-7.87-7.77-1.93-.07-5.81,2.16-5.72-2,.07-3.38,3.59-1.44,5.54-1.76,1.93-.31,3.94-.09,5.92-.08,1.36,.01,2.13-.45,2.12-1.99,0-1.57-.84-1.95-2.17-1.94-3.29,.01-6.59,.09-9.88-.05-1.4-.06-3.57,.95-3.7-1.83-.13-2.83,2.04-2,3.49-2.05,3.13-.1,6.26,0,9.39-.05,1.24-.02,2.73,.35,2.86-1.72,.15-2.3-1.35-2.22-2.89-2.21-2.14,0-4.28-.02-6.42,0-1.46,.01-2.59-.18-2.51-2.11,.07-1.61,1.01-1.75,2.27-1.85,3.73-.32,7.91-1.4,11.02-1.26,4.13,.18,8.66,.94,13.04,1.37,1.38,.14,1.26,1.25,1.28,2.22,.02,1.35-.89,1.6-1.96,1.61-2.47,.02-4.94,.06-7.41,.02-1.55-.02-2.52,.35-2.42,2.19,.08,1.66,1.13,1.75,2.35,1.75,3.46,0,6.92-.02,10.38,.02,1.41,.02,3.12-.38,3.04,2.04-.07,2.43-1.85,1.85-3.2,1.88-3.29,.07-6.59,.02-9.88,.03-1.33,0-2.66-.1-2.69,1.91-.04,1.98,1.19,2.03,2.58,2.03,2.96,0,5.93,.01,8.89,.01,1.24,0,2.24,.14,2.32,1.78,.09,1.87-.94,2.23-2.45,2.15-.33-.02-.66-.03-.99,0-3.37,.36-8.5-1.61-9.73,.93-1.68,3.49-.55,8.34-.64,12.61-.04,1.76,.96,1.78,2.25,1.44,1.43-.37,2.85-.86,4.3-1.04,2.21-.26,3.78,.87,4.78,2.8,.98,1.89,.5,3.66-1.04,4.89-3.08,2.46-6.28,4.78-9.5,7.05-1.78,1.25-3.74,1.25-5.55-.02-3.1-2.17-6.2-4.34-9.2-6.64-1.71-1.32-2.41-3.15-1.36-5.25,.96-1.93,2.53-2.97,4.77-2.85q6.59,.34,6.59-6.27Z"/>
  <path class="cls-3" d="M39.69,49.41c1.75,.36,4.02-.66,3.79,2.13-.27,3.37-2.97,1.56-4.57,1.83-1.23,.21-3.18,.69-3.21-1.72-.04-3.67,2.96-1.29,3.99-2.25Z"/>
  <path class="cls-3" d="M55.18,49.38c1.66,.56,4.25-.97,4.11,2.21-.14,3.06-2.63,1.71-4.11,1.79-1.35,.07-3.55,1.01-3.67-1.75-.14-3.28,2.53-1.52,3.67-2.25Z"/>
  <path class="cls-1" d="M42.48,65.22c-.27,1.55-1.22,2.2-2.71,2.14-1.52-.05-2.49-.96-2.56-2.37-.07-1.43,.87-2.5,2.38-2.44,1.57,.07,2.68,.95,2.88,2.66Z"/>
  <path class="cls-1" d="M54.83,67.39c-1.45-.22-2.49-.98-2.22-2.52,.28-1.62,1.55-2.43,3.16-2.29,1.26,.12,2.09,1.1,2,2.32-.12,1.65-1.19,2.55-2.94,2.49Z"/>
</svg>