<svg xmlns="http://www.w3.org/2000/svg" version="1.0" width="512.000000" height="512.000000" preserveAspectRatio="xMidYMid meet" style=""><rect id="backgroundrect" width="100%" height="100%" x="0" y="0" fill="none" stroke="none"/>


<g class="currentLayer" style=""><title>Layer 1</title><g transform="translate(0,512) scale(0.10000000149011612,-0.10000000149011612) " fill="#000000" stroke="none" id="svg_1" class="">
<path d="M628.3333320617676,5218.666656494141 c-35,-11 -67,-33 -106,-72 c-89,-88 -89,-90 -89,-517 c0,-350 1,-364 20,-383 c27,-27 81,-26 106,1 c18,20 19,45 24,384 c5,348 6,365 26,392 c11,15 36,36 55,45 c32,17 133,18 1677,18 l1642,0 l0,-2287 c0,-1371 4,-2314 10,-2353 c5,-36 22,-90 39,-123 l30,-57 l-1657,2 l-1657,3 l-40,22 c-51,27 -79,57 -104,113 c-20,45 -21,55 -21,1792 c0,1284 -3,1754 -11,1772 c-24,52 -121,48 -134,-6 c-3,-13 -4,-820 -3,-1793 l3,-1770 l33,-67 c40,-82 119,-157 200,-190 l57,-23 l1845,-3 c1662,-2 1850,-1 1900,14 c109,31 194,105 248,214 l27,55 l3,2090 c3,2378 12,2147 -87,2246 c-58,58 -123,89 -186,89 l-32,0 l-5,64 c-11,129 -95,249 -217,309 l-66,32 l-1740,2 c-1594,2 -1744,1 -1790,-15 zm3608,-222 c19,-23 40,-61 46,-85 c8,-31 11,-418 11,-1303 c0,-1252 0,-1258 20,-1280 c12,-12 30,-22 40,-22 c19,0 20,-7 20,-110 c0,-96 -2,-110 -17,-110 c-9,0 -27,-10 -40,-22 l-23,-21 l0,-749 c0,-461 4,-756 10,-767 c5,-10 22,-24 38,-30 c28,-12 29,-14 21,-56 c-10,-52 -39,-113 -66,-138 c-19,-16 -21,-16 -60,12 c-24,18 -51,50 -67,82 l-26,53 l0,2308 l0,2309 l29,-15 c16,-9 45,-34 64,-56 z" id="svg_2"/>
<path d="M859.3333320617676,4645.666656494141 l-26,-20 l0,-379 l0,-379 l26,-20 c15,-12 33,-21 40,-21 c22,0 63,22 71,39 c4,9 10,119 13,244 l5,228 l163,-235 c89,-129 172,-242 185,-251 c33,-23 65,-18 99,16 l31,30 l-5,360 c-6,358 -6,361 -29,385 c-27,29 -68,31 -100,5 l-24,-19 l3,-241 c1,-133 0,-241 -2,-241 c-3,0 -80,109 -172,243 c-91,133 -175,250 -186,260 c-27,23 -59,22 -92,-4 z" id="svg_3"/>
<path d="M1676.3333320617676,4642.666656494141 l-28,-24 l0,-371 l0,-370 l23,-23 c21,-21 33,-23 163,-26 c77,-2 156,-1 175,3 c69,12 96,76 55,126 c-18,22 -27,24 -140,28 l-121,3 l0,94 l0,94 l110,0 c99,0 111,2 130,22 c25,27 26,69 1,99 c-18,22 -28,24 -130,27 l-111,4 l0,94 l0,94 l118,0 c111,0 120,1 140,23 c29,31 28,72 -3,102 c-24,25 -27,25 -189,25 c-160,0 -166,-1 -193,-24 z" id="svg_4"/>
<path d="M2215.3333320617676,4643.666656494141 c-12,-13 -22,-33 -22,-45 c0,-33 129,-682 142,-715 c11,-30 54,-57 87,-57 c12,0 34,12 50,28 c24,22 40,64 97,250 c37,122 71,217 75,210 c4,-7 37,-110 73,-228 c41,-133 73,-222 86,-234 c13,-14 33,-21 60,-21 c75,0 76,4 156,403 c74,370 76,388 36,418 c-22,17 -62,17 -85,0 c-24,-18 -31,-43 -72,-256 c-20,-102 -39,-193 -43,-204 c-6,-13 -28,49 -76,205 c-71,235 -89,269 -137,269 c-52,0 -65,-24 -135,-250 c-36,-118 -70,-221 -74,-229 c-4,-8 -26,83 -51,210 c-35,183 -48,228 -66,247 c-29,29 -73,29 -101,-1 z" id="svg_5"/>
<path d="M3352.3333320617676,4653.666656494141 c-106,-40 -169,-119 -169,-214 c0,-65 10,-92 55,-141 c28,-31 59,-49 143,-83 c153,-60 180,-75 197,-109 c13,-26 14,-35 3,-57 c-24,-48 -63,-68 -131,-67 c-66,1 -106,16 -168,65 c-44,34 -90,38 -119,9 c-27,-27 -25,-72 4,-107 c52,-62 194,-123 285,-123 c152,0 285,117 285,250 c0,116 -65,185 -243,255 c-146,59 -161,68 -161,103 c0,44 40,75 102,80 c46,3 62,-1 122,-32 c80,-42 105,-44 134,-13 c51,54 17,113 -93,163 c-71,33 -188,43 -246,21 z" id="svg_6"/>
<path d="M959.3333320617676,3541.6666564941406 c-47,-17 -94,-59 -112,-102 c-20,-47 -20,-808 0,-856 c17,-43 76,-93 123,-106 c53,-15 2613,-15 2666,0 c47,13 106,63 123,106 c20,47 20,809 0,856 c-17,43 -76,93 -123,106 c-26,7 -460,11 -1338,11 c-1078,-1 -1307,-3 -1339,-15 zm2024,-530 l0,-385 l-994,0 c-897,0 -994,2 -1000,16 c-8,20 -8,718 0,738 c6,14 103,16 1000,16 l994,0 l0,-385 zm394,363 c8,-30 8,-696 0,-725 c-6,-22 -11,-23 -120,-23 l-114,0 l0,385 l0,385 l114,0 c109,0 114,-1 120,-22 z" id="svg_7"/>
<path d="M938.3333320617676,2249.6666564941406 c-44,-23 -65,-44 -86,-85 c-18,-35 -19,-66 -19,-535 c0,-559 -3,-535 74,-598 l38,-30 l398,0 l398,0 l38,30 c77,63 74,39 74,598 c0,469 -1,500 -19,535 c-22,42 -43,63 -88,86 c-28,14 -80,16 -405,16 c-321,-1 -377,-3 -403,-17 zm753,-145 c17,-17 17,-929 0,-946 c-17,-17 -679,-17 -696,0 c-17,17 -17,929 0,946 c17,17 679,17 696,0 z" id="svg_8"/>
<path d="M2115.3333320617676,2243.6666564941406 c-27,-29 -28,-67 -3,-98 l19,-24 l795,-3 c792,-2 794,-2 820,19 c34,26 37,79 7,109 c-20,20 -33,20 -818,20 l-799,0 l-21,-23 z" id="svg_9"/>
<path d="M2136.3333320617676,1886.6666564941406 c-46,-19 -57,-83 -20,-118 c22,-21 33,-22 188,-22 c160,0 166,1 187,23 c27,29 28,67 3,98 c-19,23 -24,24 -178,26 c-87,1 -168,-2 -180,-7 z" id="svg_10"/>
<path d="M2776.3333320617676,1886.6666564941406 c-45,-18 -55,-72 -22,-114 l20,-26 l480,0 c466,0 480,1 499,20 c30,30 27,83 -6,109 c-26,21 -36,21 -488,20 c-253,0 -471,-4 -483,-9 z" id="svg_11"/>
<path d="M2114.3333320617676,1490.6666564941406 c-28,-35 -26,-69 4,-99 l24,-25 l789,0 c783,0 790,0 816,21 c33,26 36,79 6,109 c-20,20 -33,20 -819,20 l-800,0 l-20,-26 z" id="svg_12"/>
<path d="M2136.3333320617676,1136.6666564941406 c-46,-19 -57,-83 -20,-118 l23,-22 l797,0 c784,0 797,0 817,20 c30,30 27,83 -6,109 c-27,21 -32,21 -808,20 c-429,0 -791,-4 -803,-9 z" id="svg_13"/>
</g><rect fill="#0bd50b" stroke="#000000" stroke-dashoffset="" fill-rule="nonzero" id="svg_14" x="95.50001136279779" y="166.83333331346512" width="269.1666606440191" height="87" style="color: rgb(0, 0, 0);" class="selected"/><rect fill="#484848" stroke="#000000" stroke-dashoffset="" fill-rule="nonzero" id="svg_18" x="92" y="296" width="84" height="105" style="color: rgb(74, 144, 214);" class="" fill-opacity="1"/></g></svg>