<?xml version="1.0" encoding="UTF-8"?><svg id="Layer_2" xmlns="http://www.w3.org/2000/svg" viewBox="0 0 90.63 84.99"><defs><style>.cls-1{fill:#9ccb65;}.cls-2{fill:#7e8e99;}.cls-3{fill:#e8a438;}.cls-4{fill:#5a94ee;}.cls-5{fill:#e8a337;}</style></defs><g id="Layer_1-2"><g><path class="cls-2" d="M71.27,84.98c-4.98,0-9.97,.03-14.95,0-3.91-.03-5.49-2.13-3.55-5.5,4.02-6.98,10.32-10.38,18.52-10.39,8.21,0,14.49,3.45,18.52,10.41,1.94,3.35,.35,5.45-3.57,5.48-4.98,.04-9.97,0-14.95,0Z"/><path class="cls-2" d="M19.35,84.98c-4.98,0-9.97,.03-14.95,0-3.92-.03-5.53-2.14-3.56-5.48,4.05-6.89,10.28-10.44,18.51-10.42,8.2,.02,14.49,3.44,18.51,10.41,1.94,3.37,.36,5.46-3.55,5.49-4.98,.04-9.97,0-14.95,0Z"/><path class="cls-1" d="M45.16,37.53c-4.65,0-9.3,.07-13.95-.04-1.55-.04-3.74,.89-4.54-.85-.89-1.94-.4-4.07,.91-6.05,4.63-6.97,14.26-10.62,22.8-8.44,5.33,1.36,9.71,4.07,12.82,8.7,1.22,1.82,1.52,3.81,.81,5.62-.77,1.98-2.91,.97-4.42,1.01-4.81,.12-9.63,.04-14.44,.04Z"/><path class="cls-4" d="M80.18,38.1c0,.98,.17,2-.04,2.94-.34,1.57,.16,4.55-2.14,3.97-2.12-.54-6.1,.08-5.83-4.41,.63-10.6-4.33-18.29-13.41-23.41-4.21-2.37-.84-4.99-.28-7.05,.79-2.88,3-.53,4.21,.15,10.89,6.11,16.91,15.32,17.49,27.81Z"/><path class="cls-4" d="M10.4,38.13c.58-12.73,6.89-21.92,17.94-28.05,1.06-.59,3.34-2.8,3.76,.03,.32,2.16,4.13,4.79-.22,7.07-4.79,2.5-8.55,6.16-10.96,11.04-1.69,3.43-3.16,7.09-2.44,10.86,.97,5.07-3.01,5.76-5.78,5.9-3.15,.16-1.79-3.41-2.29-5.38-.12-.46-.02-.98-.02-1.47Z"/><path class="cls-5" d="M19.26,47.42c5.3,0,9.05,3.71,9.08,8.95,.03,5.14-3.88,8.91-9.14,8.84-5.01-.07-8.75-3.76-8.83-8.69-.08-5.21,3.72-9.1,8.89-9.09Z"/><path class="cls-3" d="M54.28,9.1c-.07,4.75-4.2,8.68-9.06,8.63-4.86-.05-8.91-4.06-8.88-8.81C36.38,3.91,40.65-.18,45.65,0c4.8,.18,8.7,4.29,8.63,9.09Z"/><path class="cls-3" d="M71.19,47.43c4.81-.09,8.94,3.86,9.05,8.64,.11,4.77-3.81,8.88-8.64,9.1-4.85,.21-9.1-3.63-9.29-8.38-.19-5,3.85-9.26,8.88-9.36Z"/><path class="cls-4" d="M44.86,71.13c-4.04,.14-7.91-.81-11.69-2.06-5.8-1.91-5.62-1.87-2.46-6.81,1.22-1.92,2.17-1.81,3.94-1.11,7.08,2.8,14.31,2.94,21.31-.04,4.67-1.99,4.39,2.51,5.66,4.18,1.86,2.44-1.39,2.57-2.73,3.14-4.46,1.9-9.15,2.87-14.04,2.69Z"/></g></g></svg>