<?xml version="1.0" encoding="UTF-8"?><svg id="Layer_1" xmlns="http://www.w3.org/2000/svg" viewBox="0 0 96 96"><defs><style>.cls-1{fill:#d9a979;}.cls-2{fill:#a55745;}.cls-3{fill:#e5a06d;}.cls-4{fill:#ee9438;}.cls-5{fill:#c1684f;}.cls-6{fill:#e59958;}.cls-7{fill:#e68a33;}.cls-8{fill:#a45644;}.cls-9{fill:#63dbdb;}.cls-10{fill:#eea256;}.cls-11{fill:#58d8d8;}.cls-12{fill:#de812f;}.cls-13{fill:#c26b52;}.cls-14{fill:#c16a52;}.cls-15{fill:#e1822e;}.cls-16{fill:#dcb99e;}.cls-17{fill:#c1674f;}.cls-18{fill:#c36c53;}.cls-19{fill:#ee983f;}.cls-20{fill:#c79982;}.cls-21{fill:#ba644e;}</style></defs><path class="cls-1" d="M82.63,70.43c.23,.48,.23,.97,.01,1.46-3.65,3.19-8.1,1.9-12.22,1.99-4.38,.09-6.12,1.57-4.34,5.92,.76,3.76,3.24,5.03,6.85,5.1,3.32,.07,6.89-.58,9.66,2.12v1.47c-2.6,2.36-5.84,2-8.94,2.03-3.55,.03-6.69,.82-9.01,3.73l-25.71-.1c-.74-1.27-.65-2.41,.49-3.4,4.25-2.25,8.49-1.05,12.81-.12,2.45,.52,5.01-.13,7.53,.08-3.05,.06-6.08,.43-9.08-.64-3.48-6.88-.71-14.63-3.03-21.67,.8-1.92,2.62-2.8,4.25-2.29,8.99,2.8,18.32,1.57,27.44,2.64,1.26,.15,2.29,.93,3.28,1.7Z"/><path class="cls-5" d="M82.54,53.96v7.47c-1.53,1.43-3.42,2.01-5.47,2.03-14.21,.13-28.43,.27-42.64-.09-1.51-.04-2.95-.5-4.19-1.44-2.3-2.72-2.28-5.49-.19-8.3,1.83-1.52,4.06-1.71,6.29-1.73,13.09-.13,26.19-.09,39.28-.03,2.5,.01,4.96,.23,6.91,2.09Z"/><path class="cls-4" d="M82.63,70.43c-10.24-.61-20.77,2.08-30.66-2.8-1.28-.63-2.95-.12-3.94,1.29-5.71,5.34-11.99,4.41-18.45,1.69-1.58-2.84-1.78-5.57,.64-8.09,17.45-.21,34.9-1.08,52.33,.45,.02,2.49,.05,4.98,.07,7.46Z"/><path class="cls-14" d="M58.67,10.49l4.32,3.2c3.3,.67,5.35,2.53,5.72,5.99,5.85,6.31,11.79,12.55,17.51,18.98,1.85,2.08,5.89,3.73,4.42,6.88-1.11,2.37-4.99,.73-7.59,1.19-1.39,.72-2.8,1.27-4.4,.75-9.11-10.58-17.89-21.38-22.43-34.91,.41-1.17,1.22-1.87,2.45-2.07Z"/><path class="cls-2" d="M18.16,46.63c-2.29-.45-5.57,1.3-6.66-1.49-.89-2.28,2.05-3.68,3.59-5.14,10.44-9.92,20.97-19.74,31.46-29.6,1.56,.58,2.2,1.73,2.07,3.35-7.16,12.07-15.94,22.91-25.41,33.22-.98,.52-2.03,.72-3.13,.61-.7-.19-1.34-.52-1.93-.95Z"/><path class="cls-7" d="M18.16,46.63c.48-.11,.96-.11,1.44-.02,1.93,2.08,2.03,4.67,2.03,7.29,.12,2.53,.09,5.06,.03,7.59,.09,3.23,.07,6.46-.02,9.68-.73,7.63,4.8,6.06,9.17,6.2,2.93-.04,5.86-.18,8.44,1.59,2.3,7.35,1.85,8.11-6.29,10.58-.73,.24-1.5,.4-2.26,.51-4.17,.14-8.35,.3-11.4,3.84-1.88-12.01-.29-24.11-.83-36.15-.17-3.7-.22-7.41-.32-11.12Z"/><path class="cls-4" d="M82.58,47.95l-.05,4.48c-17.41,1.49-34.84,.67-52.27,.43-1.61-1.73-1.53-3.53-.24-5.39,1.02-.76,2.16-1.37,3.43-1.35,16.39,.23,32.88-2.2,49.13,1.82Z"/><path class="cls-11" d="M68.72,19.68c-2.37-1.55-4.44-3.39-5.72-5.99,1.99-3.79,6.79-3.66,9.4-6.87,1.38-1.69,4.5-.63,5,1.25,1.04,3.89,8.23,3.53,6.09,9-1.09,2.79-4.06,2.36-6.56,2.39-2.74,.04-5.47,.14-8.21,.22Z"/><path class="cls-18" d="M64.59,79.5q-3.74-7.57,4.06-7.64c4.66-.03,9.33,.02,13.99,.04-.03,2.52-.07,5.04-.1,7.57-5.98,3.4-11.96,3.34-17.95,.04Z"/><path class="cls-4" d="M64.59,79.5c5.98-.01,11.97-.03,17.95-.04,.02,2.52,.04,5.04,.06,7.56-3.42,0-6.88-.31-10.25,.08-5.96,.69-8.83-1.33-7.75-7.6Z"/><path class="cls-9" d="M15.38,28.25c-3-.4-7.43,.56-7.37-3.9,.05-3.77,4.6-5.65,7.44-5.83,3.1-.19,6.56,3.27,6.75,6.37,.26,4.26-4.11,2.89-6.81,3.35Z"/><path class="cls-5" d="M64.64,94.24c-.74-4.44,1.09-6.19,5.59-5.87,4.1,.3,8.23,.09,12.35,.11,.95,4.35-.24,6.56-5.24,6.05-4.2-.43-8.47-.22-12.71-.29Z"/><path class="cls-6" d="M82.58,47.95l-52.48-.04c-.45-.95-.24-1.71,.63-2.3,7.68-2.72,15.64-.93,23.46-1.36,3.69-.2,7.39-.31,11.09-.44,4.29,.44,8.74,.06,12.66,2.45,1.71,.16,3.42,.31,5.13,.47-.05,.45-.21,.86-.48,1.22Z"/><path class="cls-10" d="M30.11,52.48c17.47-.02,34.95-.04,52.42-.06,0,.51,0,1.02,0,1.53-17.5,.02-34.99,.03-52.49,.05l-.36-.77,.43-.74Z"/><path class="cls-3" d="M82.55,62.97c-17.48-.02-34.96-.04-52.45-.06l-.42-.73,.37-.76c17.5,0,35,0,52.5,.01,0,.51,0,1.03,0,1.54Z"/><path class="cls-19" d="M48.12,13.4c-.52-1-1.04-2-1.56-3q6.22-7.58,12.11,.08c-.55,.53-1.11,1.05-1.67,1.58-.66,.94-1.16,2.03-2.34,2.5-2.37,.66-4.66,.85-6.55-1.16Z"/><path class="cls-8" d="M19.31,93.91c.06-8.75,6.65-4.48,10.67-5.34,1.67,1.87,1.7,3.76,.06,5.66-3.59,.23-7.18,.69-10.73-.32Z"/><path class="cls-13" d="M30.04,94.22c-.02-1.89-.04-3.77-.06-5.66,.55-.03,1.1-.06,1.65-.09,2.75-.91,5.49-1.72,7.95,.69,.25,.86,.08,1.62-.51,2.3-.04,.89-.09,1.78-.13,2.68-2.97,.03-5.93,.05-8.9,.08Z"/><path class="cls-20" d="M39.06,89.95c-2.09-2.46-4.91-1.24-7.44-1.47,4.2-1.55,9.33-2.35,7.21-8.97-.53-4.02-2.18-6.8-6.89-6.16-.66-.19-1.26-.5-1.8-.93-.42-.62-.39-1.23,.02-1.84,5.99-.17,12.06,.58,17.86-1.66,3.57,.48,3.02,3.23,3.04,5.6,.03,5.13,0,10.25,0,15.38-4,1.29-8,1.21-12.01,.04Z"/><path class="cls-16" d="M39.06,89.95c4-.01,8.01-.03,12.01-.04,3.41,0,6.82,0,10.22,0l.02,1.56c-7.41,0-14.83,0-22.24,0,0-.51,0-1.01,0-1.52Z"/><path class="cls-8" d="M19.8,61.49l-.02-7.56c3.42-2.71,6.87-2.48,10.32-.07l-.06,.13c0,2.47,0,4.94,0,7.41l.02,.1c-3.43,2.41-6.85,2.65-10.27-.02Z"/><path class="cls-12" d="M19.8,61.49c3.43,0,6.85,.01,10.28,.02-.02,.47-.01,.93,.03,1.39,.02,2.56,.04,5.11,.06,7.67-.03,.43-.04,.86-.04,1.29-3.49,2.85-6.95,2.72-10.38-.09l.05-10.28Z"/><path class="cls-8" d="M55.54,13.36c.49-.43,.98-.86,1.47-1.29,3.27,9.31,10.23,16.35,15.1,24.67,1.88,3.21,3.88,6.35,5.82,9.52-3.99-.26-8.18,1.5-11.94-1.16-6.5-5.86-6.27-14.64-9.4-21.96-1.27-2.99-3.29-6.26-1.06-9.78Z"/><path class="cls-21" d="M55.54,13.36c3.49,10.58,6.97,21.16,10.46,31.74-11.89,2.79-23.96,.7-35.93,1.39-2.56,1.86-5.1,2.23-7.57-.16,8.54-10.98,17.08-21.96,25.62-32.93,2.47-.02,4.95-.03,7.42-.05Z"/><path class="cls-15" d="M22.5,46.33c2.52,.05,5.05,.1,7.57,.16,0,.47,0,.95,.03,1.42,0,1.52,0,3.05,0,4.57-.02,.46-.02,.92,0,1.39-3.44,.02-6.88,.04-10.32,.07-.06-2.44-.12-4.88-.18-7.32,.97-.09,1.93-.19,2.9-.28Z"/><path class="cls-8" d="M19.75,71.78c3.46,.03,6.92,.06,10.38,.09l-.02,.04c1.9,2.5,1.98,4.98-.09,7.43-5.22-.08-12.36,2.46-10.27-7.56Z"/><path class="cls-17" d="M30.02,79.34c.03-2.48,.06-4.95,.09-7.43,3.41,0,6.81,0,10.74,0-.74,2.78-1.38,5.19-2.02,7.59-2.94-.05-5.88-.11-8.81-.16Z"/></svg>