<?xml version="1.0" encoding="UTF-8"?><svg id="Layer_2" xmlns="http://www.w3.org/2000/svg" viewBox="0 0 59.46 89.02"><defs><style>.cls-1{fill:#3dd8ea;}.cls-2{fill:#f45376;}.cls-3{fill:#fde9ee;}.cls-4{fill:#f8da01;}.cls-5{fill:#00b2d6;}.cls-6{fill:#ea7901;}</style></defs><g id="Layer_1-2"><g><path class="cls-2" d="M47.68,79.14c-.06,3.29-.11,6.59-.17,9.88h-.99c-2.64-1.08-5.27-1.08-7.91,0h-.99l-.17-9.88c-.69-1-.72-2.01-.04-3.03,3.43-.6,6.85-.58,10.29-.02,.69,1.02,.66,2.04-.03,3.05Z"/><path class="cls-3" d="M38.62,89.02c2.64-2.34,5.27-2.34,7.91,0h-7.91Z"/><path class="cls-1" d="M37.74,76.31c-.09,.94-.18,1.89-.27,2.83-11.19,0-22.38-.1-33.57,.07-3.03,.05-3.91-.84-3.89-3.88C.13,51.46,.14,27.61,0,3.75-.02,.5,1.23,0,4.04,.02,21.16,.13,38.27,.16,55.38,0c3.34-.03,4.07,1.1,4.06,4.22-.11,23.36-.15,46.73,.03,70.09,.03,3.85-.93,5.39-4.88,4.88-2.27-.29-4.6-.05-6.9-.05-.09-.94-.18-1.89-.27-2.83-.26-.42-.31-.86-.12-1.33,5.46-5.5,6.27-10.09,2.57-14.6-3.48-4.25-9.42-4.72-13.56-1.07-3.98,3.5-4.36,9.16-.87,13.23,.75,.87,1.77,1.47,2.43,2.44,.19,.47,.15,.91-.13,1.33Z"/><path class="cls-6" d="M47.67,75.65c.04,.27-.05,.48-.26,.65-3.22,1.27-6.45,1.27-9.67,0-.21-.17-.3-.38-.26-.65-.87-1.9-1.31-3.88,.91-5.04,2.71-1.42,5.66-1.42,8.37,0,2.22,1.16,1.79,3.14,.91,5.04Z"/><path class="cls-4" d="M47.67,75.65c.55-4.28-2.05-4.4-5.34-4.53-3.53-.13-5.22,.89-4.85,4.53-4.95-3.31-6.78-7.58-5.31-12.38,1.47-4.79,5.76-7.95,10.64-7.84,4.72,.11,8.71,3.19,10.15,7.83,1.48,4.79-.36,9.1-5.29,12.37Z"/><path class="cls-5" d="M29.48,23.79c-4.6,0-9.21-.16-13.8,.06-3.22,.15-3.84-1.33-3.8-4.13,.03-2.58,.58-3.92,3.55-3.88,9.53,.14,19.07,.14,28.6,0,2.98-.04,3.52,1.29,3.56,3.88,.04,2.8-.58,4.28-3.8,4.13-4.76-.22-9.53-.06-14.3-.06Z"/><path class="cls-5" d="M29.94,31.7c4.6,0,9.21,.16,13.81-.06,3.18-.15,3.9,1.25,3.84,4.09-.05,2.54-.49,3.96-3.52,3.91-9.53-.14-19.07-.14-28.6,0-2.93,.04-3.58-1.21-3.59-3.84-.01-2.76,.51-4.32,3.77-4.17,4.76,.22,9.53,.06,14.3,.06Z"/><path class="cls-5" d="M20.75,55.42c-1.64,0-3.3-.14-4.92,.03-3.03,.31-4-.95-3.98-3.94,.02-2.87,.76-4.26,3.89-4.04,3.1,.21,6.24,.19,9.35,0,3.13-.19,4.79,.43,4.75,4.2-.03,3.72-1.93,3.93-4.66,3.77-1.47-.09-2.95-.02-4.43-.02Z"/></g></g></svg>