<?xml version="1.0" encoding="UTF-8"?>
<svg id="Layer_1" data-name="Layer 1" xmlns="http://www.w3.org/2000/svg" width="96" height="99.21" viewBox="0 0 96 99.21">
  <defs>
    <style>
      .cls-1 {
        fill: #78909b;
      }

      .cls-2 {
        fill: #37474f;
      }

      .cls-3 {
        fill: #f9b40f;
      }

      .cls-4 {
        fill: #fecb33;
      }

      .cls-5 {
        fill: #feb509;
      }
    </style>
  </defs>
  <path class="cls-1" d="M24.45,45.09l-8.16-3.89c-.6-3.76,2.57-3.1,4.43-3.47,7.3-1.44,14.69-2.44,22.01-3.76-10.33,1.7-20.75,2.89-30.97,5.2-1.27-.55-2.54-1.08-3.79-1.64-3.46-1.55-3.78-3.25-.11-4.89,12.38-5.5,24.77-10.99,37.2-16.39,2.45-1.07,4.91-.45,7.33,.64,12.78,5.75,25.58,11.42,38.38,17.12v2.77c-6.81,1.94-13.02,5.28-19.37,8.3-6.16,5.84-14.31,7.69-21.8,10.85-1.03,.44-2.36,.47-3.36,0-7.37-3.39-15.62-5.05-21.78-10.87Z"/>
  <path class="cls-2" d="M24.45,45.09c5.9,2.5,11.94,4.71,17.64,7.59,4.1,2.07,7.55,2.06,11.65,0,5.71-2.88,11.75-5.08,17.65-7.58,1.64,6.25,2.59,12.6,3.05,19.04,.23,3.21-.29,5.22-4.04,5.7-7.57,.97-13.98,4.64-19.22,10.01-2.6,2.66-4.1,2.48-6.59-.03-5.3-5.34-11.7-8.96-19.24-9.99-3.7-.51-4.24-2.46-4.05-5.7,.38-6.47,1.61-12.77,3.14-19.03Z"/>
  <path class="cls-3" d="M11.76,39.18c1.92-3.99,5.99-2.89,9.12-3.53,7.66-1.56,15.43-2.56,23.16-3.74,1.69-.26,4.16-1.56,4.72,.89,.58,2.53-2.18,2.4-3.84,2.68-8.39,1.41-16.8,2.71-25.21,4.05-1.31,.21-2.85-.06-3.41,1.67h-.26c-1.5,8.82-.22,17.72-.71,26.57-.1,1.74,.95,5.87-3.15,2.21l-.41-30.81Z"/>
  <path class="cls-5" d="M17.23,75.63c2.78,5.39,2.44,6.81-3.51,13.82-2.84-4.36-7.2-8.14-3.36-14.04,2.32-.91,4.61-.61,6.87,.23Z"/>
  <path class="cls-4" d="M17.23,75.63c-2.35,1.69-4.63,1.27-6.87-.23,.6-1.8,1.21-3.61,1.81-5.41,2.59,1.16,2.55-.51,2.54-2.3-.03-6.68-.09-13.37,.03-20.05,.04-2.18-.95-4.67,1.29-6.44,.46,11.48-1.07,23.02,1.19,34.43Z"/>
</svg>