<?xml version="1.0" encoding="UTF-8"?><svg id="Layer_1" xmlns="http://www.w3.org/2000/svg" viewBox="0 0 96 96"><defs><style>.cls-1{fill:#fcb54d;}.cls-2{fill:#465b64;}.cls-3{fill:#feb64d;}.cls-4{fill:#546e79;}</style></defs><path class="cls-3" d="M42.84,.52c23.59,.08,36.43,10.25,40.2,29.58,1.34,6.87,4.95,12.32,8.28,18.07,3.42,5.91,3.17,7.37-2.92,9.77-3.26,1.29-4.61,3.04-4.6,6.49,0,3.13-.61,6.27-.89,9.41-.76,8.6-6.67,13.5-14.93,11.5-4.71-1.14-5.74,.4-5.16,4.43,.61,4.28-.76,5.86-5.39,5.7-10.84-.36-21.7-.23-32.55-.05-3.42,.06-5.16-.62-4.78-4.51,1.11-11.46-2.37-21.44-8.62-31.18-8.56-13.34-7.32-27.55,.39-40.96C19.51,5.47,32.09,.79,42.84,.52Z"/><path class="cls-4" d="M68.95,46.01c-1.36,2.39-2.64,4.6-3.89,6.83-1.82,3.25-3.89,.97-6.03,.42-4.06-1.05-6.7,.7-6.72,4.91-.02,4.26-2.57,4.29-5.47,3.98-2.74-.29-6.48,1.68-6.9-3.75-.39-5.01-3.48-7-8.22-4.45-3.23,1.74-4.36-.39-5.31-2.54-1.13-2.54-5.13-4.96-1.1-8.08,4.51-3.48,4.09-6.39-.13-9.89-4.03-3.34,.59-5.86,1.53-8.67,.8-2.38,2.37-3.33,5.05-1.92,4.72,2.48,7.82,.64,8.19-4.43,.37-5.01,3.78-3.57,6.4-3.59,2.45-.01,5.68-1.33,6.04,3.31,.41,5.38,3.38,7.41,8.47,4.79,2.4-1.23,3.78-.43,4.61,1.75,1.03,2.69,5.52,5.25,2.26,8.14-4.82,4.27-5.12,7.48,.08,11.23,.55,.4,.76,1.29,1.13,1.96Z"/><path class="cls-2" d="M58.06,38.59c-.07,5.82-6.01,11.71-11.82,11.72-6.08,.01-12.1-6.21-11.86-12.27,.23-5.82,6.33-11.57,12.12-11.43,5.85,.15,11.64,6.14,11.57,11.98Z"/><path class="cls-1" d="M46.4,45.61c-4.29-.48-7.16-2.68-7.17-7.11,0-4.39,2.7-7.04,7.09-7.03,4.1,.01,6.7,2.58,6.88,6.65,.2,4.43-2.54,6.76-6.8,7.49Z"/></svg>