<?xml version="1.0" encoding="UTF-8"?>
<svg id="Layer_1" data-name="Layer 1" xmlns="http://www.w3.org/2000/svg" width="96" height="96" viewBox="0 0 96 96">
  <defs>
    <style>
      .cls-1 {
        fill: #b77a28;
      }

      .cls-2 {
        fill: #e79319;
      }

      .cls-3 {
        fill: #af7424;
      }

      .cls-4 {
        fill: #b67722;
      }

      .cls-5 {
        fill: #309df3;
      }

      .cls-6 {
        fill: #e69319;
      }

      .cls-7 {
        fill: #feb64d;
      }

      .cls-8 {
        fill: #099685;
      }
    </style>
  </defs>
  <path class="cls-7" d="M61.21,48.58c5.36,.03,10.72,.28,16.07,.02,3.89-.19,5.02,1.29,4.88,5.01-.24,6.68-.24,13.38,0,20.07,.13,3.62-1.32,4.53-4.69,4.51-20.09-.11-40.18-.11-60.27,0-3.36,.02-4.83-.87-4.7-4.5,.23-6.68,.24-13.39,0-20.07-.13-3.71,.98-5.21,4.87-5.02,5.34,.26,10.71,.01,16.07-.02,1.32-.78,2.62-1.62,4.24-1.65,2.64-.2,5.29-.17,7.93-.1,1.13,0,2.26,0,3.39,0,2.65-.09,5.31-.08,7.96,.09,1.64,0,2.93,.88,4.27,1.66Z"/>
  <path class="cls-8" d="M33.96,38.07c.59-8.5,5.9-13.78,13.68-13.59,7.54,.18,12.63,5.47,13.04,13.55-8.9,2.85-17.81,2.79-26.72,.04Z"/>
  <path class="cls-5" d="M59.43,19.27c-.11,1.5,.29,3.5-1.98,3.53-3.56,.05-7.2-.52-9.77-3.09-1.03-1.03-1.15-4.06,.23-4.92,3.12-1.94,6.14,1.4,9.48,1.04,2.19-.23,1.97,1.9,2.04,3.44Z"/>
  <path class="cls-2" d="M38.08,48.49c-1.55,.03-3.1,.06-4.65,.08,.18-3.09,.35-6.18,.53-9.26,1.61-1.18,3.39-.59,5.12-.48,.61,.42,1,.99,1.2,1.7,.32,2.94-.35,5.62-2.21,7.96Z"/>
  <path class="cls-2" d="M61.21,48.58l-4.64-.08c-1.85-2.32-2.49-4.99-2.22-7.91,.19-.71,.58-1.29,1.17-1.73,1.75-.17,3.52-.67,5.17,.42l.52,9.3Z"/>
  <path class="cls-4" d="M60.69,39.28l-5.33,.1c-5.36,2.72-10.72,2.72-16.09,0-1.77-.02-3.55-.04-5.32-.06-.23-.42-.23-.83,0-1.24,8.91-.01,17.81-.03,26.72-.04,.24,.41,.24,.83,0,1.25Z"/>
  <path class="cls-1" d="M45.89,58.19c.25,2.76-.94,3.98-3.82,4.03-3.41,.06-4.03-1.76-4.01-4.62,.02-3.02,1.61-3.67,4.24-3.67,3.06,0,3.82,1.63,3.59,4.26Z"/>
  <path class="cls-1" d="M52.84,62.16c-2.73,.26-4.11-.79-4.15-3.72-.05-2.94,.72-4.58,4.08-4.51,2.95,.06,3.84,1.41,3.82,4.11-.02,2.62-.71,4.38-3.75,4.12Z"/>
  <path class="cls-1" d="M41.72,66.06c2.62-.25,4.21,.56,4.24,3.59,.02,2.84-.52,4.7-3.97,4.64-2.87-.05-3.95-1.25-3.92-4.03,.03-2.55,.52-4.45,3.65-4.2Z"/>
  <path class="cls-1" d="M56.53,69.93c.18,2.64-.56,4.27-3.61,4.35-3.23,.09-4.26-1.33-4.24-4.38,.02-2.87,1.17-3.93,3.99-3.91,2.85,.01,4.13,1.17,3.86,3.94Z"/>
  <path class="cls-4" d="M38.08,48.49c-.59-2.76,.75-5.21,1.24-7.79,2.65-1.28,5.22-1.23,7.07,1.21,1.65,2.17,1.34,4.53-.49,6.61l-7.82-.03Z"/>
  <path class="cls-4" d="M55.34,40.69c.47,2.59,1.82,5.05,1.23,7.81-2.61,0-5.21,.02-7.82,.03-2.48-7.12-.92-8.97,6.59-7.84Z"/>
  <path class="cls-3" d="M21.08,54.05c2.54-.24,3.59,1.03,3.54,3.52-.05,2.29,.11,4.54-3.23,4.61-2.59,.05-3.61-1.12-3.54-3.59,.06-2.25-.24-4.69,3.23-4.53Z"/>
  <path class="cls-3" d="M31.74,54.05c2.54-.27,3.58,1,3.51,3.49-.06,2.25,.21,4.57-3.18,4.62-2.56,.04-3.65-1.08-3.59-3.57,.05-2.26-.21-4.68,3.26-4.55Z"/>
  <path class="cls-3" d="M59.45,57.97c-.22-2.66,.67-3.97,3.32-3.99,3.25-.02,3.39,2.01,3.4,4.42,0,2.39-.78,3.75-3.42,3.76-3.23,.01-3.53-1.99-3.3-4.2Z"/>
  <path class="cls-3" d="M73.4,62.12c-3.3,.17-3.34-2.06-3.38-4.43-.04-2.43,.83-3.68,3.45-3.71,3.32-.03,3.32,2.1,3.34,4.46,.02,2.38-.73,3.89-3.41,3.68Z"/>
  <path class="cls-3" d="M24.59,70.11c.08,2.29-.29,4-3.12,4.11-3.14,.12-3.69-1.61-3.64-4.18,.05-2.18,.26-3.92,3.13-4,3.08-.08,3.85,1.53,3.63,4.06Z"/>
  <path class="cls-3" d="M32.05,74.17c-2.38,.24-3.62-.88-3.55-3.42,.06-2.21-.35-4.6,3.09-4.69,2.49-.07,3.77,.85,3.66,3.43-.1,2.18,.41,4.72-3.19,4.68Z"/>
  <path class="cls-3" d="M62.61,66.1c3.91-.04,3.47,2.47,3.53,4.67,.08,2.57-1.22,3.51-3.7,3.44-3.47-.09-2.97-2.56-3.03-4.73-.08-2.53,1.05-3.76,3.2-3.38Z"/>
  <path class="cls-3" d="M73.54,66.1c3.43-.18,3.21,2.21,3.26,4.49,.05,2.45-.91,3.66-3.51,3.63-3.33-.04-3.22-2.26-3.27-4.57-.05-2.47,.94-3.79,3.52-3.55Z"/>
  <path class="cls-6" d="M55.34,40.69c-6.52-1.02-7.09,2.97-6.59,7.84-.95,0-1.91,0-2.86,0,.49-4.86-.04-8.87-6.58-7.83-.02-.44-.03-.88-.03-1.33,5.36,0,10.72,0,16.09,0,0,.44,0,.87-.02,1.31Z"/>
</svg>