<?xml version="1.0" encoding="UTF-8"?><svg id="Layer_2" xmlns="http://www.w3.org/2000/svg" viewBox="0 0 90.95 92.06"><defs><style>.cls-1{fill:#c27119;}.cls-2{fill:#4f342b;}.cls-3{fill:#feb74e;}.cls-4{fill:#fe9700;}.cls-5{fill:#be7220;}.cls-6{fill:#55382e;}.cls-7{fill:#fe5722;}.cls-8{fill:#523730;}.cls-9{fill:#513730;}.cls-10{fill:#f39408;}.cls-11{fill:#607d8a;}.cls-12{fill:#fd9a08;}.cls-13{fill:#99520b;}.cls-14{fill:#985410;}.cls-15{fill:#fcb64e;}.cls-16{fill:#c06e15;}.cls-17{fill:#c36e16;}.cls-18{fill:#c36e17;}.cls-19{fill:#c0711a;}.cls-20{fill:#7a5649;}.cls-21{fill:#bf6e18;}.cls-22{fill:#feb64d;}.cls-23{fill:#c2721b;}</style></defs><g id="Layer_1-2"><g><path class="cls-11" d="M.23,55.1c-.06-5.8-.42-11.61-.1-17.39,.41-7.45,4.88-11.97,11.59-14.48,2.98,1.35,5.79,1.38,8.3-1.06,8.2-1.12,13.57-6.7,18.97-12.25,3.23-1.01,6.21-1.13,8.18,2.36,.08,1.86-.86,2.99-2.53,3.6-1.38,1.64-2.6,3.46-4.17,4.9-10.05,9.24-12.69,21.39-13.85,34.36-.99,11.05-2.7,22.02-4.03,33.04-.34,2.79-1.49,4.21-4.46,3.73-1.12-.18-2.33-.21-3.44,0-4.56,.85-5.41-1.7-5.77-5.58-.69-7.4-1.84-14.75-2.8-22.13-.8-3.8-3.89-6.08-5.88-9.1Z"/><path class="cls-11" d="M89.57,59.76q1.57,8.26-5.8,11.24c-1.96,1.52-4.16,2.31-6.65,2.22-1.31,.06-2.63,.05-3.94-.02-2.42-.12-4.67-.78-6.68-2.2q-7.66-3.12-6.01-11.13c1.32-6.45,2.24-13.02,4.07-19.32,1.33-4.6,.59-7.6-3.67-9.72-.68-.34-1.15-1.14-1.71-1.72-.01-3.74,1.29-6.75,4.66-8.61,2.34-.41,3.89,1.45,5.87,2.09,.89,.23,1.77,.49,2.56,.99,2.39,3.3,4.84,3.53,7.36,.14,.83-.52,1.72-.65,2.67-.38,.46,.19,.71,.54,.8,1.03,5.9,3.08,8.22,8.09,7.71,14.61-1.71,1.48-3.55,1.45-5.2,.7,1.47,6.51,4.52,12.92,3.96,20.1Z"/><path class="cls-7" d="M36.64,80.96c-4.46-.94-2.83-4.44-2.95-7.2-.87-2.12-.26-4.23,.22-6.28,.62-2.67,.17-4.86-2.09-6.52,.21-7.18,4.43-11.06,11.96-11.01,7.21,.05,11.22,3.91,11.42,11.02-2.08,1.54-2.59,3.53-2.01,6.06,.51,2.21,1,4.5,.16,6.77-.1,2.76,1.43,6.19-2.93,7.17-1.35,1.39-2.97,2.16-4.92,2.18-1.31,.09-2.62,.08-3.93,.01-1.96-.02-3.6-.76-4.93-2.2Z"/><path class="cls-20" d="M69.2,23.87c-1.61-1.02-3.22-2.05-4.83-3.07-.5-.03-.81-.28-.88-.8-.62-4.03-.05-7.97,1.15-11.79C66.29,2.92,69.81,.32,75.18,.05c4.7-.23,10.24,3.23,12.05,7.51,3.12,7.41,2.36,10.52-4.13,16.79-.03-.24-.11-.47-.23-.68-1.08-1.12-1.2-2.58-1.4-4.01,.07-2.28,.48-4.56,.29-6.86-.35-4.29-1.81-4.96-5.68-3.51-5.4,2.03-6.11,6.17-5.62,11.08-.03,1.31-.32,2.52-1.25,3.49Z"/><path class="cls-16" d="M11.97,21.01c-2.5-2.09-5.2-4.07-4.91-7.93,.76-5.03,4.35-6.76,8.68-7.84,4.93-1.23,7.2,.23,7.97,5.51,.12,.81,.09,1.64,.76,2.25,.04,3.67-2.43,5.8-4.79,8-2.57,1.89-5.14,1.86-7.71,.01Z"/><path class="cls-9" d="M36.55,43.49c-.21,.8-.58,1.6-.6,2.41-.07,2.25-1.54,2.14-3.08,2.04-2.31-.15-1.5-1.89-1.26-2.95,1.2-5.28,5.62-8.08,9.58-10.5,3.47-2.12,6.6,.42,9.06,3.72,1.49,2,4.56,2.84,4.96,5.79,.18,1.32,1.69,3.36-1.08,3.93-1.98,.41-3.11-.34-3.17-2.52-.02-.64-.33-1.28-.51-1.92-4.64-3.21-9.27-3.21-13.9,0Z"/><path class="cls-3" d="M63.49,20c.29,.27,.59,.53,.88,.8-2.85,2.06-3.36,5.6-5.2,8.31-4.42-3.15-8.25-6.95-11.78-11.06,.63-2.87,1.57-5.41,5.23-5.1,3.7,2.22,6.1,6.5,10.87,7.05Z"/><path class="cls-8" d="M24.47,13c-3.19,.85-1.42-1.77-1.64-2.67-.89-3.64-2.48-5.8-6.5-4.04-3.32,1.46-8.18,1.18-7.87,6.89-.47-.03-.93-.06-1.4-.09-.05-1.47-.23-2.95-.11-4.41C7.38,3.55,11,.06,15.81,0c4.5-.06,8.5,4.04,8.8,9.08,.08,1.3-.09,2.61-.14,3.92Z"/><path class="cls-3" d="M66.5,70.99c2.22,.33,4.44,.66,6.66,.99,2.41,6.57,2.41,13.15,.05,19.74-2.7,.61-4.13-.13-4.43-3.26-.56-5.84-1.5-11.65-2.28-17.47Z"/><path class="cls-3" d="M77.08,71.99c2.23-.33,4.46-.66,6.69-.99-.79,5.82-1.74,11.62-2.31,17.46-.3,3.12-1.73,3.87-4.43,3.26-2.35-6.58-2.35-13.16,.05-19.73Z"/><path class="cls-15" d="M89.57,59.76c-1.24-4.78-2.51-9.54-3.7-14.33-1.6-6.42-1.58-6.43,4.94-6.47,.04,5.57,.04,11.14,.15,16.72,.03,1.58-.47,2.87-1.38,4.08Z"/><path class="cls-21" d="M36.55,43.49c2.91-5.05,11-5.05,13.91,0-5.46,6.1-8.45,6.1-13.91,0Z"/><path class="cls-4" d="M77.08,71.99c-.02,6.58-.03,13.16-.05,19.73-1.28,0-2.55,0-3.83,0-.02-6.58-.03-13.16-.05-19.74,1.31,0,2.62,0,3.93,0Z"/><path class="cls-19" d="M46.63,13c-1.64-3.33-5.27-1.62-7.66-3.08,3.02-5.14,7.33-5.58,10.57-1.07,.3,2.29-.61,3.72-2.91,4.15Z"/><path class="cls-18" d="M31.81,60.96c2.93-.4,4.32,.83,3.76,3.83-.55,3-1.25,5.98-1.89,8.97-3.29-1.52-1.79-4.51-2-6.92-.17-1.94,.07-3.92,.12-5.88Z"/><path class="cls-17" d="M53.35,73.79c-.64-3.15-1.34-6.3-1.9-9.47-.53-3.05,1.3-3.61,3.75-3.37,.06,2.94,.05,5.89,.19,8.83,.09,1.8-.26,3.24-2.04,4Z"/><path class="cls-13" d="M41.57,81.98c1.29,0,2.58,0,3.86,0,2.16,3.24,2.02,6.48,.02,9.73-1.3,0-2.6,0-3.91,0-2-3.25-2.13-6.49,.02-9.73Z"/><path class="cls-23" d="M41.57,81.98c0,3.24-.01,6.49-.02,9.73-2.47,.62-2.45-1.43-2.86-2.84-.76-2.62-1.38-5.27-2.05-7.91,1.65,.34,3.29,.68,4.94,1.02Z"/><path class="cls-1" d="M45.46,91.71c0-3.24-.02-6.49-.02-9.73,1.66-.34,3.32-.68,4.99-1.02-.72,2.79-1.41,5.6-2.19,8.38-.38,1.36-.68,2.99-2.78,2.37Z"/><path class="cls-12" d="M46.63,13c.97-1.38,1.94-2.77,2.91-4.15,1.4,1.08,2.6,2.32,3.08,4.11-2.51,.89-3.4,3.49-5.23,5.1-.92-.73-1.84-1.45-2.76-2.18,.67-.96,1.33-1.92,2-2.87Z"/><path class="cls-14" d="M11.97,21.01c2.57,0,5.14,0,7.71-.01,.11,.39,.22,.78,.33,1.17-2.47,4.66-4.31,4.89-8.29,1.06,.08-.74,.17-1.48,.25-2.22Z"/><path class="cls-5" d="M.23,55.1c3.29,2.16,7.29,3.84,5.88,9.1C1.91,62.64-.68,60.02,.23,55.1Z"/><path class="cls-10" d="M80.2,23.75c-.83,1.9-1.41,4.1-4.07,4.11-2.61,0-3.5-1.84-4.02-4.01-.75-.91-.81-1.87-.19-2.88,2.75-.7,5.51-.51,8.27-.12,.68,.96,.76,1.93,0,2.9Z"/><path class="cls-2" d="M72.23,21.06c-.04,.93-.08,1.86-.12,2.79-.97,0-1.93,.02-2.9,.02,0-1.33,.01-2.66,.02-3.99,1.47-.82,2.39-.23,3,1.18Z"/><path class="cls-6" d="M80.2,23.75c-.07-.9-.15-1.8-.22-2.7,.33-.93,.93-1.41,1.95-1.18,1.55,.96,1.01,2.44,.95,3.81-.89,.02-1.78,.05-2.67,.07Z"/><path class="cls-22" d="M81.92,19.87c-.65,.39-1.3,.79-1.95,1.18-2.58,1.3-5.16,1.28-7.74,0-1-.39-2-.79-3-1.18-.45-7.75,1.66-10.98,9.01-13.3,3.09-.98,4.27,1.85,4.66,3.73,.65,3.13,1.13,6.57-.97,9.56Z"/></g></g></svg>