<?xml version="1.0" encoding="UTF-8"?>
<svg id="Layer_1" data-name="Layer 1" xmlns="http://www.w3.org/2000/svg" width="96" height="99.21" viewBox="0 0 96 99.21">
  <defs>
    <style>
      .cls-1 {
        fill: #ced7db;
      }

      .cls-2 {
        fill: #434342;
      }

      .cls-3 {
        fill: #444443;
      }

      .cls-4 {
        fill: #4c4944;
      }

      .cls-5 {
        fill: #fda82c;
      }

      .cls-6 {
        fill: #7c4b1b;
      }

      .cls-7 {
        fill: #263238;
      }

      .cls-8 {
        fill: #1565bf;
      }

      .cls-9 {
        fill: #feb64d;
      }
    </style>
  </defs>
  <path class="cls-9" d="M76.29,61.46c-1.8,2.31-1.76,5.16-2.28,7.85-.16,.71-.51,1.29-1.19,1.62-.66,.28-1.35,.41-2.06,.46-1.18,.08-2.36,.09-3.54,.11-.72,.03-1.44,.03-2.17,.03-1.23,.01-2.45,.01-3.67,.02-.74,.03-1.48,.03-2.22,.05-3.42,.13-6.47,2.79-10.1,1.5-.47-.14-.94-.31-1.36-.57-1.41-.87-2.8-1.11-3.94,.36-.66,.86-.65,1.87,.08,2.72,1.24,1.44,2.61,.98,4,.21,.58-.32,1.21-.52,1.86-.69,5.71,.09,11.17,2.06,16.9,2.04,.97,0,1.8,.72,2.04,1.82-8.22,9.26-18.37,13.1-30.47,9.95-12.07-3.15-19.22-11.28-21.8-23.47-.3-1.42-.37-2.96-1.58-4.04-.37-2.32-.39-4.62,.56-6.84,1.04-1.39,1.34-3.01,1.18-4.66-.46-4.84,2.13-7.1,6.44-8.37,6.12-1.81,12.11-4.02,18.2-5.96,10.39-.95,20.52,.06,30.22,4.16,2.7,1.84,3.11,4.62,3.21,7.59,.08,2.37-.37,4.8,.67,7.08,1.17,2.21,1.48,4.55,1.01,7Z"/>
  <path class="cls-8" d="M71.34,40.76c-10.04-3.38-20.36-4.59-30.92-3.87-7.45,1.9-15.02,3.27-22.37,5.59-1.95,.62-4.01,1.83-6,0-2.62-2.3-2.3-5.25-1.76-8.22,2.36-12.89,11.72-21.44,25.33-23.17,6.6,.71,13.2,.72,19.81,0,13.69,1.73,23.01,10.28,25.34,23.25,.53,2.95,.79,5.85-1.78,8.13-3.21,2.37-5.25-.5-7.66-1.7Z"/>
  <path class="cls-1" d="M68.63,79.02c-.26-.19-.53-.56-.77-.54-6.58,.48-12.85-1.8-19.33-2.14-2.03,.72-3.36-.13-3.36-2.12,0-1.99,1.34-2.84,3.36-2.12,3.95,1.55,7.04-2.38,10.85-1.69,.65,.87,1.31,.87,1.96,0h3.97c.65,1.64,1.31,1.64,1.96,0h3.97c.64,.74,1.27,.78,1.86-.06,.3-.35,.61-.7,.91-1.05,.85,1.1,2.11,.93,3.28,1.03,.58,.82,1.16,.82,1.73,0,1.4,0,2.8,0,4.2,0,.47,.48,.6,1.14,.91,1.71,.11-.65,.41-1.2,.82-1.7,2.75,.25,4.33,1.79,3.89,4.5-.44,2.73-2.66,3.24-5.19,3.38-5.01,.28-10.1-1.01-15.02,.79Z"/>
  <path class="cls-1" d="M55.44,11.08c-.47,1.16-1.3,1.84-2.59,1.84-4.88,0-9.75,0-14.63,0-1.29,0-2.12-.68-2.59-1.84-.33-4.33,1.63-6.32,6.01-6.07,2.58,.15,5.19,.15,7.77,0,4.39-.26,6.34,1.73,6.02,6.06Z"/>
  <path class="cls-3" d="M12.05,42.47c8.22-1.57,16.07-4.87,24.53-5.32,1.28-.07,2.56-.18,3.84-.27-5.53,1.91-10.96,4.22-16.62,5.61-4.88,1.2-6.78,3.53-6.08,8.49,.13,.94,2.18,4.2-1.82,3.52-2.41-.79-3.7-2.47-3.99-4.96l.14-7.08Z"/>
  <path class="cls-2" d="M71.34,40.76c2.65,.14,4.88,2.15,7.66,1.7,.05,2.36,.1,4.73,.15,7.09-.34,3-2.34,4.65-4.82,5.91-2.36-2.77-.77-6.05-1.04-9.07-.19-2.13-.13-4.15-1.94-5.64Z"/>
  <path class="cls-5" d="M74.33,55.47c1.61-1.97,3.21-3.94,4.82-5.91,3.27,5.36,2.46,8.76-2.86,11.91-2.23-1.48-.08-4.4-1.96-5.99Z"/>
  <path class="cls-5" d="M11.92,49.55c1.33,1.65,2.66,3.31,3.99,4.96-.43,2.31,.96,4.91-1.13,6.96-5.32-3.14-6.14-6.55-2.86-11.92Z"/>
  <path class="cls-7" d="M84.94,70.34c.11,1.96,.39,3.94-.69,6.85-1.65-2.88-1.04-4.91-1.04-6.85h1.73Z"/>
  <path class="cls-7" d="M79.01,70.34c.05,1.33,.48,2.74-.67,3.98-1.86-1.17-.97-2.69-1.06-3.98h1.73Z"/>
  <path class="cls-6" d="M27.75,56.52c.3-2.37,1.55-3.97,4.06-3.94,2.26,.03,3.69,1.5,3.73,3.72,.05,2.48-1.47,4.01-3.96,3.98-2.24-.02-3.47-1.51-3.83-3.76Z"/>
  <path class="cls-6" d="M59.56,52.49c2.22,.42,3.69,1.67,3.65,3.92-.04,2.47-1.59,3.98-4.08,3.86-2.2-.11-3.66-1.55-3.62-3.82,.04-2.5,1.64-3.73,4.05-3.96Z"/>
  <path class="cls-4" d="M48.52,72.1c-1.28,.25-2.78,.39-2.78,2.12,0,1.72,1.49,1.88,2.77,2.13-1.72,2.52-3.78,2.4-5.77,.49-1.69-1.62-1.65-3.62,.02-5.23,1.97-1.9,4.04-2.06,5.75,.49Z"/>
  <path class="cls-7" d="M67.27,70.42c-.21,1.89,.54,3.95-.98,6.4-1.52-2.45-.77-4.51-.98-6.4,.65,0,1.3,0,1.96,0Z"/>
  <path class="cls-7" d="M61.34,70.42c-.28,1.23,.72,2.81-.98,3.78-1.69-.97-.69-2.54-.98-3.78,.65,0,1.3,0,1.96,0Z"/>
  <path class="cls-7" d="M73.1,70.36c-.11,1.28,.78,2.79-.85,3.84-1.74-.95-.72-2.55-1.01-3.78,.62-.02,1.24-.04,1.86-.06Z"/>
</svg>