<?xml version="1.0" encoding="UTF-8"?>
<svg id="Layer_1" data-name="Layer 1" xmlns="http://www.w3.org/2000/svg" width="96" height="99.21" viewBox="0 0 96 99.21">
  <defs>
    <style>
      .cls-1 {
        fill: #02b8ce;
      }

      .cls-2 {
        fill: #048793;
      }

      .cls-3 {
        fill: #03b8ce;
      }

      .cls-4 {
        fill: #c5cae8;
      }

      .cls-5 {
        fill: #00bbd3;
      }

      .cls-6 {
        fill: #008490;
      }

      .cls-7 {
        fill: #05b7cd;
      }

      .cls-8 {
        fill: #018591;
      }
    </style>
  </defs>
  <path class="cls-5" d="M48.31,40.61c7.53-8.2,14.99-16.48,22.63-24.58,3.63-3.85,8.45-3.92,11.74-.61,3.29,3.3,3.22,8.11-.56,11.79-6.1,5.93-12.41,11.65-18.64,17.46-5.27-.55-10.74-.37-15.18-4.06Z"/>
  <path class="cls-4" d="M38.79,64.21c-3.67,.89-5.01,3.75-6.22,6.95-3.14,8.36-9.64,13.4-16.63,12.99-1.76-.1-3.48-.67-5.9-1.15,6.84-7.11,13.26-13.8,19.69-20.48,3.46-1.79,6.49-1.28,9.06,1.7Z"/>
  <path class="cls-6" d="M48.31,40.61c4.93,1.85,10.53,1.17,15.18,4.06-.66,1.81-2.81,1.82-3.84,3.18-4.08,.17-7.93-1.07-11.83-1.93-1.2-.27-2.62-.56-2.48-2.36,.7-1.28,1.58-2.37,2.98-2.94Z"/>
  <path class="cls-8" d="M39.59,49.7c.64-1.36,1.61-2.39,2.96-3.06,5.39-.52,10.68-.63,14.84,3.74-.97,1.42-2.18,2.58-3.8,3.24-4.26,.38-8.24-1.07-12.3-1.98-.92-.21-1.85-.66-1.69-1.94Z"/>
  <path class="cls-8" d="M33.61,56.38c.82-1.69,1.89-3.14,3.69-3.91,5.08-.46,9.94,.05,14.2,3.19-.64,1.36-1.74,2.25-2.99,2.98-5.43,2.27-10.15-.09-14.9-2.26Z"/>
  <path class="cls-2" d="M38.79,64.21c-2.95-.95-5.93-1.71-9.06-1.7-2.13-2.6,.94-2.86,1.85-4.09,4.35-1.56,8.29,.41,12.3,1.54,1.04,.29,1.32,1.34,.75,2.4-1.35,2.51-3.6,2.16-5.84,1.85Z"/>
  <path class="cls-3" d="M57.38,50.38c-4.65-2.43-9.99-2.12-14.84-3.74,.93-1.03,1.86-2.05,2.79-3.08,4.39,2.7,10.01,1.28,14.31,4.3-.75,.84-1.51,1.68-2.26,2.53Z"/>
  <path class="cls-1" d="M51.5,55.66c-4.73-1.06-9.47-2.13-14.2-3.19,.76-.92,1.53-1.85,2.29-2.77,4.4,2.26,9.69,1.3,13.99,3.92-.69,.68-1.39,1.36-2.08,2.04Z"/>
  <path class="cls-7" d="M44.63,62.36c-3.65-3.62-8.79-2.34-13.05-3.94,.68-.68,1.35-1.36,2.03-2.04,5.08-.01,9.77,2.58,14.9,2.26-1.29,1.24-2.59,2.48-3.88,3.72Z"/>
</svg>