<?xml version="1.0" encoding="UTF-8"?>
<svg id="Layer_1" data-name="Layer 1" xmlns="http://www.w3.org/2000/svg" width="96" height="99.21" viewBox="0 0 96 99.21">
  <defs>
    <style>
      .cls-1 {
        fill: #cf8110;
      }

      .cls-2 {
        fill: #c67600;
      }

      .cls-3 {
        fill: #d1820f;
      }

      .cls-4 {
        fill: #ca7c0c;
      }

      .cls-5 {
        fill: #e5a649;
      }

      .cls-6 {
        fill: #df9b38;
      }

      .cls-7 {
        fill: #ca7e10;
      }

      .cls-8 {
        fill: #cd8720;
      }

      .cls-9 {
        fill: #c87a07;
      }

      .cls-10 {
        fill: #c97b0a;
      }

      .cls-11 {
        fill: #e3a345;
      }

      .cls-12 {
        fill: #e29f3c;
      }

      .cls-13 {
        fill: #feb64d;
      }
    </style>
  </defs>
  <path class="cls-13" d="M17.88,52.19c-1.68-1.84-3.37-3.67-5.03-5.53-8-8.99-7.7-21.35,.69-29.61,7.68-7.56,20.9-7.81,29.66-.57,1.73,1.43,3.46,2.87,5.19,4.31-.1,6.18-5.95,8.05-9.18,11.89-1.51,1.79-5.23,3.24-3.56,5.75,1.93,2.91,5.52,1.29,8.3,.17,2.59-1.04,4.61-3.03,6.87-4.62,6.95-4.88,7.88-4.95,14.03,1.19,5.13,5.12,10.85,9.69,15.22,15.52,1.22,4.48,5.42,10.77-5.12,8.07-1.85-.47-2.88,.39-2.63,2.36,.06,.48,.35,.94,.44,1.42,1.71,9.09-6.86,2.63-8.26,5.22-1.57,2.91,3.74,10.1-5.57,7.72-2.14-.55-3.19-.46-3.42,2.12-.72,8.12-.81,8.1-8.06,3.46-.61-.39-1.42-.48-2.13-.7-.31-.59-.38-1.2-.19-1.84,.45-1.6,1.98-3.15,.17-4.83-.79-.49-1.62-.9-2.42-1.36-2.67-4.51-8.08-6.55-10.5-11.28-.37-.51-.74-1.02-1.16-1.5-2.9-1.49-5.08-3.65-6.41-6.59-.5-.32-1.01-.62-1.56-.84-1.8-.59-3.57,1.33-5.35,.07Z"/>
  <path class="cls-2" d="M80.06,50.69c-7.7-3.31-11.98-10.42-17.79-15.8-3.43-3.18-5.46-3.76-9.26-.41-4.6,4.05-9.47,8.52-16.7,7.28-1.82-.31-3.61-.65-4.37-2.45-.88-2.06,.85-3.03,2.13-4.26,4.84-4.69,9.56-9.5,14.33-14.26,4.39-3.33,8.12-7.6,13.83-9.01,9.74-2.41,19.26,1.25,24.46,9.5,4.9,7.78,3.99,17.64-2.39,25.1-1.3,1.53-2.82,2.88-4.23,4.31Z"/>
  <path class="cls-4" d="M33.16,59.64c2.99,4.58,9.06,6.51,10.81,12.16-.4,1.31-1.48,1.9-2.64,2.39-2.04,.74-2.01,4.33-5.1,3.61-2.92-2.72-8.9-2.77-7.95-8.85,.26-1.94,1.46-3.53,2.04-5.36,.65-1.52,1.26-3.08,2.84-3.94Z"/>
  <path class="cls-7" d="M17.88,52.19c2.17-.47,3.53-4.4,6.5-1.49,.59,1.85-1.07,3.6-.25,5.46,.28,.96,.49,1.92,.51,2.93-.12,.7-.4,1.31-.88,1.85-1.91,1.3-3.9,1.54-5.97,.39-5.63-3.1-2.09-6.11,.08-9.14Z"/>
  <path class="cls-9" d="M31.63,64.25c0,2.34-1.2,3.84-3.34,4.7-4.37,.21-6.56-1.62-5.92-6.12,.42-1.08,.9-2.13,1.64-3.05h.01c1.32-.89,2.52-.22,3.74,.25,1.91,.85,3.1,2.35,3.88,4.22Z"/>
  <path class="cls-10" d="M36.24,77.8c2.44-.58,1.06-4.95,4.58-4.47,2.1,.73,3.87,1.87,4.92,3.9,.25,.71,.1,1.36-.38,1.94-.11,.39-.13,.79-.06,1.19-4.03,2.62-7.81,4.38-9.06-2.56Z"/>
  <path class="cls-8" d="M24,59.79c-.03,1.28-.34,2.42-1.64,3.05-1.51-.54-3.43,.14-4.57-1.5l6.21-1.54Z"/>
  <path class="cls-1" d="M27.09,61.27c-1.02-.5-2.05-.99-3.07-1.49-.5-1.03-1-2.07-1.5-3.1,1.33-1.81,1.5-4.19,2.99-5.92,2.26,2.7,3.2,6.7,7.5,7.39-1.36,2.16-3.89,2.19-5.92,3.12Z"/>
  <path class="cls-6" d="M27.09,61.27c1-2.83,3.44-3.01,5.92-3.12,.11,.49,.16,.99,.15,1.49-.51,1.54-1.02,3.07-1.53,4.61-1.52-.99-3.03-1.99-4.54-2.98Z"/>
  <path class="cls-11" d="M45.37,77.76c-2.14-.86-3.62-2.37-4.55-4.43,1.05-.51,2.11-1.02,3.16-1.54,1,.02,2,.05,3,.07,1.26,2.44,.9,4.45-1.61,5.89Z"/>
  <path class="cls-5" d="M25.5,50.77c-.41,2.26,1.25,5.54-2.99,5.92-2.6-2.96-.14-4.4,1.86-5.99,.38,0,.76,.03,1.13,.07Z"/>
  <path class="cls-3" d="M45.37,77.76c.53-1.96,1.07-3.93,1.6-5.89,2.67,3.12,1.84,5.49-1.61,7.3,0-.47,.01-.94,.01-1.41Z"/>
  <path class="cls-12" d="M36.61,66.01c1.48-.18,2.34,.59,2.44,1.96,.08,1.04-.57,2.04-1.7,1.78-.8-.18-1.69-.99-2.06-1.75-.47-.97,.05-1.83,1.31-1.99Z"/>
</svg>