<?xml version="1.0" encoding="UTF-8"?><svg id="Layer_2" xmlns="http://www.w3.org/2000/svg" viewBox="0 0 96 96"><defs><style>.cls-1{fill:#c27119;}.cls-2{fill:#4f342b;}.cls-3{fill:#feb74e;}.cls-4{fill:#fe9700;}.cls-5{fill:#be7220;}.cls-6{fill:#55382e;}.cls-7{fill:#fe5722;}.cls-8{fill:#523730;}.cls-9{fill:#513730;}.cls-10{fill:#f39408;}.cls-11{fill:#607d8a;}.cls-12{fill:#fd9a08;}.cls-13{fill:#99520b;}.cls-14{fill:#985410;}.cls-15{fill:#fcb64e;}.cls-16{fill:#c06e15;}.cls-17{fill:#c36e16;}.cls-18{fill:#c36e17;}.cls-19{fill:#c0711a;}.cls-20{fill:#7a5649;}.cls-21{fill:#bf6e18;}.cls-22{fill:#feb64d;}.cls-23{fill:#c2721b;}.cls-24{fill:#fefefe;}</style></defs><g id="Layer_1-2"><g><path class="cls-24" d="M95.95,48.31c0,14.82-.02,29.64,.03,44.45,0,2.04,.11,3.25-2.81,3.24-30.14-.15-60.29-.14-90.43-.01-2.52,.01-2.71-.72-2.7-2.87C.11,62.99,.13,32.86,0,2.73-.01,.21,.72,.03,2.87,.03,33.01,.1,63.15,.13,93.3,0c2.52-.01,2.72,.72,2.7,2.87-.1,15.15-.05,30.29-.05,45.44Z"/><path class="cls-11" d="M46.67,18.72c-1.38,1.63-2.6,3.43-4.17,4.85-10.05,9.15-12.69,21.17-13.86,34-.99,10.93-2.71,21.79-4.03,32.7-.34,2.76-1.49,4.17-4.46,3.69-1.12-.18-2.33-.2-3.45,0-4.56,.84-5.41-1.68-5.78-5.52-.69-7.32-1.84-14.6-2.8-21.9-.8-3.76-3.89-6.02-5.88-9-.06-5.74-.42-11.49-.1-17.21,.41-7.38,4.88-11.85,11.59-14.33,2.98,1.34,5.79,1.36,8.3-1.05,8.2-1.1,13.58-6.63,18.97-12.13,3.24-1,6.22-1.12,8.19,2.33,.08,1.84-.86,2.96-2.53,3.57Z"/><path class="cls-11" d="M91.63,62.16q1.57,8.18-5.8,11.12c-1.97,1.5-4.16,2.29-6.66,2.19-1.31,.06-2.63,.05-3.95-.02-2.42-.12-4.68-.77-6.68-2.18q-7.66-3.08-6.02-11.01c1.32-6.38,2.25-12.88,4.07-19.12,1.33-4.55,.59-7.52-3.67-9.62-.68-.34-1.15-1.12-1.71-1.7-.01-3.7,1.29-6.68,4.67-8.52,2.34-.41,3.89,1.43,5.87,2.07,.89,.22,1.77,.48,2.56,.98,2.39,3.27,4.84,3.49,7.36,.13,.83-.52,1.73-.64,2.67-.38,.45,.19,.72,.53,.8,1.02,5.91,3.04,8.22,8,7.71,14.46-1.7,1.51-3.56,1.34-5.19,.74,1.46,6.4,4.51,12.73,3.95,19.84Z"/><path class="cls-7" d="M33.85,63.34c.21-7.1,4.43-10.95,11.96-10.9,7.21,.05,11.22,3.87,11.43,10.9-2.08,1.53-2.59,3.49-2.01,5.99,.51,2.19,1,4.45,.16,6.7-.1,2.73,1.43,6.13-2.93,7.1-1.35,1.37-2.97,2.14-4.92,2.16-1.31,.09-2.62,.08-3.93,.01-1.96-.02-3.6-.75-4.94-2.18-4.47-.93-2.83-4.39-2.95-7.12-.87-2.1-.26-4.18,.22-6.21,.62-2.64,.17-4.81-2.1-6.46Z"/><path class="cls-20" d="M71.25,26.63c-1.61-1.01-3.22-2.02-4.83-3.04-.51-.02-.8-.29-.88-.79-.62-3.99-.05-7.89,1.15-11.67,1.65-5.24,5.17-7.82,10.55-8.08,4.7-.23,10.25,3.2,12.05,7.43,3.12,7.33,2.36,10.41-4.13,16.62-.03-.24-.11-.46-.23-.67-1.08-1.11-1.2-2.55-1.4-3.97,.07-2.26,.48-4.51,.29-6.79-.35-4.24-1.82-4.91-5.68-3.48-5.41,2.01-6.11,6.1-5.63,10.97-.03,1.29-.32,2.49-1.25,3.46Z"/><path class="cls-16" d="M26.5,15.87c.04,3.63-2.43,5.74-4.79,7.92-2.57,1.87-5.14,1.84-7.71,.01-2.5-2.07-5.21-4.02-4.91-7.85,.76-4.97,4.35-6.69,8.68-7.76,4.93-1.22,7.21,.23,7.98,5.45,.12,.8,.09,1.62,.76,2.22Z"/><path class="cls-9" d="M38.59,46.05c-.21,.79-.58,1.58-.6,2.38-.07,2.22-1.55,2.11-3.08,2.02-2.32-.15-1.5-1.87-1.26-2.92,1.2-5.23,5.62-7.99,9.59-10.39,3.47-2.1,6.61,.41,9.06,3.68,1.49,1.98,4.57,2.81,4.96,5.73,.18,1.3,1.69,3.32-1.08,3.89-1.98,.41-3.11-.33-3.17-2.49-.02-.64-.33-1.27-.51-1.9-4.64-3.18-9.27-3.18-13.91,0Z"/><path class="cls-3" d="M65.54,22.81c.29,.26,.59,.53,.88,.79-2.85,2.03-3.36,5.55-5.2,8.22-4.42-3.12-8.25-6.87-11.79-10.94,.63-2.84,1.57-5.35,5.23-5.04,3.7,2.2,6.1,6.43,10.87,6.97Z"/><path class="cls-8" d="M26.5,15.87c-3.2,.84-1.42-1.75-1.64-2.64-.89-3.6-2.48-5.74-6.5-4-3.32,1.44-8.18,1.17-7.87,6.82-.47-.03-.93-.06-1.4-.09-.05-1.45-.23-2.92-.11-4.36,.43-5.07,4.06-8.52,8.87-8.58,4.5-.06,8.51,4,8.8,8.99,.08,1.28-.09,2.58-.14,3.87Z"/><path class="cls-3" d="M68.54,73.27c2.22,.33,4.44,.65,6.66,.98,2.41,6.5,2.41,13.02,.05,19.53-2.7,.61-4.13-.13-4.43-3.22-.56-5.78-1.5-11.53-2.28-17.29Z"/><path class="cls-3" d="M79.13,74.25c2.23-.33,4.46-.65,6.69-.98-.79,5.76-1.74,11.5-2.31,17.28-.3,3.09-1.73,3.83-4.44,3.22-2.35-6.52-2.35-13.03,.05-19.53Z"/><path class="cls-15" d="M91.63,62.16c-1.24-4.73-2.51-9.44-3.7-14.18-1.6-6.35-1.58-6.36,4.94-6.4,.04,5.51,.04,11.03,.15,16.54,.03,1.56-.47,2.84-1.38,4.04Z"/><path class="cls-21" d="M38.59,46.05c2.91-5,11-5,13.91,0-5.46,6.04-8.45,6.04-13.91,0Z"/><path class="cls-4" d="M79.13,74.25c-.02,6.51-.03,13.02-.05,19.53-1.28,0-2.55,0-3.83,0-.02-6.51-.03-13.02-.05-19.53,1.31,0,2.62,0,3.93,0Z"/><path class="cls-19" d="M48.67,15.88c-1.64-3.3-5.28-1.61-7.66-3.05,3.02-5.09,7.33-5.52,10.57-1.06,.3,2.27-.61,3.68-2.91,4.11Z"/><path class="cls-18" d="M33.85,63.34c2.93-.39,4.32,.82,3.77,3.79-.55,2.97-1.25,5.92-1.89,8.87-3.29-1.5-1.79-4.47-2-6.85-.17-1.92,.07-3.88,.12-5.82Z"/><path class="cls-17" d="M55.39,76.04c-.64-3.12-1.34-6.23-1.9-9.37-.53-3.02,1.3-3.57,3.75-3.33,.06,2.91,.05,5.83,.19,8.74,.09,1.78-.26,3.2-2.04,3.96Z"/><path class="cls-13" d="M43.61,84.14c1.29,0,2.58,0,3.86,0,2.16,3.2,2.02,6.41,.02,9.63-1.3,0-2.61,0-3.91,0-2-3.21-2.14-6.43,.02-9.63Z"/><path class="cls-23" d="M43.61,84.14c0,3.21-.01,6.42-.02,9.63-2.48,.62-2.45-1.41-2.87-2.82-.76-2.59-1.38-5.22-2.05-7.83,1.65,.34,3.29,.68,4.94,1.01Z"/><path class="cls-1" d="M47.5,93.77c0-3.21-.02-6.42-.02-9.63,1.66-.33,3.33-.67,4.99-1.01-.72,2.77-1.41,5.54-2.19,8.29-.38,1.35-.68,2.96-2.78,2.34Z"/><path class="cls-12" d="M48.67,15.88c.97-1.37,1.94-2.74,2.91-4.11,1.4,1.07,2.6,2.3,3.08,4.07-2.51,.88-3.4,3.46-5.23,5.04-.92-.72-1.84-1.44-2.76-2.16,.67-.95,1.34-1.9,2-2.85Z"/><path class="cls-14" d="M14,23.8c2.57,0,5.14,0,7.71-.01,.11,.38,.22,.77,.33,1.16-2.47,4.61-4.31,4.84-8.3,1.05,.08-.73,.17-1.46,.25-2.19Z"/><path class="cls-5" d="M2.25,57.54c3.29,2.13,7.29,3.8,5.88,9-4.19-1.54-6.79-4.13-5.88-9Z"/><path class="cls-10" d="M82.25,26.51c-.83,1.89-1.41,4.06-4.07,4.07-2.61,0-3.5-1.82-4.02-3.97-.75-.9-.81-1.85-.19-2.85,2.75-.69,5.51-.5,8.27-.11,.68,.95,.76,1.91,0,2.87Z"/><path class="cls-2" d="M74.28,23.85c-.04,.92-.08,1.84-.12,2.76-.97,0-1.93,.02-2.9,.02,0-1.32,.01-2.63,.02-3.95,1.47-.81,2.39-.22,3,1.17Z"/><path class="cls-6" d="M82.25,26.51c-.07-.89-.15-1.78-.22-2.67,.33-.92,.93-1.39,1.95-1.17,1.55,.95,1.01,2.42,.95,3.77-.89,.02-1.78,.05-2.67,.07Z"/><path class="cls-22" d="M83.97,22.68c-.65,.39-1.3,.78-1.95,1.17-2.58,1.29-5.16,1.27-7.75,0-1-.39-2-.78-3-1.17-.45-7.67,1.66-10.86,9.01-13.16,3.09-.97,4.27,1.83,4.66,3.69,.65,3.09,1.13,6.5-.97,9.46Z"/></g></g></svg>