<?xml version="1.0" encoding="UTF-8"?>
<svg id="Layer_1" data-name="Layer 1" xmlns="http://www.w3.org/2000/svg" width="96" height="99.21" viewBox="0 0 96 99.21">
  <defs>
    <style>
      .cls-1 {
        fill: #396d25;
      }

      .cls-2 {
        fill: #6ba03c;
      }

      .cls-3 {
        fill: #8fc450;
      }

      .cls-4 {
        fill: #fef1dd;
      }

      .cls-5 {
        fill: #f8eed3;
      }

      .cls-6 {
        fill: #feb953;
      }

      .cls-7 {
        fill: #febb58;
      }

      .cls-8 {
        fill: #fea92d;
      }
    </style>
  </defs>
  <path class="cls-1" d="M25.96,48.65c-2.57,0-5.14,.09-7.7-.03-1.71-.08-4.02,.85-4.69-1.7-.51-1.97,.74-3.47,2.02-4.87,5.16-5.6,15.44-5.75,20.79-.29,1.49,1.53,2.97,3.19,2.16,5.43-.86,2.39-3.18,1.31-4.88,1.42-2.56,.15-5.13,.04-7.7,.04Z"/>
  <path class="cls-1" d="M70.43,37.76c2.26-.18,4.71,.63,6.92,1.95,2.62,1.56,5.6,3.52,4.92,6.85-.83,4.08-4.66,1.77-7.07,1.97-4.63,.39-9.33,.05-13.99,.13-5.13,.09-4.96-2.51-2.74-5.57,2.76-3.79,6.81-5.41,11.96-5.34Z"/>
  <path class="cls-3" d="M28.29,68.05c.22,.07,.46,.12,.67,.2,4.39,1.66,10.37,3.4,9.36,8.6-.91,4.67-6.83,1.52-10.47,2.07-3.2,.49-6.55,.14-9.83,.08-1.58-.03-3.52,.45-4.33-1.44-.86-2,.47-3.51,1.75-4.88,2.3-2.46,5.28-3.75,8.49-4.63,1.45-1.14,2.9-1.15,4.35,0Z"/>
  <path class="cls-3" d="M71.99,68.05c.22,.07,.46,.12,.67,.2,4.39,1.66,10.37,3.4,9.36,8.6-.91,4.67-6.83,1.52-10.47,2.07-3.2,.49-6.55,.14-9.83,.08-1.58-.03-3.52,.45-4.33-1.44-.86-2,.47-3.51,1.75-4.88,2.3-2.46,5.28-3.75,8.49-4.63,1.45-1.14,2.9-1.15,4.35,0Z"/>
  <path class="cls-2" d="M52.15,54.15c.62,.31,1.24,.61,1.85,.95,3.25,1.78,7.5,3.69,6.19,7.85-1,3.19-5.27,1.26-8.06,1.45-3.92,.28-7.88,.18-11.82,.02-1.66-.07-3.97,1.01-4.8-1.41-.8-2.32,.8-3.98,2.42-5.25,1.79-1.41,3.88-2.44,5.85-3.63,2.8-1.57,5.59-1.59,8.38,.02Z"/>
  <path class="cls-8" d="M26.54,35.84c-4.18-.3-7.3-2.15-7.51-6.49-.22-4.49,2.31-7.56,7.01-7.59,4.2-.03,7.14,2.47,7.2,6.76,.05,4.12-2.3,6.79-6.7,7.32Z"/>
  <path class="cls-8" d="M70.11,35.83c-4.12-.31-7.22-2.2-7.4-6.54-.18-4.49,2.35-7.53,7.07-7.53,4.22,0,7.12,2.53,7.15,6.81,.02,4.11-2.34,6.79-6.82,7.26Z"/>
  <path class="cls-6" d="M22.58,65.58c-3.25-2.5-4.84-5.49-2.87-9.5,1.35-2.75,3.81-4.17,6.71-4.04,2.9,.13,5.29,1.68,6.33,4.6,1.32,3.75-.04,6.64-3.09,8.94-2.36,1.38-4.72,1.38-7.08,0Z"/>
  <path class="cls-6" d="M66.27,65.58c-3.25-2.5-4.84-5.49-2.87-9.5,1.35-2.75,3.81-4.17,6.71-4.04,2.9,.13,5.29,1.68,6.33,4.6,1.32,3.75-.04,6.64-3.09,8.94-2.36,1.38-4.72,1.38-7.08,0Z"/>
  <path class="cls-7" d="M45.13,51.65c-5.09-4.55-5.67-9.44-1.35-12.44,3.32-2.3,6.91-2.11,9.37,.92,3.58,4.41,2.47,8.47-2.35,11.52-1.89,1.5-3.78,1.5-5.67,0Z"/>
  <path class="cls-4" d="M45.13,51.65c1.89,0,3.78,0,5.67,0,.45,.83,.9,1.67,1.35,2.5-2.79,0-5.59-.01-8.38-.02,.45-.83,.9-1.65,1.36-2.48Z"/>
  <path class="cls-5" d="M22.58,65.58c2.36,0,4.72,0,7.08,0-.45,.83-.91,1.65-1.36,2.48-1.45,0-2.9,0-4.35,0-.46-.83-.91-1.65-1.37-2.48Z"/>
  <path class="cls-5" d="M66.27,65.58c2.36,0,4.72,0,7.08,0-.45,.83-.91,1.65-1.36,2.48-1.45,0-2.9,0-4.35,0-.46-.83-.91-1.65-1.37-2.48Z"/>
</svg>