<?xml version="1.0" encoding="UTF-8"?>
<svg id="Layer_1" data-name="Layer 1" xmlns="http://www.w3.org/2000/svg" width="96" height="99.21" viewBox="0 0 96 99.21">
  <defs>
    <style>
      .cls-1 {
        fill: #fef2df;
      }

      .cls-2 {
        fill: #e28a3b;
      }

      .cls-3 {
        fill: #e9a533;
      }

      .cls-4 {
        fill: #edd7ab;
      }

      .cls-5 {
        fill: #3aa0f0;
      }

      .cls-6 {
        fill: #2c98ed;
      }

      .cls-7 {
        fill: #edaf4b;
      }

      .cls-8 {
        fill: #ae682c;
      }

      .cls-9 {
        fill: #e3a539;
      }

      .cls-10 {
        fill: #2a9af3;
      }
    </style>
  </defs>
  <path class="cls-2" d="M66.73,79.57c-.96,4.31-4.21,5.13-7.93,5.14-7.84,.03-15.69-.03-23.53,.02-5.66,.03-8.59-2.85-8.62-8.36-.08-16.99-.03-33.99,.05-50.98,.03-5.89,3.1-8.7,9.03-8.62,7.62,.1,15.25-.05,22.88,.06,4.15,.06,7.97,.85,8.2,6.21-.08,4.49,3.27,10.07-3.89,12.31-3.51-2.66-.18-7.8-3.8-10.4-7.06-2.09-14.22-.83-21.33-.81-2.92,0-4.22,1.98-4.3,4.7-.36,12.8-.27,25.6-.05,38.4,.06,3.5,2.01,5.1,5.39,5.05,6.71-.1,13.44,.63,20.1-.49,4.01-2.06,.43-7.47,4.24-9.61,2.84,.35,4.12,2.27,4.07,4.81-.07,4.19,.76,8.43-.51,12.57Z"/>
  <path class="cls-10" d="M75.8,49.68c.11-5.26-1.56-9.47-4.19-13.31-1.24-1.81-2.12-3.65,.04-5.07,2.52-1.66,3.35,.97,4.39,2.38,6.58,8.98,6.46,22.77-.29,31.16-.95,1.18-1.75,3.47-4.04,1.98-2.22-1.45-1.56-2.98-.25-4.88,2.61-3.8,4.56-7.94,4.34-12.26Z"/>
  <path class="cls-6" d="M66.84,38.04c5.14,7.17,5.17,14.44,.38,21.78-2.16,1.78-3.66,.65-5.03-1.12-.39-.94-.44-1.9-.24-2.88,2.36-4.75,2.18-9.51-.03-14.27-.16-1.01-.03-1.97,.51-2.85,1.35-1.03,2.68-2.23,4.41-.66Z"/>
  <path class="cls-7" d="M62.81,58.52c1.41,.63,2.53,2.27,4.41,1.3,.47,6.6,1.26,13.2-.49,19.75-.04-3.63-.15-7.27-.09-10.9,.04-2.93-1.31-4.85-3.86-6.06-1.19-1.37-1.19-2.74,.03-4.09Z"/>
  <path class="cls-3" d="M66.84,38.04c-1.69-.56-2.57,1.09-3.92,1.45-1.38-1.48-1.37-2.98-.06-4.5,5.43-2.63,3.36-7.73,3.95-11.96,1.19,5,1.15,10,.03,15.01Z"/>
  <path class="cls-1" d="M61.31,74.03c-8.48,.12-16.96,.18-25.44,.38-3.16,.08-4.24-1.45-4.24-4.35,.02-14.59,0-29.18,.03-43.76,0-2.01,.21-4.32,2.91-4.22,9.03,.33,18.14-1.37,27.09,.95,1.06,17.01,1.78,34.01-.35,51Z"/>
  <path class="cls-4" d="M61.31,74.03c.12-17,.23-34,.35-51,2.22,3.81,.37,8.02,1.2,11.97,.02,1.5,.04,3,.06,4.5-.02,.81-.04,1.63-.07,2.44,1.81,4.68,1.58,9.36,.02,14.05-.02,.85-.04,1.69-.06,2.54,0,1.36-.02,2.73-.03,4.09-.85,3.76,1.43,7.92-1.47,11.42Z"/>
  <path class="cls-8" d="M49.32,79.28c-.07,1.45-.77,2.41-2.29,2.45-1.22,.04-2.03-.8-2.14-1.91-.14-1.46,.71-2.42,2.21-2.48,1.22-.04,1.83,.84,2.21,1.94Z"/>
  <path class="cls-9" d="M62.88,55.98c0-4.68-.02-9.36-.02-14.05,3.78,4.68,4.01,9.36,.02,14.05Z"/>
  <path class="cls-5" d="M54.62,49.06c.73-1.91,1.81-3.87,3.87-3.86,1.75,0,1.97,2.05,1.95,3.58-.02,1.68,.18,4.11-1.96,4.16-1.91,.05-3.12-1.99-3.86-3.88Z"/>
</svg>