<?xml version="1.0" encoding="UTF-8"?>
<svg id="Layer_1" data-name="Layer 1" xmlns="http://www.w3.org/2000/svg" width="96" height="99.21" viewBox="0 0 96 99.21">
  <defs>
    <style>
      .cls-1 {
        fill: #fcbb5c;
      }

      .cls-2 {
        fill: #64b4f5;
      }

      .cls-3 {
        fill: #09a;
      }

      .cls-4 {
        fill: #e1e1e1;
      }

      .cls-5 {
        fill: #1c77d2;
      }

      .cls-6 {
        fill: #01acc0;
      }

      .cls-7 {
        fill: #12afc1;
      }

      .cls-8 {
        fill: #f7b85d;
      }

      .cls-9 {
        fill: #f6bb5f;
      }
    </style>
  </defs>
  <path class="cls-2" d="M35.57,60.68l3.49-.25c1.75-1.73,3.99-1.68,6.21-1.73,1.42-.04,2.85-.02,4.27,0,1.72-.03,3.44,0,5.16,.03,1.34,0,2.68-.02,4.02,0,2.6,.3,5.28-.66,7.84,.44,1.02,1.56,2.63,1.21,4.11,1.28,10.31,.53,12.08,2.33,12.1,12.39,0,1.08-.08,2.16-.12,3.24-8.7,3.92-17.65,2.23-26.57,1.18-1.97-8.04-8.25-7.13-14.38-7.21-7.69-.09-9.3-2.82-6.13-9.4Z"/>
  <path class="cls-6" d="M45.85,60.29c-2.26,.05-4.53,.09-6.79,.14-4.43-5.93-3.94-11.36,.92-17.01,4.42-5.14,9.61-7.66,16.16-6.11,7.04,1.67,10.72,7.2,13.13,13.47,1.21,3.15-1.05,5.83-2.71,8.41-2.34,1.68-4.98,1.35-7.6,1.12-1.19-2.93,1.63-5.1,1.58-8.22-1.67,3.15-2.9,6.15-5.51,8.2l-5.29,.02c-2.88-2.31-3.94-5.68-5.2-9.21-.43,3.38,3.49,5.82,1.31,9.18Z"/>
  <path class="cls-5" d="M55.23,75.9c9.14,.07,18.28,.14,27.42,.2,1.22,5.03-.4,6.79-5.88,6.71-20.91-.32-41.84-.1-62.76-.17-2.1,0-4.95,1.17-5.32-2.83-.31-3.39,1.63-4.04,4.19-4.38,1.74-.97,3.49-.94,5.24-.02,3.43,.7,6.87,.64,10.31,.05,8.97-1.95,17.91-2.56,26.79,.45Z"/>
  <path class="cls-8" d="M55.23,75.9c-8.93-.15-17.86-.3-26.79-.45-5.34-8.08-2.45-14.05,7.14-14.77-1.24,6.55,1.31,9.17,8,8.17,2.97-.44,6.09-.28,9.1,0,5.11,.48,5.83,2.65,2.55,7.05Z"/>
  <path class="cls-1" d="M18.13,75.4c-1.75,.58-3.49,.57-5.24,.02-3.91-2.06-4.73-5.34-3.42-9.26,.95-2.85,3.48-3.84,6.13-3.81,3.08,.03,5.23,1.89,6.1,4.85,1.07,3.64-.77,6.16-3.57,8.19Z"/>
  <path class="cls-7" d="M46.1,24.35c.24-3.89-1.02-8.53,4.83-9.6,5.84-1.06,7.98,1.48,7.99,9.47-4.25,2.07-8.53,2.09-12.82,.13Z"/>
  <path class="cls-9" d="M46.1,24.35c4.26-1.24,8.54-1.09,12.82-.13-.05,1.49-.1,2.98-.15,4.47-3.82,2.97-7.71,3.01-11.68,.3-1.63-1.27-1.35-2.95-1-4.64Z"/>
  <path class="cls-4" d="M47.09,28.99c3.89-.1,7.78-.2,11.68-.3-4.25,6.08-8.47,6.19-11.68,.3Z"/>
  <path class="cls-3" d="M55.03,60.3c.2-2.24,1.23-4.17,2.68-5.77,1.63-1.81,.75-4.18,1.7-6.12q3.75,3.79-.44,11.89c-1.31,0-2.62,0-3.93-.01Z"/>
  <path class="cls-3" d="M45.85,60.29c.04-3.92-6.36-7.51-.26-12.1-.02,4.75,3.48,7.9,4.14,12.13-1.3,0-2.59-.02-3.89-.03Z"/>
</svg>