<?xml version="1.0" encoding="UTF-8"?>
<svg id="Layer_1" data-name="Layer 1" xmlns="http://www.w3.org/2000/svg" width="96" height="99.21" viewBox="0 0 96 99.21">
  <defs>
    <style>
      .cls-1 {
        fill: #b39dda;
      }

      .cls-2 {
        fill: #f34639;
      }

      .cls-3 {
        fill: #311b91;
      }

      .cls-4 {
        fill: #fdefee;
      }

      .cls-5 {
        fill: #341e93;
      }

      .cls-6 {
        fill: #d0c3e8;
      }

      .cls-7 {
        fill: #331e93;
      }
    </style>
  </defs>
  <path class="cls-6" d="M59.44,28.48c5.13,.01,10.28,.28,15.39-.03,5.62-.34,7.33,2.16,7.22,7.48-.25,11.89,.23,23.81-.26,35.69-.15,3.54,3.1,7.08,.03,10.55-5.78-2.79-11.91-1-17.86-1.26-8.53-.37-8.98-.56-9.42-9.15-.11-2.07,.26-4.24-1.33-5.94-3.52-2.04-7.02-2.03-10.49,.09-2.04,2.71-1.03,5.86-1.3,8.8-.37,4.18-2.29,6-6.66,6.22-6.85,.35-13.87-1.57-20.56,1.25-3.07-3.47,.18-7,.03-10.55-.5-11.88-.02-23.79-.26-35.68-.11-5.31,1.59-7.82,7.21-7.48,5.11,.31,10.26,.04,15.39,.03,2.3,4.4,4,8.43,10.75,8.43,6.84,0,9.88-3.05,12.13-8.43Z"/>
  <path class="cls-2" d="M59.44,28.48q-.8,10.24-12.13,10.24-9.95,0-10.75-10.24c.12-2.09,.34-4.18,.35-6.27,.03-3.46,1.65-5.17,5.14-5.11,1.63,.03,3.27,0,4.9-.01q11.56-.01,12.49,11.39Z"/>
  <path class="cls-3" d="M41.17,62.59c4.55,0,9.11,0,13.66,0,1.55,6.53,1.35,13.09,.21,19.65-4.7,0-9.4,0-14.1,.01-1.1-6.57-1.34-13.12,.23-19.66Z"/>
  <path class="cls-1" d="M41.17,62.59c-.08,6.55-.15,13.11-.23,19.66-8.92-.03-17.84-.05-26.76-.08,.31-3.09,2.65-2.74,4.74-2.77,1.18-.02,2.35,.02,3.53,0,5.16-.12,11.23,1.39,15.23-.82,4.45-2.46,.99-9.07,2.03-13.74,.18-.82,.96-1.5,1.46-2.24Z"/>
  <path class="cls-1" d="M55.04,82.24c-.07-6.55-.14-13.1-.21-19.65,2.93,2.41,1.71,5.77,1.47,8.56-.54,6.26,1.28,9.2,8.09,8.34,4.16-.53,8.45-.11,12.68-.09,2.1,.01,4.43-.32,4.74,2.77-8.92,.02-17.85,.04-26.77,.07Z"/>
  <path class="cls-5" d="M28.03,55.3c-3.61,.14-7.42,1.14-7.45-5.47-.03-6.57,3.74-5.51,7.66-5.65,4.26-.15,7.4-.34,7.31,5.91-.09,6.18-3.51,5.33-7.52,5.2Z"/>
  <path class="cls-5" d="M48.21,55.21c-4.73,.66-7.59,.37-7.6-5.72,0-6.89,4.27-5,7.86-5.28,4.04-.32,6.9-.26,6.91,5.52,.01,6.29-3.26,6.09-7.18,5.47Z"/>
  <path class="cls-5" d="M68.08,55.27c-4.13,.32-7.7,.97-7.63-5.53,.07-5.83,2.91-5.85,6.95-5.52,3.6,.29,7.98-1.67,8,5.27,.02,6.17-3.02,6.34-7.32,5.78Z"/>
  <path class="cls-7" d="M29.14,73.58c-4.4-.11-8.46,1.35-8.56-5.4-.1-6.49,3.48-5.74,7.5-5.72,3.96,.02,7.65-.89,7.47,5.68-.16,5.84-3.02,5.84-6.41,5.44Z"/>
  <path class="cls-7" d="M68.01,62.52c3.81-.09,7.28-1.04,7.42,5.16,.16,7.1-4.07,5.7-8.15,5.94-4.28,.26-6.69-.16-6.81-5.74-.15-6.79,3.93-5.36,7.55-5.37Z"/>
  <path class="cls-4" d="M48.41,35.28c-.84-.37-1.22-.49-1.21-.54,.82-4.84-6.69-4.32-5.68-7.26,.74-2.15,5.78-2.63,5.5-7.19,3.54,1.23,2.19,6.68,6.93,6.1,1.46-.18,1.66,3.29-.45,3.18-4.42-.24-3.21,3.83-5.09,5.72Z"/>
</svg>