<?xml version="1.0" encoding="UTF-8"?>
<svg id="Layer_1" data-name="Layer 1" xmlns="http://www.w3.org/2000/svg" width="96" height="99.21" viewBox="0 0 96 99.21">
  <defs>
    <style>
      .cls-1 {
        fill: #01b56a;
      }

      .cls-2 {
        fill: #3dd9b3;
      }

      .cls-3 {
        fill: #3ed9b4;
      }

      .cls-4 {
        fill: #3fd9b4;
      }
    </style>
  </defs>
  <path class="cls-2" d="M63.32,72.89c-3.38,3-7.79,3.63-11.81,5.17-.17-.15-.35-.3-.53-.45-.97-1.63-.66-4.35-3.71-4.16-2.7,.17-2.27,2.69-3.23,4.16-.18,.15-.35,.3-.53,.45-4.02-1.54-8.44-2.15-11.81-5.17-.34-.34-.5-.76-.5-1.24,.4-1.64,1.61-3.21-.09-4.91-1.7-1.7-3.27-.49-4.91-.08-.48,0-.89-.17-1.24-.51-3.01-3.37-3.65-7.78-5.17-11.81,.15-.18,.3-.35,.45-.53,1.63-.97,4.35-.66,4.16-3.72-.17-2.7-2.7-2.26-4.17-3.23-.15-.18-.3-.35-.45-.53,1.52-4.02,2.15-8.44,5.17-11.81,.34-.34,.76-.5,1.24-.5,1.64,.4,3.21,1.62,4.91-.08,1.7-1.7,.5-3.27,.09-4.91,0-.48,.17-.9,.51-1.24,3.36-3.03,7.79-3.64,11.81-5.17,.18,.15,.35,.3,.53,.45,.97,1.63,.66,4.35,3.72,4.16,2.7-.17,2.26-2.69,3.23-4.17,.18-.15,.35-.3,.53-.45,4.02,1.52,8.43,2.16,11.81,5.16,.33,.33,.51,.72,.51,1.19-.37,1.66-1.73,3.22,.05,5,1.78,1.78,3.33,.45,4.99,.06,.46,.01,.86,.18,1.19,.51,3.02,3.37,3.63,7.79,5.17,11.81-.15,.17-.3,.35-.45,.53-1.63,.97-4.35,.66-4.16,3.71,.17,2.7,2.69,2.27,4.16,3.23,.15,.18,.3,.35,.45,.53-1.54,4.02-2.15,8.44-5.17,11.81-.34,.34-.76,.5-1.24,.5-1.64-.4-3.21-1.61-4.91,.09-1.7,1.7-.49,3.27-.08,4.91,0,.48-.17,.9-.51,1.24Z"/>
  <path class="cls-4" d="M70.06,34.52c-.3,0-.61-.02-.91-.03-2.05-1.82-3.99-3.75-5.81-5.81-.01-.31-.02-.61-.03-.92,4.85-1.46,5.67-5.71,6.53-10.41,4.13,3.25,7.35,6.51,10.66,10.63-4.61,1.01-9.05,1.6-10.45,6.53Z"/>
  <path class="cls-4" d="M69.15,66.17c.3-.01,.6-.02,.9-.03,1.41,4.92,5.85,5.52,10.45,6.54-3.31,4.11-6.53,7.37-10.66,10.62-.86-4.71-1.69-8.96-6.53-10.42,0-.3,.02-.61,.03-.91,1.82-2.05,3.75-3.98,5.8-5.8Z"/>
  <path class="cls-3" d="M43.5,22.61c.79-4.27-.84-7.91-3.58-11.62h15.17c-2.72,3.71-4.37,7.34-3.58,11.62l-.34,.34c-2.44,1.43-4.89,1.43-7.33,0l-.34-.34Z"/>
  <path class="cls-4" d="M25.87,34.49c-.31,.01-.61,.02-.92,.03-1.52-4.75-5.52-5.94-10.53-6.28,3.26-4.49,6.84-7.39,10.7-11.29,.84,5.16,1.8,9.32,6.58,10.83,0,.3-.02,.61-.03,.91-1.82,2.05-3.75,3.98-5.8,5.8Z"/>
  <path class="cls-3" d="M19.78,54.34c-4.27-.79-7.91,.87-11.62,3.57v-15.17c3.72,2.67,7.34,4.4,11.62,3.6l.34,.34c1.43,2.44,1.43,4.88,0,7.33l-.34,.34Z"/>
  <path class="cls-3" d="M75.23,46.33c4.23,.63,8-.5,11.62-4.05v15.65c-3.69-2.83-7.35-4.36-11.62-3.6l-.34-.34c-1.42-2.44-1.42-4.88,0-7.32l.34-.34Z"/>
  <path class="cls-4" d="M24.95,66.15c.3,0,.61,.02,.91,.03,2.05,1.82,3.98,3.75,5.8,5.8,.01,.3,.02,.6,.03,.91-4.77,1.51-5.74,5.67-6.52,10.44-4.13-3.3-7.37-6.53-10.64-10.65,4.75-.79,8.93-1.72,10.41-6.52Z"/>
  <path class="cls-3" d="M51.51,78.05c-.79,4.28,.88,7.91,3.6,11.62h-15.18c2.71-3.71,4.36-7.35,3.57-11.62l.34-.34c2.44-1.42,4.88-1.43,7.33,0l.34,.34Z"/>
  <path class="cls-1" d="M43.84,22.95c2.44-.42,4.89-.43,7.33,0,.4,2.94,1.32,5.76-3.67,5.76-4.98,0-4.07-2.83-3.66-5.76Z"/>
  <path class="cls-1" d="M20.13,53.99c-.43-2.44-.43-4.88,0-7.33,2.94-.4,5.76-1.32,5.76,3.66,0,4.98-2.82,4.07-5.76,3.66Z"/>
  <path class="cls-1" d="M74.88,46.67c.43,2.44,.43,4.88,0,7.32-1.86,.11-4.28,1.3-5.28-.82-.74-1.59-.74-4.09,0-5.67,.99-2.12,3.42-.94,5.28-.82Z"/>
  <path class="cls-1" d="M51.17,77.71c-2.44,.43-4.88,.43-7.33,0-.41-2.94-1.32-5.76,3.66-5.76,4.98,0,4.07,2.83,3.66,5.76Z"/>
  <path class="cls-1" d="M25.87,34.49c.74-3.12,2.68-5.05,5.8-5.8,1.78,1.95,3.37,3.39,.48,6.28-2.89,2.9-4.33,1.29-6.28-.48Z"/>
  <path class="cls-1" d="M63.35,28.69c3.13,.75,5.06,2.69,5.81,5.81-1.96,1.78-3.39,3.36-6.28,.48-2.9-2.89-1.28-4.33,.48-6.28Z"/>
  <path class="cls-1" d="M31.66,71.98c-3.12-.75-5.05-2.68-5.8-5.8,1.96-1.77,3.39-3.38,6.28-.48,2.89,2.89,1.3,4.33-.48,6.28Z"/>
  <path class="cls-1" d="M69.15,66.17c-.75,3.12-2.68,5.06-5.8,5.8-1.77-1.96-3.37-3.39-.48-6.28,2.89-2.89,4.33-1.3,6.28,.48Z"/>
</svg>