<?xml version="1.0" encoding="UTF-8"?>
<svg id="Layer_1" data-name="Layer 1" xmlns="http://www.w3.org/2000/svg" width="96" height="99.21" viewBox="0 0 96 99.21">
  <defs>
    <style>
      .cls-1 {
        fill: #fafcfc;
      }

      .cls-2 {
        fill: #455a64;
      }

      .cls-3 {
        fill: #039386;
      }

      .cls-4 {
        fill: #774008;
      }

      .cls-5 {
        fill: #019586;
      }

      .cls-6 {
        fill: #e5ae51;
      }

      .cls-7 {
        fill: #ec9f2c;
      }

      .cls-8 {
        fill: #1a8071;
      }

      .cls-9 {
        fill: #feaf3a;
      }

      .cls-10 {
        fill: #dc7c12;
      }

      .cls-11 {
        fill: #e7b160;
      }

      .cls-12 {
        fill: #627e8c;
      }

      .cls-13 {
        fill: #feaf3c;
      }

      .cls-14 {
        fill: #167f79;
      }

      .cls-15 {
        fill: #f5b24b;
      }
    </style>
  </defs>
  <path class="cls-2" d="M17.97,72.07l-.66-8c-.35-2.9-3.84-3.65-4.49-6.36,.31-7.45-2.42-15.36,3.42-21.98,1.82-.95,1.26-4.31,4.25-4.08,2.35,1.41,5.05,1.31,7.64,1.68,1.91,.4,3.92,.98,5.27,2.24,4.8,4.45,9.99,5.71,16,2.64,1.6,1.55,2.39,3.53,3.08,5.57-.58,3.9-3.65,5.73-6.57,7.7-2.45,1.29-4.92,1.35-7.41,.1-2.16-1.02-3.94-2.62-6.12-3.95,1.46,1.18,1.35,2.7,1.5,4.14,.06,.64,.06,1.27,.06,1.9-.03,2-.18,3.96-1.69,5.51l-1.38,14.22c-4.4,.45-8.69-.14-12.91-1.33Z"/>
  <path class="cls-4" d="M32.26,59.18v-6.41c6.73-2.36,13.86-.46,20.66-1.9,4.38-.13,8.77-.06,13.15-.06,3.14-.17,4.75-1.8,4.85-4.9,.19-5.8,.11-11.6,.05-17.4-.05-4.11-2.7-4.89-6.12-4.91-8.95-.04-17.9,.03-26.85-.04-3.03-.02-6.14,.33-9.01-1.13-.81-.49-1.01-1.16-.62-2.01,1.55-1.64,3.62-1.33,5.55-1.34,11.6-.05,23.21,.13,34.81-.09,5.06-.09,7.16,1.68,6.96,6.76-.26,6.67-.12,13.36-.03,20.04,.03,2.29-.66,4.82,1.61,6.61,2.83,.68,4.02,2.64,3.42,5.25-.65,2.8-3.24,1.44-4.89,1.45-14.51,.12-29.03,.07-43.54,.06Z"/>
  <path class="cls-12" d="M17.97,72.07c4.51-1.51,8.81-1.08,12.91,1.33,5.12-1.01,10.39-4.84,15.18,.87,.61,.73,1.59-.03,2.25-.61,4.11-3.68,8.28-3.54,12.26,.06,1.82,1.64,2.71,.07,3.78-.72,2.22-1.64,4.6-2.62,7.33-1.73,2.32,.76,5.13,1.99,4.89,4.55-.3,3.18-3.52,1.57-5.35,1.59-16.61,.14-33.23-.1-49.84,.18-5.35,.09-5.34-1.84-3.42-5.52Z"/>
  <path class="cls-10" d="M77.27,52.41c-4.18,.14-2.87-3.02-2.91-5.04-.14-7.51-.07-15.03-.06-22.54,0-2.27-.08-4.5-3.26-4.42-14.34,.35-28.72-.98-43.04,.72-3.87-.17-7.7,.59-11.56,.56-.67-3.02,.44-4.2,3.69-4.18,17.64,.11,35.28,.14,52.92-.02,3.79-.04,4.15,1.72,4.13,4.7-.08,10.07,.04,20.15,.08,30.22Z"/>
  <path class="cls-15" d="M16.45,21.7c3.75-2.3,7.54-3.83,11.57-.56,.12,.21,.3,.32,.54,.34,3.92,5.47,3.41,7.73-2.63,11.61-1.89,.23-3.76,.32-5.49-.7-1.94,.46-1.79,3.44-4.19,3.35,.07-4.68,.14-9.36,.2-14.04Z"/>
  <path class="cls-9" d="M69.4,60.9c2.93,.51,4.51,1.98,4.36,4.45-.14,2.46-1.87,4.01-4.39,3.84-2.49-.17-4.02-1.91-3.92-4.36,.1-2.52,1.96-3.63,3.95-3.93Z"/>
  <path class="cls-13" d="M54.38,60.92c2.3,.37,4.04,1.53,4.08,4.07,.04,2.53-1.62,4.03-4.02,4.18-2.57,.16-3.97-1.48-4.06-3.98-.1-2.58,1.45-3.85,4-4.27Z"/>
  <path class="cls-13" d="M39.09,69.24c-2.31-.33-4.01-1.51-4.14-4.01-.13-2.56,1.53-4.08,3.91-4.2,2.43-.12,4.1,1.29,4.18,3.88,.08,2.54-1.41,3.87-3.95,4.34Z"/>
  <path class="cls-11" d="M12.83,57.72c2.57,1.39,5.5,2.53,4.49,6.36-1.98-1.79-5.61-2.45-4.49-6.36Z"/>
  <path class="cls-5" d="M25.69,32.19c4.13-2.75,5.01-6.34,2.87-10.71,12.89-.04,25.78,.14,38.66-.21,5.06-.14,6.45,1.64,6.19,6.32-.34,6.22-.45,12.49,.02,18.69,.45,5.87-2.08,7.25-7.27,6.08-4.55-3.13-9.21-1.99-13.89-.33-2.2-.92-5.5,2.09-6.82-1.88,2.39-1.99,5.2-3.59,6.41-6.68-1.54-1.23,2.08-5.26-2.66-4.74-4.85,4.12-9.39,5.03-14.16-.42-1.58-1.81-4.44-2.53-6.71-3.75-.6-1.09-3.2-.02-2.63-2.37Z"/>
  <path class="cls-7" d="M23.78,60.94c2.37,.12,4.02,1.48,4.18,3.91,.17,2.5-1.52,4.11-3.94,4.33-2.54,.23-4.25-1.37-4.36-3.82-.11-2.42,1.41-3.97,4.12-4.42Z"/>
  <path class="cls-8" d="M45.44,50.16c2.25,2.34,5.14,.86,7.72,1.27,.32,.16,.47,.36,.46,.62-.01,.28-.06,.42-.14,.42-7.07,.1-14.14,.2-21.22,.3,.01-.46,.02-.93,.04-1.39,1.83-2.18,4.43-.52,6.55-1.28,2.19,1.44,4.38,1.44,6.59,.05Z"/>
  <path class="cls-6" d="M49.19,38.73c1.41-.28,2.71-2.79,3.77-1.47,1.55,1.93,1.12,4.45-1.11,6.21-1.86-1.05-2.84-2.58-2.66-4.74Z"/>
  <path class="cls-3" d="M38.85,50.1c-1.82,2.21-4.33,1.05-6.55,1.28,.32-9.66,4.34-.98,6.55-1.28Z"/>
  <path class="cls-14" d="M25.69,32.19c.88,.79,1.75,1.58,2.63,2.37-2.64-.66-6.2,1.87-7.88-2.17,1.75-.06,3.5-.13,5.25-.2Z"/>
  <path class="cls-1" d="M53.48,52.47c.03-.39-.08-.74-.32-1.04,3.99-3.93,11.12-3.42,13,.94-4.23,.03-8.45,.07-12.68,.1Z"/>
</svg>