<?xml version="1.0" encoding="UTF-8"?>
<svg id="Layer_1" data-name="Layer 1" xmlns="http://www.w3.org/2000/svg" width="96" height="99.21" viewBox="0 0 96 99.21">
  <defs>
    <style>
      .cls-1 {
        fill: #e43935;
      }

      .cls-2 {
        fill: #f34336;
      }

      .cls-3 {
        fill: #b91f1e;
      }

      .cls-4 {
        fill: #b71e1e;
      }
    </style>
  </defs>
  <path class="cls-2" d="M39.68,54.63c-.2-4.86-2.71-9.02-4.38-13.36-3.8-9.85-2.38-18.78,3.12-27.41,2.72,2.19,2.14,5.62,3.19,8.44,1.95,6.6,3.84,13.22,7.91,18.93,1.44,4.51,4.83,7.76,7.51,11.46-.12,2.95,2.38,4.17,4.06,5.82,3.28,3.23,6.73,6.56,10.93,8.32,5.85,2.44,6.41,6.13,4.79,11.53-1.26,4.21-1.73,8.66-2.64,13.53-10.8-5.77-18.34-14.48-25.69-23.39-4.38-3.71-6.75-8.69-8.8-13.87Z"/>
  <path class="cls-1" d="M46.52,70.51c-6.22,8.65-13.97,15.61-23.6,21.65-1.34-7-2.58-13.52-3.84-20.03-.34-1.74,.9-2.25,2.09-2.87,6.03-3.14,11.15-7.52,16.28-11.9,4.45,3.4,6.31,8.59,9.07,13.15Z"/>
  <path class="cls-1" d="M57.03,52.7c-4.37-2.46-7.25-5.95-7.68-11.13-.99-1.7-.02-3.15,.68-4.56,2.32-4.66,3.77-9.63,5.29-14.58,1.11-2.85,.5-6.36,3.23-8.6,9.33,13.34,4.36,26.12-1.53,38.86Z"/>
  <path class="cls-4" d="M58.56,13.83c-.74,3.12-1.48,6.24-2.21,9.36-5.23-.27-10.47-.25-15.7-.01-.74-3.11-1.48-6.21-2.23-9.32,6.71-3.79,13.42-3.75,20.14-.02Z"/>
  <path class="cls-3" d="M46.52,70.51c-4.42-3.42-6.12-8.72-9.07-13.15,.74-.91,1.49-1.82,2.23-2.73,3.81,4.07,5.88,9.24,8.8,13.87-.65,.67-1.31,1.34-1.96,2.01Z"/>
</svg>