<?xml version="1.0" encoding="UTF-8"?>
<svg id="Layer_1" data-name="Layer 1" xmlns="http://www.w3.org/2000/svg" width="96" height="99.21" viewBox="0 0 96 99.21">
  <defs>
    <style>
      .cls-1 {
        fill: #fcbb5c;
      }

      .cls-2 {
        fill: #f39a15;
      }

      .cls-3 {
        fill: #607d8b;
      }

      .cls-4 {
        fill: #fe9802;
      }

      .cls-5 {
        fill: #feb952;
      }

      .cls-6 {
        fill: #4d616a;
      }
    </style>
  </defs>
  <path class="cls-3" d="M38.04,79.27c-3.18,1.02-4.49,4.11-6.73,6.17-1.94,1.78-3.82,3.08-6.25,1.26-2.55-1.91-2.66-4.55-.9-6.92,2.83-3.8,8.14-7.21,8.41-11.07,.29-4.14-6.39-6.22-9.38-9.85-2.53-3.07-3.24-6.48-.76-9.82,4.4-5.92,8.8-11.86,13.62-17.43,3.81-4.4,8.32-4.06,12.42-.09,3.24,3.13,6.29,6.44,9.43,9.67,.67-.02,1.31,.09,1.93,.35,3.23,1.02,6.28,2.43,9.14,4.26,2.07,1.75,3.52,3.78,3.01,6.7-4.72,6.82-8.82,6.67-15.52-.53-1.58-1.02-3.54-1.72-4.67-3.11-5.48-6.72-9.02-4.01-13.18,1.71-2.41,3.31-1.88,5.04,.24,7.85,3.03,4.03,7.35,7.64,6.27,13.62-2.2,2.57-4.36,5.18-7.1,7.22Z"/>
  <path class="cls-4" d="M56.48,51.97c1.88,.87,3.85,1.59,5.61,2.65,4.03,2.43,6.99,1.65,9-2.63,.1-.21,.3-.43,.28-.63-1.09-10.68-1.01-11.09,12.25-9.22,.09,6.85,0,13.71,.33,20.55,.19,3.88-1.41,4.87-4.98,4.72-5.43-.23-10.89-.34-16.31,.02-4.84,.32-7.05-1.14-6.43-6.26,.37-3.04,.19-6.14,.25-9.21Z"/>
  <path class="cls-5" d="M54.35,28.07c-4.88-.18-7.4-2.81-7.43-7.18-.04-4.56,3.23-7.09,7.34-7.15,4.27-.07,7.11,2.61,7.04,7.25-.07,4.6-2.7,6.85-6.95,7.09Z"/>
  <path class="cls-6" d="M38.04,79.27c.84-3.91,3.06-6.46,7.1-7.22,.89,2.41,1.89,4.79,2.65,7.24,.95,3.05,1.46,6.47-2.18,7.88-3.8,1.47-5.43-1.4-6.42-4.59-.35-1.12-.76-2.21-1.14-3.32Z"/>
  <path class="cls-1" d="M83.61,42.14c-8.39-2.07-11.89,2.07-12.52,9.85-.18-2.32-1.96-3.7-3.18-5.42-1.58-3.75-5.41-3.21-8.34-4.37-.55-.34-1.1-.67-1.65-1.01,8.58-.11,17.22-1.92,25.69,.95Z"/>
  <path class="cls-2" d="M59.57,42.2c3.17,.72,8.65-2.99,8.34,4.37-3.08-.88-5.98-2.12-8.34-4.37Z"/>
</svg>