<?xml version="1.0" encoding="UTF-8"?>
<svg id="Layer_1" data-name="Layer 1" xmlns="http://www.w3.org/2000/svg" width="96" height="99.21" viewBox="0 0 96 99.21">
  <defs>
    <style>
      .cls-1 {
        fill: #ee5c8d;
      }

      .cls-2 {
        fill: #f38eb0;
      }

      .cls-3 {
        fill: #ee5c8e;
      }

      .cls-4 {
        fill: #eb407a;
      }

      .cls-5 {
        fill: #e81e63;
      }
    </style>
  </defs>
  <path class="cls-5" d="M57.31,43.36c.03-3.28,0-6.57,.12-9.85,.22-6.47,3.54-8.43,9.42-5.59,4.57,2.21,8.02,5.73,10.83,9.83,6,8.73,10.41,18.24,12.78,28.58,2.34,10.25-2.9,16.17-13.48,15.57-13.4-.77-19.58-7.28-19.6-20.65,0-2.96,.05-5.91,.07-8.87,5.55-.25,8.43,3.09,6.62,7.89-.82,2.18-1.64,4.29-1,6.8,1.29-1.69,1.41-5.16,3.78-4.7,2.89,.56,2.79,4.54,5.07,6.71-1.08-3.12-3.34-6.47-.57-8.89,3.14-2.75,6.4-.3,9.54,1.78-2.89-2.29-5.05-5.11-8.78-5.49-1.42-.14-3.24-.35-3.24-2.3,0-2.02,1.69-2.58,3.39-2.9,.63-.12,1.31,.1,1.94-.28-3.61-1.27-3.02-4.63-3.7-7.3-.33,1.15,0,2.32-.39,3.42-1.52,3.37-4.14,3.68-6.84,1.92-2.28-1.49-5.86-1.82-5.99-5.65Z"/>
  <path class="cls-5" d="M37.56,52.36c.02,3.94,.13,7.89,.04,11.83-.2,8.83-4.63,14.62-13.25,16.6-5.87,1.35-12.23,3.14-17.21-2.01-4.99-5.15-3.23-11.3-1.3-17.16,3.19-9.71,7.26-19,13.93-26.93,2.79-3.32,6.04-6.06,10.19-7.5,4.29-1.5,7.19,.29,7.54,4.82,.29,3.76,.17,7.55,.24,11.33-2.51,6.26-9.25,8.22-12.86,3.74-.27-1.04-.3-2.1-.2-3.17,.06-.66,.08-1.11,.05-.45,0,.05-.16,.08-.25,.18-.71,2.62,.02,5.81-3.44,7.22,1.29,.58,2.48,.32,3.45,.93,1.03,.64,1.87,1.42,1.63,2.74-.2,1.12-1.16,1.63-2.15,1.71-3.88,.32-6.61,2.6-9.27,5.37,2.86-2.09,6.24-4.1,8.95-1.42,2.97,2.93,.41,6.38-1.12,9.49,1.52-1.21,2.15-2.97,3.08-4.54,.72-1.21,1.06-3.07,2.88-2.86,1.38,.16,1.9,1.67,2.48,2.84,.36,.73,.56,1.52,.72,2.57,.98-2.77,.16-5.06-.75-7.44-1.81-4.78,1.07-8.12,6.63-7.88Z"/>
  <path class="cls-2" d="M37.56,52.36c-6.63,2.9-6.67,3-4.47,9.75,1.09,3.34,.54,5.52-2.63,9.24,.11-3.28,.28-6.2-2.29-8.49-2.25,3.63-3.01,8.84-9.57,9.2,2.56-2.52,4.5-4.52,4.91-7.43,.2-1.42,.96-3.12-.56-4.07-1.25-.78-3.01-.75-4.29-.05-2.14,1.17-4.07,2.72-6.03,4.07,.98-5.08,4.51-8.39,9.98-9.32,1.03-.18,2.72,.42,2.73-1.23,0-1.69-1.64-1.75-2.97-1.78-1.57-.04-3.15,0-5.07-.42,5.89-1.28,5.34-6.29,6.61-10.2,3.05,.72,.34,3.5,1.73,4.82,1.09,2.73,2.93,3.61,5.33,1.71,2.18-1.72,5.19-2.25,6.75-4.81,3.76-1.78,5.59-4.85,5.97-8.9,2.55-1.76,5.09-1.75,7.64,0,1,3.64,2.04,7.25,5.98,8.92,1.8,2.9,5.14,3.63,7.77,5.33,1.99,1.29,3.55-.16,4.29-2.26,1.4-1.31-1.31-4.09,1.73-4.81,1.53,3.75,.06,9.33,7.74,9.5-1.76,.91-2,1.11-2.28,1.16-2.3,.42-6.12-1.36-6.58,1.37-.48,2.88,3.51,1.18,5.35,2.16,3.67,1.95,5.95,4.84,7.18,8.89-1.5-1.09-3.02-2.16-4.48-3.29-1.87-1.44-4.22-1.96-5.98-.76-1.94,1.33-.31,3.57-.13,5.45,.22,2.26,2.69,3.19,3.1,5.75-5.52-.77-6.03-5.66-8.2-9-2.38,2.2-2.38,5.07-2.68,8.73-2.48-3.49-3.34-6.21-2.26-9.45,2.25-6.78,2.19-6.86-4.44-9.76-.21-.24-.38-.63-.64-.71-3.91-1.12-6.08-7.24-9.47-6.02-3.31,1.19-6.3,4.71-9.79,6.72Z"/>
  <path class="cls-2" d="M51.32,14.68v6.1c-2.54,1.75-5.09,1.75-7.63,0v-6.1c2.54-1.75,5.09-1.75,7.63,0Z"/>
  <path class="cls-2" d="M51.32,24.56v6.1c-2.54,1.75-5.09,1.75-7.63,0v-6.1c2.54-1.75,5.09-1.75,7.63,0Z"/>
  <path class="cls-4" d="M51.32,14.68c-2.54,0-5.09,0-7.63,0-.85-3.38,.82-3.96,3.82-3.96,3,0,4.66,.58,3.82,3.96Z"/>
  <path class="cls-4" d="M51.32,24.56c-2.54,0-5.09,0-7.63,0,0-1.26,0-2.52,0-3.78,2.54,0,5.09,0,7.63,0,0,1.26,0,2.52,0,3.78Z"/>
  <path class="cls-4" d="M43.69,30.66c2.54,0,5.09,0,7.63,0,0,1.26,0,2.52,0,3.79-2.55,0-5.09,0-7.64,0,0-1.26,0-2.52,0-3.78Z"/>
  <path class="cls-3" d="M71.1,41.62c-1.67,1.21-.05,3.61-1.73,4.81-.04-1.76-.54-3.67,0-5.24,.83-2.44,1.26-.27,1.74,.43Z"/>
  <path class="cls-1" d="M25.64,46.43c-1.68-1.21-.05-3.61-1.73-4.82,.48-.69,.91-2.86,1.74-.42,.53,1.57,.03,3.48-.01,5.24Z"/>
</svg>