<?xml version="1.0" encoding="UTF-8"?><svg id="Layer_2" xmlns="http://www.w3.org/2000/svg" viewBox="0 0 1192.39 586.5"><defs><style>.cls-1{fill:#3cd28a;}</style></defs><g id="new"><g id="rudasa"><path id="tree" class="cls-1" d="M521.01,436.1v-132.31s-23.48-37.38-87.46-47.92-102.73,5.96-102.73,5.96l-5.47,3.16-8.29,21.61-.27,26.27c0,1.98-1.17,3.56-2.42,5.09-4.77,5.86-15.6,13.26-19.4,14.82-4.33,1.78-10.66,3.51-10.82,3.18,0,0-.35-19.86,0-21.67,1.09-5.68,8.89-17.71,28.15-27.8,0,0,5.33-18.97,5.1-20.87s-2.91,0-2.91,0l-37.91,13.3s-42.88,25.34-48.27,30.96-19.26,28.09-29.35,29.12-30.27,.8-36.46-1.38l-6.19-2.18s11.92-30.15,27.06-32.56c10.59-1.69,22.48-1.07,28.66-.54,2.81,.24,5.61-.49,7.96-2.06,10.72-7.18,41.04-27.51,42.83-28.93,2.18-1.72-5.73-4.13-13.07-4.7s-38.75-.57-38.75-.57c0,0-7.34,4.7-17.89,8.71-7.27,2.77-23.04,4.36-38.67-1.65-5.65-2.17-18.08-15.78-18.08-15.78,0,0,14.58-14.67,28.32-15.59s22.47,1.61,31.41,6.54,11.25,8.93,11.25,8.93c0,0-9.42,.47,15.46-.22s34.97,.8,44.94,3.9,9.06,3.1,14.56,3.1,65.01-16.39,66.27-17.31,2.75-4.01,.57-4.47-42.19-3.21-64.43-5.96-29.01-5.96-50.68-6.76-44.94-4.36-61.57-2.06-62.1,18.72-67.07,23.73c-6.94,6.99-3.55,7.62-16.28,16.97s-30.61,7.45-39.44,5.62-11.24-4.13-11.24-4.13c0,0,17.81-27.63,35.31-28.2,11.36-.37,28.89-.57,31.18-.57s32.79-11.15,32.68-14.17-2.72-4.53-2.72-4.53h-60.79s-11.69-.33-17.31,4.37-12.61,11.01-22.47,11.12-20.8-5.39-25.68-10.1C2.94,222.04-.4,216.35,.04,215.96c5.9-5.33,20.2-15.29,33.73-15.98,6.9-.35,16.44,4.92,24.31,6.71,6.31,1.43,26.37,.61,33.52,.69,17.12,.19,41.98-1.06,60.21-.26s63.69,1.4,64.03,1.4-7.87-10.18-21.9-15.36-36-11.81-44.6-13.76-13.07,0-21.55,0-18.23,2.06-37.15-8.48-23.35-18.23-23.83-19.06,9.73-4.91,13.51-5.02,31.41-.46,40.7,2.75,24.65,15.71,27.29,17.08,43.34,10.55,46.2,10.66-9.86-9.4-13.64-12.96-13.64-10.09-14.45-20.98-1.83-33.02,6.88-36.8c0,0,12.96,5.27,19.15,18.11s9.86,36.46,10.2,38.64,29.12,28.89,35.43,37.72,6.08,9.97,16.62,11.46,150.99,19.95,154.89,21.21,2.98-3.96-1.15-7.48-27.63-27.37-31.76-28.52-37.38-1.83-50.33-3.44-14.71-.59-14.71-.59c0,0-6.16,5.75-15.68,3.8s-44.14-25.22-44.14-25.22c0,0,10.43-6.42,29.24-4.7s27.63,12.04,32.45,14.45,47.46,4.93,48.61,4.93-.8-5.04-8.14-10.55-39.29-23.95-39.29-23.95c0,0-30.53,1.13-36.5-.93s-13.87-4.36-21.1-10.43-19.05-26.56-19.05-26.56c0,0,29.6-6.11,42.9,.77s35.35,24.76,35.35,24.76c0,0,47.24,26.52,58.01,35.69s21.71,20.25,24.15,20.79,5.27,.54,5.27,.54v-53.73s-42.04-27.67-46.47-28.43-20.18,3.21-25.53-.15-18.34-10.24-19.57-19.11,.76-14.37,.76-14.37c0,0,8.56-9.63,25.53,3.67s22.79,23.39,22.79,23.39l41.56,24s3.67-.3,4.13-4.73,2.29-7.95-4.13-13.91-15.59-9.48-20.33-24.61-4.74-16.97-4.74-16.97c0,0,1.68-26.14,2.45-27.06s22.01,18.5,28.89,30.57,6.88,13.15,6.88,17.89-1.07,22.78-1.07,33.32v40.97s14.92-8.96,15.02-15.97c.13-8.78,.94-33.64,22.58-45.02,17.67-9.29,17.44,2.47,16.54,8.74-1.16,8.1-4.53,22.23-24.78,39.46-8.13,6.91-10.84,11.77-15.29,19.48l-8.93,15.46c-1.77,3.06-7.08,13.32,0,23.72s11.66,19.72,25.11,24.46,49.3,18.67,57.94,19.26c11.4,.79,18.73-2.1,18.73-2.1,0,0-12.88-23.58-16.39-25.26s-15.63,3.82-25.72-1.68-19.26-21.39-19.26-21.39c0,0,8.41-9.49,22.78-2.61s17.39,12.11,17.39,12.11c0,0,3.14-3.55,2.52-4.62s-16.85-17.77-17.39-33.35,3.9-30.86,12.76-38.2,9.02-5.04,9.02-5.04l11.17,19.34c3.66,6.34,8.4,24.53,3.13,40.13-3.23,9.55-4.25,13.38-3.89,17.69,.23,2.73,1.01,6.61,2.13,9.21,2.9,6.73,15.3,28.19,15.3,28.19,0,0,2.59,4.37,6.41-7.25s10.1-41.04,11.62-60.23c1.9-23.93-2.99-36.22-8.56-53.81s-20.14-23.29-29.56-32.05-13.29-12.42-17.27-12.58-3.05,3.43-14.62,3.6c-14.37,.21-16.48-5.1-30.7-21.18,0,0-5.83-7.34-5.38-8.57s17.89-8.56,27.21-7.49,21.55,13.91,26.75,19.41,23.08,20.79,25.68,20.18,2.6-9.63,2.6-14.06-1.99-14.22-8.71-21.25-9.17-5.96-15.13-11.77-12.69-16.97-13.76-28.43,.51-14.21,.51-14.21c0,0,6.52-1.54,16.76,5.65s20.17,18.97,21.01,25.84-2.06,20.32,.85,23.99,6.05,5.48,7.08,6.08,1.03,1.41,2.55-11.58-.31-20.64,3.82-28.89,16.66-12.84,17.58-12.99,5.66,35.46,0,41.73-16.62,11.35-16.2,17.58-1.04,16.06,2.77,24.16c12.08,25.68,17.49,47.91,17.49,47.91,0,0,6.49-6.49,9.2-25.16,.96-6.63,2.16-20.36,2.33-27.86,0,0,.92,1.59-3.21-9.11s-6.09-22.32,3.3-39.59l9.39-17.27s11.62,15.59,12.23,27.36,.61,26.45-8.41,37.61c-3.54,4.8-4.43,19.49-3.59,20.71s11.01-7.03,18.06-7.95,7.05,.11,7.05,.11c0,0-1.61,13-9.75,22.2-2.9,3.29-9.66,9.55-19.18,11.01,0,0-6.34,7.18-9.4,28.2s-5.35,48.54-7.41,62.75-5.06,18.65-2.06,19.03,21.44-13.99,34.85-20.64,22.93-11.58,23.85-14.33,1.07-23.2,0-24.8-7.87-6.11-18.11-10.47-13.67-13.43-14.14-19.26-1.45-10.7,4.2-9.25,12.76,3.9,16.66,10.01,4.2,13.53,6.57,14.6,3.97,1.38,4.59,.38-.23-42.5-.23-42.5c0,0-6.34-4.36-4.89-14.29s1.45-13.99,7.57-19.26l6.11-5.27s8.41,3.75,8.56,15.36-2.21,20.17-6.84,23.73c0,0-.88,8.6,.04,9.75s4.05,3.24,6.81-.31,14.74-14.9,15.59-19.41-1.16-15.29,8.56-29.73c6.25-9.29,21.38-19.09,25.84-19.88,8.13-1.44,11.46-.38,11.61-.38s1.68,15.21-1.99,24.69-10.09,19.64-20.41,24.08-9.87,3.65-10.32,4.43-31.34,29.35-31.87,32.03-.76,45.32-.76,45.32c0,0,12.61-2.6,23.39-11.77s8.15-11.1,14.77-16.1,9.23-10.96,19.85-12.11,23.69,7.8,23.69,7.8c0,0-4.2,14.37-15.67,19.64s-27.21,4.51-29.96,5.04-22.93,10.09-23.31,14.22,2.87,4.57,3.32,4.74,6.65-.92,16.11,8.83,15.42,15.08,16.17,17.71,.52,20.29,.52,20.46-15.19,.29-16.68-11.81-.8-16.74-1.26-18.29-11.69-9.75-20.92-10.55-19.97,4.18-21.34,6.19-2.13,4.6,2.36,5.68,13.76-2.18,21.38,7.11,10.95,23.22,11.24,24.76,.29,2.64,.29,2.64c0,0-19.61,6.59-27.29-3.78s-10.09-18.4-10.49-23.39-3.5-4.99-5.62-4.99-5.79-.8-13.82,5.33-31.3,26.83-32.5,29.64-3.73,22.59-4.07,25.97,10.32,1.38,15.48,.11,117.5-31.95,127.89-32.87,31.18-62.68,31.8-73.99,.65-21.44-4.34-25.28-16.05-9.63-20.41-23.33-3.42-34.85-3.42-34.85c0,0,.27-11.69,2.64-12.46s27.97,24.92,29.96,33.02,3.29,22.47,3.97,34.01,3.06,19.18,3.06,19.18c0,0,31.95-42.5,35.24-46.93s2.8-3.6,2.8-3.6c0,0-4.48-25.76,4.23-37.22s16.74-23.16,22.85-23.85l6.11-.69s6.42,28.36,1.15,37.3-18.88,23.16-21.78,26.22-45.32,61.53-45.32,61.53c0,0,0,5.89,.23,6.42s3.21,.76,3.36,.54,17.81-13.61,28.59-12.08,25.22,8.64,25.22,8.64c0,0-10.01,15.75-27.82,16.13s-21.94-.69-21.94-.69c0,0-4.2-3.13-5.35-4.66s-7.41-5.73-10.93,.38-15.67,45.02-17.27,47.54,25.3,4.2,43.34-.23,19.8-5.96,36.92-22.09,19.35-19.98,19.35-19.98v-58.21s-3.3,.99-4.06-8.48-1.07-24.61,6.57-41.12,22.17-32.25,22.17-32.25c0,0,11.62,19.41,7.95,40.51s-4.66,27.06-8.79,33.71-10.38,11.81-10.38,12.04-.17,40.85-.17,40.85c0,0,3.9,1.45,8.71-1.07s51.59-48.15,51.59-48.15c0,0,.34-23.85,12.15-33.59s25.72-21.48,33.1-22.03,12.08-.55,12.08-.55c0,0-1.38,27.29-11.01,37.72s-20.87,19.26-29.12,22.36l-8.25,3.1-27.59,30.38s5.5,2.45,26.14-4.43l20.64-6.88s10.55-16.2,22.93-19.26,29.66-3.06,29.66-3.06c0,0-12.99,21.55-22.62,24.61s-28.13,1.38-28.59,3.06-26.9,11.31-42.96,14.98-19.87,4.28-21.4,5.2-37.91,32.71-38.52,35.77,.92,3.06,9.02,3.06,70.17-5.81,81.94-11.01,73.22-38.98,76.59-42.19,6.73-7.03,7.8-8.41,1.83-15.29,20.94-21.86,30.73-10.24,46.17-8.71l15.44,1.53s-22.01,31.18-34.24,36.54-10.7,8.87-30.27,9.17l-19.57,.31s-57.48,31.49-58.7,35.62,1.38,4.13,4.74,4.13,17.58-5.66,38.06-8.71,31.18-2.9,42.8-.46,22.17,5.66,22.17,5.66c0,0-10.7,16.05-18.96,18.34s-29.5,7.95-43.72,4.59-22.85-10.13-33.97-9.67-120.96,11.35-124.17,12.38-1.62,3.78-1.62,3.78c0,0,82.57,30.16,89.1,31.07s99.75,1.72,103.3,0,35.43-25.57,36.46-27.86,.23-19.95,8.25-30.04,23.27-30.5,38.87-37.61l5.73-2.06s5.73,17.79,2.87,29.82-20.29,40.23-32.68,44.47-16.51,4.24-16.51,4.24l-21.9,23.39s70.74,9.29,76.01,8.6,16.62-8.6,33.02,1.49,36.67,45.22,36.88,45.57-3.52,2.7-9.59,2.7-14.1,3.1-27.75-3.21-26.71-13.53-33.36-23.62l-6.65-10.09s-86.45-10.09-101.58-10.89-56.52-.8-56.52-.8l19.61,15.71s19.26-3.9,30.96,7.11,24.88,35.43,24.88,35.43c0,0-20.87,6.88-32.79,1.38s-23.85-18-30.38-31.64-61.91-33.71-61.91-33.71c0,0-90.69-31.76-103.76-32.9s-93.78,9.97-93.78,9.97c0,0-60.19,11.58-58.59,16.74s25.68,15.82,40.7,14.45,36.23-9.97,40.47-13.76,1.61-15.36,18.46-17.2,21.21-1.83,21.21-1.83c0,0-5.85,15.94-16.51,20.52s-20.29,4.59-20.29,4.59c0,0-8.77,3.07-8.51,4.92s-2.61,3.22,18.49,3.22,25.8,1.95,32.22-1.83,11.46-10.55,24.88-10.66,23.96,1.95,31.53,9.75l7.57,7.8s-8.6,16.51-27.97,16.05-14.22-.16-34.51-9.2l-77.96,1.17s19.19,20.29,34.21,21.43,20.13-1.14,33.66,12.04,21.44,30.73,22.47,35.54l1.03,4.82s-27.86,5.96-45.17-10.55-22.13-36.8-22.13-36.8c0,0-70.51-33.48-91.95-36.34s-22.76-3.44-39.93,2.18-25.85,10.63-25.85,10.63l-.72,117.2h-45.54Z"/><g id="txt"><path class="cls-1" d="M98.71,496.42l.3,85.21c0,.92-.74,1.66-1.66,1.66l-52.76-.29c-.91,0-1.64-.74-1.64-1.65l-.3-208.95c0-2.91,2.36-5.28,5.27-5.28H121c26.21,0,45.42,4.55,57.63,13.66,12.21,9.1,23.72,24.5,23.72,44.18,0,13.61-3.18,24.78-9.53,33.52-6.35,8.74-15.28,17.05-28.08,21.19,2.6,0,8.46,4.49,14.88,11.24,4.5,4.73,7.69,9.55,11.76,17.51,1.93,3.78,3.48,7.74,4.63,11.82l17.18,60.94c.3,1.05-.49,2.1-1.59,2.1h-51.17c-.75,0-1.41-.51-1.6-1.24l-10.25-39.88c-2.07-8.06-4.95-15.9-8.64-23.35-3.9-7.89-9.33-13.49-12.62-15.97-5.02-3.77-10.52-7.72-18.87-7.72l-8.79,.28c-.54,.02-.98,.46-.97,1.01Zm16.83-37.98c10.75,0,18.46-2.07,23.12-6.21,4.66-4.14,7-10.94,7-20.42s-2.33-16.09-7-20.14c-4.66-4.05-12.37-6.07-23.12-6.07h-15.68c-.64,0-1.15,.52-1.15,1.15v50.52c0,.64,.52,1.15,1.15,1.15h15.68Z"/><path class="cls-1" d="M234.08,516.9v-89.55c0-1.66,1.35-3.01,3.01-3.01h41.95c1.66,0,3.01,1.35,3.01,3.01v10.65c0,8.37-.05,18.88-.13,31.52-.09,12.65-.13,21.08-.13,25.31,0,12.42,.31,21.36,.93,26.83,.62,5.47,1.69,9.45,3.2,11.93,1.95,3.22,4.51,5.7,7.66,7.45,3.15,1.75,6.77,2.62,10.86,2.62,9.95,0,17.77-3.95,23.45-11.86,5.68-7.91,8.53-18.9,8.53-32.97v-71.48c0-1.66,1.35-3.01,3.01-3.01h41.68c1.66,0,3.01,1.35,3.01,3.01v153.14c0,1.47-1.19,2.66-2.66,2.66h-42.38c-1.47,0-2.66-1.19-2.66-2.66v-21.02c-7.2,9.01-13.39,16.34-21.43,20.62-8.04,4.28-16.9,6.41-26.59,6.41-17.24,0-32.1-8.68-41.12-19.62s-13.21-29.1-13.21-49.98Z"/><path class="cls-1" d="M521.1,438.07l-.12-61.98h46.22v205.04c0,.96-.78,1.74-1.74,1.74h-42.73c-.96,0-1.74-.78-1.74-1.74v-14.33c-4.45,4.68-11.81,10.08-20.93,13.82-8,3.27-15.74,4.91-25.75,4.91-17.72,0-32.89-6.14-44.34-20.66-5.75-7.29-19.29-21.36-19.29-57.56s8.23-49.3,19.61-63.87c11.38-14.57,28.46-21.86,46.18-21.86,9.93,0,20.33,1.25,27.1,4.34,3.35,1.52,10.94,3.35,17.54,12.16Zm-43.39,102.59c6.38,2.64,13.39,3.61,20.16,2.24,4.99-1.01,14.44-6.43,18.66-9.87,0,0-.21-13.43-.21-27.61s.21-32.01,.21-32.01c-3.69-3.23-14.5-10.62-26.49-11.39-11.21-.72-19.44,4.81-24.72,14.88-2.37,4.52-4.64,11.7-5.51,25.84-.81,13.18,3.08,20.63,4.8,24.82,2.14,5.2,6.69,10.45,13.1,13.1Z"/><path class="cls-1" d="M928.01,377.98l-10,34.04c-.41,1.39-1.98,2.07-3.28,1.42-2.42-1.22-5.5-2.61-13.18-4.51-10.39-2.57-19.1-3.21-26.43-3.21-8.41,0-17.06,1.67-22.93,5.16-5.86,3.5-8.79,8.92-8.79,16.28,0,5.52,4.07,9.89,8.03,12.97,2.37,1.85,6.58,3.91,9.56,5.25,1.98,.89,4,1.66,6.07,2.3l11.96,3.7c19.11,4.6,34.32,15.06,43.64,24.44,9.33,9.38,13.99,22.72,13.99,40,0,22.71-6.51,39.61-19.52,50.69-13.02,11.08-33.09,18.48-59.83,18.48-12.62,0-25.37-.8-37.98-3.72-6.97-1.62-16.92-5.13-25.87-8.7-1-.4-1.59-1.43-1.43-2.5l5.24-35.43c.22-1.51,1.82-2.4,3.23-1.79,4.04,1.76,8.08,3.6,17.77,6.49,11.86,3.54,23.3,5.31,34.31,5.31s19.77-1.93,25.72-5.79c5.95-3.86,7.99-10.14,7.99-17.31,0-6.44-2.85-12.09-6.9-15.59-4.04-3.49-10.21-6.25-20.35-10.12l-16.4-6.44s-27.01-9.61-36.21-19.27c-9.2-9.66-13.79-22.67-13.79-39.04,0-20.51,6.4-36.28,19.19-47.31,12.79-11.04,28.84-18.99,52.83-18.99,10.93,0,23.57,1.08,35.04,3.23,10.34,1.94,15.34,3.09,26.85,7.1,1.17,.41,1.82,1.67,1.47,2.86Z"/><path class="cls-1" d="M618.65,582.15h-10.13c-.22,0-.39-.18-.39-.39v-86.84h-15.61c-.46,0-.73-.53-.45-.9l88.69-116.48c.23-.3,.67-.29,.9,0l86.39,116.48c.27,.37,.01,.9-.45,.9h-16.16v86.84c0,.22-.18,.39-.39,.39h-132.4Zm75.97-34.49l14.28,33.77c.12,.43,.51,.72,.96,.72h33.94c.67,0,1.15-.65,.95-1.29l-42-137.11c-.13-.42-.51-.7-.95-.7h-41.14c-.44,0-.82,.29-.95,.7l-42,137.11c-.2,.64,.28,1.29,.95,1.29h33.29c.44,0,.83-.29,.96-.72l13.53-33.78c.12-.43,.51-.72,.96-.72h26.28c.44,0,.83,.29,.96,.72Zm-27.2-24.77l12.41-43.78c.28-.97,1.65-.96,1.92,.01l11.88,43.78c.17,.63-.3,1.26-.96,1.26h-24.29c-.66,0-1.14-.63-.96-1.27Z"/><path class="cls-1" d="M974.33,583.23h-10.13c-.22,0-.39-.18-.39-.39v-86.84h-15.61c-.46,0-.73-.53-.45-.9l88.69-116.48c.23-.3,.67-.29,.9,0l86.39,116.48c.27,.37,.01,.9-.45,.9h-16.16v86.84c0,.22-.18,.39-.39,.39h-132.4Zm75.97-34.49l14.28,33.77c.12,.43,.51,.72,.96,.72h33.94c.67,0,1.15-.65,.95-1.29l-42-137.11c-.13-.42-.51-.7-.95-.7h-41.14c-.44,0-.82,.29-.95,.7l-42,137.11c-.2,.64,.28,1.29,.95,1.29h33.29c.44,0,.83-.29,.96-.72l13.53-33.78c.12-.43,.51-.72,.96-.72h26.28c.44,0,.83,.29,.96,.72Zm-27.2-24.77l12.41-43.78c.28-.97,1.65-.96,1.92,.01l11.88,43.78c.17,.63-.3,1.26-.96,1.26h-24.29c-.66,0-1.14-.63-.96-1.27Z"/></g></g></g></svg>