<svg width="452" height="238" viewBox="0 0 452 238" fill="none" xmlns="http://www.w3.org/2000/svg">
<g clip-path="url(#clip0_4_3391)">
<path d="M197.974 21.9749C193.193 17.5516 185.826 15.1492 186.28 6.67726C186.4 4.43738 185.217 1.63222 187.59 0.381562C189.814 -0.791374 192.039 1.02456 193.909 2.36001C201.431 7.72301 199.738 14.9443 197.797 22.2151C197.783 22.2434 197.974 21.982 197.974 21.982V21.9749Z" fill="#3CD28A"/>
<path d="M205.78 23.4375C204.201 22.9994 202.628 22.5543 201.049 22.1162C205.355 16.0537 203.507 7.21427 210.144 2.20456C217.475 5.61031 211.709 12.3229 213.919 17.0217C212.984 21.3955 210.555 23.8968 205.78 23.4375Z" fill="#3CD28A"/>
<path d="M175.123 18.5974C171.922 19.8905 169.067 21.4026 170.434 25.6845C165.922 20.3427 166.397 19.417 175.194 16.407C175.938 16.9157 176.172 17.4103 175.903 17.8908C175.64 18.3572 175.378 18.5974 175.123 18.5974Z" fill="#FAFAFA"/>
<path d="M175.123 18.5974C175.123 17.8696 175.152 17.1348 175.194 16.407C179.685 16.626 184.877 15.3047 186.584 21.5863C183.071 19.4312 179.203 18.6045 175.123 18.5974Z" fill="#DFDFDF"/>
<path d="M30.2178 79.1308C46.8497 74.8913 63.602 81.3636 81.3176 78.6291C76.8763 72.9693 69.9417 73.3014 65.3233 69.7614C65.2878 65.2534 67.9795 66.5182 70.4658 67.352C71.7904 66.6666 73.1221 65.9882 74.4467 65.3029C74.9567 64.3348 75.7501 63.713 76.8126 63.4375C89.329 83.1159 110.105 82.1903 129.634 84.522C137.546 85.4689 145.401 86.9174 153.703 88.2104C152.973 82.4588 147.604 81.2011 146.322 77.1029C146.839 75.7745 147.838 75.2092 149.248 75.294C156.508 63.3173 154.185 55.9618 140.131 46.3592C139.154 45.264 139.217 44.2395 140.323 43.2714C141.683 43.8438 143.092 44.3313 144.388 45.0167C146.676 46.225 149.871 48.4507 151.373 46.1685C153.328 43.1937 149.935 41.1587 147.519 39.5053C143.361 34.7288 140.889 29.4082 141.208 22.8723C141.505 16.7885 144.99 16.5412 148.879 18.9578C155.269 22.9217 156.841 29.4435 157.79 36.5871C158.626 42.897 155.75 50.5422 163.046 55.1139C164.654 55.6367 165.794 56.6754 166.538 58.1663C167.211 61.4237 165.554 64.0239 164.201 66.7584C158.491 78.2546 160.595 83.9214 172.502 88.8252C178.141 91.1428 184.183 92.4641 189.595 95.3611C195.474 98.8234 196.94 92.8174 200.099 90.4715C206.191 81.2717 205.235 70.4327 207.218 60.279C207.835 55.884 208.713 51.6657 214.018 50.5352C215.903 50.8319 217.291 51.8706 218.346 53.3898C221.697 64.5963 216.243 75.2516 216.179 86.345C218.934 86.8255 221.144 84.3807 223.893 84.8683C225.664 85.165 226.917 86.0907 227.512 87.8077C227.165 94.9371 217.22 97.4526 218.722 106.363C229.786 105.289 239.788 101.169 250.101 98.357C252.793 97.6151 255.556 97.389 258.318 97.1629C261.137 96.9792 263.935 96.2585 266.783 96.8944C269.248 98.2016 272.357 99.0919 270.927 103.006C266.492 106.914 259.813 105.508 254.458 109.896C260.663 112.135 266.592 110.489 272.06 111.952C279.165 115.993 286.666 116.283 294.408 114.39C294.748 114.213 295.095 114.036 295.435 113.853C302.264 110.051 309.106 108.129 315.8 114.057C317.174 115.273 319.108 116.983 317.16 118.806C311.061 124.515 304.367 124.296 296.753 121.356C288.288 118.085 279.157 119.427 270.282 119.894C264.913 120.176 268.284 123.321 268.745 125.462C269.559 126.02 269.807 126.543 269.496 127.03C269.198 127.504 268.901 127.737 268.603 127.737C260.896 124.6 253.19 121.47 245.483 118.332C235.594 114.312 226.117 115.244 217.001 120.636C215.038 124.501 214.103 128.634 214.358 132.923C216.073 162.084 212.97 191.266 214.691 220.441C215.003 225.727 217.022 232.807 210.349 235.753C203.932 238.586 198.513 234.714 193.795 230.411C177.192 241.575 163.818 237.753 156.267 218.979C149.68 202.607 149.779 185.557 154.539 168.804C160.857 146.56 177.369 141.339 196.749 155.93C197.691 142.37 197.804 129.525 196.657 116.658C196.09 110.327 191.04 107.423 186.28 105.084C170.385 97.2689 153.795 92.4076 135.754 95.7356C132.509 96.5552 129.499 95.2057 126.389 94.7181C99.9683 89.8568 73.3842 88.2811 46.5947 90.7683C46.8001 87.9985 48.2947 86.451 51.0714 86.1331C49.8672 79.3993 44.5051 84.1052 41.4026 82.6355C37.8254 80.9467 32.017 86.3309 30.2037 79.1308H30.2178Z" fill="#3CD28A"/>
<path d="M72.5271 233.944C59.2032 238.014 51.1989 234.721 46.9701 221.727C44.1226 212.98 39.228 204.861 34.9 196.643C32.18 191.478 27.5616 187.719 21.6257 189.45C16.0085 191.083 19.019 196.771 18.8419 200.572C18.4098 209.85 18.3815 219.169 18.8135 228.447C19.0969 234.403 16.5114 235.675 11.2343 235.442C6.34673 235.23 2.29501 235.859 2.37293 228.525C2.72002 196.382 2.61377 164.239 2.44377 132.097C2.41543 127.023 4.1367 125.327 9.16593 125.462C20.0531 125.759 30.9616 125.285 41.8417 125.674C54.9886 126.147 62.3057 131.729 64.9549 144.441C68.2487 160.24 68.5887 175.686 51.2485 184.709C46.2972 187.288 49.3431 189.196 51.2131 191.62C61.052 204.366 65.2312 219.798 72.5271 233.937V233.944Z" fill="#3CD28A"/>
<path d="M332.255 235.273C315.729 235.138 305.621 229.097 301.081 216.018C300.018 212.951 295.69 207.963 301.548 206.416C306.089 205.214 312.329 201.392 316.275 209.892C321.013 220.109 330.611 223.112 340.5 219.551C345.31 217.82 348.646 214.859 348.851 209.581C349.05 204.472 345.465 201.964 341.173 200.6C333.792 198.254 326.163 196.587 318.91 193.923C307.236 189.627 300.946 180.519 301.86 170.38C302.852 159.47 310.905 151.563 323.393 149.26C339.515 146.285 355.07 151.415 360.518 162.169C362.324 165.737 367.056 171.489 360.914 173.799C356.749 175.368 349.305 178.576 345.65 171.008C341.038 161.448 333.027 162.049 324.718 164.013C321.283 164.826 317.96 166.557 317.847 170.846C317.734 175.057 320.808 177.12 324.201 178.201C329.372 179.848 334.755 180.809 339.99 182.278C360.376 188.002 368.472 197.739 365.929 213.312C363.634 227.394 351.316 235.428 332.255 235.273Z" fill="#3CD28A"/>
<path d="M144.268 183.67C143.808 193.337 143.567 203.017 142.837 212.662C141.973 224.066 135.485 230.849 124.527 233.937C96.6603 241.787 79.2564 229.507 78.5976 201.088C78.2647 186.765 78.8172 172.415 78.3072 158.092C78.0734 151.591 80.666 150.327 86.4248 150.503C91.6807 150.666 95.2437 150.821 95.0382 157.802C94.592 172.895 94.677 188.023 95.0949 203.116C95.4349 215.347 101.031 220.773 111.897 220.639C122.288 220.505 126.984 215.672 127.346 203.201C127.785 188.108 127.856 172.98 127.388 157.887C127.183 151.132 130.257 150.531 135.725 150.489C141.385 150.454 144.445 151.464 144.041 158.085C143.524 166.578 143.914 175.121 143.914 183.642L144.268 183.656V183.67Z" fill="#3CD28A"/>
<path d="M378.793 234.658C378.807 224.236 378.772 213.821 378.85 203.405C378.899 197.166 380.295 190.058 365.844 194.262C381.137 178.442 393.229 166.119 405.065 153.556C408.309 150.115 410.024 151.867 412.503 154.262C424.722 166.055 437.068 177.714 451.993 191.916C440.121 192.142 438.209 196.665 438.967 204.098C439.781 212.118 438.683 220.321 439.307 228.376C439.824 235.054 437.189 237.463 430.941 237.046C425.947 235.16 426.316 230.27 425.218 226.398C421.393 213.001 417.568 199.604 413.247 186.355C412.312 183.501 411.773 179.636 407.863 179.756C404.13 179.876 403.28 183.656 402.459 186.532C399.271 197.696 395.609 208.719 392.407 219.883C390.828 225.38 390.077 231.344 385.607 235.661C383.213 236.135 380.748 237.117 378.793 234.658Z" fill="#3CD28A"/>
<path d="M217.022 190.835C229.34 178.548 241.835 166.437 253.856 153.874C257.22 150.362 258.771 151.867 261.229 154.283C273.377 166.182 285.603 178.004 300.082 192.065C289.372 192.114 287.204 196.255 287.757 203.349C288.416 211.821 287.792 220.392 287.948 228.913C288.026 233.019 288.083 236.785 282.664 237.315C275.694 237.216 275.616 231.153 274.079 226.864C269.623 214.464 266.896 201.533 262.795 189.019C261.647 185.515 261.378 180.194 256.731 180.088C251.879 179.975 251.823 185.338 250.753 188.836C247.14 200.692 243.868 212.648 240.468 224.561C239.101 229.358 238.13 234.495 233.052 237.18C231.932 237.159 230.813 237.138 229.694 237.11C225.246 226.977 228.327 216.357 227.98 205.999C227.746 198.862 227.583 193.28 218.382 193.598C217.078 193.64 217.213 191.902 217.008 190.828L217.022 190.835Z" fill="#3CD28A"/>
<path d="M242.288 44.1052C246.73 41.4131 246.708 36.1985 248.777 32.2133C251.745 26.5112 255.917 22.2858 262.086 22.4907C269.319 22.7309 272.938 28.6733 275.722 34.7358C269.793 43.9144 277.741 51.27 279.023 59.4947C276.267 60.816 274.036 63.1831 270.827 63.6635C260.507 58.3712 256.151 67.4509 250.016 72.2486C239.852 76.3892 237.365 75.3858 237.989 65.5925C238.449 58.3995 237.5 50.5775 242.281 44.0981L242.288 44.1052Z" fill="#F7F7F7"/>
<path d="M294.344 93.2979C304.516 91.8423 309.234 83.5893 315.106 76.7849C316.778 75.1597 318.031 72.8351 320.964 73.3509C323.323 73.7042 326.128 73.6123 325.016 77.4067C322.026 80.3461 319.03 83.2855 314.461 87.7794C331.313 87.8289 346.011 86.4722 359.802 79.4063C360.617 80.1483 361.099 81.0598 361.269 82.1408C361.283 83.229 361.134 84.2889 360.844 85.3346C359.965 87.8925 359.299 90.5775 356.82 92.2027C348.809 94.7393 340.62 96.0253 332.184 96.2302C328.281 96.3221 323.571 94.9089 320.957 99.643C320.383 101.134 319.037 101.692 317.741 102.321L313.732 102.18C303.581 99.2332 293.594 97.5586 283.294 102.356C279.668 104.045 275.014 104.695 270.955 102.116C269.397 100.766 267.845 99.4098 266.287 98.0603C268.412 91.6798 269.659 84.8117 276.09 80.8548C277.982 81.2576 279.469 81.9006 278.152 84.2323C281.353 87.2141 271.047 94.8665 281.97 95.1845C285.887 93.206 290.498 95.7073 294.351 93.3049L294.344 93.2979Z" fill="#3CD28A"/>
<path d="M364.428 121.194C357.429 117.979 350.424 114.764 343.425 111.556C342.774 110.15 343.1 109.019 344.396 108.157C351.323 104.964 358.697 106.794 365.851 106.257C372.489 106.038 379.197 107.112 385.77 105.388C388.525 104.603 391.26 103.614 394.214 104.003C395.212 104.476 396.034 105.176 396.643 106.101C397.925 113.111 406.411 108.581 408.905 113.655C415.733 113.252 422.561 112.807 429.397 112.468C437.302 112.072 448.274 120.551 450.371 128.133C451.561 132.436 448.997 132.422 446.185 132.704C439.994 133.326 433.286 131.616 430.424 127.115C423.872 116.806 413.735 117.753 404.173 116.149C400.199 114.064 395.616 116.255 391.614 114.382C388.788 114.206 385.968 114.029 383.142 113.845C376.115 112.595 369.096 111.888 362.104 114.086C362.94 115.52 363.776 116.961 364.605 118.396C365.186 119.053 365.356 119.689 365.108 120.297C364.867 120.89 364.64 121.194 364.428 121.194Z" fill="#3CD28A"/>
<path d="M46.6089 90.7683C74.2059 81.8441 101.392 86.875 128.543 93.1777C127.764 95.7003 125.405 96.4634 123.464 97.6999C116.926 100.343 110.317 102.667 103.064 102.109C100.152 101.445 97.4466 99.968 94.3511 100.039C80.9989 98.9294 67.5475 98.3782 54.9673 93.0082C51.9923 92.9516 48.6206 94.3648 46.6018 90.7683H46.6089Z" fill="#3CD28A"/>
<path d="M242.288 44.1052C245.327 53.9621 236.735 63.4728 241.523 73.7748C244.598 72.5878 247.65 71.4077 250.703 70.2207C252.906 70.2772 252.921 71.5844 252.425 73.2025C250.746 75.3434 250.477 77.8306 250.626 80.4167C249.776 82.6072 247.898 83.3491 245.816 83.8225C243.471 84.3595 240.865 84.091 238.959 86.0059C238.017 87.1788 237.054 88.3093 235.722 89.0724C233.987 89.1996 232.782 88.3164 231.755 87.0587C230.523 85.2781 229.765 83.3562 229.963 81.1516C233.477 75.9299 231.302 70.5598 230.332 65.218C230.65 63.5929 231.238 62.0737 231.89 60.5616C235.148 53.0223 228.171 44.7058 233.668 37.3573C235.665 36.3398 236.735 32.5666 239.129 33.8173C243.117 35.9017 242.317 40.3179 242.295 44.1052H242.288Z" fill="#3CD28A"/>
<path d="M395.071 107.649C394.957 106.582 394.837 105.508 394.724 104.441C393.937 99.1908 398.874 96.6259 400.362 92.4358C401.906 89.1926 404.704 86.8609 406.617 83.8861C407.729 82.8828 408.749 81.731 409.981 80.8973C414.075 78.1204 417.405 70.037 422.172 73.7113C425.791 76.5093 423.73 84.5079 420.868 89.7367C419.43 92.3652 417.383 94.6616 415.613 97.1064C412.255 101.713 406.461 102.109 402.034 104.865C400.482 104.738 399.675 105.508 399.462 106.984C398.209 108.546 396.714 108.574 395.078 107.656L395.071 107.649Z" fill="#3CD28A"/>
<path d="M394.844 235.082C397.543 229.57 395.34 221.141 406.524 221.226C415.499 221.296 419.891 224.349 420.103 232.46C420.344 241.582 412.028 234.319 408.876 237.442C405.866 237.308 402.855 237.173 399.845 237.039C398.329 236.007 396.14 236.679 394.851 235.082H394.844Z" fill="#3CD28A"/>
<path d="M357.422 90.5775C357.762 88.267 356.593 85.589 359.087 83.8013C364.916 82.5507 370.916 82.7909 376.774 81.8229C383.645 81.837 390.516 81.8158 397.181 83.8578C399.016 85.2498 401.021 86.557 399.866 89.3904C397.805 92.4924 394.688 94.0468 391.302 95.2127C384.842 96.6118 378.347 96.315 371.837 95.6932C370.675 95.5448 369.535 95.2692 368.416 94.9442C364.81 93.3544 360.185 94.2871 357.429 90.5846L357.422 90.5775Z" fill="#3CD28A"/>
<path d="M261.626 237.414C258.941 237.223 256.144 237.428 253.593 236.728C250.548 235.894 244.52 239.71 245.023 233.125C245.419 228.009 245.355 220.71 254.366 221.635C259.699 222.179 266.337 219.396 267.739 228.362C268.398 232.588 271.012 236.735 263.957 237.406H261.619L261.626 237.414Z" fill="#3CD28A"/>
<path d="M377.702 68.8711C391.04 53.7925 393.668 52.5843 411.887 54.0681C406.475 63.1336 400.376 69.719 389.801 70.4892C385.94 70.7718 382.094 70.6093 378.502 72.3405C377.397 71.3795 377.128 70.2207 377.702 68.8711Z" fill="#3CD28A"/>
<path d="M95.7678 107.995C88.4152 114.877 83.1027 119.385 79.5255 125.49C78.5197 127.207 75.8209 128.217 73.6888 128.931C68.8225 130.556 62.0082 132.054 59.9965 127.285C57.7228 121.872 63.3753 116.728 68.5958 116.099C77.1384 115.068 84.3918 110.002 95.7607 107.988L95.7678 107.995Z" fill="#3CD28A"/>
<path d="M268.61 127.73C268.582 126.967 268.632 126.211 268.752 125.455C279.342 128.366 291.412 128.451 297.241 140.399C298.417 142.801 300.62 145.522 298.679 147.79C296.816 149.959 293.565 148.779 290.966 148.002C284.761 146.151 279.54 142.9 277.033 136.675C275.354 132.499 272.896 129.334 268.617 127.73H268.61Z" fill="#3CD28A"/>
<path d="M217.872 53.7784C216.781 53.0718 215.69 52.3723 214.599 51.6657C213.735 50.8107 213.112 49.8074 212.729 48.6627C211.985 45.7374 212.226 42.8757 213.367 40.0918C216.887 35.8735 216.611 31.2029 214.911 26.3769C214.38 22.7733 214.096 19.2262 216.916 16.2939C218.849 13.7007 218.623 9.4824 223.439 8.31653C227.76 15.6438 228.518 23.0418 224.155 30.5952C220.592 36.7567 222.136 39.6325 229.304 39.4276C232.357 46.6772 225.061 48.0904 222.171 51.9978C220.953 53.093 219.621 53.9409 217.879 53.7784H217.872Z" fill="#3CD28A"/>
<path d="M54.9744 93.0082C62.2562 91.3971 69.1129 91.7575 75.6438 96.0535C81.8206 100.123 89.1094 95.8981 95.6545 98.0108C97.0428 99.3816 97.0216 100.745 95.6545 102.109C88.0752 100.265 80.6943 101.106 73.4267 103.671C67.6396 105.713 62.0649 105.041 56.5115 102.582C50.8377 100.074 51.801 96.7743 54.9815 93.0011L54.9744 93.0082Z" fill="#3CD28A"/>
<path d="M30.2179 79.1308C35.5021 83.7589 41.8984 80.3178 47.6431 81.5402C49.9239 82.0278 55.279 80.6782 51.0856 86.1331C41.1405 81.2576 31.1741 83.5893 21.2432 86.1331C20.1877 86.4016 19.4086 87.6522 18.3531 87.9984C12.6297 89.8709 6.97718 90.5139 2.01878 86.0624C0.538348 84.734 -0.920836 82.7414 0.765018 81.1445C5.20632 76.9191 10.6889 74.8418 16.7381 76.8132C21.1865 78.2617 25.5428 79.4134 30.232 79.1308H30.2179Z" fill="#3CD28A"/>
<path d="M70.4658 67.3449C68.7516 68.1504 67.0375 68.9559 65.3233 69.7543C58.9907 68.5885 52.9485 66.4546 46.106 67.684C42.2809 68.3694 37.7334 66.6242 33.8658 65.0767C30.5154 63.7342 25.3445 61.9465 26.3007 57.7847C27.342 53.2626 32.7608 54.9725 36.2813 55.029C49.0243 55.234 58.3107 65.2958 70.4729 67.3449H70.4658Z" fill="#3CD28A"/>
<path d="M360.73 32.4889C364.867 31.7894 365.122 33.9515 364.456 37.1948C362.289 47.7512 355.014 53.418 345.642 57.276C343.291 58.244 342.072 57.9543 341.796 55.3188C341.045 48.1398 353.42 33.2096 360.73 32.4818V32.4889Z" fill="#3CD28A"/>
<path d="M163.358 55.6791C162.026 57.4739 160.702 59.2686 159.37 61.0704L156.678 60.9079C156.678 52.9022 157.195 44.8613 156.536 36.9122C155.849 28.6663 152.301 21.7558 143.616 18.1593C141.18 26.4476 144.473 32.9553 147.526 39.4983C138.885 35.8593 139.579 27.3732 139.43 20.7313C139.274 13.8562 145.734 13.6937 150.367 16.5412C154.844 19.2898 157.868 23.4728 158.506 29.5495C159.193 36.0996 157.649 43.5187 163.315 48.9453C165.398 51.1782 165.391 53.418 163.358 55.6791Z" fill="#FAFAFA"/>
<path d="M100.62 55.3965C96.4337 52.337 88.1886 49.0584 90.9157 44.5928C94.2449 39.1308 102.448 42.9888 107.739 45.4336C113.476 48.0833 118.364 52.5701 123.62 56.2515C124.179 58.1946 123.393 59.3604 121.509 59.9045C120.517 59.4099 119.533 58.9082 118.541 58.4136C113.044 54.5839 106.025 59.7561 100.62 55.3965Z" fill="#3CD28A"/>
<path d="M315.29 39.4488C316.161 36.4387 317.033 33.4216 317.904 30.4115C322.239 24.9708 325.356 24.349 326.815 32.3829C328.586 42.1197 326.071 50.627 319.958 58.237C317.337 59.6855 316.65 57.1064 315.248 56.0042L315.283 56.0748C313.682 50.5352 313.64 44.9885 315.297 39.4488H315.29Z" fill="#3CD28A"/>
<path d="M364.428 121.194L364.598 118.396C371.879 121.992 381.747 119.343 387.102 127.518C388.696 129.949 391.954 132.379 389.808 135.58C387.881 138.442 384.24 137.523 381.258 137.184C371.66 136.082 369.889 126.691 364.428 121.194Z" fill="#3CD28A"/>
<path d="M214.783 48.698C214.72 49.6872 214.663 50.6765 214.599 51.6657C209.818 53.2202 210.774 57.5586 209.988 61.0563C207.905 49.659 200.907 41.0527 193.71 32.5525C205.115 33.0118 194.149 24.5469 197.967 21.9749L197.776 22.2363C198.832 21.2118 199.922 21.1764 201.049 22.1162C203.294 21.9395 205.582 21.6357 206.956 24.0664C210.505 31.9731 211.086 40.8266 214.783 48.698Z" fill="#3CD28A"/>
<path d="M193.994 32.8069C192.414 32.284 191.621 32.9835 191.33 34.4885C185.338 29.2669 174.217 36.1208 170.434 25.6915C167.827 20.7383 171.227 19.1202 174.925 17.6576C179.388 17.2761 183.567 17.7212 186.577 21.5933C189.049 25.3312 191.521 29.069 193.987 32.8069H193.994Z" fill="#3CD28A"/>
<path d="M304.098 26.5182C306.648 25.8046 308.214 22.0667 311.175 23.3739C315 25.0627 312.903 28.8429 312.839 31.6057C312.641 39.795 307.675 44.8471 299.551 49.2916V37.5127C301.067 33.8526 302.582 30.1854 304.098 26.5253V26.5182Z" fill="#3CD28A"/>
<path d="M278.846 60.3355C272.556 53.7077 268.603 46.4157 270.417 36.7355C271.274 32.1427 273.193 33.3792 275.722 34.7358C279.469 41.9218 286.39 48.1115 282.968 57.5516C283.733 59.7279 284.421 61.89 281.793 63.388C279.639 63.4869 278.839 62.2928 278.846 60.3285V60.3355Z" fill="#3CD28A"/>
<path d="M14.6273 101.947C20.9315 91.6091 30.0691 90.7188 40.3046 91.3406C34.6592 103.388 27.9228 106.207 14.6273 101.947Z" fill="#3CD28A"/>
<path d="M76.8126 63.4374C76.0264 64.0592 75.233 64.681 74.4468 65.3028C72.1234 64.0592 69.6088 63.0842 67.5192 61.5297C61.732 57.2265 61.5903 51.0792 62.5112 44.7199C62.8087 42.6426 63.8783 40.65 66.2017 41.5756C71.8401 43.8296 73.5755 49.1997 75.2047 54.3437C76.1255 57.2548 76.3026 60.3991 76.8197 63.4374H76.8126Z" fill="#3CD28A"/>
<path d="M120.319 72.7008C107.356 75.4071 104.622 74.5309 95.9662 64.4267C103.935 62.1303 111.181 61.4519 117.365 67.5781C119.908 70.0935 123.025 69.5706 125.929 70.2702C125.731 74.9124 122.557 72.7432 120.319 72.7008Z" fill="#3CD28A"/>
<path d="M140.323 43.2714C140.259 44.303 140.195 45.3276 140.131 46.3592C134.436 42.8121 126.729 45.7304 121.566 40.756C118.86 38.1487 115.141 34.8065 118.109 31.0757C120.34 28.2706 124.966 29.281 127.749 31.4926C132.233 35.0609 136.165 39.3145 140.323 43.2714Z" fill="#3CD28A"/>
<path d="M338.864 67.896C346.507 65.43 354.313 63.7201 360.376 57.4809C362.926 54.8524 368.989 51.913 371.277 56.4352C373.452 60.7454 367.721 63.9179 363.981 65.0131C355.899 67.3731 347.484 68.6026 339.211 70.2984C338.517 69.8533 338.233 69.3516 338.361 68.7863C338.495 68.1928 338.665 67.896 338.871 67.896H338.864Z" fill="#3CD28A"/>
<path d="M220.379 51.3901C221.399 45.9635 230.827 46.7478 229.297 39.4347C230.749 38.7422 232.202 38.0497 233.654 37.3643C233.03 45.8929 238.917 54.4496 233.554 62.964C229.496 61.7628 228.008 57.4385 224.473 55.6014C222.816 54.485 221.307 53.2131 220.372 51.3972L220.379 51.3901Z" fill="#3CD28A"/>
<path d="M163.358 55.6791C163.344 53.4322 163.329 51.1923 163.315 48.9453C163.974 48.5426 164.109 48.0126 163.726 47.3414C164.555 43.5117 167.402 41.4696 170.555 39.6961L170.512 39.7244C176.533 38.1416 176.384 41.5756 175.867 45.8787C175.123 52.0896 171.9 56.1313 166.163 58.3712C165.228 57.4738 164.286 56.5694 163.351 55.672L163.358 55.6791Z" fill="#3CD28A"/>
<path d="M106.733 128.027C105.6 117.421 110.898 113.16 118.336 109.422C121.984 120.516 116.182 124.727 106.733 128.027Z" fill="#3CD28A"/>
<path d="M102.717 100.025C110.119 100.484 116.77 97.3395 123.733 95.6861C124.803 96.3574 126.269 96.5482 126.652 98.0603C122.267 106.172 113.505 101.692 107.349 104.716C105.635 103.317 101.427 104.363 102.717 100.025Z" fill="#3CD28A"/>
<path d="M149.248 75.294C148.801 76.7425 147.753 77.23 146.322 77.1029C143.468 76.1914 140.62 75.2799 137.765 74.3684C135.364 71.5067 133.813 68.4613 135.69 64.6952C142.185 65.7197 146.258 69.8179 149.248 75.294Z" fill="#3CD28A"/>
<path d="M376.781 81.8158C371.001 83.5399 365.674 89.1997 359.094 83.7943C359.809 83.3279 360.078 82.6849 359.901 81.8511C361.786 79.4841 365.207 79.258 367.02 76.792C367.495 76.5659 367.927 76.6224 368.324 76.9616C370.087 75.3788 371.908 75.3293 373.778 76.7778C372 80.0988 373.509 81.4767 376.781 81.8158Z" fill="#3CD28A"/>
<path d="M212.028 18.4561C212.538 12.9093 215.449 7.08707 210.144 2.20454C213.778 -0.918576 214.373 1.84418 214.897 4.6564C215.619 8.5285 213.629 12.8599 216.916 16.2939C217.489 20.1872 215.074 24.2006 217.362 28.0303C218.304 29.2245 218.098 30.1572 216.738 30.8496C210.434 28.5037 212.609 22.9641 212.028 18.4561Z" fill="#3CD28A"/>
<path d="M102.717 100.025C104.261 101.586 105.805 103.155 107.349 104.716C104.863 106.426 102.143 107.027 99.1396 107.691C91.1565 109.45 95.4774 104.73 95.6545 102.109C95.6545 100.745 95.6545 99.3745 95.6545 98.0108C98.325 97.5869 100.691 98.2016 102.717 100.018V100.025Z" fill="#3CD28A"/>
<path d="M325.023 77.4067C324.137 75.1174 322.182 74.6793 320.043 74.5591C319.802 74.0999 319.568 73.6406 319.328 73.1813C319.668 72.7927 320.001 72.397 320.341 72.0084C325.958 71.7328 328.196 64.8436 334.061 65.0626C335.797 67.4438 336.03 69.8391 334.082 72.2345C331.058 73.9586 328.04 75.6826 325.016 77.4067H325.023Z" fill="#3CD28A"/>
<path d="M135.69 64.6952C136.384 67.9172 137.071 71.1463 137.765 74.3684C131.865 74.7217 125.993 74.7287 120.319 72.7008C122.189 71.8882 124.059 71.0827 125.929 70.2702C128.146 68.864 132.049 71.5844 133.112 67.3661C132.892 65.317 133.452 64.1794 135.782 65.0979L135.69 64.6952Z" fill="#3CD28A"/>
<path d="M277.741 109.387C280.751 103.685 285.115 100.936 291.702 103.028C289.379 107.811 286.411 111.74 280.333 111.57C279.349 110.984 278.017 110.807 277.741 109.387Z" fill="#3CD28A"/>
<path d="M343.447 109.422C343.447 110.136 343.44 110.842 343.425 111.549C337.971 109.952 332.517 108.355 327.063 106.758C325.795 105.154 325.653 103.536 326.971 101.883C333.36 100.032 338.913 101.501 343.68 106.08C344.36 107.246 344.282 108.355 343.447 109.415V109.422Z" fill="#3CD28A"/>
<path d="M277.741 109.387C278.605 110.115 279.469 110.842 280.333 111.57C284.017 117.498 289.953 112.305 294.415 114.39C286.368 118.304 278.442 117.421 270.594 113.775C272.981 112.312 275.361 110.85 277.748 109.387H277.741Z" fill="#3CD28A"/>
<path d="M135.782 65.0909C134.139 64.9637 133.211 65.6773 133.112 67.359C129.244 64.8718 125.369 62.3846 121.502 59.9045C122.203 58.6892 122.904 57.4668 123.613 56.2514C128.514 58.0532 132.878 60.5758 135.782 65.0979V65.0909Z" fill="#3CD28A"/>
<path d="M315.248 56.0042C316.82 56.7461 318.385 57.495 319.958 58.237C320.086 62.8298 320.213 67.4226 320.348 72.0154L319.54 72.4394C315.616 72.9481 317.337 68.8358 315.545 67.6063C315.446 63.7413 315.347 59.8762 315.248 56.0112V56.0042Z" fill="#3CD28A"/>
<path d="M362.097 114.086C369.06 109.79 376.087 110.899 383.135 113.845C376.122 113.923 369.11 114.008 362.097 114.086Z" fill="#3CD28A"/>
<path d="M395.071 107.649C396.53 107.423 397.996 107.203 399.455 106.977C401.354 110.948 408.579 107.458 408.89 113.655C405.257 109.429 397.529 114.545 395.063 107.656L395.071 107.649Z" fill="#3CD28A"/>
<path d="M373.778 76.7849C371.957 76.8485 370.144 76.905 368.324 76.9686C368.819 71.2523 373.317 70.1289 377.702 68.8711C377.971 70.0299 378.233 71.1817 378.502 72.3405C376.93 73.8243 375.35 75.3011 373.778 76.7849Z" fill="#3CD28A"/>
<path d="M394.844 235.082C396.509 235.732 398.173 236.389 399.838 237.039C392.818 236.297 385.182 240.939 378.793 234.658C381.038 234.799 383.277 234.94 385.522 235.082C388.632 235.082 391.734 235.082 394.844 235.082Z" fill="#3CD28A"/>
<path d="M280.645 62.8792C281.417 61.1057 282.189 59.3322 282.961 57.5586C284.697 59.6007 284.102 63.3809 287.785 63.9815C287.891 65.0061 287.629 65.9317 287.07 66.7867C285.922 68.4684 284.994 70.2914 283.719 71.9094C282.898 72.6726 281.934 73.0259 280.801 72.9128C279.809 72.3475 279.094 71.5491 278.633 70.5033C277.939 67.6063 277.847 64.8648 280.638 62.8792H280.645Z" fill="#3CD28A"/>
<path d="M398.839 88.1892C398.286 86.7478 397.741 85.2993 397.189 83.8578C400.334 83.8578 403.472 86.0765 406.624 83.879C405.101 87.1082 403.578 90.3443 402.055 93.5734C399.753 92.5065 399.37 90.309 398.846 88.1892H398.839Z" fill="#3CD28A"/>
<path d="M100.62 55.3965C106.308 58.1027 113.143 54.0045 118.541 58.4136C112.548 57.5304 105.727 61.5155 100.62 55.3965Z" fill="#3CD28A"/>
<path d="M126.652 98.0603C125.681 97.2689 124.711 96.4775 123.733 95.6861C125.334 94.8523 126.942 94.0115 128.543 93.1777C130.951 94.0327 133.36 94.8877 135.768 95.7356C133.204 98.3641 129.931 98.2228 126.652 98.0603Z" fill="#3CD28A"/>
<path d="M402.034 104.851C405.49 100.413 411.157 99.7985 415.612 97.0922C413.339 103.586 407.807 104.427 402.034 104.851Z" fill="#3CD28A"/>
<path d="M327.056 102.844V106.772C323.953 105.289 320.843 103.812 317.741 102.328C318.796 101.452 319.852 100.576 320.907 99.6995C322.182 98.788 323.549 98.7668 324.966 99.318C326.22 100.166 327.049 101.261 327.049 102.844H327.056Z" fill="#3CD28A"/>
<path d="M288.295 64.8365L287.792 63.9815C286.843 58.5267 290.264 58.1027 294.302 58.3924C293.431 61.24 292.297 63.8897 289.237 65.105L288.295 64.8365Z" fill="#3CD28A"/>
<path d="M334.082 72.2345L334.061 65.0626C338.46 61.2965 336.328 68.5108 338.857 67.889C338.97 68.6874 339.083 69.4929 339.197 70.2914C337.978 72.2062 336.172 72.6019 334.075 72.2274L334.082 72.2345Z" fill="#3CD28A"/>
<path d="M170.562 39.7032C168.288 42.2539 166.007 44.7977 163.733 47.3484C162.848 41.9996 164.739 39.1096 170.562 39.7032Z" fill="#FAFAFA"/>
<path d="M391.6 114.382C395.878 114.333 400.383 112.673 404.159 116.149C399.838 116.509 395.588 116.354 391.6 114.382Z" fill="#3CD28A"/>
<path d="M367.02 76.799C366.815 81.512 363.443 81.8017 359.901 81.8582C359.866 81.0386 359.838 80.226 359.802 79.4063C361.679 77.0817 364.166 76.4387 367.02 76.799Z" fill="#3CD28A"/>
<path d="M197.394 192.305C197.372 198.141 196.926 203.957 194.546 209.355C192.279 214.499 189 219.021 182.582 218.774C176.76 218.548 173.43 214.393 171.815 209.454C167.997 197.781 167.466 185.875 171.695 174.167C173.459 169.284 176.625 165.123 182.497 164.868C188.922 164.586 192.329 168.846 194.589 174.082C197.089 179.876 197.387 186.087 197.394 192.305Z" fill="#FAFAFA"/>
<path d="M189.163 97.714C191.359 96.6824 195.481 99.3533 195.8 95.2904C196.062 91.8988 194.249 88.4577 190.785 86.8679C189.531 86.2885 187.732 86.8679 186.188 86.9456C181.003 87.2283 177.178 84.9531 174.684 80.5722C174.358 79.9999 175.067 78.1062 175.725 77.8165C180.493 75.7533 184.544 77.4562 188.667 80.8407C185.982 73.2166 181.555 66.1225 185.09 57.919C186.195 55.347 187.647 52.45 190.282 52.0331C193.498 51.5244 194.433 54.916 195.538 57.3396C197.67 62.0172 199.356 67.2318 197.939 72.0154C195.637 79.7808 197.861 86.4016 200.865 93.1636C197.727 96.6118 196.381 104.624 189.17 97.7211L189.163 97.714Z" fill="#3CD28A"/>
<path d="M259.359 95.6791C259.352 96.9933 259.345 98.3005 259.338 99.6147C256.186 99.7349 253.041 99.8621 249.889 99.9822L250.03 100.258C248.182 98.5902 246.985 96.4492 245.674 94.3931C242.975 90.2949 237.854 88.3023 236.069 83.4268C238.612 80.1483 242.062 81.0032 245.412 81.413C255.074 81.3141 254.854 90.7895 259.366 95.6791H259.359Z" fill="#3CD28A"/>
<path d="M233.342 86.6771C231.104 87.3272 228.865 87.9702 226.627 88.6202C225.756 87.7582 224.877 86.8962 224.006 86.0271C225.465 83.1583 228.391 82.3387 230.99 81.0598C231.777 82.9322 232.563 84.8047 233.349 86.6771H233.342Z" fill="#3CD28A"/>
<path d="M18.6719 155.972C18.2894 150.411 16.5398 142.526 30.14 143.755C45.8864 145.183 50.101 147.034 49.9948 158.078C49.8885 169.065 45.5606 172.082 29.8991 172.118C22.4143 172.137 18.6743 166.752 18.679 155.965L18.6719 155.972Z" fill="#F9F9F9"/>
<path d="M255.534 192.15C260.287 196.636 259.451 202.183 261.541 206.599C262.334 208.267 262.632 210.726 260.16 211.326C258.014 211.849 255.52 211.842 253.374 211.291C250.909 210.662 251.553 208.26 251.957 206.479C252.97 202.006 254.16 197.576 255.534 192.15Z" fill="#3CD28A"/>
<path d="M407.693 189.422C409.896 196.622 411.249 200.939 412.531 205.278C413.147 207.369 414.635 210.118 411.639 211.107C409.259 211.892 406.177 211.927 403.819 211.107C400.702 210.026 402.699 207.391 403.266 205.363C404.484 200.989 405.696 196.615 407.693 189.422Z" fill="#3CD28A"/>
<path d="M290.087 69.5353C295.832 70.2136 302.157 66.1295 307.753 72.0437C302.88 78.403 296.611 78.6362 289.698 76.5588C287.976 74.114 287.495 71.7399 290.087 69.5353Z" fill="#3CD28A"/>
<path d="M275.899 81.5544C277.408 78.4454 278.917 75.3435 280.425 72.2345C281.176 72.2203 281.92 72.2062 282.671 72.2062C284.151 73.789 283.96 75.3788 282.699 76.9757C281.346 79.4982 281.545 82.9817 278.152 84.2394C277.401 83.3491 276.65 82.4517 275.906 81.5614L275.899 81.5544Z" fill="#3CD28A"/>
<path d="M282.699 76.9686C282.692 75.3788 282.685 73.789 282.671 72.1991L282.635 72.2345C284.421 69.3587 286.531 67.4014 290.116 69.5989L290.08 69.5282C289.953 71.867 289.818 74.2129 289.691 76.5517C287.332 76.2267 284.846 73.7536 282.692 76.9615L282.699 76.9686Z" fill="#3CD28A"/>
<path d="M315.29 39.4488C315.29 44.9884 315.29 50.5352 315.276 56.0748C311.77 50.5281 312.428 44.9884 315.29 39.4488Z" fill="#3CD28A"/>
<path d="M290.123 69.606C287.629 70.4821 285.136 71.3654 282.643 72.2415C282.416 68.1857 283.684 65.2604 288.288 64.8365C288.295 64.8365 289.237 65.105 289.237 65.105C289.535 66.603 289.832 68.108 290.13 69.606H290.123Z" fill="#3CD28A"/>
<path d="M294.344 93.2979C290.661 96.8237 286.255 95.6155 281.97 95.1774C285.936 93.531 290.066 92.9304 294.344 93.2979Z" fill="#3CD28A"/>
<path d="M315.545 67.5993C316.877 69.2103 318.208 70.8213 319.54 72.4323C319.774 73.1248 319.944 73.8314 320.043 74.5521C318.4 75.294 316.756 76.0359 315.113 76.7778C315.255 73.7183 315.403 70.6517 315.545 67.5922V67.5993Z" fill="#3CD28A"/>
<path d="M248.401 46.656C249.457 39.1238 250.335 32.0367 256.066 27.2531C258.219 25.4513 260.953 24.0735 263.475 25.6703C265.727 27.0976 264.608 29.9452 264.268 32.1356C262.851 41.1517 255.208 43.4057 248.408 46.6631L248.401 46.656Z" fill="#3CD28A"/>
<path d="M271.146 62.9146C266.252 68.857 260.564 73.1389 252.226 71.8882C251.915 71.1463 251.412 70.5952 250.703 70.2207C258.708 57.2195 262.058 56.0253 271.146 62.9146Z" fill="#3CD28A"/>
<path d="M324.647 100.343L320.907 99.6995C319.469 98.6397 316.891 97.6575 316.813 96.4987C316.622 93.8349 319.498 94.6828 321.049 94.499C333.161 93.0929 345.295 91.8635 357.429 90.5775C361.325 91.8776 366.036 88.9382 369.422 92.8598C361.467 98.6608 351.918 97.5091 342.951 98.6891C336.887 99.4876 330.647 98.5902 324.654 100.343H324.647Z" fill="#3CD28A"/>
<path d="M324.647 100.343C326.262 96.7319 329.244 95.2692 332.992 95.6013C345.295 96.6824 357.188 92.5489 369.422 92.8598L369.273 92.7891C376.98 95.6861 384.665 96.6259 392.329 92.6549C394.497 91.164 396.671 89.6801 398.839 88.1892C401.191 89.2279 401.679 91.3689 402.048 93.5734C402.721 99.2756 396.069 100.081 394.724 104.441C392.499 105.635 390.686 107.917 387.69 107.069C380.819 109.585 373.7 107.613 366.723 108.249C358.952 107.847 351.132 109.104 343.404 107.536C337.957 105.974 332.503 104.405 327.056 102.844C326.255 102.01 325.448 101.176 324.647 100.343Z" fill="#FEFEFE"/>
<path d="M343.404 107.529L365.88 107.444C366.73 107.67 367.332 108.186 367.672 108.991C359.597 109.133 351.522 109.281 343.447 109.422C343.418 108.793 343.404 108.157 343.404 107.529Z" fill="#3CD28A"/>
<path d="M367.672 108.991C367.077 108.475 366.475 107.96 365.88 107.444C373.147 107.317 380.422 107.189 387.69 107.062C381.307 110.687 374.217 107.055 367.672 108.991Z" fill="#3CD28A"/>
<path d="M236.062 83.4268C240.227 86.3238 245.547 87.7441 248.054 92.7538C249.343 97.6999 247.672 99.6713 242.55 98.1804C238.385 96.5694 236.069 93.5522 235.609 89.1219L236.062 83.4268Z" fill="#3CD28A"/>
<path d="M259.359 95.6791C254.281 97.3042 253.041 93.1353 252.906 90.203C252.658 84.8824 248.43 83.8578 245.405 81.4131C246.829 80.8054 248.245 80.2048 249.669 79.5971C256.143 83.0241 261.456 87.1364 259.359 95.6791Z" fill="#3CD28A"/>
<path d="M231.097 65.2958C224.332 64.1794 223.369 59.6713 224.417 53.9904C230.332 54.0893 232.209 58.2582 233.562 62.957C232.74 63.7342 231.918 64.5185 231.097 65.2958Z" fill="#3CD28A"/>
<path d="M392.329 92.6478C384.686 99.9257 376.987 97.8342 369.273 92.7821C376.965 94.1882 384.658 94.8735 392.329 92.6478Z" fill="#3CD28A"/>
<path d="M212.028 18.4561C216.859 21.127 212.609 27.4862 216.908 30.3691C219.869 34.0646 218.247 36.9757 215.308 39.6608C215.138 42.6708 214.961 45.6809 214.791 48.698C206.921 41.9996 206.305 32.7362 205.787 23.4375C207.87 21.777 209.953 20.1165 212.035 18.4561H212.028Z" fill="#FEFEFE"/>
<path d="M215.308 39.6608C216.186 36.6224 219.466 33.9939 216.908 30.3691C217.057 29.5919 217.213 28.8076 217.362 28.0303C220.344 32.5454 222.122 36.8556 215.308 39.6608Z" fill="#3CD28A"/>
<path d="M242.55 98.1804C246.113 98.1097 247.92 96.2726 248.054 92.7538C250.781 94.7181 249.138 97.82 250.031 100.258C247.381 100.131 244.52 100.759 242.55 98.1804Z" fill="#3CD28A"/>
</g>
<defs>
<clipPath id="clip0_4_3391">
<rect width="452" height="238" fill="white"/>
</clipPath>
</defs>
</svg>
