<svg width="556" height="555" viewBox="0 0 556 555" fill="none" xmlns="http://www.w3.org/2000/svg">
<path d="M277.72 555C422.925 555 540.636 541.225 540.636 524.232C540.636 507.239 422.925 493.464 277.72 493.464C132.516 493.464 14.8047 507.239 14.8047 524.232C14.8047 541.225 132.516 555 277.72 555Z" fill="#EBEBEB"/>
<path d="M91.3256 235.763H74.5688V217.547H56.5906V200.659H74.5688V182.429H91.2724V200.659H109.291V217.547H91.3256V235.763ZM76.9987 233.36H88.9488V215.144H106.967V203.062H88.9488V184.832H76.9987V203.062H58.9673V215.144H76.9987V233.36Z" fill="#3CD28A"/>
<path d="M496.341 356.176H479.624V337.96H461.606V321.073H479.624V302.843H496.341V321.073H514.359V337.96H496.341V356.176ZM482.014 353.774H493.964V335.557H511.982V323.476H493.964V305.273H482.014V323.502H463.983V335.584H482.014V353.774Z" fill="#3CD28A"/>
<path d="M408.561 45.6385V62.526H390.543V80.7558H373.839V62.526H355.808V45.6385H373.839V27.4221H390.543V45.6385H408.561Z" fill="#3CD28A"/>
<path d="M247.327 49.1153C250.793 49.0079 265.306 44.8867 277.309 56.8744C288.675 68.2177 298.142 106.798 301.475 115C304.807 123.203 316.08 122.706 320.21 132.103C323.795 140.251 318.165 144.372 318.51 150.708C318.789 155.635 324.764 162.119 321.524 169.985C318.59 177.14 311.38 176.899 307.476 179.624C303.572 182.349 302.51 192.645 295.114 196.578C287.719 200.512 279.686 194.417 275.543 195.129C271.4 195.84 268.519 209.492 254.816 210.553C241.113 211.613 235.377 200.673 229.429 199.29C223.48 197.907 210.083 204.123 202.567 198.095C195.052 192.068 192.463 182.832 189.024 179.839C185.585 176.845 179.65 178.362 174.803 170.912C169.957 163.461 176.516 157.179 176.463 150.051C176.463 145.084 171.457 141.312 173.276 133.418C175.786 122.572 188.453 122.76 191.507 111.537C193.897 102.744 195.875 65.8953 215.806 53.6123C229.615 45.2223 247.327 49.1153 247.327 49.1153Z" fill="#263238"/>
<path d="M300.745 113.014C301.845 114.695 303.336 116.077 305.086 117.041L310.092 120.169C313.477 122.029 316.551 124.416 319.201 127.243C320.434 128.592 321.342 130.212 321.854 131.975C322.365 133.738 322.466 135.596 322.149 137.405C321.723 139.239 321.02 140.996 320.064 142.614C318.954 144.389 318.108 146.321 317.554 148.346C317.369 150.575 317.92 152.803 319.121 154.682C320.037 156.481 321.02 158.172 321.843 159.917C323.503 163.354 324.393 167.153 323.171 170.656C322.635 172.397 321.536 173.905 320.051 174.939C318.463 175.956 316.695 176.653 314.846 176.993C312.96 177.436 311.022 177.691 309.07 178.026C307.081 178.196 305.188 178.968 303.639 180.241C305.291 179.193 307.2 178.635 309.15 178.63C311.101 178.456 313.067 178.375 315.045 178.08C317.076 177.823 319.039 177.166 320.821 176.147C322.65 175.007 324.052 173.283 324.804 171.247C326.49 167.22 325.349 162.629 323.676 159.018C322.852 157.165 321.87 155.407 321.02 153.648C320.063 152.179 319.597 150.438 319.692 148.681C320.356 145.379 323.397 141.969 324.087 137.754C324.451 135.644 324.306 133.476 323.666 131.434C323.026 129.391 321.909 127.535 320.409 126.022C317.51 123.222 314.189 120.906 310.57 119.162L305.259 116.477C303.524 115.667 301.983 114.485 300.745 113.014Z" fill="#263238"/>
<path d="M199.381 76.97C196.646 83.5612 195.398 90.6356 193.512 97.4282C192.556 100.824 191.72 104.261 190.525 107.536C189.989 109.14 189.281 110.68 188.414 112.128C188.238 112.463 188.01 112.767 187.736 113.027C187.495 113.321 187.213 113.578 186.9 113.792C186.236 114.302 185.572 114.772 184.789 115.228C181.752 117.083 178.81 119.09 175.972 121.242C172.972 123.483 170.735 126.613 169.572 130.196C169.031 132.032 168.958 133.976 169.36 135.848C169.847 137.643 170.667 139.329 171.776 140.815C173.888 143.674 175.906 146.547 176.57 150.104C176.437 146.48 174.472 143.204 172.693 140.211C171.766 138.793 171.108 137.214 170.754 135.552C170.502 133.922 170.666 132.254 171.232 130.706C172.446 127.557 174.535 124.83 177.247 122.853C180.07 120.798 182.995 118.889 186.01 117.135C186.754 116.638 187.497 116.128 188.228 115.551C188.987 114.934 189.618 114.172 190.087 113.309C191.019 111.707 191.772 110.005 192.331 108.235C193.454 104.832 194.368 101.362 195.066 97.8443L197.084 87.3736C197.648 83.8633 198.415 80.3895 199.381 76.97Z" fill="#263238"/>
<path d="M185.386 178.04C187.179 179.812 187.789 182.402 188.732 184.752C189.675 187.101 190.551 189.504 191.587 191.853C192.594 194.249 193.849 196.53 195.331 198.659C196.851 200.907 198.888 202.75 201.266 204.028C206.485 206.324 212.035 205.049 216.748 203.371C219.152 202.512 221.462 201.532 223.825 200.686C226.126 199.723 228.62 199.328 231.102 199.531C228.612 198.883 225.996 198.911 223.52 199.612C221.037 200.203 218.647 200.954 216.231 201.652C211.53 202.995 206.405 203.841 202.222 201.921C200.159 200.801 198.381 199.211 197.031 197.276C195.564 195.287 194.258 193.182 193.127 190.98C191.932 188.765 190.856 186.483 189.728 184.268C189.144 183.127 188.546 182 187.896 180.899C187.313 179.745 186.449 178.761 185.386 178.04Z" fill="#263238"/>
<path d="M315.762 485.275H200.749L193.91 341.45H296.681L315.762 485.275Z" fill="#37474F"/>
<path d="M264.496 341.45L252.346 438.855L252.333 439.002L252.068 441.029L251.576 445.016L251.019 449.46L250.819 451.044L250.66 452.319L246.557 485.275H200.749L193.91 341.45H264.496Z" fill="#263238"/>
<path d="M292.405 485.276H289.365C289.205 484.001 289.059 482.739 288.9 481.463C284.81 447.903 280.84 414.343 277.388 380.783C277.069 377.709 276.751 374.621 276.445 371.547C276.445 371.064 277.215 370.97 277.282 371.453C277.561 373.521 277.853 375.588 278.118 377.655C283.031 413.498 287.705 449.393 292.405 485.276Z" fill="#263238"/>
<path d="M286.245 341.343C286.249 341.378 286.249 341.415 286.245 341.45C285.94 342.887 282.58 358.646 278.145 377.695C277.906 378.729 277.667 379.776 277.415 380.823C275.45 389.132 273.312 397.925 271.148 406.329C266.474 424.572 261.681 440.922 258.414 446.305C258.059 446.972 257.565 447.553 256.967 448.01C255.905 448.641 253.648 449.769 250.846 451.098L248.987 451.97L247.394 452.709C241.02 455.662 233.359 459.045 229.814 460.535V460.817L228.579 485.302H120.245L131.717 415.497L145.566 341.41L286.245 341.343Z" fill="#37474F"/>
<path d="M266.328 443.218C253.724 447.856 241.543 453.592 229.92 460.36C229.831 460.412 229.765 460.496 229.734 460.595C229.704 460.694 229.71 460.801 229.754 460.895C229.797 460.99 229.873 461.064 229.968 461.104C230.063 461.144 230.169 461.147 230.265 461.112C242.521 455.742 255.029 450.695 266.979 444.694C267.173 444.607 267.324 444.446 267.4 444.246C267.476 444.046 267.47 443.823 267.384 443.627C267.298 443.431 267.138 443.278 266.94 443.202C266.742 443.125 266.522 443.131 266.328 443.218Z" fill="#263238"/>
<path d="M270.019 358.324C270.019 357.895 269.249 357.801 269.249 358.324C269.342 373.091 268.413 385.978 267.191 399.737C266.62 406.114 261.548 441.352 250.594 438.828C248.761 438.398 247.818 436.573 247.54 433.781C247.194 430.411 248.443 426.303 248.987 422.961C250.209 415.578 251.178 408.194 251.802 400.704C253.084 386.814 252.937 372.827 251.364 358.968C251.348 358.886 251.304 358.812 251.24 358.758C251.176 358.705 251.095 358.675 251.012 358.675C250.929 358.675 250.848 358.705 250.784 358.758C250.72 358.812 250.676 358.886 250.66 358.968C250.66 378.245 250.169 397.482 247.327 416.584C245.999 425.753 241.379 439.566 250.872 440.989C260.366 442.412 266.806 419.283 267.974 412.947C271.267 395.213 271.4 376.205 270.019 358.324Z" fill="#263238"/>
<path d="M250.886 439.728C249.904 442.104 249.079 444.544 248.416 447.03C247.718 448.956 247.371 450.994 247.394 453.044C247.394 453.434 247.951 453.474 248.15 453.205C249.291 451.402 250.15 449.433 250.7 447.366C251.536 445.097 252.413 442.856 253.183 440.573C253.294 440.265 253.279 439.926 253.142 439.629C253.005 439.331 252.757 439.102 252.452 438.989C252.148 438.877 251.812 438.892 251.518 439.031C251.224 439.169 250.997 439.42 250.886 439.728Z" fill="#263238"/>
<path d="M169.851 447.057C168.762 459.81 167.474 472.563 166.12 485.275H164.938C166.266 472.523 167.78 459.77 169.413 447.044C169.453 446.762 169.878 446.762 169.851 447.057Z" fill="#263238"/>
<path d="M244.194 212.727C254.112 245.428 297.04 362.231 325.826 380.031C344.668 391.669 439.299 398.288 457.503 389.75C467.608 384.998 464.461 307.729 452.55 307.299C437.693 306.762 364.651 304.776 356.565 300.869C348.478 296.963 293.919 223.198 273.126 200.847C237.289 162.293 237.581 190.953 244.194 212.727Z" fill="#AD6359"/>
<path d="M429.911 301.5L416.421 396.006C416.421 396.006 339.569 398.288 318.616 380.957C288.754 356.284 245.933 231.44 241.073 211.908C229.561 165.595 255.214 173.328 275.397 195.8C288.502 210.432 340.06 285.284 359.154 299.071C364.571 303.031 429.911 301.5 429.911 301.5Z" fill="#EBEBEB"/>
<path d="M397.487 391.375C399.068 377.346 407.605 320.227 410.274 307.971C410.46 307.125 411.044 307.031 410.965 307.971C407.233 350.109 400.342 377.776 398.045 391.442C397.979 391.764 397.448 391.737 397.487 391.375Z" fill="#263238"/>
<path d="M296.721 306.36L309.561 395.63C309.561 395.63 165.655 397.778 129.924 395.24C129.924 395.24 159.069 228.339 197.482 186.161C216.695 165.072 239.255 166.656 253.634 181.396C257.273 185.127 300.678 243.146 305.246 265.282C309.229 284.828 296.721 306.36 296.721 306.36Z" fill="#3CD28A"/>
<path d="M240.649 296.399C248.321 295.699 256.034 295.569 263.726 296.01C267.536 296.292 271.321 296.735 275.105 297.272C276.99 297.54 278.889 297.741 280.774 297.929C282.759 298.178 284.765 298.178 286.749 297.929C286.922 297.929 286.962 298.171 286.749 298.211C284.912 298.636 283.049 298.941 281.173 299.124C279.351 299.252 277.524 299.252 275.702 299.124C271.825 298.883 267.961 298.466 264.084 298.184C256.277 297.621 248.469 297.043 240.635 297.057C240.303 297.057 240.29 296.439 240.649 296.399Z" fill="#263238"/>
<path d="M223.281 306.615C229.392 304.816 235.598 303.364 241.87 302.266C245.004 301.729 248.15 301.38 251.324 301.111C252.824 300.99 254.351 300.883 255.865 300.802C257.379 300.722 259.211 300.802 260.871 300.802C261.043 300.802 261.096 301.057 260.871 301.084C259.304 301.232 257.75 301.648 256.197 301.903L251.496 302.628C248.376 303.125 245.256 303.662 242.109 304.132C235.842 305.058 229.601 306.051 223.361 307.206C222.962 307.165 222.909 306.682 223.281 306.615Z" fill="#263238"/>
<path d="M222.458 485.276H108.918C122.196 400.946 138.13 314.575 153.466 271.108C186.475 177.395 213.416 173.811 213.416 173.811V173.918C213.562 177.879 217.399 284.103 220.347 396.449C221.143 426.223 221.874 456.427 222.458 485.276Z" fill="#EBEBEB"/>
<path d="M203.709 434.949C203.709 431.673 202.992 416.155 202.7 413.027C202.7 412.665 202.567 411.94 202.275 411.94C198.039 411.94 183.341 413.457 168.536 413.457C157.95 413.256 147.384 412.422 136.895 410.96C136.404 411.108 136.404 428.156 136.138 436.398C135.607 453.595 136.39 473.046 140.015 476.671C146.787 483.383 164.831 482.805 170.554 482.752C176.277 482.698 196.446 482.685 201.186 472.16C203.205 467.448 203.762 443.446 203.709 434.949ZM201.054 452.4C200.815 460.884 200.549 468.509 197.322 472.979C194.561 476.751 186.767 480.55 168.828 480.537C155.869 480.537 144.928 478.134 141.94 474.644C138.355 470.469 137.957 458.468 137.957 451.299C137.957 441.406 137.957 433.499 137.957 423.619C163.012 429.499 190.577 426.599 201.027 424.465C201.067 424.881 201.293 445.755 201.093 452.4H201.054ZM201.12 422.867C168.576 427.096 148.433 423.565 137.997 421.525C137.997 418.357 137.997 415.887 137.997 412.705C142.472 413.846 157.529 415.658 168.815 415.658C179.318 415.658 194.747 414.182 201.293 413.39C201.107 415.994 201.239 421.659 201.16 422.854L201.12 422.867Z" fill="#DBDBDB"/>
<path d="M210.003 217.869C203.617 244.596 170.767 339.665 162.601 347.907C152.868 357.734 110.432 387.951 95.6407 347.719C85.3902 319.865 155.046 222.218 187.962 190.658C204.028 175.341 220.692 173.086 210.003 217.869Z" fill="#EBEBEB"/>
<path d="M198.77 266.571C196.778 270.29 194.588 273.901 192.437 277.525C192.941 276.183 193.432 274.84 193.91 273.498C195.982 267.712 197.894 261.859 200.005 256.047C200.085 255.859 199.793 255.792 199.713 255.966C197.495 261 195.145 265.994 192.981 271.068C190.817 276.142 188.998 281.029 187.032 286.063C183.169 296.198 179.252 306.32 175.667 316.562C173.545 322.222 171.728 327.994 170.223 333.852C170.223 334.014 170.422 334.134 170.502 333.973C172.878 329.127 174.75 324.026 176.662 318.979C178.574 313.931 180.486 308.937 182.345 303.89C184.204 298.843 186.183 293.621 188.148 288.506C189.13 285.929 190.153 283.378 191.149 280.814C194.198 276.338 196.792 271.562 198.89 266.558C198.916 266.558 198.797 266.504 198.77 266.571Z" fill="#263238"/>
<path d="M212.22 173.932C208.68 181.485 205.245 189.092 201.917 196.753C198.597 204.404 195.172 212.002 191.958 219.708L191.56 220.674L192.423 221.265L206.352 230.783L206.02 228.756C202.235 234.474 198.571 240.26 194.88 246.032L194.521 246.596L194.72 247.214C198.451 258.906 202.05 270.639 205.967 282.277C209.884 293.916 213.721 305.568 217.837 317.18C214.677 305.295 211.366 293.468 207.905 281.7C204.559 269.887 200.894 258.181 197.362 246.422L197.203 247.603C200.948 241.871 204.718 236.152 208.383 230.353L209.14 229.145L207.985 228.38L193.884 219.117L194.362 220.674C197.522 212.956 200.443 205.143 203.497 197.384C206.551 189.625 209.379 181.772 212.22 173.932Z" fill="#DBDBDB"/>
<path d="M323.436 485.276H282.434C280.004 456.239 277.508 425.888 275.038 396.046C271.52 353.398 268.041 311.783 264.801 276.478C261.906 243.623 256.791 211.007 249.492 178.859C249.306 178.04 249.186 177.516 249.16 177.449C249.133 177.382 249.16 177.449 249.16 177.449C250.8 178.482 252.266 179.773 253.502 181.275C253.542 181.323 253.587 181.368 253.634 181.409L254.073 181.906C254.191 182.024 254.301 182.15 254.405 182.282C261.455 190.108 273.246 206.109 283.735 222.554C293.853 238.394 302.776 254.624 304.98 264.262L305.1 264.799C305.166 265.108 305.219 265.403 305.272 265.699C305.706 268.254 305.95 270.839 306.002 273.431C306.101 284.022 303.391 294.447 298.155 303.621C298.121 303.7 298.081 303.777 298.036 303.85C297.69 304.44 297.478 304.749 297.478 304.749V304.897L310.915 397.898L323.436 485.276Z" fill="#EBEBEB"/>
<path d="M291.078 236.166C287.095 229.695 282.939 223.292 278.995 216.768C278.876 216.58 279.168 216.365 279.301 216.54C283.284 221.909 287.268 227.279 291.131 232.742C289.804 229.829 288.595 226.903 287.44 223.923C287.307 223.587 287.772 223.305 287.931 223.641C289.724 227.467 291.331 231.36 292.924 235.28C296.392 240.139 299.465 245.275 302.112 250.637C307.596 262.034 309.959 274.491 306.985 286.949C306.179 290.39 304.976 293.724 303.4 296.882C302.338 299.03 298.872 303.702 298.899 303.836C301.156 316.562 302.882 329.436 304.622 342.242C306.361 355.049 308.233 368.151 309.734 381.172C310.57 388.528 311.062 395.938 312.177 403.281C312.177 403.55 311.805 403.657 311.765 403.389C310.849 396.999 309.481 390.676 308.353 384.313C307.224 377.95 306.175 371.587 305.153 365.197C303.108 352.31 301.276 339.369 299.43 326.442C298.394 319.139 297.252 311.823 296.429 304.48C296.336 303.675 299.603 298.466 300.572 296.426C301.863 293.722 302.92 290.911 303.732 288.023C305.394 282.152 305.908 276.01 305.246 269.94C303.852 257.563 297.505 246.542 291.078 236.166Z" fill="#263238"/>
<path d="M249.492 178.858C253.723 185.356 258.029 191.795 262.411 198.176C266.819 204.539 271.121 210.982 275.609 217.278L275.702 215.774L264.921 227.198L264.031 228.138L264.974 229.064C269.515 233.508 274.135 237.87 278.743 242.247L278.358 241.119C276.685 252.959 274.892 264.772 273.405 276.639C271.918 288.506 270.338 300.359 269.05 312.253C271.281 300.494 273.312 288.721 275.264 276.921C277.216 265.121 279.035 253.308 280.894 241.508L281 240.837L280.509 240.367C275.955 235.937 271.4 231.494 266.78 227.145V229.011L277.402 217.385L278.066 216.66L277.495 215.882C272.967 209.613 268.2 203.478 263.633 197.263C259.065 191.047 254.285 184.953 249.492 178.858Z" fill="#DBDBDB"/>
<path d="M197.655 193.947C196.579 178.066 215.606 171.757 227.371 170.119C241.299 168.186 250.58 169.354 257.286 183.02C264.349 197.424 268.054 214.137 270.829 229.91C271.347 232.85 275.888 232.112 275.37 229.158C272.17 210.996 267.576 177.1 249.677 167.247C233.2 158.159 191.255 167.784 193.114 194.685C193.313 197.679 197.854 196.914 197.655 193.947Z" fill="#455A64"/>
<path d="M284.917 236.501C285.266 238.601 284.989 240.759 284.122 242.7C283.255 244.64 281.837 246.277 280.049 247.401C278.26 248.525 276.18 249.086 274.075 249.012C271.97 248.939 269.934 248.235 268.226 246.989C266.518 245.743 265.215 244.012 264.482 242.015C263.75 240.018 263.621 237.847 264.112 235.776C264.603 233.705 265.692 231.829 267.24 230.385C268.788 228.941 270.726 227.996 272.808 227.668C274.176 227.444 275.576 227.495 276.925 227.817C278.275 228.14 279.548 228.728 280.672 229.548C281.797 230.368 282.751 231.405 283.479 232.598C284.207 233.791 284.696 235.117 284.917 236.501Z" fill="#263238"/>
<path d="M280.761 237.186C280.953 238.441 280.772 239.726 280.242 240.878C279.712 242.029 278.857 242.997 277.784 243.657C276.711 244.318 275.468 244.643 274.213 244.59C272.957 244.538 271.746 244.111 270.73 243.363C269.715 242.615 268.941 241.579 268.507 240.387C268.073 239.195 267.998 237.9 268.291 236.665C268.584 235.43 269.233 234.31 270.155 233.447C271.077 232.584 272.231 232.017 273.472 231.816C274.299 231.681 275.146 231.712 275.961 231.909C276.777 232.106 277.546 232.465 278.224 232.964C278.902 233.463 279.475 234.094 279.91 234.818C280.346 235.543 280.635 236.348 280.761 237.186Z" fill="#EBEBEB"/>
<path d="M213.628 243.697C225.246 288.305 223.454 299.205 219.789 304.333C217.027 307.92 213.482 310.815 209.432 312.79L208.104 309.85L208.768 311.313L208.104 309.85C211.643 308.093 214.75 305.562 217.2 302.44C219.855 298.735 222.033 288.694 210.561 244.515L213.628 243.697Z" fill="#C7C7C7"/>
<path d="M202.436 312.557L204.314 315.986C204.709 316.705 205.606 316.966 206.318 316.567L213.449 312.574C214.162 312.175 214.419 311.268 214.025 310.548L212.146 307.119C211.752 306.399 210.855 306.139 210.143 306.538L203.011 310.531C202.299 310.93 202.041 311.837 202.436 312.557Z" fill="#263238"/>
<path d="M184.775 244.864C176.025 278.424 173.914 296.896 178.136 302.789C180.586 305.908 183.693 308.435 187.231 310.185L185.904 313.139C181.853 311.163 178.309 308.269 175.547 304.682C170.528 297.674 172.307 280.102 181.694 244.045L184.775 244.864Z" fill="#C7C7C7"/>
<path d="M183.219 307.458L181.343 310.888C180.949 311.609 181.208 312.515 181.92 312.913L189.055 316.902C189.767 317.3 190.664 317.039 191.057 316.319L192.934 312.889C193.327 312.168 193.069 311.262 192.357 310.864L185.222 306.875C184.51 306.477 183.613 306.738 183.219 307.458Z" fill="#263238"/>
<path d="M180.619 242.582C182.079 235.141 183.99 227.798 186.342 220.594C187.733 217.414 189.944 214.669 192.742 212.647C193.379 212.58 193.1 206.915 192.742 202.297C192.45 198.27 192.025 193.464 192.994 192.148C193.553 191.54 194.325 191.176 195.146 191.134C195.966 191.091 196.771 191.373 197.389 191.92C198.491 193.115 198.557 197.894 198.717 201.988C198.876 206.619 199.195 212.271 199.832 212.271C202.663 214.127 205.008 216.646 206.67 219.614C209.765 226.724 212.322 234.061 214.318 241.562C215.341 246.341 213.787 246.932 212.433 247.415C210.521 248.073 209.299 246.744 207.799 241.455C205.409 233.078 202.395 218.97 196.619 219.01C190.896 219.6 188.572 234.541 186.74 242.878C185.585 248.1 184.496 248.596 182.518 248.14C181.137 247.804 179.716 247.214 180.619 242.582Z" fill="#263238"/>
<path d="M250.434 174.778C250.434 174.778 251.762 200.646 247.035 201.075C232.708 202.418 216.775 182.497 215.898 179.342C215.673 178.536 216.828 158.454 217.771 142.842C218.368 132.801 218.886 124.612 218.886 124.612L255.493 145.822L250.78 172.845L250.434 174.778Z" fill="#AD6359"/>
<path d="M255.493 145.822L250.78 172.845C243.502 170.468 236.801 166.568 231.113 161.399C225.426 156.23 220.88 149.906 217.771 142.842C218.368 132.801 218.886 124.612 218.886 124.612L223.494 127.082L255.493 145.822Z" fill="#263238"/>
<path d="M293.176 102.784C300.811 150.332 273.498 160.32 263.354 161.971C254.152 163.474 222.617 167.408 210.163 120.907C197.708 74.4059 217.16 55.8002 238.046 51.236C258.932 46.6719 285.541 55.2364 293.176 102.784Z" fill="#AD6359"/>
<path d="M281.704 96.918C280.605 96.8487 279.51 96.7187 278.424 96.5287C277.257 96.555 276.114 96.1917 275.171 95.495C274.918 95.2171 274.763 94.8626 274.73 94.4865C274.696 94.1104 274.786 93.7336 274.985 93.4143C275.473 92.8554 276.099 92.4369 276.798 92.2011C277.498 91.9654 278.247 91.9208 278.969 92.0719C280.504 92.145 281.955 92.8019 283.032 93.911C283.252 94.1734 283.395 94.4935 283.443 94.8343C283.491 95.1751 283.443 95.5228 283.304 95.8372C283.166 96.1516 282.942 96.4199 282.658 96.6111C282.375 96.8024 282.044 96.9087 281.704 96.918Z" fill="#263238"/>
<path d="M249.837 101.053C250.939 100.811 251.908 100.409 252.97 100.073C254.129 99.8846 255.194 99.3134 255.998 98.4487C256.198 98.1287 256.286 97.7505 256.25 97.3738C256.214 96.9971 256.055 96.6432 255.798 96.3679C255.215 95.8948 254.516 95.589 253.776 95.4828C253.035 95.3765 252.28 95.4736 251.589 95.7639C250.097 96.1241 248.79 97.0333 247.925 98.3144C247.747 98.6194 247.66 98.9696 247.675 99.3232C247.689 99.6767 247.804 100.019 248.006 100.308C248.208 100.597 248.488 100.821 248.813 100.953C249.137 101.085 249.493 101.12 249.837 101.053Z" fill="#263238"/>
<path d="M258.773 111.886C258.773 111.765 258.547 112.06 258.56 112.195C259.038 115.443 259.038 119.242 256.237 120.665C256.157 120.665 256.237 120.867 256.237 120.84C259.782 119.927 259.742 114.879 258.773 111.886Z" fill="#263238"/>
<path d="M255.506 108.812C250.288 109.013 251.072 119.551 255.918 119.39C260.765 119.229 259.888 108.637 255.506 108.812Z" fill="#263238"/>
<path d="M253.501 109.523C252.638 110.194 251.815 111.322 250.726 111.51C249.637 111.698 248.416 110.704 247.513 109.698C247.42 109.604 247.327 109.698 247.34 109.845C247.46 111.859 248.389 113.872 250.554 114.02C252.718 114.168 253.807 112.248 254.152 110.167C254.218 109.792 253.82 109.281 253.501 109.523Z" fill="#263238"/>
<path d="M276.552 109.456C276.552 109.322 276.818 109.591 276.818 109.725C276.937 113 277.614 116.732 280.615 117.618C280.708 117.618 280.708 117.819 280.615 117.806C276.99 117.551 276.14 112.571 276.552 109.456Z" fill="#263238"/>
<path d="M279.208 105.832C284.386 105.08 285.501 115.605 280.708 116.303C275.915 117.001 274.866 106.476 279.208 105.832Z" fill="#263238"/>
<path d="M281.451 106.288C282.341 106.758 283.257 107.631 284.253 107.631C285.249 107.631 286.112 106.288 286.723 105.187C286.789 105.067 286.882 105.187 286.895 105.281C287.174 107.295 286.736 109.456 284.864 110.047C282.991 110.638 281.69 109 281 107.053C280.88 106.704 281.093 106.1 281.451 106.288Z" fill="#263238"/>
<path d="M261.468 137.472C262.265 138.21 263.075 139.244 264.257 139.311C265.463 139.251 266.644 138.935 267.722 138.385C267.744 138.374 267.768 138.37 267.792 138.375C267.816 138.38 267.837 138.393 267.852 138.411C267.868 138.43 267.877 138.454 267.877 138.478C267.878 138.503 267.87 138.527 267.855 138.546C267.419 139.193 266.82 139.711 266.119 140.046C265.419 140.381 264.643 140.521 263.872 140.452C263.202 140.302 262.592 139.954 262.119 139.452C261.646 138.95 261.332 138.316 261.216 137.633C261.11 137.472 261.349 137.472 261.468 137.472Z" fill="#263238"/>
<path d="M273.963 124.505C273.963 124.505 275.052 129.324 275.291 131.633C275.291 131.847 274.76 131.995 273.963 132.116C273.963 132.116 273.963 132.116 273.883 132.116C271.961 132.651 269.93 132.64 268.014 132.084C266.097 131.527 264.37 130.447 263.022 128.961C262.836 128.747 263.102 128.491 263.327 128.612C266.405 130.36 269.958 131.056 273.458 130.599C273.565 129.955 271.321 122.41 271.679 122.357C273.474 122.348 275.262 122.592 276.99 123.082C275.012 112.973 271.44 103.268 269.621 93.1728C269.616 93.1015 269.634 93.0305 269.673 92.9708C269.712 92.9111 269.769 92.8662 269.836 92.8432C269.903 92.8201 269.975 92.8202 270.042 92.8434C270.109 92.8666 270.166 92.9117 270.205 92.9715C274.653 102.878 277.189 114.45 279.5 124.84C279.739 126.129 274.906 124.813 273.963 124.505Z" fill="#263238"/>
<path d="M271.374 131.66C270.305 133.213 268.854 134.457 267.165 135.271C266.232 135.695 265.191 135.808 264.191 135.593C262.013 135.123 261.88 133.123 262.199 131.391C262.374 130.465 262.659 129.563 263.049 128.706C265.437 130.572 268.357 131.607 271.374 131.66Z" fill="#263238"/>
<path d="M267.165 135.271C266.232 135.695 265.191 135.808 264.191 135.593C262.013 135.123 261.88 133.123 262.199 131.391C264.509 131.539 266.873 133.015 267.165 135.271Z" fill="#FF99BA"/>
<path d="M210.163 122.706C213.229 121.219 215.86 118.953 217.799 116.129C219.738 113.305 220.918 110.021 221.223 106.597C229.563 102.949 236.791 97.1202 242.162 89.7095C241.844 90.7029 239.507 97.8579 238.179 101.456C268.399 95.898 277.853 72.5804 277.853 72.5804C287.613 82.5008 289.538 88.837 290.932 91.9916C290.932 91.9916 291.251 73.1979 281.77 60.6733C278.583 56.3263 274.206 53.019 269.179 51.1605C264.153 49.3019 258.698 48.9735 253.488 50.216C246.375 47.7322 238.695 47.4264 231.411 49.3368C224.126 51.2472 217.561 55.2889 212.539 60.9552C192.822 82.4337 210.163 122.706 210.163 122.706Z" fill="#263238"/>
<path d="M261.176 96.5827C256.314 99.2422 251.087 101.156 245.668 102.261C245.668 102.261 245.601 102.261 245.668 102.261C254.164 99.9558 261.86 95.3081 267.895 88.8371C270.458 86.0702 272.662 82.9847 274.454 79.655C276.557 76.0893 277.943 72.1385 278.53 68.0298C278.543 67.9771 278.573 67.9301 278.615 67.8965C278.657 67.863 278.709 67.8447 278.763 67.8447C278.817 67.8447 278.869 67.863 278.911 67.8965C278.953 67.9301 278.983 67.9771 278.995 68.0298C278.855 72.1681 278.025 76.2528 276.539 80.1114C274.894 83.8244 272.595 87.2041 269.754 90.0855C267.208 92.65 264.315 94.8374 261.163 96.5827" fill="#263238"/>
<path d="M252.877 129.418C250.094 129.482 247.35 128.756 244.955 127.321C242.56 125.887 240.612 123.802 239.331 121.303C238.051 118.804 237.49 115.992 237.712 113.187C237.934 110.382 238.93 107.696 240.588 105.435C242.245 103.174 244.496 101.429 247.086 100.398C249.676 99.3664 252.5 99.0908 255.237 99.602C257.975 100.113 260.515 101.391 262.569 103.29C264.624 105.188 266.11 107.632 266.859 110.342C267.916 114.184 267.422 118.292 265.485 121.766C263.548 125.239 260.327 127.793 256.529 128.867C255.338 129.2 254.112 129.385 252.877 129.418ZM252.24 101.361C251.166 101.385 250.1 101.547 249.066 101.845C245.916 102.742 243.222 104.819 241.533 107.654C239.844 110.489 239.288 113.868 239.976 117.103C240.665 120.338 242.548 123.186 245.241 125.067C247.933 126.948 251.234 127.721 254.471 127.228C257.708 126.735 260.637 125.014 262.662 122.414C264.687 119.814 265.657 116.532 265.372 113.235C265.088 109.939 263.571 106.875 261.132 104.669C258.692 102.463 255.512 101.281 252.24 101.361Z" fill="#3CD28A"/>
<path d="M286.643 124.451C280.96 124.585 275.662 118.813 274.574 111.027C273.996 107.324 274.581 103.53 276.247 100.18C276.88 98.7053 277.876 97.4192 279.142 96.4449C280.407 95.4707 281.898 94.841 283.473 94.6161C285.048 94.3912 286.653 94.5785 288.136 95.1602C289.618 95.7419 290.929 96.6985 291.941 97.9385C294.459 100.698 296.056 104.187 296.509 107.913C297.651 116.115 293.667 123.498 287.612 124.357C287.293 124.416 286.968 124.447 286.643 124.451ZM284.505 96.529C284.253 96.5157 284.001 96.5157 283.749 96.529C282.501 96.7692 281.328 97.3076 280.328 98.0992C279.328 98.8909 278.529 99.9128 277.999 101.08C276.535 104.057 276.029 107.422 276.552 110.705C277.535 117.82 282.368 123.041 287.334 122.33C292.3 121.619 295.526 115.256 294.544 108.154C294.151 104.856 292.76 101.762 290.56 99.2943C289.799 98.4302 288.867 97.7374 287.824 97.261C286.78 96.7846 285.65 96.5352 284.505 96.529Z" fill="#3CD28A"/>
<path d="M266.607 112.155L265.12 110.812C267.098 108.597 271.905 105.322 276.034 108.691L274.786 110.262C271.081 107.228 266.779 111.967 266.607 112.155Z" fill="#3CD28A"/>
<path d="M201.519 125.391L199.647 124.719C199.952 123.833 202.767 116.034 207.056 114.692C211.039 113.443 237.821 112.181 238.923 112.141L239.016 114.141C231.354 114.49 210.721 115.645 207.627 116.611C204.812 117.444 202.262 123.189 201.519 125.391Z" fill="#3CD28A"/>
<path d="M218.222 123.337C218.222 123.337 206.75 109.121 200.284 113.376C193.817 117.631 203.231 138.815 211.331 141.137C212.35 141.515 213.435 141.68 214.519 141.623C215.603 141.566 216.665 141.288 217.64 140.805C218.615 140.322 219.484 139.644 220.193 138.813C220.902 137.982 221.438 137.015 221.767 135.969L218.222 123.337Z" fill="#AD6359"/>
<path d="M203.139 119.363C203.111 119.363 203.084 119.375 203.064 119.395C203.044 119.415 203.033 119.442 203.033 119.471C203.033 119.499 203.044 119.526 203.064 119.547C203.084 119.567 203.111 119.578 203.139 119.578C208.835 121.431 212.141 126.411 214.584 131.66C212.779 129.713 210.455 128.747 207.853 130.935C207.72 131.056 207.853 131.27 208.025 131.23C208.976 130.843 210.022 130.764 211.019 131.004C212.015 131.245 212.914 131.793 213.589 132.573C214.715 133.88 215.699 135.307 216.523 136.828C216.815 137.311 217.692 136.976 217.466 136.412V136.278C217.001 129.096 210.774 119.511 203.139 119.363Z" fill="#263238"/>
<path d="M215.66 138.68C215.688 138.911 215.669 139.146 215.603 139.369C215.538 139.592 215.427 139.8 215.279 139.978C215.13 140.156 214.947 140.301 214.741 140.404C214.534 140.507 214.309 140.566 214.079 140.577C213.849 140.589 213.619 140.552 213.404 140.469C213.189 140.386 212.993 140.259 212.828 140.096C212.664 139.933 212.534 139.738 212.448 139.522C212.362 139.306 212.32 139.074 212.327 138.841C212.338 138.415 212.509 138.009 212.804 137.704C213.1 137.399 213.498 137.219 213.919 137.198C214.341 137.178 214.754 137.319 215.077 137.594C215.4 137.869 215.608 138.257 215.66 138.68Z" fill="white"/>
<path d="M210.853 135.995C210.86 136.134 210.84 136.274 210.793 136.405C210.747 136.537 210.676 136.657 210.583 136.761C210.491 136.864 210.379 136.948 210.254 137.008C210.13 137.068 209.995 137.102 209.857 137.109C209.719 137.116 209.582 137.096 209.452 137.049C209.322 137.002 209.202 136.93 209.1 136.837C208.997 136.743 208.914 136.63 208.855 136.504C208.796 136.378 208.762 136.242 208.755 136.103C208.741 135.821 208.838 135.546 209.025 135.337C209.211 135.128 209.473 135.003 209.751 134.988C210.029 134.974 210.301 135.072 210.508 135.261C210.715 135.45 210.839 135.714 210.853 135.995Z" fill="white"/>
<path d="M250.447 176.08L242.481 197.182L216.244 171.18L209.113 179.825C209.113 179.825 235.085 221.44 235.204 219.533L243.397 201.317L255.958 213.64L254.364 182.134L250.447 176.08Z" fill="#3CD28A"/>
<path d="M256.077 198.015C255.652 192.82 255.347 187.584 254.749 182.416C254.749 182.228 254.431 182.147 254.391 182.416C253.461 187.45 255.227 207.304 255.294 212.07C254.776 211.533 243.662 201.236 243.556 201.411C241.764 204.31 235.749 217.52 235.337 218.782C231.234 212.177 213.84 186.134 209.007 179.852C208.982 179.811 208.943 179.782 208.897 179.77C208.85 179.759 208.802 179.767 208.761 179.791C208.721 179.816 208.692 179.857 208.681 179.903C208.669 179.95 208.677 179.999 208.702 180.04C212.353 187.034 234.846 221.399 235.151 221.292C238.331 215.028 241.189 208.603 243.715 202.042C245.601 204.297 256.834 215.936 256.861 215.171C256.9 209.442 256.638 203.715 256.077 198.015Z" fill="#263238"/>
<path d="M252.306 244.327C252.306 244.327 242.043 230.635 251.842 224.312C261.641 217.989 269.594 233.172 269.594 233.172L252.306 244.327Z" fill="#455A64"/>
<path d="M333.488 334.43L334.908 351.169L335.413 356.7L330.62 353.948L316.226 345.545L251.975 243.737L269.236 232.582L333.488 334.43Z" fill="#455A64"/>
<path d="M334.948 351.196L335.426 356.713L330.646 353.961L334.948 351.196Z" fill="#37474F"/>
<path d="M270.343 231.123L250.161 244.142L252.718 248.193L272.9 235.174L270.343 231.123Z" fill="#263238"/>
<path d="M273.156 235.615L252.974 248.634L255.531 252.685L275.713 239.667L273.156 235.615Z" fill="#263238"/>
<path d="M255.533 252.664L262.039 248.462L281.704 287.62L279.221 289.016L255.533 252.664Z" fill="#263238"/>
<path d="M215.314 280.264C225.18 278.29 255.148 363.56 240.742 367.171C176.795 383.28 124.44 373.131 112.039 367.171C95.7734 359.291 94.4191 338.175 101.217 328.429C113.075 311.528 200.018 283.338 215.314 280.264Z" fill="#AD6359"/>
<path d="M338.122 275.74C337.962 285.579 313.996 283.136 313.996 283.136C317.455 285.543 319.97 289.102 321.099 293.191C322.759 300.48 312.19 306.306 312.19 306.306C315.254 309.561 317.281 313.672 318.006 318.106C318.895 325.248 309.056 332.658 309.056 332.658C310.249 337.217 309.778 342.059 307.728 346.296C301.793 357.385 235.563 368.097 227.318 369.614L211.384 282.358C211.384 282.358 263.42 252.61 277.774 253.603C289.843 254.342 338.361 260.664 338.122 275.74Z" fill="#AD6359"/>
<path d="M313.81 282.814C301.169 278.787 287.599 277.861 274.507 277.095C274.448 277.095 274.39 277.12 274.348 277.162C274.306 277.205 274.282 277.263 274.282 277.324C274.282 277.384 274.306 277.442 274.348 277.485C274.39 277.528 274.448 277.552 274.507 277.552C287.546 278.156 300.731 282.304 313.717 283.445C313.794 283.446 313.868 283.418 313.926 283.368C313.985 283.317 314.023 283.247 314.034 283.17C314.046 283.094 314.029 283.015 313.988 282.95C313.947 282.884 313.884 282.836 313.81 282.814Z" fill="#263238"/>
<path d="M311.858 305.273C308.9 304.644 305.874 304.41 302.856 304.575C299.651 304.575 296.451 304.601 293.256 304.655C286.847 304.816 280.447 305.143 274.056 305.635C273.777 305.635 273.737 306.091 274.056 306.091C280.429 305.944 286.816 305.89 293.203 306.011C296.403 306.011 299.589 306.159 302.789 306.266C305.794 306.566 308.822 306.53 311.818 306.159C311.91 306.131 311.992 306.074 312.051 305.998C312.11 305.921 312.145 305.827 312.149 305.73C312.153 305.633 312.128 305.536 312.076 305.454C312.023 305.372 311.947 305.309 311.858 305.273Z" fill="#263238"/>
<path d="M308.777 332.617C306.308 331.812 303.214 332.309 300.651 332.429L291.888 332.792C286.059 332.993 280.23 333.195 274.388 333.195C274.095 333.195 274.069 333.651 274.388 333.651C280.323 333.651 286.258 333.799 292.18 333.772C295.101 333.772 298.009 333.772 300.93 333.691C303.4 333.691 306.507 333.893 308.897 332.913C308.93 332.893 308.955 332.862 308.968 332.825C308.98 332.789 308.979 332.748 308.964 332.713C308.95 332.677 308.923 332.647 308.888 332.63C308.854 332.612 308.815 332.608 308.777 332.617Z" fill="#263238"/>
<path d="M205.595 281.391L234.235 377.467C234.235 377.467 129.924 382.609 107.551 366.164C92.0022 354.727 93.2901 333.208 100.314 325.798C115.65 309.622 205.595 281.391 205.595 281.391Z" fill="#EBEBEB"/>
<path d="M206.75 373.735C202.249 360.311 185.798 305.004 183.036 292.801C182.85 291.956 183.328 291.634 183.647 292.479C198.093 332.201 203.563 360.204 207.268 373.534C207.348 373.896 206.87 374.097 206.75 373.735Z" fill="#263238"/>
<path d="M205.622 280.398C205.051 280.277 194.999 282.908 191.786 283.861C185.51 285.749 179.278 287.799 173.091 290.009C160.769 294.398 148.679 299.425 136.869 305.071L135.103 305.93C130.787 306.977 126.578 308.481 122.382 309.877C122.263 309.877 122.382 310.105 122.382 310.065C125.742 308.937 129.154 308.051 132.567 307.138C130.681 308.065 128.782 309.004 126.923 309.984C123.617 311.716 120.391 313.582 117.111 315.354C117.099 315.359 117.088 315.367 117.079 315.377C117.07 315.386 117.064 315.398 117.059 315.411C117.055 315.423 117.054 315.437 117.055 315.45C117.057 315.463 117.061 315.476 117.067 315.488C117.074 315.499 117.083 315.509 117.094 315.517C117.104 315.524 117.117 315.53 117.13 315.532C117.143 315.535 117.156 315.535 117.169 315.532C117.182 315.529 117.194 315.523 117.204 315.515C122.714 312.629 128.437 310.065 134.094 307.46C139.75 304.856 145.645 302.319 151.488 299.93C163 295.218 174.737 291.003 186.621 287.298C189.967 286.264 193.26 285.271 196.686 284.304C198.332 283.834 205.183 281.485 205.475 281.458C205.635 281.706 205.756 281.978 205.834 282.264C205.914 282.545 206.232 282.545 206.166 282.264C206.057 281.622 205.874 280.996 205.622 280.398Z" fill="#263238"/>
<path d="M219.749 377.897C216.722 377.682 205.555 378.232 202.568 378.232C196.539 378.232 190.525 378.232 184.496 378.125C172.387 377.803 160.331 376.917 148.274 375.749C144.941 375.427 141.635 375.064 138.263 374.702C134.89 374.339 131.265 374.071 127.84 373.44C127.707 373.44 127.654 373.628 127.84 373.655C130.84 374.098 133.788 374.809 136.776 375.333C139.763 375.856 142.764 376.313 145.778 376.742C151.806 377.601 157.861 378.205 163.929 378.716C176.038 379.722 188.227 380.058 200.377 379.83C203.802 379.763 216.589 379.226 219.909 378.487C220.24 378.474 220.094 377.924 219.749 377.897Z" fill="#263238"/>
<path d="M420.285 396.784L310.742 404.812L351.691 259L461.234 250.972L420.285 396.784Z" fill="white"/>
<path d="M427.774 396.234L318.245 404.262L359.194 258.45L468.723 250.422L427.774 396.234Z" fill="#37474F"/>
<path d="M370.825 257.617C370.548 258.873 370.027 260.06 369.293 261.111C368.56 262.161 367.627 263.054 366.55 263.739C365.554 264.383 365.222 263.027 366.165 262.396C367.545 261.476 368.576 260.107 369.086 258.517C369.152 258.262 369.232 257.966 369.272 257.711C369.507 256.832 369.507 255.906 369.272 255.026C369.158 254.648 368.919 254.321 368.594 254.1C368.563 254.084 368.536 254.061 368.515 254.033C368.515 254.033 368.395 254.033 368.382 254.033C368.311 254.042 368.24 254.042 368.17 254.033C367.907 254.001 367.64 254.043 367.399 254.154C366.935 254.357 366.525 254.67 366.204 255.067C365.81 255.539 365.479 256.063 365.222 256.624C365.064 256.897 364.922 257.18 364.797 257.47V257.671C364.748 257.764 364.712 257.863 364.691 257.966C364.691 257.966 364.611 258.087 364.624 258.154L363.071 258.275C363.387 257.271 363.834 256.314 364.399 255.429C364.81 254.667 365.379 254.003 366.066 253.482C366.753 252.96 367.543 252.595 368.382 252.409C369.007 252.34 369.634 252.52 370.13 252.911C370.626 253.302 370.951 253.873 371.038 254.503C371.225 255.543 371.152 256.613 370.825 257.617Z" fill="#3CD28A"/>
<path d="M379.403 256.946C378.832 259.477 377.295 261.677 375.127 263.067C374.118 263.712 373.799 262.356 374.742 261.725C376.123 260.808 377.15 259.438 377.65 257.845C377.735 257.582 377.802 257.313 377.849 257.04C378.084 256.161 378.084 255.234 377.849 254.355C377.731 253.975 377.487 253.648 377.159 253.429C377.137 253.433 377.114 253.433 377.092 253.429C377.092 253.429 376.973 253.429 376.946 253.429H376.747C376.484 253.397 376.218 253.439 375.977 253.55C375.512 253.753 375.102 254.066 374.782 254.463C374.378 254.928 374.047 255.453 373.799 256.02C373.642 256.298 373.5 256.585 373.374 256.879V257.067C373.318 257.157 373.277 257.257 373.255 257.362C373.255 257.429 373.189 257.496 373.255 257.55L371.701 257.671C372.012 256.665 372.459 255.707 373.029 254.825C373.439 254.062 374.007 253.397 374.695 252.875C375.382 252.354 376.173 251.989 377.013 251.805C377.637 251.739 378.262 251.921 378.757 252.311C379.253 252.701 379.579 253.27 379.668 253.899C379.821 254.921 379.73 255.966 379.403 256.946Z" fill="#3CD28A"/>
<path d="M387.927 256.356C387.353 258.892 385.812 261.097 383.638 262.49C382.642 263.121 382.31 261.766 383.253 261.148C384.638 260.231 385.669 258.862 386.174 257.268C386.174 257.013 386.334 256.731 386.373 256.476C386.598 255.596 386.598 254.672 386.373 253.792C386.265 253.411 386.025 253.082 385.696 252.865H385.617C385.617 252.865 385.51 252.865 385.484 252.865H385.271C385.014 252.825 384.751 252.863 384.514 252.973C384.046 253.176 383.632 253.489 383.306 253.886C382.912 254.358 382.581 254.882 382.324 255.443C382.164 255.711 382.045 256.007 381.899 256.302V256.49C381.852 256.584 381.816 256.683 381.793 256.785C381.793 256.852 381.726 256.919 381.793 256.973L380.239 257.094C380.549 256.088 380.996 255.13 381.567 254.248C381.978 253.487 382.546 252.824 383.234 252.305C383.921 251.786 384.711 251.423 385.55 251.241C386.174 251.168 386.801 251.345 387.297 251.734C387.794 252.123 388.12 252.693 388.206 253.322C388.353 254.341 388.257 255.381 387.927 256.356Z" fill="#3CD28A"/>
<path d="M396.545 255.725C396.266 256.981 395.744 258.169 395.011 259.222C394.277 260.275 393.345 261.171 392.269 261.859C391.273 262.504 390.941 261.134 391.884 260.517C393.262 259.593 394.291 258.226 394.805 256.637C394.872 256.369 394.951 256.087 394.991 255.832C395.224 254.953 395.224 254.026 394.991 253.147C394.875 252.77 394.636 252.444 394.314 252.221H394.234C394.234 252.221 394.115 252.221 394.101 252.221H393.889C393.626 252.176 393.356 252.218 393.119 252.342C392.652 252.535 392.241 252.844 391.924 253.241C391.529 253.714 391.199 254.237 390.941 254.798C390.784 255.076 390.642 255.363 390.516 255.657V255.845C390.472 255.94 390.436 256.039 390.41 256.141C390.41 256.208 390.331 256.275 390.344 256.342L388.79 256.449C389.107 255.446 389.553 254.489 390.118 253.604C390.53 252.843 391.098 252.18 391.786 251.661C392.473 251.142 393.263 250.779 394.101 250.597C394.725 250.524 395.352 250.701 395.849 251.09C396.345 251.479 396.671 252.048 396.757 252.677C396.934 253.695 396.861 254.742 396.545 255.725Z" fill="#3CD28A"/>
<path d="M405.188 255.093C404.615 257.627 403.079 259.83 400.912 261.228C399.903 261.873 399.585 260.503 400.527 259.886C401.906 258.965 402.931 257.597 403.435 256.006C403.52 255.743 403.587 255.474 403.634 255.201C403.87 254.322 403.87 253.395 403.634 252.516C403.516 252.133 403.273 251.802 402.944 251.576C402.922 251.58 402.9 251.58 402.878 251.576C402.878 251.576 402.758 251.576 402.732 251.576H402.532C402.27 251.538 402.001 251.58 401.762 251.697C401.298 251.896 400.888 252.204 400.567 252.597C400.166 253.069 399.835 253.598 399.585 254.167C399.425 254.439 399.283 254.722 399.16 255.013V255.201C399.105 255.293 399.065 255.392 399.04 255.496C399.04 255.563 398.974 255.63 399.04 255.698L397.487 255.805C397.798 254.799 398.245 253.841 398.815 252.959C399.227 252.199 399.796 251.537 400.483 251.018C401.17 250.499 401.96 250.136 402.798 249.952C403.421 249.883 404.046 250.061 404.542 250.45C405.037 250.838 405.364 251.405 405.454 252.033C405.609 253.06 405.518 254.11 405.188 255.093Z" fill="#3CD28A"/>
<path d="M413.699 254.476C413.121 257.007 411.58 259.206 409.41 260.597C408.415 261.241 408.083 259.872 409.025 259.255C410.407 258.335 411.437 256.966 411.946 255.375C412.013 255.12 412.106 254.825 412.146 254.57C412.375 253.69 412.375 252.765 412.146 251.885C412.034 251.502 411.795 251.17 411.468 250.945H411.389C411.389 250.945 411.283 250.945 411.256 250.945C411.185 250.954 411.114 250.954 411.044 250.945C410.785 250.909 410.522 250.951 410.287 251.066C409.815 251.264 409.4 251.578 409.078 251.979C408.684 252.451 408.353 252.975 408.096 253.536C407.937 253.791 407.817 254.086 407.671 254.382V254.583C407.624 254.672 407.588 254.767 407.565 254.865C407.547 254.931 407.547 255.001 407.565 255.066L406.011 255.174C406.324 254.173 406.771 253.22 407.339 252.341C407.751 251.58 408.32 250.916 409.007 250.395C409.694 249.874 410.484 249.508 411.322 249.321C411.946 249.248 412.573 249.425 413.07 249.814C413.566 250.203 413.892 250.773 413.978 251.402C414.13 252.434 414.034 253.488 413.699 254.476Z" fill="#3CD28A"/>
<path d="M422.264 253.845C421.986 255.101 421.466 256.288 420.732 257.339C419.998 258.389 419.066 259.283 417.988 259.967C416.992 260.611 416.66 259.255 417.603 258.624C418.984 257.704 420.014 256.335 420.524 254.745C420.591 254.49 420.67 254.194 420.71 253.939C420.945 253.06 420.945 252.134 420.71 251.254C420.597 250.876 420.357 250.549 420.033 250.328C420.002 250.312 419.975 250.289 419.953 250.261C419.953 250.261 419.834 250.261 419.821 250.261C419.75 250.27 419.679 250.27 419.608 250.261C419.345 250.229 419.079 250.271 418.838 250.382C418.373 250.585 417.964 250.898 417.643 251.295C417.244 251.764 416.913 252.288 416.66 252.852C416.503 253.125 416.361 253.408 416.236 253.698V253.899C416.188 253.994 416.148 254.093 416.116 254.194C416.116 254.194 416.05 254.315 416.116 254.382L414.562 254.503C414.879 253.499 415.326 252.542 415.89 251.657C416.302 250.895 416.87 250.231 417.558 249.71C418.245 249.188 419.035 248.823 419.874 248.637C420.499 248.568 421.126 248.748 421.622 249.139C422.118 249.53 422.443 250.101 422.529 250.731C422.7 251.775 422.609 252.846 422.264 253.845Z" fill="#3CD28A"/>
<path d="M430.841 253.214C430.27 255.745 428.734 257.945 426.566 259.335C425.556 259.98 425.238 258.624 426.181 257.993C427.559 257.079 428.586 255.714 429.088 254.127C429.173 253.863 429.24 253.594 429.288 253.321C429.517 252.442 429.517 251.517 429.288 250.637C429.17 250.257 428.926 249.93 428.597 249.71C428.575 249.714 428.553 249.714 428.531 249.71C428.531 249.71 428.411 249.71 428.385 249.71H428.186C427.923 249.679 427.656 249.721 427.415 249.831C426.951 250.035 426.541 250.348 426.22 250.744C425.817 251.21 425.485 251.735 425.238 252.301C425.08 252.579 424.938 252.866 424.813 253.16V253.348C424.756 253.439 424.716 253.539 424.693 253.644C424.693 253.711 424.627 253.778 424.693 253.832L423.14 253.952C423.451 252.947 423.898 251.989 424.468 251.106C424.878 250.343 425.446 249.678 426.133 249.157C426.821 248.636 427.611 248.27 428.451 248.086C429.076 248.021 429.701 248.202 430.196 248.593C430.691 248.983 431.017 249.552 431.107 250.18C431.258 251.199 431.167 252.238 430.841 253.214Z" fill="#3CD28A"/>
<path d="M439.419 252.583C438.845 255.12 437.304 257.325 435.13 258.718C434.134 259.349 433.802 257.993 434.745 257.376C436.129 256.459 437.161 255.089 437.666 253.496C437.732 253.241 437.825 252.959 437.865 252.704C438.09 251.823 438.09 250.9 437.865 250.019C437.757 249.638 437.516 249.309 437.188 249.093H437.108C437.108 249.093 437.002 249.093 436.975 249.093H436.763C436.506 249.053 436.243 249.09 436.006 249.2C435.537 249.403 435.123 249.716 434.798 250.113C434.403 250.586 434.073 251.109 433.815 251.67C433.656 251.939 433.537 252.234 433.39 252.529V252.717C433.346 252.812 433.31 252.911 433.284 253.013C433.284 253.08 433.284 253.147 433.284 253.201L431.731 253.321C432.041 252.315 432.488 251.357 433.059 250.476C433.469 249.714 434.038 249.051 434.725 248.532C435.413 248.013 436.203 247.651 437.042 247.469C437.666 247.396 438.293 247.573 438.789 247.962C439.285 248.351 439.611 248.921 439.697 249.549C439.845 250.569 439.749 251.609 439.419 252.583Z" fill="#3CD28A"/>
<path d="M447.983 251.952C447.704 253.209 447.183 254.397 446.449 255.45C445.716 256.503 444.784 257.399 443.708 258.087C442.712 258.731 442.38 257.362 443.323 256.745C444.698 255.818 445.726 254.452 446.244 252.865C446.31 252.597 446.39 252.315 446.43 252.06C446.663 251.18 446.663 250.254 446.43 249.375C446.313 248.998 446.075 248.672 445.752 248.449H445.673C445.673 248.449 445.553 248.449 445.54 248.449H445.328C445.065 248.404 444.795 248.446 444.557 248.569C444.091 248.763 443.68 249.072 443.362 249.469C442.963 249.938 442.632 250.462 442.38 251.026C442.222 251.304 442.081 251.591 441.955 251.885V252.073C441.906 252.168 441.866 252.266 441.836 252.368C441.836 252.436 441.769 252.503 441.836 252.57L440.282 252.677C440.599 251.674 441.045 250.717 441.61 249.831C442.021 249.07 442.59 248.408 443.277 247.889C443.965 247.37 444.755 247.007 445.593 246.824C446.217 246.752 446.844 246.929 447.34 247.318C447.837 247.706 448.163 248.276 448.249 248.905C448.408 249.927 448.317 250.974 447.983 251.952Z" fill="#3CD28A"/>
<path d="M456.56 251.321C455.987 253.855 454.452 256.058 452.285 257.456C451.276 258.1 450.957 256.731 451.9 256.114C453.278 255.193 454.304 253.824 454.808 252.234C454.893 251.971 454.959 251.702 455.007 251.429C455.236 250.549 455.236 249.624 455.007 248.744C454.889 248.361 454.645 248.029 454.316 247.804C454.294 247.808 454.272 247.808 454.25 247.804C454.25 247.804 454.13 247.804 454.104 247.804H453.905C453.642 247.766 453.374 247.808 453.135 247.925C452.671 248.123 452.261 248.432 451.94 248.824C451.539 249.3 451.204 249.828 450.944 250.395C450.788 250.667 450.651 250.95 450.532 251.241V251.429C450.478 251.52 450.437 251.62 450.413 251.724C450.413 251.791 450.346 251.858 450.413 251.925L448.859 252.033C449.17 251.027 449.617 250.069 450.187 249.187C450.599 248.426 451.168 247.765 451.855 247.246C452.543 246.727 453.332 246.363 454.17 246.18C454.793 246.111 455.419 246.289 455.914 246.677C456.41 247.066 456.737 247.633 456.826 248.261C456.981 249.288 456.89 250.337 456.56 251.321Z" fill="#3CD28A"/>
<path d="M465.138 250.704C464.56 253.235 463.019 255.434 460.849 256.825C459.854 257.469 459.522 256.1 460.464 255.483C461.846 254.563 462.876 253.194 463.385 251.603C463.452 251.348 463.532 251.053 463.585 250.798C463.814 249.918 463.814 248.993 463.585 248.113C463.473 247.73 463.234 247.398 462.907 247.173H462.828C462.828 247.173 462.722 247.173 462.695 247.173C462.624 247.183 462.553 247.183 462.483 247.173C462.224 247.137 461.961 247.179 461.726 247.294C461.254 247.492 460.839 247.806 460.517 248.207C460.123 248.679 459.792 249.203 459.535 249.764C459.375 250.019 459.256 250.314 459.11 250.61V250.811C459.063 250.9 459.027 250.995 459.004 251.093C458.986 251.159 458.986 251.229 459.004 251.294L457.45 251.402C457.766 250.398 458.212 249.441 458.778 248.556C459.193 247.798 459.763 247.137 460.45 246.619C461.136 246.101 461.924 245.736 462.761 245.549C463.385 245.476 464.012 245.653 464.509 246.042C465.005 246.431 465.331 247.001 465.417 247.63C465.569 248.662 465.473 249.716 465.138 250.704Z" fill="#3CD28A"/>
<path d="M463.332 283.204C469.134 295.192 483.554 310.052 484.842 319.838C485.242 322.25 484.863 324.727 483.761 326.904C482.658 329.08 480.891 330.839 478.721 331.92C478.721 331.92 488.507 336.712 488.215 345.827C488.055 350.525 480.514 354.392 480.514 354.392C480.514 354.392 488.175 358.58 487.431 366.674C486.821 373.118 479.358 376.071 479.358 376.071C479.358 376.071 484.855 383.522 482.2 389.844C476.743 402.758 421.759 403.403 413.035 383.025C408.959 373.534 422.396 374.111 422.396 374.111C422.396 374.111 403.276 368.567 402.851 357.103C402.426 345.639 419.847 347.465 419.847 347.465C419.847 347.465 401.364 341.921 402.108 330.013C402.891 317.61 420.006 322.442 420.006 322.442C420.006 322.442 407.684 314.2 410.327 305.206C414.682 290.359 438.038 308.696 450.16 305.662L456.6 285.432L463.332 283.204Z" fill="#AD6359"/>
<path d="M474.551 300.588C470.05 288.748 484.444 273.901 481.735 261.967C478.083 245.858 460.225 261.886 456.507 285.459L456.772 304.252L474.551 300.588Z" fill="#AD6359"/>
<path d="M478.217 376.675C478.389 376.675 478.456 376.916 478.217 376.957C460.185 381.628 438.954 381.172 421.547 374.272C420.976 374.044 421.095 373.01 421.772 373.144C441.158 376.769 458.579 378.5 478.217 376.675Z" fill="#263238"/>
<path d="M480.779 354.512C480.992 354.512 481.032 354.848 480.779 354.901C462.19 359.613 438.29 358.432 419.143 348.015C418.48 347.666 418.254 346.672 419.037 347.035C432.302 352.968 463.093 356.284 480.779 354.512Z" fill="#263238"/>
<path d="M418.798 321.261C437.533 330.523 457.304 332.792 477.977 332.161C478.243 332.161 478.23 332.537 477.977 332.604C467.953 335.692 454.754 334.712 444.544 333.061C435.039 331.716 426.049 327.879 418.466 321.932C418.174 321.69 418.466 321.073 418.798 321.261Z" fill="#263238"/>
<path d="M9.98511 485.276L76.919 484.954L143.853 484.833L277.721 484.604L411.588 484.833L478.522 484.954L545.456 485.276L478.522 485.611L411.588 485.719L277.721 485.947L143.853 485.719L76.919 485.598L9.98511 485.276Z" fill="#263238"/>
<path d="M92.1086 428.29H33.1282V517.748H92.1086V428.29Z" fill="#3CD28A"/>
<path d="M99.2388 404.261H26.0112V428.277H99.2388V404.261Z" fill="#455A64"/>
<path d="M82.2566 454.024H42.9939V493.719H82.2566V454.024Z" fill="white"/>
<path opacity="0.1" d="M33.1282 428.29V435.257L66.3362 447.943V517.735H82.2564V428.29H33.1282Z" fill="black"/>
<path d="M14.8181 515.694C14.8181 514.709 15.0102 513.734 15.3834 512.824C15.7565 511.915 16.3035 511.088 16.9929 510.393C17.6823 509.697 18.5006 509.145 19.4011 508.77C20.3015 508.394 21.2664 508.202 22.2405 508.203H37.0055C37.9802 508.202 38.9457 508.394 39.8469 508.769C40.7481 509.145 41.5673 509.696 42.2578 510.392C42.9482 511.087 43.4964 511.914 43.871 512.823C44.2456 513.733 44.4394 514.709 44.4411 515.694C44.4376 517.685 43.6526 519.594 42.2586 521.001C40.8645 522.408 38.9752 523.198 37.0055 523.198H22.2936C21.3149 523.203 20.3448 523.013 19.4389 522.639C18.533 522.264 17.7092 521.712 17.0147 521.015C16.3202 520.318 15.7687 519.489 15.3917 518.576C15.0148 517.663 14.8198 516.683 14.8181 515.694Z" fill="#455A64"/>
<path d="M14.8181 515.694C14.8181 514.709 15.0102 513.734 15.3834 512.824C15.7565 511.915 16.3035 511.088 16.9929 510.393C17.6823 509.697 18.5006 509.145 19.4011 508.77C20.3015 508.394 21.2664 508.202 22.2405 508.203H29.6097V523.225H22.2936C21.3127 523.23 20.3404 523.039 19.4328 522.663C18.5252 522.287 17.7002 521.733 17.0053 521.033C16.3105 520.333 15.7595 519.5 15.3841 518.584C15.0087 517.668 14.8164 516.686 14.8181 515.694Z" fill="#3CD28A"/>
<path d="M115.73 515.694C115.728 516.68 115.534 517.655 115.16 518.565C114.785 519.475 114.237 520.301 113.546 520.997C112.856 521.692 112.037 522.244 111.135 522.619C110.234 522.995 109.269 523.187 108.294 523.185H93.6485C92.6738 523.187 91.7083 522.995 90.8071 522.619C89.9059 522.244 89.0867 521.692 88.3962 520.997C87.7058 520.301 87.1576 519.475 86.783 518.565C86.4084 517.655 86.2146 516.68 86.2129 515.694C86.2129 513.701 86.9963 511.789 88.3907 510.379C89.7852 508.969 91.6765 508.177 93.6485 508.177H108.347C110.31 508.191 112.188 508.989 113.571 510.398C114.954 511.806 115.73 513.71 115.73 515.694Z" fill="#455A64"/>
<path d="M115.73 515.694C115.728 516.68 115.534 517.655 115.16 518.565C114.785 519.475 114.237 520.301 113.546 520.997C112.856 521.692 112.037 522.244 111.135 522.619C110.234 522.995 109.269 523.187 108.294 523.185H100.991V508.177H108.347C110.31 508.191 112.188 508.989 113.571 510.398C114.954 511.806 115.73 513.71 115.73 515.694Z" fill="#3CD28A"/>
<path d="M132.474 518.715C131.785 519.412 130.968 519.965 130.068 520.343C129.168 520.72 128.203 520.915 127.229 520.915C126.254 520.915 125.29 520.72 124.39 520.343C123.49 519.965 122.672 519.412 121.984 518.715L111.574 508.204C110.184 506.797 109.404 504.89 109.404 502.901C109.404 500.913 110.184 499.006 111.574 497.599C112.97 496.192 114.861 495.402 116.832 495.402C118.803 495.402 120.694 496.192 122.09 497.599L132.487 508.11C133.872 509.52 134.648 511.428 134.645 513.415C134.643 515.402 133.862 517.308 132.474 518.715Z" fill="#455A64"/>
<path d="M132.473 518.715C131.785 519.412 130.968 519.965 130.068 520.343C129.168 520.72 128.203 520.914 127.229 520.914C126.254 520.914 125.289 520.72 124.389 520.343C123.489 519.965 122.672 519.412 121.984 518.715L116.779 513.452L127.282 502.834L132.487 508.096C133.875 509.507 134.654 511.418 134.651 513.408C134.649 515.399 133.866 517.307 132.473 518.715Z" fill="#3CD28A"/>
<path d="M65.1943 530.716C65.1961 529.73 65.3898 528.755 65.7644 527.845C66.139 526.935 66.6872 526.109 67.3777 525.414C68.0681 524.718 68.8873 524.167 69.7885 523.791C70.6897 523.416 71.6552 523.223 72.63 523.225H87.3286C88.3033 523.223 89.2688 523.416 90.17 523.791C91.0712 524.167 91.8904 524.718 92.5809 525.414C93.2713 526.109 93.8195 526.935 94.1941 527.845C94.5688 528.755 94.7625 529.73 94.7642 530.716C94.7607 532.707 93.9757 534.616 92.5817 536.023C91.1876 537.43 89.2983 538.22 87.3286 538.22H72.63C70.6602 538.22 68.7709 537.43 67.3769 536.023C65.9828 534.616 65.1979 532.707 65.1943 530.716Z" fill="#455A64"/>
<path d="M65.1943 530.716C65.1961 529.73 65.3898 528.755 65.7644 527.845C66.139 526.935 66.6872 526.109 67.3777 525.414C68.0681 524.718 68.8874 524.167 69.7885 523.791C70.6897 523.416 71.6553 523.223 72.63 523.225H79.9859V538.247H72.63C71.6524 538.247 70.6844 538.052 69.7814 537.673C68.8784 537.294 68.0581 536.74 67.3675 536.04C66.6768 535.341 66.1294 534.51 65.7565 533.597C65.3836 532.683 65.1926 531.704 65.1943 530.716Z" fill="#3CD28A"/>
<path d="M369.55 514.271L369.179 519.533C369.179 519.614 369.179 519.708 369.179 519.802C368.9 521.466 367.027 522.849 364.226 523.708C361.243 524.548 358.141 524.874 355.051 524.675L353.723 524.581C353.272 524.581 352.807 524.5 352.395 524.433C345.305 523.507 340.073 520.554 340.286 517.479L340.644 512.231C340.432 515.305 345.663 518.258 352.754 519.184L354.082 519.319C354.533 519.319 354.998 519.399 355.409 519.413C358.5 519.619 361.602 519.292 364.584 518.446C367.386 517.6 369.245 516.231 369.537 514.553C369.537 514.446 369.537 514.379 369.55 514.271Z" fill="#DBDBDB"/>
<path d="M345.57 508.056C348.544 507.217 351.637 506.89 354.718 507.09L352.687 519.171C353.125 519.171 353.59 519.279 354.015 519.305C354.44 519.332 354.918 519.386 355.342 519.413L357.374 507.331C364.677 508.271 370.001 511.358 369.457 514.54C369.191 516.218 367.319 517.587 364.517 518.46C361.534 519.299 358.433 519.626 355.342 519.426C354.891 519.426 354.426 519.426 354.015 519.319C353.603 519.212 353.098 519.238 352.687 519.185C345.384 518.245 340.06 515.157 340.604 511.976C340.883 510.298 342.782 508.915 345.57 508.056Z" fill="white"/>
<path d="M354.731 507.089L356.059 507.183L357.387 507.331L355.356 519.413C354.904 519.413 354.439 519.413 354.028 519.305C353.616 519.198 353.112 519.225 352.7 519.171L354.731 507.089Z" fill="#DBDBDB"/>
<path d="M368.727 523.964V529.226C368.72 529.315 368.72 529.405 368.727 529.494C368.873 531.172 370.639 532.716 373.347 533.79C376.254 534.869 379.32 535.445 382.416 535.495H383.744C384.195 535.495 384.66 535.495 385.072 535.495C392.215 535.146 397.672 532.622 397.699 529.535V524.272C397.699 527.346 392.215 529.87 385.072 530.233H383.744C383.302 530.258 382.858 530.258 382.416 530.233C379.321 530.187 376.255 529.615 373.347 528.541C370.612 527.467 368.873 525.937 368.727 524.246C368.719 524.152 368.719 524.057 368.727 523.964Z" fill="#DBDBDB"/>
<path d="M393.132 519.695C390.229 518.616 387.168 518.039 384.076 517.99L385.152 530.206C384.7 530.206 384.235 530.206 383.824 530.206H382.496L381.42 517.99C374.064 518.339 368.514 520.997 368.806 524.192C368.952 525.896 370.705 527.413 373.427 528.501C376.334 529.58 379.4 530.156 382.496 530.206H383.824C384.275 530.206 384.74 530.206 385.152 530.206C392.494 529.857 398.058 527.199 397.766 524.004C397.619 522.299 395.893 520.782 393.132 519.695Z" fill="white"/>
<path d="M384.076 517.99H382.748C382.297 517.99 381.854 517.99 381.42 517.99L382.496 530.206H383.823C384.275 530.206 384.74 530.206 385.151 530.206L384.076 517.99Z" fill="#DBDBDB"/>
<path d="M329.942 522.272C326.769 524.086 323.214 525.108 319.572 525.253C316.457 525.468 313.334 524.987 310.424 523.843C310.105 523.709 309.773 523.534 309.454 523.373C309.136 523.212 308.844 523.024 308.565 522.836C307.772 522.383 307.092 521.751 306.579 520.99C306.065 520.229 305.732 519.359 305.604 518.447L305.126 513.654C305.263 514.577 305.61 515.455 306.14 516.219C306.67 516.983 307.368 517.613 308.18 518.057C308.445 518.227 308.737 518.402 309.056 518.581C309.365 518.756 309.684 518.913 310.012 519.051C312.922 520.194 316.046 520.676 319.16 520.46C322.799 520.318 326.353 519.306 329.53 517.507C332.757 515.547 334.271 513.064 334.032 510.795L334.51 515.587C334.682 517.843 333.169 520.326 329.942 522.272Z" fill="#DBDBDB"/>
<path d="M309.959 519.05L310.224 521.842L329.504 510.15L329.039 505.358L308.086 518.057C308.339 518.231 308.644 518.406 308.963 518.58C309.281 518.755 309.587 518.903 309.959 519.05Z" fill="#3CD28A"/>
<path d="M329.066 505.358C329.398 505.505 329.729 505.653 330.048 505.828C330.367 506.002 330.646 506.163 330.924 506.351L309.959 519.05C309.613 518.903 309.308 518.755 308.989 518.58C308.671 518.406 308.365 518.231 308.113 518.057L329.066 505.358Z" fill="#DBDBDB"/>
<path d="M330.925 506.351L331.403 511.13L310.423 523.829L309.959 519.05L330.925 506.351Z" fill="#DBDBDB"/>
<path d="M319.917 503.948C323.032 503.737 326.154 504.218 329.065 505.358L308.113 518.057C308.365 518.231 308.671 518.406 308.989 518.581C309.308 518.755 309.613 518.903 309.959 519.05L330.924 506.351C335.492 509.331 334.908 514.177 329.464 517.493C326.292 519.295 322.743 520.312 319.107 520.46C315.992 520.672 312.869 520.191 309.959 519.05C309.613 518.903 309.308 518.755 308.989 518.581C308.671 518.406 308.365 518.231 308.113 518.057C303.545 515.063 304.13 510.231 309.574 506.915C312.742 505.115 316.286 504.099 319.917 503.948Z" fill="white"/>
<path d="M406.582 518.406C409.75 520.218 413.301 521.24 416.939 521.386C420.058 521.604 423.186 521.122 426.1 519.977C426.419 519.842 426.751 519.668 427.07 519.507C427.388 519.346 427.68 519.158 427.946 518.97C428.753 518.525 429.448 517.897 429.975 517.135C430.503 516.374 430.849 515.499 430.987 514.58L431.465 509.788C431.326 510.71 430.978 511.587 430.448 512.351C429.918 513.115 429.221 513.744 428.411 514.191C428.145 514.361 427.853 514.535 427.534 514.714C427.225 514.89 426.906 515.047 426.578 515.184C423.664 516.33 420.536 516.811 417.417 516.594C413.781 516.456 410.231 515.444 407.06 513.64C403.833 511.681 402.32 509.197 402.545 506.928L402.067 511.721C401.842 513.99 403.355 516.46 406.582 518.406Z" fill="#DBDBDB"/>
<path d="M426.565 515.184L426.286 517.976L406.98 506.284L407.458 501.505L428.41 514.191C428.128 514.382 427.836 514.557 427.534 514.714C427.215 514.889 426.897 515.036 426.565 515.184Z" fill="#3CD28A"/>
<path d="M407.458 501.505C407.126 501.639 406.794 501.8 406.476 501.961C406.157 502.122 405.878 502.297 405.586 502.485L426.565 515.184C426.897 515.036 427.216 514.889 427.535 514.714C427.836 514.557 428.129 514.382 428.411 514.191L407.458 501.505Z" fill="#DBDBDB"/>
<path d="M405.599 502.485L405.121 507.264L426.1 519.963L426.565 515.184L405.599 502.485Z" fill="#DBDBDB"/>
<path d="M416.593 500.095C413.482 499.871 410.361 500.353 407.458 501.505L428.411 514.191C428.128 514.382 427.836 514.556 427.534 514.714C427.215 514.889 426.897 515.036 426.565 515.184L405.586 502.485C401.031 505.478 401.602 510.311 407.06 513.627C410.232 515.429 413.781 516.445 417.416 516.593C420.532 516.819 423.657 516.337 426.565 515.184C426.897 515.036 427.215 514.889 427.534 514.714C427.836 514.556 428.128 514.382 428.411 514.191C432.978 511.197 432.394 506.364 426.95 503.049C423.779 501.245 420.229 500.233 416.593 500.095Z" fill="white"/>
<path d="M318.271 500.458L318.205 506.029C318.187 506.394 318.036 506.738 317.78 506.996C316.824 508.096 314.381 508.969 311.207 509.466C308.003 509.937 304.761 510.085 301.527 509.909L300.2 509.815L298.872 509.68C292.95 509.023 289.086 507.385 289.099 505.653L289.179 500.109C289.179 501.827 293.043 503.465 298.952 504.136C299.363 504.203 299.828 504.244 300.279 504.271L301.607 504.378C304.84 504.567 308.084 504.419 311.287 503.935C314.447 503.425 316.903 502.593 317.926 501.452C318.163 501.178 318.287 500.822 318.271 500.458Z" fill="#DBDBDB"/>
<path d="M300.292 504.257L300.213 509.814L298.885 509.68L298.951 504.123L300.292 504.257Z" fill="#DBDBDB"/>
<path d="M305.882 496.203L307.21 496.297C307.662 496.297 308.104 496.337 308.538 496.417L301.633 504.338L300.306 504.257L298.978 504.123L305.882 496.203Z" fill="#DBDBDB"/>
<path d="M308.525 496.417L308.445 501.975L301.541 509.909L301.62 504.338L308.525 496.417Z" fill="#DBDBDB"/>
<path d="M296.229 496.632C299.424 496.153 302.658 496.009 305.882 496.203L298.964 504.123L300.292 504.257L301.62 504.337L308.525 496.417C315.522 497.196 319.665 499.371 317.819 501.438C316.863 502.539 314.42 503.398 311.18 503.908C307.986 504.387 304.751 504.531 301.527 504.337L300.199 504.257L298.871 504.123C291.861 503.344 287.731 501.183 289.577 499.102C290.599 498.001 293.042 497.142 296.229 496.632Z" fill="white"/>
<path d="M354.161 500.888L354.241 506.445C354.243 506.627 354.282 506.806 354.355 506.972C354.428 507.139 354.534 507.288 354.665 507.412C355.621 508.512 358.065 509.385 361.238 509.895C364.438 510.366 367.676 510.514 370.904 510.338L372.232 510.231C372.657 510.231 373.108 510.164 373.56 510.096C379.482 509.439 383.346 507.801 383.319 506.069V500.512C383.319 502.243 379.455 503.881 373.547 504.539L372.219 504.673L370.891 504.767C367.663 504.97 364.422 504.821 361.225 504.324C358.051 503.827 355.608 502.982 354.652 501.854C354.508 501.737 354.39 501.59 354.305 501.423C354.221 501.257 354.172 501.074 354.161 500.888Z" fill="#DBDBDB"/>
<path d="M372.166 504.673L372.232 510.23C372.67 510.23 373.122 510.15 373.56 510.11L373.48 504.552L372.166 504.673Z" fill="#DBDBDB"/>
<path d="M366.562 496.619L365.235 496.713L363.907 496.834L370.811 504.767L372.139 504.673L373.467 504.553L366.562 496.619Z" fill="#DBDBDB"/>
<path d="M363.92 496.833L363.986 502.404L370.904 510.325L370.824 504.767L363.92 496.833Z" fill="#DBDBDB"/>
<path d="M376.202 497.048C373.012 496.576 369.782 496.432 366.562 496.619L373.467 504.552L372.139 504.673L370.811 504.767L363.907 496.834C356.896 497.626 352.767 499.787 354.612 501.854C355.568 502.955 358.011 503.828 361.185 504.324C364.383 504.808 367.623 504.956 370.851 504.767L372.179 504.673L373.507 504.552C380.531 503.774 384.66 501.599 382.801 499.532C381.845 498.431 379.389 497.559 376.202 497.048Z" fill="white"/>
<path d="M320.687 528.299L320.753 533.87C320.756 534.052 320.795 534.232 320.868 534.398C320.941 534.564 321.046 534.713 321.178 534.837C322.134 535.938 324.577 536.797 327.751 537.307C330.951 537.778 334.189 537.926 337.417 537.75L338.745 537.656L340.073 537.522C345.995 536.864 349.859 535.213 349.845 533.495L349.766 527.95C349.766 529.669 345.902 531.306 339.993 531.978L338.665 532.112L337.338 532.206C334.105 532.409 330.859 532.26 327.658 531.763C324.485 531.266 322.041 530.42 321.085 529.293C320.828 529.028 320.685 528.671 320.687 528.299Z" fill="#DBDBDB"/>
<path d="M338.679 532.139L338.759 537.71L340.086 537.575L340.007 532.018L338.679 532.139Z" fill="#DBDBDB"/>
<path d="M333.076 524.084L331.748 524.178L330.42 524.313L337.324 532.233L338.652 532.139L339.98 532.018L333.076 524.084Z" fill="#DBDBDB"/>
<path d="M330.433 524.259L330.5 529.816L337.417 537.737L337.338 532.179L330.433 524.259Z" fill="#DBDBDB"/>
<path d="M342.781 524.474C339.588 523.99 336.353 523.841 333.128 524.031L340.033 531.964L338.705 532.085L337.377 532.179L330.473 524.259C323.475 525.037 319.333 527.199 321.178 529.279C322.134 530.367 324.577 531.239 327.751 531.749C330.95 532.221 334.189 532.365 337.417 532.179L338.745 532.085L340.073 531.964C347.097 531.186 351.226 529.011 349.367 526.944C348.358 525.843 345.902 524.984 342.781 524.474Z" fill="white"/>
<path d="M459.973 407.027H505.98C508.967 407.027 511.831 408.226 513.942 410.361C516.054 412.496 517.24 415.391 517.24 418.41V520.782C517.24 521.911 516.797 522.993 516.007 523.791C515.218 524.589 514.147 525.038 513.031 525.038H452.988C451.872 525.038 450.802 524.589 450.012 523.791C449.223 522.993 448.779 521.911 448.779 520.782V418.397C448.783 415.392 449.961 412.51 452.058 410.38C454.155 408.25 457 407.045 459.973 407.027Z" fill="#3CD28A"/>
<path d="M502.82 392.046H463.146V410.423H502.82V392.046Z" fill="#3CD28A"/>
<path d="M517.24 445.46H448.726V492.162H517.24V445.46Z" fill="#EBEBEB"/>
<path d="M517.24 482.617H448.726V486.846H517.24V482.617Z" fill="#455A64"/>
<path d="M517.24 450.789H448.726V455.017H517.24V450.789Z" fill="#455A64"/>
<path d="M505.582 379.185H460.384V396.207H505.582V379.185Z" fill="#455A64"/>
<path d="M507.946 396.194H458.008V401.228H507.946V396.194Z" fill="#37474F"/>
<path d="M463.996 381.562H463.412C463.001 381.562 462.668 381.898 462.668 382.313V393.079C462.668 393.495 463.001 393.831 463.412 393.831H463.996C464.406 393.831 464.739 393.495 464.739 393.079V382.313C464.739 381.898 464.406 381.562 463.996 381.562Z" fill="#37474F"/>
<path d="M467.846 381.562H467.262C466.851 381.562 466.519 381.898 466.519 382.313V393.079C466.519 393.495 466.851 393.831 467.262 393.831H467.846C468.257 393.831 468.59 393.495 468.59 393.079V382.313C468.59 381.898 468.257 381.562 467.846 381.562Z" fill="#37474F"/>
<path d="M471.113 381.562H471.71C471.904 381.562 472.09 381.639 472.227 381.778C472.364 381.916 472.441 382.104 472.441 382.3V393.039C472.441 393.239 472.362 393.43 472.223 393.571C472.083 393.712 471.894 393.791 471.697 393.791H471.1C470.902 393.791 470.713 393.712 470.574 393.571C470.434 393.43 470.356 393.239 470.356 393.039V382.3C470.358 382.201 470.379 382.104 470.418 382.013C470.457 381.923 470.513 381.841 470.583 381.772C470.653 381.704 470.736 381.65 470.827 381.614C470.918 381.578 471.015 381.56 471.113 381.562Z" fill="#37474F"/>
<path d="M475.561 381.562H474.976C474.566 381.562 474.233 381.898 474.233 382.313V393.079C474.233 393.495 474.566 393.831 474.976 393.831H475.561C475.971 393.831 476.304 393.495 476.304 393.079V382.313C476.304 381.898 475.971 381.562 475.561 381.562Z" fill="#37474F"/>
<path d="M479.425 381.562H478.841C478.43 381.562 478.097 381.898 478.097 382.313V393.079C478.097 393.495 478.43 393.831 478.841 393.831H479.425C479.836 393.831 480.169 393.495 480.169 393.079V382.313C480.169 381.898 479.836 381.562 479.425 381.562Z" fill="#37474F"/>
<path d="M482.678 381.562H483.275C483.472 381.562 483.662 381.641 483.801 381.782C483.94 381.923 484.019 382.114 484.019 382.313V393.053C484.019 393.252 483.94 393.443 483.801 393.584C483.662 393.725 483.472 393.804 483.275 393.804H482.678C482.484 393.804 482.298 393.726 482.161 393.588C482.024 393.45 481.947 393.262 481.947 393.066V382.327C481.946 382.228 481.963 382.13 481.999 382.038C482.035 381.946 482.088 381.862 482.156 381.791C482.224 381.72 482.305 381.663 482.394 381.624C482.484 381.584 482.58 381.563 482.678 381.562Z" fill="#37474F"/>
<path d="M487.126 381.562H486.542C486.131 381.562 485.798 381.898 485.798 382.313V393.079C485.798 393.495 486.131 393.831 486.542 393.831H487.126C487.537 393.831 487.869 393.495 487.869 393.079V382.313C487.869 381.898 487.537 381.562 487.126 381.562Z" fill="#37474F"/>
<path d="M490.99 381.562H490.405C489.995 381.562 489.662 381.898 489.662 382.313V393.079C489.662 393.495 489.995 393.831 490.405 393.831H490.99C491.4 393.831 491.733 393.495 491.733 393.079V382.313C491.733 381.898 491.4 381.562 490.99 381.562Z" fill="#37474F"/>
<path d="M494.256 381.562H494.853C495.051 381.562 495.24 381.641 495.379 381.782C495.519 381.923 495.597 382.114 495.597 382.313V393.053C495.597 393.252 495.519 393.443 495.379 393.584C495.24 393.725 495.051 393.804 494.853 393.804H494.256C494.062 393.804 493.876 393.726 493.739 393.588C493.602 393.45 493.526 393.262 493.526 393.066V382.327C493.524 382.228 493.541 382.13 493.577 382.038C493.613 381.946 493.666 381.862 493.734 381.791C493.802 381.72 493.883 381.663 493.972 381.624C494.062 381.584 494.158 381.563 494.256 381.562Z" fill="#37474F"/>
<path d="M498.691 381.562H498.107C497.696 381.562 497.363 381.898 497.363 382.313V393.079C497.363 393.495 497.696 393.831 498.107 393.831H498.691C499.102 393.831 499.435 393.495 499.435 393.079V382.313C499.435 381.898 499.102 381.562 498.691 381.562Z" fill="#37474F"/>
<path d="M502.555 381.562H501.97C501.56 381.562 501.227 381.898 501.227 382.313V393.079C501.227 393.495 501.56 393.831 501.97 393.831H502.555C502.965 393.831 503.298 393.495 503.298 393.079V382.313C503.298 381.898 502.965 381.562 502.555 381.562Z" fill="#37474F"/>
<path d="M174.658 553.136L175.041 514.222L169.956 514.171L169.573 553.085L174.658 553.136Z" fill="#3CD28A"/>
<path opacity="0.1" d="M174.658 553.136L175.041 514.222L169.956 514.171L169.573 553.085L174.658 553.136Z" fill="black"/>
<path d="M140.181 545.913L140.416 522.087L135.331 522.036L135.096 545.862L140.181 545.913Z" fill="#3CD28A"/>
<path opacity="0.1" d="M140.181 545.913L140.416 522.087L135.331 522.036L135.096 545.862L140.181 545.913Z" fill="black"/>
<path d="M169.714 540.597L169.838 527.952L140.363 527.655L140.238 540.3L169.714 540.597Z" fill="#3CD28A"/>
<path opacity="0.2" d="M164.938 540.542L166.677 527.91L169.824 527.95L169.691 540.582L164.938 540.542Z" fill="black"/>
<path d="M282.925 534.824C288.037 534.703 293.149 534.676 298.274 534.649H313.61L328.946 534.904L336.608 535.106C339.17 535.2 341.72 535.267 344.282 535.401C341.72 535.468 339.17 535.481 336.608 535.535H328.933H313.597L298.261 535.28C293.149 535.132 288.037 534.998 282.925 534.824Z" fill="#263238"/>
<path d="M279.272 548.675L279.546 520.822L174.988 519.77L174.714 547.624L279.272 548.675Z" fill="#3CD28A"/>
<path opacity="0.6" d="M279.272 548.675L279.546 520.822L174.988 519.77L174.714 547.624L279.272 548.675Z" fill="white"/>
<path d="M279.31 545.012L279.512 524.488L179.906 523.486L179.704 544.01L279.31 545.012Z" fill="#3CD28A"/>
<path d="M268.685 526.958L268.736 521.777L268.125 521.77L268.074 526.952L268.685 526.958Z" fill="#263238"/>
<path d="M266.647 526.972L266.698 521.79L266.087 521.784L266.036 526.966L266.647 526.972Z" fill="#263238"/>
<path d="M264.583 526.945L264.634 521.764L264.023 521.758L263.972 526.939L264.583 526.945Z" fill="#263238"/>
<path d="M262.532 526.932L262.583 521.751L261.972 521.745L261.921 526.926L262.532 526.932Z" fill="#263238"/>
<path d="M260.436 530.686L260.524 521.705L259.914 521.699L259.825 530.679L260.436 530.686Z" fill="#263238"/>
<path d="M258.522 526.893L258.573 521.711L257.962 521.705L257.911 526.886L258.522 526.893Z" fill="#263238"/>
<path d="M256.458 526.866L256.509 521.685L255.898 521.678L255.847 526.86L256.458 526.866Z" fill="#263238"/>
<path d="M254.407 526.826L254.458 521.645L253.848 521.639L253.797 526.82L254.407 526.826Z" fill="#263238"/>
<path d="M252.312 526.798L252.363 521.616L251.752 521.61L251.701 526.792L252.312 526.798Z" fill="#263238"/>
<path d="M250.247 530.593L250.335 521.613L249.725 521.607L249.636 530.587L250.247 530.593Z" fill="#263238"/>
<path d="M248.346 526.787L248.397 521.605L247.787 521.599L247.736 526.781L248.346 526.787Z" fill="#263238"/>
<path d="M246.269 526.733L246.32 521.552L245.709 521.546L245.658 526.727L246.269 526.733Z" fill="#263238"/>
<path d="M244.218 526.72L244.269 521.539L243.658 521.533L243.607 526.714L244.218 526.72Z" fill="#263238"/>
<path d="M242.167 526.734L242.218 521.552L241.607 521.546L241.556 526.728L242.167 526.734Z" fill="#263238"/>
<path d="M240.072 530.501L240.16 521.521L239.549 521.514L239.461 530.495L240.072 530.501Z" fill="#263238"/>
<path d="M238.158 526.681L238.208 521.499L237.598 521.493L237.547 526.675L238.158 526.681Z" fill="#263238"/>
<path d="M236.093 526.641L236.144 521.459L235.533 521.453L235.482 526.635L236.093 526.641Z" fill="#263238"/>
<path d="M234.042 526.641L234.093 521.459L233.483 521.453L233.432 526.635L234.042 526.641Z" fill="#263238"/>
<path d="M231.978 526.588L232.029 521.406L231.418 521.4L231.367 526.582L231.978 526.588Z" fill="#263238"/>
<path d="M229.896 530.382L229.984 521.401L229.373 521.395L229.285 530.375L229.896 530.382Z" fill="#263238"/>
<path d="M227.969 526.575L228.02 521.394L227.409 521.387L227.358 526.569L227.969 526.575Z" fill="#263238"/>
<path d="M225.904 526.535L225.955 521.353L225.344 521.347L225.293 526.529L225.904 526.535Z" fill="#263238"/>
<path d="M223.866 526.535L223.917 521.354L223.307 521.348L223.256 526.529L223.866 526.535Z" fill="#263238"/>
<path d="M221.802 526.482L221.853 521.3L221.243 521.294L221.192 526.476L221.802 526.482Z" fill="#263238"/>
<path d="M219.706 530.289L219.795 521.309L219.184 521.302L219.096 530.283L219.706 530.289Z" fill="#263238"/>
<path d="M217.792 526.469L217.843 521.288L217.233 521.282L217.182 526.463L217.792 526.469Z" fill="#263238"/>
<path d="M215.741 526.456L215.792 521.274L215.181 521.268L215.13 526.45L215.741 526.456Z" fill="#263238"/>
<path d="M213.691 526.429L213.742 521.248L213.131 521.242L213.08 526.423L213.691 526.429Z" fill="#263238"/>
<path d="M211.613 526.389L211.664 521.208L211.053 521.202L211.002 526.383L211.613 526.389Z" fill="#263238"/>
<path d="M209.531 530.197L209.619 521.216L209.008 521.21L208.92 530.19L209.531 530.197Z" fill="#263238"/>
<path d="M207.603 526.35L207.654 521.168L207.043 521.162L206.992 526.343L207.603 526.35Z" fill="#263238"/>
<path d="M205.552 526.337L205.603 521.155L204.993 521.149L204.942 526.331L205.552 526.337Z" fill="#263238"/>
<path d="M203.489 526.31L203.54 521.129L202.929 521.123L202.878 526.304L203.489 526.31Z" fill="#263238"/>
<path d="M201.438 526.297L201.489 521.116L200.878 521.11L200.827 526.291L201.438 526.297Z" fill="#263238"/>
<path d="M199.355 530.077L199.443 521.097L198.832 521.091L198.744 530.071L199.355 530.077Z" fill="#263238"/>
<path d="M197.428 526.257L197.479 521.076L196.868 521.07L196.817 526.251L197.428 526.257Z" fill="#263238"/>
<path d="M195.364 526.23L195.415 521.049L194.804 521.043L194.753 526.224L195.364 526.23Z" fill="#263238"/>
<path d="M193.299 526.191L193.35 521.009L192.739 521.003L192.688 526.185L193.299 526.191Z" fill="#263238"/>
<path d="M191.262 526.218L191.312 521.037L190.702 521.03L190.651 526.212L191.262 526.218Z" fill="#263238"/>
<path d="M189.152 529.971L189.24 520.991L188.63 520.985L188.541 529.965L189.152 529.971Z" fill="#263238"/>
<path d="M187.238 526.152L187.289 520.97L186.679 520.964L186.628 526.145L187.238 526.152Z" fill="#263238"/>
<path d="M185.187 526.152L185.238 520.97L184.628 520.964L184.577 526.145L185.187 526.152Z" fill="#263238"/>
<path d="M183.137 526.112L183.188 520.93L182.577 520.924L182.526 526.105L183.137 526.112Z" fill="#263238"/>
<path d="M181.073 526.112L181.124 520.93L180.513 520.924L180.462 526.106L181.073 526.112Z" fill="#263238"/>
<path d="M178.977 529.879L179.065 520.899L178.454 520.893L178.366 529.873L178.977 529.879Z" fill="#263238"/>
<path d="M279.272 548.665L279.546 520.811L271.659 520.732L271.385 548.585L279.272 548.665Z" fill="#263238"/>
<path d="M288.354 544.253L288.539 525.433L279.511 525.343L279.325 544.162L288.354 544.253Z" fill="#3CD28A"/>
<path d="M299.231 537.348L299.27 532.501L288.462 531.521L288.396 538.113L299.231 537.348Z" fill="#3CD28A"/>
<path opacity="0.1" d="M288.396 538.112L288.462 531.535L291.529 531.803L290.998 537.925L288.396 538.112Z" fill="black"/>
</svg>
