<svg width="936" height="651" viewBox="0 0 936 651" fill="none" xmlns="http://www.w3.org/2000/svg">
<path d="M935.734 649.927L919.922 600.881L878.873 562.447L858.257 508.018H754.098L726.731 518.843L629.429 523.206L577.479 551.682L453.798 555.559C453.798 555.559 418.754 575.674 416.215 577.148C413.676 578.623 353.014 589.418 353.014 589.418L299.118 593.507H207.653L120.887 631.045L15.2683 650.079H935.734" fill="#FBFBFB"/>
<path opacity="0.2" d="M935.734 649.927L919.922 600.881L878.873 562.447L858.257 508.018H754.098L726.731 518.843L629.429 523.206L577.479 551.682L453.798 555.559C453.798 555.559 418.754 575.674 416.215 577.148C413.676 578.623 353.014 589.418 353.014 589.418L299.118 593.507H207.653L120.887 631.045L15.2683 650.079H935.734" fill="#FBFBFB"/>
<path opacity="0.1" d="M577.479 551.682L620.323 568.072L683.204 577.164L642.048 547.669L629.384 523.206L577.479 551.682Z" fill="#A5A5A5"/>
<path opacity="0.1" d="M329.89 590.451L360.935 613.211L462.191 613.941L509.139 621.664L470.629 597.035L427.664 595.97L416.215 577.164L329.89 590.451Z" fill="#A5A5A5"/>
<path opacity="0.1" d="M120.887 630.969L169.143 622.455L203.518 628.187L252.732 615.294L207.654 593.507L120.887 630.969Z" fill="#A5A5A5"/>
<path d="M177.596 223.287C182.157 258.103 192.116 292.66 201.831 297.252C214.906 303.424 249.038 302.451 266.719 300.292C271.919 299.654 266.187 259.334 260.638 260.003C253.918 260.809 219.269 265.537 218.6 265.416C217.171 265.157 196.069 230.706 191.234 222.344C183.146 208.387 175.589 207.825 177.596 223.287Z" fill="#F2F2F2"/>
<path d="M259.543 298.909C264.104 299.836 281.816 301.767 294.04 299.426C299.969 298.286 316.647 293.223 316.115 288.601C315.583 283.979 310.596 285.028 310.596 285.028C310.596 285.028 317.316 281.835 316.359 277.244C315.401 272.652 307.677 274.522 307.677 274.522C307.677 274.522 314.352 270.737 313.075 266.221C311.798 261.706 304.333 264.899 304.333 264.899C304.333 264.899 310.596 261.721 307.966 258.452C304.819 254.499 293.949 261.66 287.335 262.588C285.815 262.801 256.563 264.686 256.563 264.686L259.543 298.909Z" fill="#F2F2F2"/>
<path d="M304.196 264.868C296.184 270.114 291.775 270.95 282.349 271.178C282.166 271.178 282.136 271.467 282.349 271.482C291.592 272.166 297.278 271.816 304.485 265.248C304.835 264.914 304.576 264.64 304.196 264.868Z" fill="#E6E6E6"/>
<path d="M308.073 274.416C299.27 279.144 294.496 280.178 284.629 281.06C284.492 281.06 284.508 281.318 284.629 281.318C294.375 281.242 300.046 280.771 308.225 274.903C308.605 274.644 308.468 274.203 308.073 274.416Z" fill="#E6E6E6"/>
<path d="M309.852 285.378C301.003 289.346 295.819 290.699 286.134 290.334C286.097 290.345 286.064 290.368 286.04 290.4C286.017 290.431 286.004 290.47 286.004 290.509C286.004 290.548 286.017 290.587 286.04 290.618C286.064 290.65 286.097 290.673 286.134 290.684C295.971 292.022 302.463 290.38 309.989 285.667C310.445 285.347 310.445 285.135 309.852 285.378Z" fill="#E6E6E6"/>
<path d="M255.834 263.53C255.834 263.53 264.956 255.685 269.654 253.116C274.352 250.547 295.606 247.491 296.534 252.037C297.719 257.89 285.815 262.071 279.734 263.363C279.734 263.363 282.485 276.925 274.595 281.775C266.704 286.625 255.834 263.53 255.834 263.53Z" fill="#F2F2F2"/>
<path d="M296.321 253.755C293.554 259.836 285.435 261.052 279.597 262.74C279.51 262.762 279.43 262.804 279.363 262.863C279.296 262.922 279.244 262.996 279.211 263.08C279.178 263.163 279.166 263.253 279.175 263.342C279.184 263.431 279.214 263.516 279.262 263.591C280.038 269.353 279.46 277.715 274.929 281.835C274.91 281.862 274.901 281.895 274.902 281.928C274.903 281.961 274.914 281.992 274.935 282.018C274.956 282.044 274.984 282.062 275.016 282.07C275.048 282.078 275.081 282.076 275.112 282.063C280.57 278.263 281.801 270.098 280.555 263.819C286.545 262.177 294.618 260.657 296.351 253.724C296.397 253.739 296.351 253.709 296.321 253.755Z" fill="#E6E6E6"/>
<path d="M259.361 258.559L257.612 303.713C257.612 303.713 209.645 305.887 199.216 295.807C192.253 289.072 179.831 253.618 177.292 229.307C174.753 204.997 182.492 205.438 195.156 226.799C207.821 248.16 218.372 263.926 219.041 263.926C219.71 263.926 259.361 258.559 259.361 258.559Z" fill="#FDFDFD"/>
<path d="M250.923 262.755C250.923 262.618 250.71 262.618 250.695 262.755C249.198 275.276 248.361 287.866 248.186 300.475C248.186 300.612 248.399 300.612 248.414 300.475C249.911 287.954 250.748 275.364 250.923 262.755V262.755Z" fill="#E6E6E6"/>
<path opacity="0.1" d="M220.166 302.558C211.044 301.418 202.85 299.38 199.231 295.883C192.253 289.118 179.816 253.679 177.277 229.368C176.38 220.672 176.791 215.153 178.281 212.644L220.166 302.558Z" fill="#D3D3D3"/>
<path d="M272.132 593.264C269.091 594.237 181.093 592.078 177.794 589.874C176.532 589.053 187.281 511.059 187.281 511.059L243.868 512.579L232.724 561.96C232.724 561.96 266.02 577.832 269.395 580.615C272.77 583.397 275.233 592.321 272.132 593.264Z" fill="#F2F2F2"/>
<path d="M272.147 593.264C269.03 594.237 181.093 592.093 177.794 589.874C177.171 589.463 179.421 570.702 181.869 551.591L234.868 552.473L232.724 561.929C232.724 561.929 266.02 577.832 269.395 580.615C272.77 583.397 275.233 592.321 272.147 593.264Z" fill="#F2F2F2"/>
<path d="M273.424 593.659C270.277 594.663 180.683 593.127 177.292 590.907C176 590.071 180.181 560.5 180.181 560.333L233.089 561.048V562.021C233.089 562.021 267.13 577.954 270.581 580.797C274.032 583.64 276.571 592.671 273.424 593.659Z" fill="#ECEFF1"/>
<path d="M272.436 590.162C257.339 589.539 196.419 588.429 181.413 588.946C181.291 588.946 181.276 589.037 181.413 589.053C196.373 589.995 257.339 590.573 272.451 590.421C272.786 590.406 272.786 590.178 272.436 590.162Z" fill="#E6E6E6"/>
<path d="M239.521 561.321C233.591 560.105 226.309 560.896 221.687 565.046C221.52 565.213 221.687 565.457 221.945 565.411C227.657 563.673 233.539 562.552 239.49 562.066C239.577 562.053 239.656 562.009 239.715 561.944C239.774 561.878 239.807 561.794 239.811 561.706C239.815 561.618 239.788 561.532 239.735 561.462C239.682 561.392 239.606 561.342 239.521 561.321V561.321Z" fill="#E6E6E6"/>
<path d="M243.762 563.982C237.833 562.766 230.55 563.556 225.944 567.707C225.761 567.874 225.944 568.117 226.187 568.072C231.899 566.335 237.781 565.213 243.732 564.727C243.819 564.713 243.898 564.67 243.957 564.604C244.015 564.539 244.049 564.455 244.053 564.367C244.056 564.279 244.029 564.193 243.976 564.122C243.923 564.052 243.848 564.003 243.762 563.982V563.982Z" fill="#E6E6E6"/>
<path d="M248.019 566.627C242.09 565.426 234.807 566.217 230.185 570.367C230.003 570.535 230.185 570.778 230.429 570.732C236.14 568.989 242.022 567.868 247.974 567.388C248.074 567.394 248.173 567.359 248.249 567.292C248.325 567.225 248.37 567.131 248.376 567.03C248.382 566.929 248.348 566.83 248.281 566.755C248.214 566.679 248.12 566.633 248.019 566.627V566.627Z" fill="#E6E6E6"/>
<path d="M237.833 559.102L178.539 558.782C178.539 558.782 196.008 435.832 194.487 430.769C193.849 428.838 129.523 366.397 129.523 366.397C103.89 341.144 111.583 300.399 111.583 300.399H185.487C185.487 300.399 182.112 318.4 185.943 322.338C190.595 327.096 246.362 387.257 253.614 406.428C263.314 432.016 237.833 559.102 237.833 559.102Z" fill="#E9EBEC"/>
<path d="M237.073 547.334C227.95 546.741 230.581 546.757 221.443 546.3C216.973 546.072 187.6 544.613 183.435 545.297C183.343 545.297 183.328 545.51 183.435 545.525C187.585 546.544 216.973 547.38 221.443 547.486C230.565 547.745 227.966 547.486 237.103 547.669C237.225 547.669 237.24 547.425 237.073 547.334Z" fill="#E6E6E6"/>
<path d="M189.136 325.667L161.131 397.215C145.198 381.586 129.523 366.397 129.523 366.397C103.92 341.144 111.598 300.384 111.598 300.384H185.502C185.502 300.384 182.127 318.4 185.958 322.322C186.49 322.854 187.585 323.934 189.136 325.667Z" fill="#E7E8E9"/>
<path d="M139.542 647.008C136.319 647.388 50.2674 629.053 47.4395 626.271C46.3449 625.237 48.2909 612.587 51.0731 597.262L51.1644 596.791C51.7269 593.644 66.8848 547.06 66.8848 547.06L122.97 554.191L106.809 607.996L106.581 608.939C106.581 608.939 136.38 630.695 139.177 634.07C141.975 637.445 142.75 646.659 139.542 647.008Z" fill="#F2F2F2"/>
<path d="M139.527 647.008C136.319 647.388 50.2674 629.053 47.4395 626.271C46.3449 625.222 48.2909 612.588 51.0731 597.262L51.1644 596.791C51.3164 595.97 52.4719 591.698 54.0986 585.875L109.804 598.038L106.764 607.996L106.536 608.939C106.536 608.939 136.35 630.695 139.132 634.07C141.914 637.445 142.75 646.659 139.527 647.008Z" fill="#F2F2F2"/>
<path d="M140.348 647.358C137.064 647.723 49.4459 628.84 46.5725 625.997C45.4626 624.933 47.4695 612.01 50.3429 596.457C50.3429 596.289 50.3429 596.137 50.4494 595.97L107.098 607.525L106.87 608.483C106.87 608.483 137.17 630.71 140.013 634.176C142.856 637.643 143.632 646.993 140.348 647.358Z" fill="#ECEFF1"/>
<path d="M140.166 643.74C125.479 640.197 65.8814 627.274 51.0884 624.887C50.982 624.887 50.9516 624.887 51.0884 624.978C65.5773 628.81 125.266 641.246 140.135 643.983C140.348 644.044 140.394 643.816 140.166 643.74Z" fill="#E6E6E6"/>
<path d="M113.362 609.045C107.782 606.704 100.484 606.004 95.1174 609.258C94.9046 609.38 95.1174 609.668 95.2847 609.653C101.227 609.056 107.216 609.097 113.149 609.775C113.246 609.803 113.35 609.792 113.438 609.743C113.526 609.695 113.592 609.613 113.62 609.516C113.648 609.42 113.637 609.316 113.588 609.227C113.54 609.139 113.458 609.073 113.362 609.045V609.045Z" fill="#E6E6E6"/>
<path d="M117.011 612.481C111.431 610.14 104.133 609.44 98.7664 612.679C98.5687 612.8 98.7664 613.104 98.9336 613.074C104.876 612.489 110.865 612.534 116.798 613.211C116.894 613.239 116.999 613.228 117.087 613.179C117.175 613.131 117.241 613.049 117.269 612.952C117.297 612.856 117.286 612.752 117.237 612.663C117.189 612.575 117.107 612.509 117.011 612.481Z" fill="#E6E6E6"/>
<path d="M120.659 615.917C115.08 613.576 107.782 612.876 102.415 616.115C102.217 616.236 102.415 616.525 102.597 616.51C108.535 615.917 114.519 615.963 120.446 616.647C120.543 616.675 120.647 616.664 120.736 616.615C120.824 616.567 120.889 616.485 120.918 616.388C120.946 616.292 120.935 616.188 120.886 616.099C120.838 616.011 120.756 615.945 120.659 615.917Z" fill="#E6E6E6"/>
<path d="M171.378 300.399C171.378 300.399 176.182 341.448 167.699 350.905C167.699 350.905 152.662 445.623 147.28 472.913C140.18 508.93 111.628 607.069 111.628 607.069L48.8073 596.426C48.8073 596.426 85.8582 467.424 86.1622 465.068C87.865 451.75 102.886 359.312 102.126 357.017C94.2505 333.527 105.608 300.368 105.608 300.368L171.378 300.399Z" fill="#E6E6E6"/>
<path d="M185.532 300.399C185.532 300.399 179.542 343.866 167.699 350.905C167.699 350.905 152.662 445.623 147.28 472.913C140.18 508.93 111.628 607.069 111.628 607.069L48.8073 596.426C48.8073 596.426 85.8582 467.424 86.1622 465.068C87.865 451.75 102.886 359.312 102.126 357.017C94.2505 333.527 105.608 300.368 105.608 300.368L185.532 300.399Z" fill="#E9EBEC"/>
<path d="M111.355 594.146C102.065 592.063 104.772 592.504 95.4518 590.558C90.8907 589.6 60.9399 583.336 56.5156 583.336C56.4092 583.336 56.3788 583.518 56.5156 583.564C60.6206 585.252 90.6931 590.877 95.2694 591.728C104.62 593.477 101.959 592.853 111.339 594.465C111.476 594.556 111.537 594.191 111.355 594.146Z" fill="#E6E6E6"/>
<path d="M176.259 346.177C169.634 348.58 163.234 351.561 157.133 355.086C156.889 355.207 157.041 355.588 157.3 355.466C163.746 352.699 170.314 350.053 176.608 346.937C176.689 346.879 176.748 346.795 176.773 346.7C176.799 346.604 176.79 346.502 176.749 346.412C176.707 346.321 176.636 346.249 176.546 346.206C176.457 346.163 176.355 346.152 176.259 346.177Z" fill="#E6E6E6"/>
<path d="M178.296 301.95C178.296 301.737 177.901 301.676 177.901 301.95C177.901 309.551 177.46 316.332 176.821 323.478C176.517 326.807 173.78 345.143 168.094 343.805C167.121 343.577 166.574 342.634 166.483 341.19C166.504 339.286 166.759 337.391 167.243 335.549C167.881 331.718 168.398 327.872 168.763 323.98C169.427 316.759 169.346 309.488 168.52 302.284C168.52 302.236 168.501 302.189 168.467 302.155C168.432 302.121 168.386 302.102 168.338 302.102C168.289 302.102 168.243 302.121 168.209 302.155C168.174 302.189 168.155 302.236 168.155 302.284C168.319 312.302 167.734 322.319 166.407 332.25C165.677 337.024 163.275 344.2 168.262 344.93C173.248 345.66 176.639 333.649 177.262 330.365C178.838 320.978 179.186 311.426 178.296 301.95V301.95Z" fill="#E7E8E9"/>
<path d="M168.246 344.276C167.732 345.513 167.3 346.783 166.954 348.077C166.579 349.073 166.393 350.13 166.407 351.194C166.41 351.239 166.428 351.282 166.458 351.316C166.487 351.35 166.527 351.374 166.571 351.384C166.615 351.394 166.661 351.39 166.703 351.372C166.744 351.354 166.779 351.324 166.802 351.285C167.41 350.351 167.862 349.324 168.14 348.244C168.581 347.074 169.052 345.903 169.448 344.717C169.506 344.558 169.499 344.382 169.428 344.228C169.356 344.074 169.227 343.955 169.067 343.896C168.908 343.838 168.732 343.845 168.578 343.916C168.424 343.987 168.305 344.117 168.246 344.276V344.276Z" fill="#E6E6E6"/>
<path d="M109.622 325.743C111.02 325.515 113.058 326.002 119.124 325.576C120.799 325.436 122.461 325.167 124.095 324.77C125.738 324.502 127.298 323.863 128.656 322.9C130.851 320.826 132.64 318.362 133.932 315.633C135.538 312.818 136.775 309.809 137.611 306.678C137.611 306.495 137.93 306.587 137.9 306.769C137.581 308.533 137.398 310.312 136.942 312.06C136.479 313.706 135.884 315.313 135.163 316.864C134.064 319.944 132.202 322.696 129.751 324.861C127.014 326.914 123.213 327.309 119.899 327.537C117.983 327.674 110.458 327.461 109.454 326.397C109.333 326.199 109.348 325.789 109.622 325.743Z" fill="#E6E6E6"/>
<path d="M187.418 317.32C185.745 318.506 104.756 300.597 104.422 300.019C103.525 298.27 143.875 216.977 166.984 205.575C171.956 203.127 184.438 208.235 186.992 211.823C188.512 214.073 190.443 227.027 191.553 237.532C193.636 258.559 188.816 316.332 187.418 317.32Z" fill="#FDFDFD"/>
<path d="M183.906 220.763C183.663 228.79 183.252 236.818 182.811 244.845C182.37 252.873 181.838 260.885 181.291 268.912C180.744 276.94 180.151 284.937 179.482 292.949L178.463 304.96C178.083 308.974 177.733 312.972 177.307 316.971C177.414 312.957 177.612 308.943 177.779 304.914L178.387 292.873C178.828 284.861 179.375 276.833 179.907 268.821C180.439 260.809 181.048 252.782 181.717 244.769C182.385 236.757 183.07 228.76 183.906 220.763Z" fill="#E7E8E9"/>
<path d="M188.163 245.773C188.162 246.077 188.07 246.374 187.899 246.626C187.727 246.878 187.484 247.072 187.201 247.184C186.918 247.296 186.608 247.32 186.311 247.254C186.014 247.187 185.743 247.033 185.535 246.811C185.326 246.589 185.189 246.31 185.141 246.009C185.093 245.709 185.137 245.401 185.266 245.125C185.395 244.849 185.604 244.619 185.866 244.463C186.127 244.308 186.43 244.234 186.734 244.252C187.121 244.276 187.485 244.446 187.75 244.729C188.016 245.011 188.163 245.385 188.163 245.773Z" fill="#E6E6E6"/>
<path d="M186.81 261.235C186.81 261.535 186.721 261.829 186.554 262.079C186.386 262.329 186.149 262.524 185.871 262.639C185.593 262.754 185.288 262.785 184.993 262.726C184.698 262.667 184.427 262.522 184.214 262.31C184.002 262.097 183.857 261.826 183.798 261.531C183.74 261.236 183.77 260.931 183.885 260.653C184 260.375 184.195 260.138 184.445 259.971C184.695 259.804 184.989 259.714 185.289 259.714C185.693 259.714 186.079 259.875 186.364 260.16C186.65 260.445 186.81 260.831 186.81 261.235Z" fill="#E6E6E6"/>
<path d="M185.441 276.697C185.441 277.001 185.349 277.298 185.177 277.55C185.006 277.802 184.763 277.996 184.48 278.108C184.197 278.22 183.886 278.244 183.589 278.178C183.292 278.111 183.022 277.957 182.813 277.735C182.605 277.513 182.468 277.234 182.42 276.933C182.372 276.633 182.415 276.325 182.544 276.049C182.673 275.773 182.882 275.543 183.144 275.387C183.406 275.231 183.708 275.158 184.012 275.176C184.399 275.2 184.763 275.37 185.029 275.653C185.294 275.935 185.442 276.309 185.441 276.697Z" fill="#E6E6E6"/>
<path d="M184.073 292.159C184.064 292.358 184.016 292.554 183.931 292.735C183.846 292.916 183.727 293.079 183.579 293.214C183.432 293.348 183.259 293.453 183.071 293.521C182.883 293.589 182.684 293.619 182.484 293.61C182.285 293.601 182.089 293.553 181.908 293.469C181.727 293.384 181.564 293.264 181.429 293.117C181.295 292.969 181.19 292.797 181.122 292.609C181.054 292.421 181.023 292.221 181.032 292.022C181.051 291.618 181.228 291.239 181.526 290.967C181.824 290.694 182.218 290.552 182.621 290.57C183.024 290.588 183.404 290.766 183.676 291.063C183.948 291.361 184.091 291.755 184.073 292.159V292.159Z" fill="#E6E6E6"/>
<path d="M182.735 307.636C182.712 308.023 182.542 308.387 182.259 308.652C181.976 308.918 181.603 309.066 181.215 309.065C181.015 309.056 180.819 309.008 180.638 308.923C180.457 308.838 180.295 308.719 180.16 308.571C180.025 308.424 179.921 308.251 179.852 308.063C179.784 307.875 179.754 307.676 179.763 307.476C179.772 307.277 179.82 307.081 179.905 306.9C179.99 306.719 180.109 306.556 180.257 306.421C180.404 306.286 180.577 306.182 180.765 306.114C180.953 306.046 181.152 306.015 181.352 306.024C181.747 306.059 182.113 306.247 182.371 306.548C182.63 306.849 182.761 307.24 182.735 307.636Z" fill="#E6E6E6"/>
<path d="M150.017 213.769C119.306 227.787 94.8894 250.759 94.9654 260.9C95.0718 275.344 107.888 310.935 116.752 326.397C119.337 330.958 154.274 309.992 151.492 305.112C148.147 299.243 130.937 264.64 130.8 263.971C130.481 262.557 154.533 233.564 160.842 226.571C172.442 213.572 166.726 206.152 150.017 213.769Z" fill="#F2F2F2"/>
<path d="M174.966 352.821C174.102 353.754 172.973 354.4 171.731 354.672C170.489 354.944 169.193 354.828 168.018 354.341C167.674 356.473 166.599 358.418 164.977 359.845C161.937 362.216 156.98 358.583 156.98 358.583C156.162 360.724 154.722 362.572 152.845 363.889C149.804 365.865 144.179 362.931 144.179 362.931C142.348 364.49 140.016 365.338 137.611 365.318C131.21 364.999 126.421 356.439 123.335 351.027C120.249 345.614 116.524 327.37 115.475 323.964L150.017 303.82C150.017 303.82 170.8 324.086 173.613 330.973C175.833 336.766 178.174 349.126 174.966 352.821Z" fill="#F2F2F2"/>
<path d="M168.429 353.748C167.456 346.998 164.536 340.901 161.982 334.652C161.965 334.633 161.943 334.619 161.918 334.614C161.893 334.608 161.866 334.61 161.843 334.62C161.819 334.631 161.799 334.648 161.786 334.67C161.773 334.692 161.767 334.718 161.769 334.744C164.384 340.931 165.753 347.545 168.109 353.824C168.125 353.859 168.153 353.888 168.188 353.905C168.223 353.922 168.263 353.926 168.3 353.917C168.338 353.908 168.371 353.887 168.395 353.856C168.418 353.825 168.43 353.787 168.429 353.748Z" fill="#E6E6E6"/>
<path d="M157.36 358.187C156.995 356.674 156.427 355.216 155.673 353.854C154.973 352.334 154.259 350.89 153.499 349.415C152.009 346.486 150.438 343.587 148.786 340.719C148.786 340.597 148.497 340.719 148.573 340.81C150.093 343.744 151.507 346.694 152.875 349.689C153.559 351.209 154.228 352.729 154.882 354.25C155.42 355.708 156.113 357.105 156.95 358.416C156.98 358.47 157.031 358.51 157.091 358.527C157.15 358.544 157.215 358.537 157.269 358.507C157.324 358.476 157.364 358.426 157.381 358.366C157.398 358.306 157.391 358.242 157.36 358.187V358.187Z" fill="#E6E6E6"/>
<path d="M144.118 362.779C143.761 361.42 143.181 360.131 142.4 358.963C141.686 357.64 140.986 356.317 140.287 354.979C138.888 352.319 137.505 349.658 136.197 346.937C136.197 346.815 135.924 346.937 135.984 347.028C137.292 349.795 138.554 352.577 139.892 355.314C140.545 356.667 141.199 358.02 141.868 359.358C142.368 360.636 143.082 361.819 143.981 362.855C143.981 362.855 144.133 362.84 144.118 362.779Z" fill="#E6E6E6"/>
<path d="M151.127 303.607L107.569 317.001C107.569 317.001 89.5834 265.385 93.886 256.704C98.1886 248.023 123.837 224.26 146.247 214.621C168.657 204.982 174.282 212.599 157.619 231.025C140.956 249.452 131.317 263.287 131.515 263.941C131.712 264.595 151.127 303.607 151.127 303.607Z" fill="#FDFDFD"/>
<path d="M143.784 296.066C143.906 296.066 143.784 295.807 143.784 295.838C132.028 298.601 120.431 302.001 109.044 306.024C108.907 306.024 109.044 306.283 109.044 306.252C120.8 303.489 132.397 300.089 143.784 296.066Z" fill="#E6E6E6"/>
<path d="M151.279 302.892C148.238 296.157 135.832 271.558 132.518 264.975C132.347 264.685 132.219 264.373 132.138 264.047C132.124 263.75 132.173 263.453 132.28 263.176C132.387 262.899 132.551 262.646 132.761 262.436C133.278 261.706 133.825 260.915 134.357 260.262C135.483 258.741 136.608 257.221 137.748 255.701C139.968 252.766 142.309 249.878 144.544 246.989L144.894 246.533C146.703 245.013 148.542 243.492 150.23 241.789C150.321 241.789 150.23 241.577 150.093 241.637C148.649 242.762 147.296 243.979 145.927 245.21L152.404 236.985H152.328C146.946 242.808 141.944 248.935 137.125 255.229C135.954 256.75 134.783 258.27 133.628 259.897C133.05 260.687 132.457 261.417 131.895 262.253C131.559 262.641 131.338 263.115 131.256 263.622C131.267 264.266 131.462 264.894 131.819 265.431C132.259 266.358 132.716 267.301 133.172 268.228L135.771 273.413C137.717 277.32 148.953 299.167 150.975 302.999C151.127 303.151 151.34 303.029 151.279 302.892Z" fill="#E7E8E9"/>
<path d="M179.832 222.329C174.769 222.146 168.627 212.644 167.015 205.863C166.909 205.407 168.703 201.302 170.649 196.255C171.804 193.214 173.036 189.733 173.933 186.509L192.831 197.015C190.559 200.733 188.752 204.716 187.449 208.874C187.337 209.323 187.265 209.78 187.236 210.242C187.236 210.242 187.236 210.379 187.236 210.47C186.916 213.1 184.727 222.511 179.832 222.329Z" fill="#F2F2F2"/>
<path d="M174.829 186.996C174.343 191.207 173.431 206.517 185.092 210.014C185.778 210.222 186.479 210.374 187.19 210.47C187.203 210.395 187.203 210.318 187.19 210.242C187.224 209.78 187.3 209.322 187.418 208.874C188.734 204.718 190.546 200.737 192.815 197.015L174.829 186.996Z" fill="#E6E6E6"/>
<path d="M168.885 169.284C167.791 177.007 174.967 197.669 181.048 201.576C189.714 207.262 202.257 205.955 206.651 195.92C210.923 186.175 201.025 159.432 194.488 156.042C184.849 151.04 170.573 157.896 168.885 169.284Z" fill="#F2F2F2"/>
<path d="M191.583 179.029C191.583 179.029 191.492 179.121 191.583 179.181C192.1 180.565 192.48 182.222 191.371 183.119C191.371 183.119 191.371 183.225 191.371 183.195C192.815 182.45 192.298 180.246 191.583 179.029Z" fill="#E6E6E6"/>
<path d="M189.835 177.98C187.54 178.588 188.908 183.134 191.052 182.541C193.195 181.948 191.766 177.494 189.835 177.98Z" fill="#E6E6E6"/>
<path d="M199.459 176.703C199.459 176.703 199.596 176.703 199.611 176.794C199.991 178.224 200.66 179.835 202.074 179.835C202.074 179.835 202.15 179.835 202.074 179.926C200.417 180.2 199.55 178.117 199.459 176.703Z" fill="#E6E6E6"/>
<path d="M200.234 174.848C202.454 173.982 204.005 178.482 201.937 179.288C199.869 180.094 198.364 175.563 200.234 174.848Z" fill="#E6E6E6"/>
<path d="M187.418 176.46C187.981 176.11 188.452 175.7 188.938 175.304C189.425 174.909 190.063 174.559 190.322 173.784C190.38 173.57 190.362 173.342 190.27 173.139C190.179 172.937 190.02 172.772 189.82 172.674C189.403 172.524 188.952 172.488 188.517 172.571C188.081 172.654 187.675 172.852 187.342 173.146C186.592 173.645 186.051 174.402 185.822 175.274C185.771 175.48 185.783 175.697 185.855 175.896C185.927 176.096 186.056 176.27 186.227 176.396C186.397 176.523 186.601 176.596 186.813 176.608C187.025 176.619 187.235 176.568 187.418 176.46V176.46Z" fill="#E6E6E6"/>
<path d="M201.298 172.021C200.65 172.058 200.001 172.058 199.352 172.021C198.668 172.146 197.962 172.039 197.346 171.716C197.169 171.582 197.043 171.391 196.988 171.176C196.933 170.961 196.952 170.734 197.041 170.531C197.278 170.152 197.611 169.844 198.007 169.638C198.402 169.432 198.846 169.336 199.292 169.36C200.195 169.272 201.1 169.521 201.831 170.059C202.022 170.181 202.169 170.361 202.251 170.573C202.333 170.784 202.346 171.017 202.286 171.236C202.227 171.455 202.099 171.649 201.921 171.79C201.743 171.931 201.525 172.012 201.298 172.021V172.021Z" fill="#E6E6E6"/>
<path d="M194.032 187.984C194.559 188.436 195.175 188.773 195.839 188.975C196.504 189.176 197.204 189.238 197.893 189.155C198.494 189.091 199.082 188.942 199.642 188.714L199.961 188.577L200.25 188.425C200.325 188.394 200.385 188.337 200.419 188.263C200.453 188.19 200.457 188.107 200.432 188.03V188.03V187.893V187.771C200.128 186.677 199.52 185.065 199.52 185.065C199.976 185.141 202.287 185.445 202.074 184.883C200.473 180.02 198.379 175.333 195.826 170.895C195.807 170.867 195.779 170.847 195.747 170.838C195.714 170.829 195.68 170.832 195.65 170.847C195.619 170.863 195.596 170.888 195.584 170.919C195.571 170.951 195.571 170.985 195.582 171.017C197.103 175.578 199.277 179.729 200.812 184.229C199.991 184.107 199.156 184.107 198.334 184.229C198.197 184.32 199.55 187.27 199.657 187.847C198.795 188.209 197.87 188.395 196.935 188.395C196.001 188.395 195.076 188.209 194.214 187.847C194.001 187.771 193.91 187.893 194.032 187.984Z" fill="#E6E6E6"/>
<path d="M198.745 188.623C198.308 189.532 197.642 190.313 196.814 190.888C196.363 191.183 195.832 191.332 195.294 191.314C194.092 191.314 193.849 190.219 193.864 189.277C193.876 188.762 193.952 188.251 194.092 187.756C195.515 188.524 197.142 188.827 198.745 188.623V188.623Z" fill="#E6E6E6"/>
<path d="M196.814 190.918C196.363 191.214 195.832 191.362 195.294 191.344C194.092 191.344 193.849 190.249 193.864 189.307C194.465 189.209 195.082 189.315 195.616 189.606C196.15 189.898 196.572 190.36 196.814 190.918V190.918Z" fill="#F2F2F2"/>
<path d="M177.825 179.394C178.691 175.107 175.453 168.509 177.262 166.395C181.215 161.834 191.295 168.341 197.559 167.566C203.823 166.791 205.16 162.67 203.427 157.896C201.694 153.123 197.103 150.295 190.17 150.203C184.14 150.275 178.328 152.466 173.75 156.391C173.75 156.391 174.966 153.731 174.282 153.047C173.598 152.362 170.953 155.099 170.177 156.224C169.629 157.163 169.253 158.193 169.067 159.265C168.131 159.157 167.184 159.183 166.255 159.341C164.917 159.611 163.717 160.343 162.864 161.408C162.864 161.789 165.054 161.789 166.604 161.667C166.604 161.667 164.217 165.863 164.689 169.132C165.16 172.401 172.29 187.376 173.522 187.376C175.133 187.406 177.46 181.143 177.825 179.394Z" fill="#E7E8E9"/>
<path d="M167.151 161.256C167.151 161.256 167.288 161.256 167.243 161.332C165.892 162.737 164.96 164.49 164.552 166.395C164.216 168.677 164.494 171.007 165.357 173.146C167.084 177.223 169.245 181.102 171.804 184.715C171.88 184.822 171.682 184.944 171.621 184.837C168.663 181.074 166.308 176.873 164.643 172.385C163.442 168.554 163.776 163.917 167.151 161.256Z" fill="#E6E6E6"/>
<path d="M176.821 164.844C178.632 164.379 180.515 164.261 182.37 164.495C184.108 164.861 185.794 165.443 187.387 166.228C191.022 167.857 195.043 168.426 198.988 167.87C198.988 167.87 198.988 167.87 198.988 167.946C195.429 168.701 191.727 168.389 188.345 167.049C186.647 166.292 184.906 165.638 183.13 165.088C181.081 164.761 178.992 164.761 176.943 165.088C176.916 165.083 176.891 165.073 176.87 165.057C176.849 165.042 176.831 165.021 176.819 164.997C176.807 164.973 176.801 164.947 176.802 164.921C176.802 164.894 176.809 164.868 176.821 164.844V164.844Z" fill="#E6E6E6"/>
<path d="M177.262 154.187C179.561 152.648 182.07 151.45 184.712 150.629C187.222 149.751 189.867 149.319 192.526 149.352C197.088 149.504 201.649 151.83 203.245 156.315C204.127 158.605 204.127 161.141 203.245 163.431C203.235 163.463 203.212 163.49 203.182 163.505C203.153 163.521 203.118 163.524 203.085 163.514C203.053 163.504 203.026 163.482 203.01 163.452C202.995 163.422 202.992 163.387 203.002 163.355C203.703 161.262 203.708 158.999 203.018 156.903C202.328 154.807 200.978 152.99 199.17 151.724C195.081 149.002 189.881 149.413 185.366 150.736C182.562 151.614 179.856 152.781 177.293 154.217C177.293 154.217 177.247 154.202 177.262 154.187Z" fill="#E6E6E6"/>
<path d="M190.838 187.665C189.695 187.885 188.513 187.78 187.426 187.362C186.339 186.943 185.392 186.228 184.692 185.298C183.992 184.367 183.567 183.259 183.466 182.099C183.365 180.939 183.592 179.773 184.121 178.736C184.649 177.698 185.459 176.83 186.457 176.23C187.455 175.63 188.601 175.322 189.765 175.342C190.93 175.361 192.065 175.707 193.042 176.34C194.019 176.974 194.799 177.868 195.293 178.923V178.923C195.638 179.664 195.833 180.466 195.866 181.283C195.9 182.1 195.772 182.916 195.489 183.683C195.207 184.45 194.775 185.154 194.22 185.754C193.664 186.354 192.996 186.838 192.252 187.178C191.801 187.394 191.327 187.557 190.838 187.665ZM188.664 176.262C188.226 176.357 187.799 176.495 187.387 176.673C186.142 177.252 185.165 178.285 184.654 179.559C184.144 180.834 184.138 182.256 184.639 183.534C185.14 184.813 186.109 185.853 187.35 186.442C188.59 187.031 190.009 187.125 191.316 186.704C192.624 186.284 193.722 185.381 194.387 184.18C195.052 182.978 195.234 181.569 194.896 180.238C194.558 178.907 193.725 177.754 192.567 177.016C191.409 176.277 190.014 176.008 188.664 176.262Z" fill="#E6E6E6"/>
<path d="M204.415 183.302C202.074 183.758 199.504 181.781 198.531 178.664C198.047 177.183 198.047 175.585 198.531 174.103C198.69 173.456 199.012 172.86 199.468 172.374C199.924 171.887 200.497 171.527 201.133 171.326C201.769 171.126 202.445 171.093 203.097 171.231C203.75 171.368 204.355 171.672 204.856 172.112C206.081 173.064 206.975 174.378 207.41 175.867C208.444 179.136 207.304 182.405 204.871 183.18L204.415 183.302ZM201.633 172.066H201.329C200.83 172.25 200.382 172.55 200.023 172.941C199.663 173.333 199.402 173.804 199.261 174.316C198.844 175.627 198.844 177.035 199.261 178.345C200.143 181.173 202.484 182.906 204.491 182.344C206.498 181.781 207.395 178.893 206.498 176.065C206.107 174.746 205.315 173.582 204.233 172.735C203.866 172.455 203.447 172.251 203.001 172.136C202.554 172.021 202.089 171.997 201.633 172.066V172.066Z" fill="#E6E6E6"/>
<path d="M195.324 179.668L194.609 179.227C195.278 178.193 197.042 176.521 198.973 177.615L198.562 178.33C196.829 177.357 195.385 179.577 195.324 179.668Z" fill="#E6E6E6"/>
<path d="M169.386 189.505L168.581 189.368C168.581 188.988 169.265 185.612 170.952 184.807C172.64 184.001 183.45 181.675 183.921 181.568L184.088 182.374C180.956 183.058 172.533 184.928 171.317 185.536C170.101 186.145 169.554 188.623 169.386 189.505Z" fill="#E6E6E6"/>
<path d="M177.414 184.989C177.414 184.989 171.409 178.999 168.596 181.249C165.783 183.499 171.165 192.819 175.058 193.518C175.546 193.635 176.053 193.653 176.548 193.571C177.044 193.489 177.518 193.309 177.942 193.041C178.367 192.773 178.734 192.423 179.022 192.012C179.31 191.601 179.513 191.136 179.619 190.645L177.414 184.989Z" fill="#F2F2F2"/>
<path d="M170.208 183.879C170.208 183.879 170.208 183.971 170.208 183.986C171.488 184.357 172.675 184.994 173.692 185.856C174.708 186.718 175.531 187.785 176.107 188.988C175.911 188.76 175.669 188.577 175.396 188.451C175.123 188.326 174.826 188.261 174.525 188.261C174.225 188.261 173.928 188.326 173.655 188.451C173.382 188.577 173.14 188.76 172.944 188.988C172.944 188.988 172.944 189.14 173.035 189.109C173.461 188.886 173.945 188.799 174.421 188.862C174.898 188.924 175.343 189.133 175.696 189.459C176.262 190.015 176.772 190.626 177.216 191.283C177.384 191.496 177.764 191.283 177.627 191.055C177.11 187.695 173.765 183.59 170.208 183.879Z" fill="#E6E6E6"/>
<path d="M187.205 210.47L183.252 220.185L167.532 203.826L162.971 208.555C162.971 208.555 176.426 234.036 176.654 232.88L183.739 222.557L189.167 230.387L189.76 214.758L187.205 210.47Z" fill="#ECEFF1"/>
<path d="M189.805 221.341C189.805 218.3 189.942 218.072 189.805 215.016C189.805 214.91 189.623 214.849 189.592 215.016C188.817 217.92 188.863 226.753 188.68 229.535C188.391 229.201 183.724 222.618 183.663 222.709C182.462 224.321 176.897 231.831 176.593 232.546C174.465 228.486 166.27 213.754 163.701 209.892C163.689 209.866 163.667 209.846 163.639 209.836C163.612 209.826 163.582 209.827 163.556 209.839C163.53 209.851 163.51 209.873 163.5 209.9C163.49 209.928 163.491 209.957 163.503 209.984C165.358 214.241 176.183 234.081 176.365 234.036C179.068 230.572 181.527 226.924 183.724 223.12C184.727 224.518 189.41 231.892 189.471 231.436C189.752 228.079 189.863 224.709 189.805 221.341V221.341Z" fill="#E6E6E6"/>
<path d="M411.943 607.875C408.583 608.27 318.989 589.174 316.04 586.27C314.899 585.191 316.921 571.979 319.825 556.076L319.916 555.575C320.509 552.306 336.291 497.467 336.291 497.467L394.687 511.226L377.857 567.19L377.629 568.163C377.629 568.163 408.659 590.816 411.563 594.343C414.467 597.871 415.349 607.51 411.943 607.875Z" fill="#F2F2F2"/>
<path d="M318.411 563.982C316.313 576.145 315.097 585.373 316.04 586.27C318.989 589.174 408.583 608.27 411.943 607.875C415.303 607.479 414.452 597.916 411.563 594.404C409.784 592.261 397.576 583.017 388.302 576.16C394.52 581.192 403.505 593.234 365.116 580.919C341.445 573.271 326.667 567.479 318.411 563.982Z" fill="#E9EBEC"/>
<path d="M438.564 253.724C438.564 253.724 443.566 296.552 434.733 306.313C434.733 306.313 421.141 403.357 415.546 431.772C408.157 469.279 385.55 551.682 385.55 551.682L321.695 536.22C321.695 536.22 354.778 427.667 355.143 425.235C356.922 411.369 367.306 315.101 366.53 312.729C355.645 282.033 370.149 253.739 370.149 253.739L438.564 253.724Z" fill="#FDFDFD"/>
<path d="M384.364 534.502C375.47 532.039 378.07 532.587 369.16 530.245C364.797 529.12 336.062 521.671 331.745 521.534C331.653 521.534 331.593 521.731 331.745 521.777C335.622 523.678 364.523 530.473 368.917 531.507C377.903 533.605 375.364 532.876 384.379 534.837C384.455 534.882 384.531 534.548 384.364 534.502Z" fill="#E6E6E6"/>
<path d="M377.537 523.921L385.352 491.248L393.273 458.622L397.18 442.278L398.108 438.203C398.381 436.85 398.594 435.467 398.792 434.083L399.993 425.782L404.448 392.486L413.326 325.895L415.561 309.263L416.702 300.931L417.021 298.848C417.021 298.559 417.173 298.042 417.203 297.814C417.234 297.586 417.203 297.145 417.294 296.811C417.294 295.412 417.386 294.013 417.416 292.615C417.568 281.425 417.507 270.235 417.416 259.03C417.644 270.235 417.872 281.425 417.887 292.63C417.887 294.029 417.887 295.427 417.811 296.826C417.811 297.191 417.811 297.541 417.735 297.906C417.659 298.27 417.614 298.544 417.553 298.939L417.249 301.022L416.139 309.339L413.995 325.986L405.451 392.623C404.022 403.737 402.41 414.82 400.89 425.904L399.658 434.22C399.43 435.604 399.218 436.987 398.929 438.386L398.016 442.521L394.064 458.789L385.93 491.385L377.537 523.921Z" fill="#E6E6E6"/>
<path d="M434.733 306.313C434.733 306.313 429.382 344.459 424.091 379.913L370.134 253.724H438.549C438.549 253.724 443.566 296.568 434.733 306.313Z" fill="#E6E6E6"/>
<path d="M544.183 556.547C540.975 557.612 449.359 556.897 445.893 554.647C444.57 553.811 454.407 472.427 454.407 472.427L512.955 474.95L502.602 524.62C502.602 524.62 537.57 540.569 541.112 543.442C544.655 546.316 547.391 555.453 544.183 556.547Z" fill="#F2F2F2"/>
<path d="M544.183 556.547C542.769 557.019 524.297 557.14 503.727 556.943H499.652C496.14 556.943 492.598 556.852 489.01 556.791H484.935L480.906 556.7C478.854 556.7 476.847 556.623 474.901 556.563L471.146 556.456L467.542 556.335C465.779 556.335 464.091 556.274 462.48 556.152C461.4 556.152 460.336 556.076 459.317 556.015C457.326 555.939 455.501 555.833 453.89 555.726L451.609 555.559C449.861 555.438 448.447 555.286 447.489 555.134C446.966 555.085 446.453 554.957 445.969 554.753C445.513 554.465 445.801 544.552 446.379 531.675C455.212 533.742 471.389 536.981 496.14 540.538C536.825 546.392 524.692 535.46 517.79 531.751L517.592 531.629L518.885 532.237L519.098 532.328L521.454 533.453L524.039 534.685C525.468 535.369 526.897 536.053 528.265 536.737C529.634 537.421 530.956 538.045 532.203 538.668C532.948 539.048 533.723 539.413 534.362 539.748C534.696 539.9 535.031 540.097 535.365 540.265C535.7 540.432 536.247 540.705 536.658 540.933C537.585 541.405 538.391 541.846 539.09 542.241C539.255 542.317 539.413 542.409 539.561 542.515C540.122 542.816 540.66 543.157 541.173 543.533C544.579 546.224 547.376 555.453 544.183 556.547Z" fill="#E9EBEC"/>
<path d="M510.295 501.815L448.964 502.56C448.964 502.56 464.167 391.331 462.647 386.071C462.024 384.018 387.633 316.53 387.633 316.53C360.951 290.228 370.134 253.8 370.134 253.8H438.55C438.55 253.8 439.477 264.443 443.111 268.548C463.711 291.657 516.224 339.472 524.267 360.711C534.332 387.287 510.295 501.815 510.295 501.815Z" fill="#FDFDFD"/>
<path d="M370.255 277.335C370.442 281.413 371.173 285.447 372.429 289.331C373.646 293.212 375.251 296.961 377.219 300.521C381.167 307.63 386.062 314.172 391.768 319.966C397.363 325.895 403.475 331.353 409.541 336.827C415.607 342.3 421.826 347.621 428.029 352.957C424.729 350.54 421.522 348.001 418.283 345.477C415.045 342.954 411.943 340.308 408.796 337.663C402.563 332.357 396.451 326.883 390.719 320.939C384.96 315.023 380.081 308.31 376.23 301.007C374.351 297.332 372.848 293.476 371.745 289.498C370.671 285.536 370.169 281.44 370.255 277.335V277.335Z" fill="#E6E6E6"/>
<path d="M422.646 259.03C422.513 261.663 422.702 264.303 423.209 266.89C423.445 268.177 423.87 269.422 424.471 270.585C425.231 271.649 426.113 272.637 426.964 273.626C430.43 277.578 434.034 281.44 437.606 285.302L459.119 308.472C466.295 316.195 473.441 323.954 480.556 331.749C487.626 339.548 494.696 347.378 501.461 355.496C503.134 357.549 504.776 359.617 506.341 361.76C507.117 362.84 507.862 363.919 508.561 365.09C508.93 365.687 509.216 366.332 509.413 367.005C509.599 367.659 509.742 368.324 509.838 368.997C510.436 374.272 510.547 379.59 510.173 384.885C509.641 395.436 508.516 405.926 507.269 416.402C506.022 426.877 504.547 437.306 502.982 447.736C501.416 458.166 499.652 468.565 497.828 478.949C499.49 468.529 501.035 458.1 502.465 447.66C503.985 437.23 505.353 426.786 506.554 416.31C507.755 405.835 508.804 395.345 509.261 384.839C509.596 379.607 509.459 374.356 508.85 369.149C508.751 368.518 508.614 367.894 508.44 367.279C508.262 366.69 508.007 366.128 507.679 365.607C507.026 364.497 506.265 363.433 505.49 362.368C503.97 360.27 502.282 358.218 500.61 356.196C493.935 348.062 486.927 340.202 479.872 332.357C472.818 324.512 465.718 316.727 458.587 308.974L437.211 285.651C433.684 281.729 430.157 277.822 426.751 273.793C425.9 272.774 425.048 271.771 424.288 270.676C423.697 269.487 423.287 268.216 423.072 266.906C422.613 264.307 422.47 261.663 422.646 259.03V259.03Z" fill="#E6E6E6"/>
<path d="M505.521 487.174C496.946 486.915 499.439 486.824 490.834 486.703C486.638 486.703 459.059 486.307 455.137 487.235C455.045 487.235 455.045 487.448 455.137 487.478C459.059 488.39 486.638 488.056 490.834 487.995C499.409 487.873 496.916 487.782 505.521 487.524C505.673 487.524 505.673 487.174 505.521 487.174Z" fill="#E6E6E6"/>
<path d="M458.679 227.65L448.036 227.103C445.352 220.876 444.677 213.967 446.105 207.338C446.41 205.818 442.122 214.362 442.624 226.814C431.404 226.236 416.139 225.446 402.806 224.64C402.943 219.425 402.806 214.575 402.806 214.575C402.128 217.956 401.146 221.269 399.872 224.473L394.55 224.138C395.186 216.752 395.414 209.337 395.234 201.926C393.697 209.547 390.924 216.865 387.025 223.591C378.571 222.983 373.022 222.42 373.341 222.071C387.237 208.387 378.511 199.265 383.117 186.57C388.651 171.367 402.167 169.968 402.654 158.322C403.064 148.85 403.171 131.594 415.394 128.827C418.867 125.908 423.122 124.075 427.629 123.559C432.136 123.042 436.696 123.865 440.739 125.924C459.074 134.574 449.405 163.172 450.241 169.208C451.442 177.813 455.243 181.112 457.538 190.995C459.834 200.877 454.923 207.171 453.92 213.8C452.917 220.429 460.792 227.787 458.679 227.65Z" fill="#E7E8E9"/>
<path d="M373.189 219.988C375.129 217.566 376.721 214.884 377.918 212.021C378.903 209.168 379.118 206.105 378.541 203.142C378.191 200.101 377.735 196.909 377.689 193.67C377.596 190.373 378.165 187.09 379.362 184.016C380.626 180.942 382.583 178.2 385.078 176.004C387.498 173.924 390.08 172.043 392.802 170.379C395.437 168.8 397.855 166.883 399.993 164.677C402.052 162.355 403.445 159.518 404.022 156.467C403.894 159.691 402.797 162.801 400.875 165.392C398.879 167.905 396.516 170.104 393.866 171.914C391.338 173.678 388.925 175.603 386.644 177.676C384.482 179.714 382.781 182.192 381.658 184.944C380.613 187.738 380.098 190.703 380.137 193.686C380.137 196.726 380.411 199.767 380.578 202.975C380.699 204.584 380.699 206.2 380.578 207.81C380.379 209.456 379.895 211.056 379.149 212.538C377.621 215.356 375.603 217.878 373.189 219.988Z" fill="#E7E8E9"/>
<path d="M450.652 137.615C451.694 141.356 452.271 145.211 452.37 149.094C452.567 152.971 452.567 156.847 452.537 160.694V166.456C452.51 168.311 452.663 170.164 452.993 171.99C453.84 175.616 455.339 179.057 457.417 182.146C458.434 183.844 459.338 185.606 460.123 187.422C460.892 189.29 461.453 191.238 461.796 193.229C462.073 195.204 462.2 197.196 462.176 199.189C462.16 201.2 461.9 203.201 461.4 205.149C460.914 207.095 460.215 208.919 459.622 210.698C459.014 212.483 458.577 214.32 458.314 216.187C458.112 218.061 458.362 219.957 459.042 221.716C459.721 223.474 460.811 225.045 462.221 226.297C460.592 225.152 459.272 223.621 458.38 221.841C457.489 220.06 457.053 218.086 457.113 216.095C457.235 214.118 457.551 212.158 458.056 210.242C458.542 208.342 459.166 206.532 459.5 204.708C460.177 201.05 460.177 197.298 459.5 193.64C459.151 191.836 458.616 190.073 457.904 188.379C457.14 186.668 456.267 185.007 455.289 183.408C454.274 181.723 453.345 179.988 452.506 178.208C451.66 176.362 451.052 174.416 450.697 172.416C450.401 170.439 450.299 168.438 450.393 166.441C450.393 164.48 450.53 162.564 450.652 160.633C450.849 156.787 451.123 152.955 451.214 149.109C451.422 145.268 451.234 141.417 450.652 137.615V137.615Z" fill="#E7E8E9"/>
<path d="M428.698 194.932C439.842 226.099 460.26 251.869 470.112 252.63C484.236 253.724 513.199 247.156 529.026 239.798C533.678 237.624 517.988 202.488 513.001 204.83C506.92 207.612 476.756 217.829 476.102 217.905C474.688 218.102 448.417 192.211 442.046 185.445C430.37 173.024 422.647 177.98 428.698 194.932Z" fill="#F2F2F2"/>
<path d="M522.23 241.561C526.791 241.197 543.879 238.201 554.704 232.698C559.949 230.022 574.21 220.733 572.462 216.552C570.714 212.371 566.381 214.712 566.381 214.712C566.381 214.712 571.823 209.893 569.68 205.833C567.536 201.774 560.801 205.651 560.801 205.651C560.801 205.651 566.031 200.299 563.613 196.407C561.196 192.515 555.054 197.532 555.054 197.532C555.054 197.532 560.071 192.865 556.726 190.493C552.697 187.65 544.442 197.319 538.482 199.98C537.129 200.588 510.204 210.303 510.204 210.303L522.23 241.561Z" fill="#F2F2F2"/>
<path d="M554.856 197.547C548.775 204.632 544.883 206.669 536.08 209.391C535.912 209.391 535.958 209.71 536.08 209.664C544.928 207.81 550.173 205.94 555.145 197.821C555.449 197.426 555.221 197.198 554.856 197.547Z" fill="#E6E6E6"/>
<path d="M561.074 205.453C554.111 212.264 549.9 214.575 540.899 218.042C540.778 218.042 540.899 218.3 540.975 218.27C550.097 215.563 555.297 213.572 561.363 205.848C561.637 205.499 561.378 205.134 561.074 205.453Z" fill="#E6E6E6"/>
<path d="M565.711 215.244C558.49 221.326 553.989 224.032 544.822 226.312C544.784 226.324 544.751 226.347 544.728 226.378C544.704 226.41 544.691 226.448 544.691 226.487C544.691 226.526 544.704 226.565 544.728 226.596C544.751 226.628 544.784 226.651 544.822 226.662C554.4 225.233 560.025 221.934 565.818 215.487C566.259 215.047 566.167 214.864 565.711 215.244Z" fill="#E6E6E6"/>
<path d="M509.139 209.421C509.139 209.421 515.509 199.6 519.265 195.905C523.02 192.211 542.07 183.575 544.168 187.589C546.889 192.758 536.855 199.904 531.503 202.793C531.503 202.793 537.767 214.758 531.686 221.447C525.605 228.137 509.139 209.421 509.139 209.421Z" fill="#F2F2F2"/>
<path d="M544.457 189.261C543.515 195.753 536.232 199.052 531.23 202.215C531.153 202.257 531.088 202.317 531.04 202.391C530.993 202.464 530.964 202.548 530.956 202.635C530.949 202.722 530.963 202.81 530.997 202.891C531.032 202.971 531.086 203.042 531.154 203.097C533.45 208.296 535.168 216.293 532.051 221.341C531.96 221.478 532.173 221.63 532.279 221.493C536.369 216.46 535.32 208.463 532.431 202.944C537.616 199.782 544.776 196.149 544.518 189.185L544.457 189.261Z" fill="#E6E6E6"/>
<path d="M491.26 211.428L499.804 250.836C499.804 250.836 474.11 258.27 465.977 253.329C457.843 248.388 436.771 221.402 429.23 198.596C421.689 175.791 429.564 171.048 446.197 188.836C462.829 206.624 475.524 217.221 476.178 217.084C476.832 216.947 491.26 211.428 491.26 211.428Z" fill="#FDFDFD"/>
<path d="M484.677 215.67C484.677 215.548 484.433 215.67 484.449 215.67C486.166 227.391 488.527 239.008 491.518 250.471C491.518 250.592 491.762 250.471 491.731 250.471C490.012 238.751 487.657 227.134 484.677 215.67Z" fill="#E6E6E6"/>
<path opacity="0.1" d="M478.413 254.88C473.381 255.26 468.713 254.986 465.992 253.359C457.858 248.418 436.786 221.432 429.23 198.627C423.772 182.177 426.371 175.122 434.521 179.181L478.413 254.88Z" fill="#D3D3D3"/>
<path d="M442.974 238.186L438.565 253.739H370.149C370.149 253.739 385.352 198.52 411.35 181.538C424.349 173.039 433.213 176.886 438.884 186.555C440.313 189.003 451.047 212.675 451.548 222.816C451.689 225.921 450.961 229.005 449.447 231.72C447.932 234.435 445.69 236.674 442.974 238.186V238.186Z" fill="#FDFDFD"/>
<path opacity="0.1" d="M439.872 249.118L439.371 250.957H370.955C371.107 250.42 371.289 249.827 371.502 249.178L439.872 249.118ZM373.099 244.1C372.901 244.709 372.703 245.302 372.506 245.864H440.8L441.301 244.1H373.099ZM374.877 239.068C374.649 239.676 374.436 240.254 374.239 240.832H442.229L442.731 239.068H374.877ZM376.778 234.036C376.535 234.629 376.307 235.222 376.078 235.815H446.182C446.779 235.265 447.333 234.67 447.839 234.036H376.778ZM378.769 229.019L378.055 230.782H449.907C450.191 230.214 450.429 229.624 450.621 229.019H378.769ZM380.928 223.986L380.153 225.75H451.366C451.441 225.165 451.476 224.576 451.473 223.986H380.928ZM450.94 219.03H383.239C382.95 219.623 382.677 220.216 382.403 220.809H451.26C451.169 220.17 451.077 219.577 450.94 219.03ZM449.694 213.998H385.733L384.82 215.776H450.196C450.028 215.123 449.861 214.469 449.694 213.922V213.998ZM448.173 208.98H388.424L387.435 210.744H448.69L448.173 208.98ZM446.349 203.948H391.373C391.008 204.541 390.643 205.119 390.294 205.727H446.942C446.729 205.058 446.501 204.465 446.273 203.826L446.349 203.948ZM444.388 198.916H394.657C394.247 199.509 393.836 200.102 393.456 200.694H445.026L444.388 198.916ZM442.274 193.898H398.367C397.895 194.476 397.439 195.054 396.998 195.662H442.959L442.274 193.898ZM440.009 188.866H402.73C402.168 189.444 401.636 190.037 401.088 190.645H440.754L440.009 188.866ZM436.968 183.834H408.188C407.469 184.391 406.769 184.984 406.09 185.613H438.154C437.805 184.913 437.394 184.32 436.953 183.758L436.968 183.834ZM431.526 178.817H416.322C415.151 179.332 414.013 179.921 412.916 180.58H433.958C433.211 179.881 432.39 179.264 431.51 178.741L431.526 178.817Z" fill="#E6E6E6"/>
<path d="M435.722 232.941C433.109 233.137 430.525 233.611 428.013 234.355C426.752 234.75 425.505 235.237 424.258 235.769C423.635 236.027 423.011 236.255 422.388 236.483C421.754 236.741 421.08 236.885 420.396 236.909C420.396 236.909 420.396 237.046 420.396 237.046C421.023 237.114 421.655 237.114 422.282 237.046C422.901 236.974 423.512 236.842 424.106 236.651C425.398 236.271 426.676 235.784 427.953 235.389C430.537 234.568 433.137 233.747 435.737 233.199C435.843 233.23 435.843 232.926 435.722 232.941Z" fill="#E6E6E6"/>
<path d="M441.788 236.711C439.716 236.258 437.611 235.979 435.493 235.875C434.433 235.837 433.372 235.868 432.316 235.967C431.814 235.967 431.297 236.058 430.795 236.134C430.294 236.21 429.686 236.392 429.123 236.438V236.59C429.629 236.561 430.137 236.561 430.643 236.59H432.164H435.341C437.455 236.59 439.553 236.59 441.666 236.787C441.894 236.97 441.894 236.727 441.788 236.711Z" fill="#E6E6E6"/>
<path d="M413.92 178.421C380.077 181.979 353.517 192.758 344.318 197.654C338.313 200.847 304.911 224.412 297.294 231.406C293.569 234.826 317.195 262.922 321.62 259.73C327.549 255.397 364.433 222.192 364.95 221.721C366.896 220.185 406.227 196.225 414.483 191.664C428.196 184.138 428.941 176.84 413.92 178.421Z" fill="#F2F2F2"/>
<path d="M295.013 293.786C293.869 293.337 292.887 292.552 292.198 291.534C291.508 290.516 291.143 289.313 291.151 288.084C289.101 288.561 286.949 288.302 285.07 287.354C281.847 285.545 283.291 279.753 283.291 279.753C281.073 279.797 278.891 279.178 277.027 277.974C274.124 275.921 274.732 269.84 274.732 269.84C272.653 268.762 271.033 266.97 270.171 264.792C268.118 258.924 274.078 251.52 277.772 246.776C281.467 242.033 296.564 232.09 299.24 229.9L321.437 259.775C321.437 259.775 319.171 279.677 313.972 284.633C309.745 288.753 299.468 295.321 295.013 293.786Z" fill="#F2F2F2"/>
<path d="M291.805 288.251C297.507 284.937 301.931 280.102 306.614 275.541C306.72 275.435 306.614 275.268 306.462 275.374C301.901 279.935 296.397 283.599 291.608 288.008C291.471 288.13 291.653 288.343 291.805 288.251Z" fill="#E6E6E6"/>
<path d="M283.793 279.92C285.02 279.059 286.124 278.036 287.077 276.879C288.151 275.703 289.216 274.518 290.27 273.322C292.368 270.909 294.395 268.446 296.351 265.933C296.427 265.811 296.275 265.659 296.184 265.765C294.086 268.168 291.957 270.539 289.768 272.85C288.673 274.006 287.563 275.146 286.454 276.286C285.317 277.294 284.297 278.426 283.413 279.661C283.379 279.712 283.366 279.774 283.377 279.834C283.389 279.894 283.423 279.946 283.474 279.981C283.524 280.015 283.586 280.028 283.646 280.016C283.706 280.005 283.759 279.97 283.793 279.92V279.92Z" fill="#E6E6E6"/>
<path d="M274.853 269.688C275.954 268.881 276.906 267.888 277.666 266.754C278.593 265.629 279.536 264.519 280.478 263.409C282.364 261.189 284.249 258.985 286.225 256.826C286.245 256.804 286.256 256.774 286.254 256.744C286.253 256.714 286.24 256.686 286.218 256.666C286.207 256.656 286.194 256.648 286.18 256.643C286.166 256.638 286.151 256.636 286.136 256.637C286.106 256.638 286.078 256.652 286.058 256.674C284.051 258.848 282.014 260.992 279.977 263.181C278.988 264.26 278.031 265.34 277.058 266.434C276.081 267.336 275.278 268.407 274.686 269.597C274.686 269.597 274.807 269.718 274.853 269.688Z" fill="#E6E6E6"/>
<path d="M338.389 251.276L310.551 217.95C310.551 217.95 336.108 200.634 344.075 195.829C352.041 191.025 384.41 179.881 408.021 177.98C431.632 176.08 431.024 183.575 410.027 195.343C389.031 207.11 373.95 217.145 373.539 217.631C372.171 219.03 338.389 251.276 338.389 251.276Z" fill="#FDFDFD"/>
<path d="M344.379 241.47C344.47 241.561 344.637 241.47 344.561 241.318C337.448 232.018 329.835 223.11 321.756 214.636C321.665 214.545 321.512 214.636 321.588 214.788C328.7 224.085 336.308 232.992 344.379 241.47V241.47Z" fill="#E6E6E6"/>
<path d="M374.801 216.552C377.462 214.682 380.198 212.903 382.935 211.154C385.672 209.406 388.469 207.718 391.221 206C393.973 204.282 396.816 202.671 399.644 201.059C402.471 199.448 405.314 197.867 408.203 196.377C405.543 198.262 402.806 200.025 400.069 201.789C397.333 203.553 394.55 205.21 391.783 206.928C389.016 208.646 386.204 210.257 383.361 211.869C380.518 213.481 377.705 215.062 374.801 216.552Z" fill="#E6E6E6"/>
<path d="M399.887 201.576C400.991 200.97 402.146 200.461 403.338 200.056C404.527 199.651 405.74 199.326 406.972 199.083C406.458 199.457 405.908 199.778 405.33 200.041C403.615 200.853 401.774 201.367 399.887 201.561V201.576Z" fill="#E6E6E6"/>
<path d="M424.091 184.244C424.547 185.658 432.164 194.431 438.702 193.594C440.845 193.321 439.857 181.614 439.857 181.614L439.979 180.732L441.712 168.402L426.736 160.42L424.593 159.371C424.593 159.371 424.334 162.777 424.061 166.973C424.061 167.171 424.061 167.368 424.061 167.581C424.061 167.794 424.061 168.052 424.061 168.265C424.061 168.904 423.969 169.558 423.939 170.196C423.909 170.835 423.939 171.169 423.939 171.716V173.237C423.738 176.905 423.789 180.583 424.091 184.244V184.244Z" fill="#F2F2F2"/>
<path d="M424.061 167.019C425.562 170.318 427.764 173.251 430.513 175.613C433.261 177.976 436.491 179.713 439.979 180.702L441.712 168.372L426.736 160.39L424.593 159.341C424.593 159.341 424.334 162.777 424.061 167.019Z" fill="#E6E6E6"/>
<path d="M455.988 144.806C463.255 165.407 451.746 172.097 447.291 173.693C443.262 175.107 429.336 179.425 419.925 159.675C410.514 139.926 417.842 130.044 426.903 126.228C435.965 122.412 448.797 124.19 455.988 144.806Z" fill="#F2F2F2"/>
<path d="M451.837 144.031C451.406 144.291 450.959 144.524 450.499 144.73C450.06 145.054 449.523 145.215 448.979 145.186C448.811 145.149 448.66 145.058 448.55 144.926C448.44 144.793 448.377 144.628 448.371 144.457C448.416 144.121 448.55 143.803 448.758 143.536C448.967 143.269 449.242 143.062 449.556 142.936C450.153 142.561 450.872 142.43 451.563 142.571C451.71 142.616 451.842 142.699 451.944 142.813C452.047 142.927 452.116 143.067 452.144 143.218C452.172 143.369 452.159 143.524 452.104 143.667C452.05 143.811 451.958 143.937 451.837 144.031Z" fill="#E6E6E6"/>
<path d="M437.926 149.094C438.428 148.972 438.869 148.759 439.355 148.592C439.878 148.477 440.351 148.2 440.708 147.801C440.794 147.652 440.826 147.477 440.802 147.307C440.777 147.136 440.696 146.978 440.571 146.859C440.296 146.657 439.972 146.532 439.633 146.497C439.293 146.463 438.951 146.519 438.641 146.661C437.959 146.853 437.373 147.292 436.999 147.893C436.925 148.034 436.893 148.194 436.908 148.353C436.922 148.512 436.981 148.663 437.079 148.789C437.176 148.916 437.308 149.011 437.458 149.065C437.608 149.119 437.77 149.129 437.926 149.094V149.094Z" fill="#E6E6E6"/>
<path d="M442.244 151.557C442.244 151.557 442.153 151.663 442.168 151.724C442.639 153.138 442.943 154.765 441.803 155.692C443.339 155.069 442.913 152.819 442.244 151.557Z" fill="#E6E6E6"/>
<path d="M440.511 150.462C438.169 150.979 439.386 155.616 441.545 155.145C443.704 154.673 442.487 150.021 440.511 150.462Z" fill="#E6E6E6"/>
<path d="M439.674 150.933C439.325 151.313 439.051 151.876 438.58 152.043C438.108 152.21 437.47 151.876 437.059 151.511C437.059 151.511 436.968 151.511 436.983 151.511C437.211 152.393 437.789 153.229 438.777 153.107C439.766 152.986 440.1 152.058 440.085 151.101C440.009 150.994 439.796 150.796 439.674 150.933Z" fill="#E6E6E6"/>
<path d="M449.906 148.577C449.906 148.577 450.028 148.577 450.043 148.683C450.408 150.204 451.047 151.724 452.476 151.846V151.922C450.849 152.134 450.013 150.006 449.906 148.577Z" fill="#E6E6E6"/>
<path d="M450.773 146.722C453.023 145.916 454.483 150.492 452.4 151.283C450.317 152.074 448.873 147.406 450.773 146.722Z" fill="#E6E6E6"/>
<path d="M451.746 146.692C452.233 146.813 452.765 147.148 453.266 147.041C453.768 146.935 454.103 146.311 454.331 145.734C454.331 145.734 454.331 145.734 454.422 145.734C454.629 146.13 454.676 146.59 454.555 147.019C454.433 147.449 454.152 147.816 453.768 148.045C453.346 148.18 452.888 148.154 452.484 147.971C452.079 147.789 451.757 147.463 451.579 147.056C451.488 146.92 451.548 146.631 451.746 146.692Z" fill="#E6E6E6"/>
<path d="M444.92 162.777C445.346 163.051 445.786 163.446 446.334 163.37C446.887 163.255 447.407 163.016 447.854 162.67C447.854 162.67 447.945 162.67 447.93 162.67C447.781 163.001 447.546 163.286 447.249 163.495C446.952 163.703 446.604 163.828 446.243 163.856C445.927 163.85 445.622 163.745 445.368 163.557C445.115 163.369 444.926 163.107 444.829 162.807C444.753 162.777 444.859 162.686 444.92 162.777Z" fill="#E6E6E6"/>
<path d="M449.511 155.905C449.511 155.905 450.393 157.973 450.666 158.946C450.666 159.037 450.469 159.143 450.134 159.265C449.311 159.662 448.394 159.825 447.484 159.733C446.575 159.642 445.708 159.301 444.98 158.748C444.874 158.748 444.98 158.52 445.087 158.566C446.622 159.075 448.28 159.075 449.815 158.566C449.815 158.261 448.188 155.084 448.295 155.023C449.097 154.878 449.915 154.842 450.727 154.917C449.024 150.568 446.638 146.524 444.996 142.161C444.996 142.009 445.163 141.903 445.239 142.024C447.938 146.282 450.205 150.8 452.004 155.51C452.263 156.163 449.967 155.966 449.511 155.905Z" fill="#E6E6E6"/>
<path d="M449.876 158.961C449.52 159.943 448.912 160.813 448.112 161.484C447.679 161.836 447.148 162.043 446.592 162.077C445.345 162.077 445.071 161.089 444.919 160.116C444.89 159.608 444.92 159.097 445.011 158.596C446.552 159.231 448.256 159.359 449.876 158.961V158.961Z" fill="#E6E6E6"/>
<path d="M448.112 161.485C447.679 161.836 447.148 162.043 446.592 162.078C445.345 162.078 445.071 161.089 444.919 160.116C445.528 159.962 446.17 160.012 446.747 160.26C447.325 160.507 447.804 160.938 448.112 161.485V161.485Z" fill="#F2F2F2"/>
<path d="M420.381 159.979C425.414 158.459 422.799 150.477 422.799 150.477C422.799 150.477 428.333 148.09 425.748 138.755C427.458 140.244 429.492 141.315 431.687 141.882C433.883 142.45 436.18 142.498 438.398 142.024C440.116 141.735 433.244 139.287 433.244 139.287C433.244 139.287 441.758 143.088 453.206 136.855C454.027 136.414 447.991 124.145 436.984 122.883C425.976 121.621 418.177 126.912 414.178 134.878C412.778 136.316 411.755 138.077 411.201 140.006C410.646 141.934 410.578 143.97 411.001 145.931C412.415 152.834 418.39 160.603 420.381 159.979Z" fill="#E7E8E9"/>
<path d="M425.033 159.219C425.033 159.219 418.709 153.807 416.139 156.179C413.57 158.55 419.499 167.277 423.361 167.688C423.853 167.774 424.356 167.76 424.842 167.646C425.328 167.532 425.786 167.321 426.188 167.026C426.59 166.73 426.928 166.356 427.182 165.927C427.435 165.497 427.599 165.02 427.664 164.525L425.033 159.219Z" fill="#F2F2F2"/>
<path d="M679.662 128.539C689.909 155.342 718.34 190.873 725.44 193.473C736.721 197.578 772.495 183.134 786.056 175.928C790.131 173.754 772.707 137.341 768.557 140.002C759.754 145.643 735.672 155.722 732.525 155.479C730.427 155.312 707.986 135.228 694.06 123.415C676.439 108.47 676.971 121.499 679.662 128.539Z" fill="#F7F7F7"/>
<path d="M702.695 172.401L715.831 138.831C707.396 130.808 698.291 123.52 688.617 117.045C675.085 108.44 674.401 122.26 684.618 141.37C694.835 160.481 702.695 172.401 702.695 172.401Z" fill="#ECEFF1"/>
<path d="M698.423 163.339C700.962 155.966 704.018 148.759 707.21 141.644C708.107 139.622 709.05 137.63 710.053 135.669C710.053 135.669 710.175 135.669 710.145 135.669C708.807 139.318 707.302 142.906 705.842 146.524C704.383 150.143 702.801 153.746 701.281 157.319C700.399 159.341 699.502 161.348 698.575 163.4C698.514 163.476 698.392 163.431 698.423 163.339Z" fill="#E6E6E6"/>
<path opacity="0.2" d="M710.297 152.895L702.695 172.416C702.695 172.416 694.835 160.512 684.618 141.386C679.069 130.971 676.727 122.153 677.928 117.638C686.154 126.517 701.463 143.149 710.297 152.895Z" fill="#D3D3D3"/>
<path d="M774.151 176.734C769.393 175.517 763.752 144.73 767.234 141.081C768.512 139.977 769.928 139.042 771.445 138.299V138.299C775.949 132.954 779.642 126.976 782.407 120.557C785.448 112.788 789.097 100.914 793.323 102.404C799.511 104.547 796.713 120.101 794.57 128.949C799.328 127.611 803.555 126.897 806.17 127.429C814.836 129.056 817.36 162.245 810.412 167.916C803.464 173.587 778.865 177.98 774.151 176.734Z" fill="#F7F7F7"/>
<path d="M792.591 1.78262e-05L789.074 0.271851L820.792 410.607L824.309 410.335L792.591 1.78262e-05Z" fill="#E7E8E9"/>
<path d="M789.689 126.486C787.956 130.728 793.962 130.348 793.962 130.348C793.962 130.348 785.463 132.978 785.372 138.056C785.28 143.134 792.517 142.206 792.973 142.161C792.517 142.313 784.779 144.928 785.22 150.036C785.66 155.145 792.821 153.366 793.247 153.244C792.867 153.503 787.895 157.136 789.112 160.937C791.179 167.475 804.148 158.535 809.56 159.767C809.56 159.767 806.778 169.71 806.808 169.998C806.808 169.998 821.054 161.211 822.316 153.822C822.514 152.748 822.34 151.639 821.823 150.678C821.306 149.716 820.478 148.959 819.473 148.531C819.473 148.531 823.806 146.327 823.593 142.298C823.472 140.23 820.066 138.573 820.066 138.573C821.031 138.029 821.826 137.228 822.362 136.259C822.899 135.29 823.157 134.191 823.107 133.084C822.787 130.241 819.427 129.01 819.427 129.01C819.427 129.01 821.83 125.665 820.552 122.852C817.998 117.166 793.414 117.41 789.689 126.486Z" fill="#F7F7F7"/>
<path d="M820.249 138.527C820.355 138.527 820.355 138.375 820.249 138.345C810.947 136.218 801.191 137.491 792.745 141.933C792.457 142.1 792.365 142.541 792.745 142.374C798.599 139.637 812.328 137.904 820.249 138.527Z" fill="#E6E6E6"/>
<path d="M792.836 153.776C801.122 149.504 809.955 148.334 819.199 148.425C819.321 148.425 819.306 148.258 819.199 148.227C814.638 146.95 808.8 147.513 804.254 148.334C800.012 149.006 796.021 150.784 792.684 153.488C792.547 153.655 792.654 153.868 792.836 153.776Z" fill="#E6E6E6"/>
<path d="M793.825 130.272C793.521 130.393 794.037 130.698 793.733 130.834C792.472 131.412 785.189 135.532 785.812 138.436C786.329 140.777 789.826 141.72 791.316 141.553L795.041 141.127L791.681 142.815C790.186 143.56 788.821 144.541 787.637 145.719C787.059 146.235 786.597 146.868 786.28 147.575C785.963 148.282 785.798 149.048 785.797 149.824C785.804 150.543 786.059 151.238 786.519 151.792C786.979 152.346 787.615 152.725 788.321 152.864C789.906 153.163 791.541 153.043 793.064 152.515L797.321 151.237L793.733 153.837C792.737 154.56 791.833 155.403 791.042 156.346C790.239 157.212 789.71 158.296 789.522 159.463C789.466 159.986 789.559 160.516 789.79 160.989C790.021 161.462 790.382 161.861 790.829 162.138C791.917 162.621 793.121 162.78 794.296 162.594C796.87 162.244 799.411 161.689 801.898 160.937C803.16 160.603 804.421 160.253 805.699 159.979C806.971 159.631 808.302 159.553 809.606 159.751C808.308 159.693 807.012 159.889 805.79 160.329C804.543 160.709 803.327 161.135 802.095 161.561C799.633 162.5 797.088 163.207 794.494 163.674C793.088 163.945 791.634 163.797 790.313 163.248C789.624 162.877 789.06 162.311 788.69 161.622C788.32 160.933 788.16 160.15 788.23 159.371C788.394 157.928 788.987 156.567 789.933 155.464C790.788 154.388 791.78 153.427 792.882 152.606L793.551 153.928C791.753 154.567 789.82 154.729 787.941 154.4C786.909 154.181 785.985 153.612 785.326 152.788C784.695 151.959 784.335 150.956 784.292 149.915C784.292 148.933 784.5 147.963 784.9 147.067C785.301 146.171 785.887 145.37 786.618 144.715C787.967 143.465 789.507 142.439 791.179 141.674L791.559 142.952C789.659 143.104 785.645 142.48 784.383 138.953C783.38 134.042 792.167 130.758 793.825 130.272Z" fill="#E6E6E6"/>
<path d="M793.916 130.348C792.978 130.229 792.064 129.962 791.21 129.557C790.862 129.41 790.561 129.171 790.339 128.865C790.116 128.56 789.981 128.2 789.948 127.824C789.975 126.987 790.25 126.178 790.738 125.498C791.24 124.707 791.803 123.977 792.411 123.126C791.474 123.533 790.635 124.134 789.948 124.89C789.131 125.692 788.666 126.786 788.656 127.93C788.714 128.553 788.964 129.142 789.37 129.618C789.777 130.061 790.306 130.373 790.89 130.515C791.891 130.78 792.95 130.721 793.916 130.348Z" fill="#E6E6E6"/>
<path d="M653.588 433.612C653.588 433.612 643.645 489.515 643.63 489.546C642.109 500.294 640.893 509.751 640.741 514.707C640.577 515.862 640.686 517.039 641.06 518.143V518.143C643.949 520.774 729.514 535.749 732.662 535.263C735.809 534.776 734.699 525.73 731.84 522.507C728.982 519.284 698.773 498.896 698.773 498.896L707.986 442.901L653.588 433.612Z" fill="#F7F7F7"/>
<path d="M645.241 477.991C645.241 477.991 643.721 489.515 643.629 489.546C642.109 500.295 640.893 509.751 640.741 514.707C640.709 515.861 640.816 517.015 641.06 518.143V518.143C643.949 520.774 729.514 535.749 732.661 535.263C735.808 534.776 734.698 525.73 731.84 522.507C728.982 519.284 698.772 498.896 698.772 498.896L700.582 487.189L645.241 477.991Z" fill="#F7F7F7"/>
<path d="M732.646 535.734C729.438 536.22 642.474 521.032 639.524 518.356C638.399 517.353 639.433 503.715 643.219 489.09L699.259 498.957C699.259 498.957 728.875 519.481 731.795 522.765C734.714 526.049 735.869 535.263 732.646 535.734Z" fill="#ECEFF1"/>
<path d="M732.007 532.039C717.488 529.136 658.681 518.797 644.101 517.018C643.994 517.018 643.979 517.094 644.101 517.11C658.422 520.302 717.336 530.169 731.977 532.313C732.281 532.313 732.311 532.1 732.007 532.039Z" fill="#E6E6E6"/>
<path d="M726.747 518.66C725.134 518.334 723.472 518.347 721.865 518.697C720.258 519.048 718.741 519.729 717.412 520.698C715.022 522.425 713.389 525.005 712.851 527.904C712.851 527.995 713.003 528.026 713.033 527.904C714.017 525.106 715.883 522.703 718.351 521.058C720.819 519.413 723.755 518.614 726.716 518.782C726.838 518.843 726.868 518.676 726.747 518.66Z" fill="#E6E6E6"/>
<path d="M703.577 501.207C697.769 500.112 690.639 500.994 686.184 505.129C686.002 505.281 686.184 505.525 686.427 505.479C691.995 503.689 697.74 502.506 703.562 501.952C703.648 501.936 703.726 501.891 703.783 501.824C703.84 501.758 703.872 501.673 703.874 501.586C703.876 501.498 703.847 501.412 703.793 501.343C703.739 501.274 703.663 501.226 703.577 501.207Z" fill="#E6E6E6"/>
<path d="M707.788 503.746C701.965 502.651 694.834 503.533 690.38 507.668C690.197 507.835 690.38 508.079 690.623 508.018C696.191 506.228 701.935 505.045 707.757 504.491C707.844 504.477 707.924 504.434 707.982 504.368C708.041 504.302 708.075 504.218 708.078 504.131C708.082 504.043 708.055 503.956 708.002 503.886C707.949 503.816 707.873 503.766 707.788 503.746Z" fill="#E6E6E6"/>
<path d="M711.984 506.376C706.161 505.266 699.031 506.148 694.576 510.283C694.409 510.45 694.576 510.694 694.819 510.633C700.389 508.85 706.133 507.668 711.954 507.106C712.05 507.11 712.145 507.075 712.216 507.01C712.287 506.944 712.33 506.853 712.334 506.756C712.338 506.659 712.303 506.565 712.238 506.494C712.172 506.422 712.081 506.38 711.984 506.376V506.376Z" fill="#E6E6E6"/>
<path d="M716.18 508.839C710.357 507.744 703.227 508.611 698.772 512.761C698.605 512.913 698.772 513.157 699.016 513.096C704.585 511.313 710.329 510.131 716.15 509.569C716.198 509.571 716.246 509.563 716.291 509.547C716.336 509.53 716.377 509.505 716.412 509.473C716.448 509.44 716.476 509.401 716.496 509.357C716.517 509.314 716.528 509.267 716.53 509.219C716.532 509.171 716.525 509.123 716.508 509.078C716.492 509.033 716.466 508.992 716.434 508.957C716.401 508.921 716.362 508.893 716.319 508.873C716.275 508.852 716.228 508.841 716.18 508.839Z" fill="#E6E6E6"/>
<path d="M658.316 197.486C658.316 197.486 668.958 339.031 669.308 341.038C669.308 341.22 640.741 485.73 640.741 485.73L702.695 496.463C702.695 496.463 723.174 357.169 723.357 341.783C723.676 315.42 719.829 236.331 710.13 197.486H658.316Z" fill="#FDFDFD"/>
<path d="M702.497 481.275C700.977 480.636 664.093 473.445 649.635 472.016C649.483 472.016 649.118 472.366 649.635 472.548C653.557 473.932 701.524 481.746 702.452 481.67C702.604 481.685 702.695 481.336 702.497 481.275Z" fill="#E6E6E6"/>
<path d="M672.531 208.387C672.303 206.745 672.014 205.103 671.725 203.461C671.725 203.218 671.269 203.279 671.3 203.537C671.817 210.622 672.82 217.692 673.58 224.822C674.34 231.953 683.341 338.56 683.006 342.056C682.594 345.504 681.959 348.922 681.106 352.288C679.479 359.191 661.007 449.363 657.51 463.137C657.069 464.87 656.72 466.604 656.37 468.352C656.38 468.386 656.402 468.416 656.43 468.437C656.459 468.458 656.494 468.469 656.53 468.469C656.565 468.469 656.6 468.458 656.629 468.437C656.657 468.416 656.679 468.386 656.689 468.352C659.106 461.602 684.816 348.685 684.937 341.722C685.059 334.759 674.492 222.724 672.531 208.387Z" fill="#E6E6E6"/>
<path d="M722.976 319.038L664.762 282.778C661.721 242.991 658.316 197.486 658.316 197.486H710.099C717.898 228.623 722.186 285.271 722.976 319.038Z" fill="#E6E6E6"/>
<path d="M742.938 421.753C742.938 421.753 739.442 478.447 739.442 478.493C738.712 489.333 738.271 498.85 738.499 503.791C738.49 503.816 738.49 503.843 738.499 503.867C738.423 505.031 738.615 506.196 739.062 507.273V507.349C742.102 509.751 828.61 518.067 831.727 517.338C834.844 516.608 833.019 507.684 829.918 504.688C826.816 501.693 795.132 483.692 795.132 483.692L798.082 426.983L742.938 421.753Z" fill="#F7F7F7"/>
<path d="M740.156 466.847C740.156 466.847 739.442 478.447 739.442 478.493C738.712 489.333 738.271 498.85 738.499 503.791C738.49 503.816 738.49 503.843 738.499 503.867C738.556 505.02 738.744 506.163 739.062 507.273V507.349C742.102 509.751 828.61 518.068 831.727 517.338C834.844 516.608 833.019 507.684 829.918 504.688C826.816 501.693 795.132 483.692 795.132 483.692L796.014 471.894L740.156 466.847Z" fill="#F7F7F7"/>
<path d="M832.183 517.186C829.036 517.976 740.962 511.241 737.815 508.869C736.598 507.972 736.294 494.304 738.666 479.39L795.406 483.799C795.406 483.799 826.862 501.374 830.085 504.354C833.308 507.334 835.33 516.395 832.183 517.186Z" fill="#ECEFF1"/>
<path d="M831.195 513.567C816.463 512.047 756.926 507.486 742.254 507.106C742.133 507.106 742.118 507.106 742.254 507.197C756.819 508.991 816.402 513.126 831.195 513.81C831.484 513.826 831.499 513.598 831.195 513.567Z" fill="#E6E6E6"/>
<path d="M824.672 500.766C823.033 500.594 821.375 500.765 819.805 501.268C818.235 501.77 816.786 502.593 815.55 503.685C813.324 505.626 811.926 508.347 811.643 511.287C811.643 511.378 811.81 511.393 811.826 511.287C812.542 508.397 814.18 505.82 816.493 503.946C818.806 502.072 821.667 501.004 824.642 500.903C824.654 500.897 824.664 500.888 824.673 500.877C824.681 500.867 824.686 500.854 824.689 500.841C824.692 500.828 824.692 500.815 824.689 500.802C824.686 500.789 824.681 500.776 824.672 500.766V500.766Z" fill="#E6E6E6"/>
<path d="M799.997 485.623C794.098 485.091 787.089 486.657 783.06 491.203C782.893 491.385 783.152 491.598 783.334 491.522C788.709 489.213 794.315 487.485 800.058 486.368C800.143 486.345 800.218 486.292 800.269 486.22C800.32 486.147 800.344 486.059 800.337 485.97C800.33 485.882 800.292 485.799 800.23 485.735C800.168 485.672 800.085 485.632 799.997 485.623Z" fill="#E6E6E6"/>
<path d="M804.345 487.752C798.446 487.219 791.438 488.785 787.409 493.331C787.241 493.514 787.5 493.727 787.682 493.651C793.055 491.335 798.662 489.607 804.406 488.497C804.492 488.473 804.567 488.421 804.618 488.348C804.669 488.276 804.693 488.187 804.686 488.099C804.678 488.01 804.64 487.927 804.578 487.864C804.516 487.8 804.434 487.761 804.345 487.752Z" fill="#E6E6E6"/>
<path d="M808.77 489.88C802.871 489.348 795.862 490.914 791.833 495.46C791.666 495.627 791.924 495.855 792.107 495.779C797.481 493.465 803.088 491.732 808.831 490.61C808.927 490.602 809.017 490.556 809.08 490.482C809.142 490.408 809.173 490.312 809.165 490.215C809.157 490.118 809.111 490.028 809.037 489.966C808.962 489.903 808.866 489.872 808.77 489.88Z" fill="#E6E6E6"/>
<path d="M813.194 492.009C807.295 491.477 800.286 493.027 796.257 497.588C796.09 497.756 796.349 497.984 796.531 497.908C801.905 495.594 807.512 493.861 813.255 492.738C813.352 492.73 813.441 492.684 813.504 492.61C813.567 492.536 813.597 492.44 813.589 492.343C813.581 492.246 813.535 492.157 813.461 492.094C813.387 492.031 813.291 492.001 813.194 492.009V492.009Z" fill="#E6E6E6"/>
<path d="M736.538 474.844L800.271 480.682C800.271 480.682 817.861 309.871 811.658 291.596C803.464 267.392 697.009 233.26 699.7 229.824C699.7 229.824 704.778 209.33 710.114 197.486H631.892C621.356 228.547 627.331 250.531 630.965 256.78C648.054 285.925 752.76 316.241 751.696 323.934C749.993 335.945 736.538 474.844 736.538 474.844Z" fill="#FDFDFD"/>
<path d="M795.908 466.421C794.387 465.935 756.926 462.286 742.406 462.24C742.254 462.24 741.92 462.636 742.406 462.772C746.435 463.776 794.935 466.984 795.847 466.847C796.044 466.847 796.06 466.467 795.908 466.421Z" fill="#E6E6E6"/>
<path d="M708.533 228.791C707.515 228.791 706.511 228.791 705.493 228.791C704.474 228.791 703.471 228.973 702.452 229.095C700.491 229.338 698.56 229.748 696.629 230.174C692.739 230.987 688.943 232.2 685.302 233.792C685.181 233.792 685.302 234.036 685.394 234.005C689.286 233.215 693.117 232.211 696.994 231.406C698.879 231.025 700.764 230.721 702.65 230.341C703.638 230.144 704.641 229.931 705.69 229.764C706.739 229.596 707.652 229.277 708.64 229.095C708.777 229.125 708.777 228.775 708.533 228.791Z" fill="#E6E6E6"/>
<path d="M708.655 197.562C708.655 197.471 708.533 197.471 708.518 197.562C708 204.463 706.983 211.318 705.477 218.072C705.215 219.636 704.537 221.101 703.516 222.314C702.908 222.937 702.117 223.454 701.312 222.876C700.983 222.587 700.727 222.224 700.566 221.817C700.405 221.41 700.342 220.971 700.384 220.535C700.519 218.614 700.752 216.701 701.084 214.803C701.296 212.994 701.448 211.185 701.601 209.376C701.965 205.012 701.95 202.169 702.102 197.806C702.102 197.654 701.874 197.654 701.874 197.806C701.616 202.367 700.916 205.316 700.354 209.801C700.065 211.975 699.746 214.134 699.442 216.308C699.168 218.178 698.499 220.383 699.107 222.253C699.287 222.844 699.624 223.375 700.082 223.79C700.54 224.205 701.101 224.488 701.707 224.609L701.57 224.944L700.901 226.571C700.475 227.635 700.08 228.73 699.609 229.779C699.609 229.931 699.73 230.083 699.837 229.946C700.643 229.063 701.269 228.03 701.677 226.905C701.978 226.156 702.217 225.383 702.391 224.594C703.15 224.387 703.85 224.003 704.434 223.475C705.018 222.947 705.469 222.288 705.751 221.554C706.446 219.96 706.912 218.276 707.135 216.552C707.53 214.347 707.849 212.127 708.123 209.908C708.674 205.817 708.852 201.685 708.655 197.562V197.562Z" fill="#E6E6E6"/>
<path d="M672.76 203.477C672.76 203.233 672.334 203.264 672.273 203.477C671.878 205.255 671.741 207.095 671.483 208.904C671.224 210.714 670.935 212.447 670.54 214.18C670.003 217.27 668.719 220.182 666.8 222.663C662.436 227.726 654.956 229.049 648.556 228.943C648.404 228.943 648.419 229.155 648.556 229.171C654.151 229.779 660.004 230.128 664.96 226.966C669.612 223.925 671.422 218.878 672.258 213.663C672.985 210.318 673.154 206.877 672.76 203.477Z" fill="#E6E6E6"/>
<path d="M717.26 237.791C714.314 236.167 711.267 234.735 708.138 233.504C705.097 232.272 701.919 231.345 698.848 230.159C698.727 230.159 698.636 230.326 698.757 230.372C701.798 231.74 704.839 233.336 707.879 234.644C710.902 235.954 714.004 237.072 717.169 237.989C717.305 238.019 717.366 237.837 717.26 237.791Z" fill="#E6E6E6"/>
<path d="M731.718 300.368C728.678 298.574 678.841 277.153 675.754 275.48C672.668 273.808 669.521 271.984 666.45 270.144C660.553 266.692 654.886 262.863 649.483 258.681C644.246 254.809 640.141 249.607 637.594 243.614C635.471 237.502 634.527 231.043 634.811 224.579C634.853 216.259 635.606 207.958 637.061 199.767C637.053 199.744 637.037 199.724 637.017 199.709C636.996 199.695 636.972 199.688 636.947 199.688C636.923 199.688 636.898 199.695 636.878 199.709C636.858 199.724 636.842 199.744 636.833 199.767C635.371 207.19 634.356 214.693 633.793 222.238C633.204 228.877 633.791 235.567 635.526 242.002C637.484 248.186 641.146 253.693 646.092 257.89C651.408 262.339 657.124 266.289 663.166 269.688C666.678 271.816 670.266 273.793 673.915 275.678C677.564 277.563 727.826 299.456 731.688 300.718C731.794 300.794 731.901 300.475 731.718 300.368Z" fill="#E6E6E6"/>
<path d="M763.813 316.332C762.931 314.569 722.657 295.808 719.358 294.971C719.206 294.971 719.039 295.519 719.176 295.579C721.38 296.492 761.943 315.998 762.521 316.864C763.737 318.689 751.042 452.404 751.057 453.696C751.057 453.781 751.091 453.862 751.151 453.922C751.211 453.982 751.292 454.015 751.377 454.015C751.461 454.015 751.543 453.982 751.602 453.922C751.662 453.862 751.696 453.781 751.696 453.696C752.426 451.37 764.847 318.385 763.813 316.332Z" fill="#E6E6E6"/>
<path d="M624.366 222.755C624.594 222.983 715.207 217.738 715.998 216.764C717.108 215.396 692.265 126.973 682.413 115.16C680.3 112.621 673.671 112.119 668.076 113.107C666.62 113.333 665.185 113.684 663.789 114.156H663.652C662.526 114.54 661.473 115.111 660.535 115.844C645.423 128.964 634.826 167.444 632.287 180.656C628.091 202.473 623.637 221.934 624.366 222.755Z" fill="#ECEFF1"/>
<path d="M707.439 183.621C706.81 183.676 706.189 183.793 705.584 183.971C704.083 184.43 702.692 185.191 701.494 186.205C699.889 187.642 698.524 189.325 697.45 191.192C697.328 191.375 697.222 191.557 697.115 191.755C696.659 192.515 696.249 193.275 695.838 194.111L695.641 194.522C695.566 194.659 695.5 194.801 695.443 194.947C694.105 197.669 692.934 200.482 691.657 203.279C690.377 206.465 688.499 209.375 686.123 211.854C684.846 213.093 683.182 213.855 681.41 214.013C679.685 214.063 677.964 213.827 676.317 213.313C673.129 212.118 670.194 210.333 667.666 208.053L666.374 206.943C665.979 206.624 665.599 206.289 665.218 205.955C663.698 204.617 662.178 203.294 660.551 202.078L659.928 201.622L659.259 201.135C656.876 199.308 654.075 198.106 651.11 197.638C650.316 197.568 649.519 197.542 648.723 197.562C647.917 197.654 647.126 197.806 646.336 197.943C644.79 198.37 643.311 199.009 641.942 199.843C641.501 200.117 641.075 200.39 640.65 200.71C638.832 202.082 637.096 203.559 635.45 205.134L634.553 205.94L634.264 206.198C631.852 208.387 629.093 210.159 626.1 211.443C626.1 211.124 626.221 210.805 626.298 210.47C628.912 209.105 631.322 207.38 633.458 205.347V205.347L634.264 204.602C635.997 203.005 637.685 201.303 639.616 199.843C640.015 199.527 640.431 199.233 640.862 198.961L641.197 198.733C644.164 196.788 647.727 195.964 651.246 196.407C654.464 197.021 657.466 198.462 659.958 200.588L660.429 200.953C660.673 201.15 660.916 201.348 661.159 201.576C662.679 202.868 664.2 204.237 665.644 205.59L666.754 206.593C667.164 206.958 667.575 207.323 668.001 207.673C670.432 209.964 673.317 211.72 676.469 212.827C678.043 213.31 679.693 213.495 681.334 213.374C682.94 213.177 684.428 212.43 685.546 211.261C687.709 208.762 689.403 205.893 690.548 202.792C691.718 200.041 692.813 197.213 694.09 194.461C694.147 194.315 694.213 194.173 694.288 194.035C694.288 193.853 694.44 193.686 694.531 193.503C695.033 192.485 695.565 191.466 696.158 190.462C696.25 190.285 696.351 190.112 696.462 189.946C697.531 188.11 698.874 186.449 700.445 185.02C701.792 183.821 703.393 182.943 705.128 182.45C705.727 182.286 706.337 182.159 706.952 182.07C707.134 182.541 707.256 183.104 707.439 183.621ZM712.638 202.078C712.197 202.078 711.756 202.078 711.331 202.078C710.545 201.942 709.768 201.759 709.005 201.531C707.076 200.866 705.294 199.834 703.759 198.49C703.303 198.095 702.862 197.669 702.437 197.243C702.011 196.817 701.585 196.361 701.175 195.905C699.867 194.385 698.651 192.865 697.45 191.344C697.131 190.919 696.811 190.493 696.477 190.082C695.96 189.398 695.428 188.699 694.956 188.03C692.935 185.242 690.402 182.863 687.492 181.021C685.991 180.174 684.356 179.592 682.657 179.303C680.894 179.103 679.115 179.504 677.609 180.443C674.78 182.398 672.349 184.875 670.448 187.741C668.426 190.447 666.556 193.245 664.489 195.844C663.128 197.581 661.601 199.18 659.928 200.618C659.7 200.816 659.456 200.998 659.213 201.181C658.609 201.652 657.969 202.074 657.297 202.443C655.921 203.195 654.405 203.656 652.843 203.796C651.256 203.887 649.665 203.697 648.145 203.233C645.871 202.52 643.751 201.386 641.896 199.889C641.531 199.6 641.182 199.296 640.832 198.992L639.965 198.186C637.655 195.815 635.615 193.194 633.884 190.371C632.987 188.972 632.105 187.559 631.223 186.129C631.117 186.631 631.026 187.148 630.919 187.65C631.558 188.775 632.196 189.9 632.881 191.01C634.6 193.966 636.64 196.724 638.962 199.235C639.174 199.459 639.397 199.672 639.631 199.873C639.947 200.192 640.282 200.492 640.634 200.77C642.715 202.554 645.136 203.899 647.75 204.723C649.447 205.267 651.23 205.494 653.01 205.392C654.804 205.265 656.547 204.746 658.118 203.872C658.977 203.376 659.791 202.807 660.551 202.169C660.769 202.01 660.977 201.837 661.174 201.652C662.807 200.171 664.293 198.537 665.614 196.772C667.697 194.081 669.506 191.223 671.421 188.486C673.164 185.676 675.405 183.208 678.035 181.203C679.373 180.293 680.983 179.869 682.596 180.002C684.223 180.215 685.796 180.731 687.233 181.523C690.104 183.236 692.577 185.543 694.485 188.288C695.063 189.018 695.61 189.809 696.173 190.523L697.115 191.831C698.21 193.351 699.32 194.871 700.521 196.392L700.643 196.529L701.54 197.578C703.437 199.84 705.859 201.604 708.594 202.716C710.006 203.218 711.49 203.49 712.988 203.522C712.866 202.99 712.76 202.534 712.638 202.078V202.078ZM711.787 199.037C708.587 198.957 705.425 198.33 702.437 197.182L700.643 196.529C698.97 195.905 697.313 195.236 695.641 194.598L694.303 194.096C690.035 192.29 685.384 191.579 680.772 192.028C677.781 192.491 675.071 194.053 673.17 196.407C671.209 198.657 669.703 201.15 667.894 203.325C667.229 204.154 666.503 204.931 665.72 205.651L665.279 206.031C664.128 207.024 662.83 207.834 661.433 208.433C658.846 209.499 656.066 210.016 653.269 209.953C647.557 209.886 641.938 208.502 636.849 205.909L635.496 205.271L634.34 204.708C632.577 203.857 630.798 203.005 628.958 202.245C628.68 202.123 628.396 202.016 628.107 201.926L627.97 202.64L628.639 202.945C630.281 203.72 631.892 204.602 633.504 205.483L634.599 206.076L636.332 206.973C638.94 208.332 641.668 209.447 644.481 210.303C647.337 211.125 650.296 211.534 653.269 211.519C656.279 211.664 659.284 211.145 662.071 209.999C663.669 209.285 665.142 208.32 666.435 207.141L666.83 206.776C667.614 206.026 668.341 205.218 669.004 204.358C670.859 202.032 672.303 199.493 674.082 197.319C675.771 195.071 678.228 193.524 680.984 192.971C683.809 192.513 686.696 192.611 689.483 193.26C691.073 193.616 692.638 194.079 694.166 194.643L695.504 195.145L697.648 196.042C698.955 196.589 700.263 197.167 701.6 197.699L703.82 198.551C704.474 198.779 705.128 199.007 705.797 199.204C707.861 199.83 709.996 200.193 712.152 200.284C711.984 199.721 711.893 199.341 711.817 198.961L711.787 199.037Z" fill="white"/>
<path d="M657.237 117.866C624.367 126.684 599.828 141.492 591.512 147.756C586.084 151.861 556.787 180.367 550.356 188.456C547.209 192.424 574.94 216.476 578.756 212.629C583.956 207.429 615.169 168.858 615.609 168.372C617.343 166.486 652.478 136.566 659.882 130.849C672.288 121.286 671.832 113.958 657.237 117.866Z" fill="#F7F7F7"/>
<path d="M515.448 225.719C515.692 225.921 515.982 226.06 516.292 226.124C516.602 226.188 516.924 226.174 517.227 226.084C516.528 229.216 516.741 231.892 518.93 232.88C519.596 233.136 520.322 233.185 521.016 233.022C521.71 232.86 522.339 232.492 522.822 231.968C522.679 232.652 522.807 233.365 523.178 233.958C523.55 234.55 524.136 234.976 524.814 235.146C527.383 235.86 531.458 231.375 535.015 226.48C533.115 230.22 532.172 233.625 534.468 234.37C540.549 236.301 547.33 224.488 553.032 217.145C554.76 214.84 556.808 212.792 559.113 211.063C559.473 210.821 559.855 210.612 560.253 210.44C560.666 210.167 561.154 210.031 561.649 210.053C562.143 210.075 562.618 210.253 563.005 210.561C564.252 211.747 562.427 215.275 560.527 217.145C556.939 220.687 555.51 228.319 557.699 230.6C560.907 233.944 568.083 224.731 571.382 222.147C575.791 218.68 580.261 209.315 580.732 208.783C580.732 208.783 579.82 206.989 577.357 202.793C572.674 194.811 564.875 182.922 559.204 181.219C547.403 185.133 536.195 190.647 525.893 197.608C520.739 201.166 510.173 222.071 515.448 225.719Z" fill="#F7F7F7"/>
<path d="M547.619 208.676C544.555 210.482 541.953 212.975 540.017 215.959C537.25 220.003 536.612 222.724 534.635 226.981C534.635 227.003 534.641 227.023 534.653 227.041C534.664 227.059 534.681 227.073 534.701 227.081C534.72 227.089 534.742 227.091 534.763 227.087C534.784 227.083 534.803 227.073 534.818 227.057C535.76 225.035 539.196 218.437 540.321 216.582C542.094 213.389 544.64 210.691 547.726 208.737C547.726 208.737 547.619 208.661 547.619 208.676Z" fill="#E6E6E6"/>
<path d="M541.234 203.249C538.05 205.548 535.147 208.211 532.583 211.185C529.42 214.849 527.657 219.455 525.893 223.91C524.829 226.586 523.826 229.277 522.853 232.014C522.853 232.12 522.989 232.211 523.035 232.09C524.799 227.518 526.699 222.998 528.736 218.528C530.601 214.378 533.267 210.637 536.581 207.521C538.482 205.757 539.227 204.921 541.249 203.309L541.234 203.249Z" fill="#E6E6E6"/>
<path d="M535.32 198.338C531.823 200.679 528.676 202.671 526.197 206.092C523.59 209.918 521.504 214.075 519.994 218.452C519.052 220.93 518.2 223.439 517.379 225.963C517.379 226.054 517.516 226.13 517.547 225.963C519.504 220.376 521.82 214.922 524.479 209.634C525.582 207.365 527.074 205.306 528.888 203.553C530.902 201.624 533.079 199.874 535.396 198.323C535.396 198.323 535.335 198.338 535.32 198.338Z" fill="#E6E6E6"/>
<path d="M534.407 234.37C533.912 234.144 533.517 233.744 533.297 233.245C533.123 232.758 533.076 232.235 533.161 231.725C533.333 230.676 533.64 229.654 534.073 228.684C534.27 228.182 534.483 227.681 534.635 227.164C534.635 227.164 534.635 227.072 534.635 227.042C534.635 227.012 534.635 227.042 534.635 226.936C534.635 226.829 534.514 226.784 534.453 226.799C534.392 226.814 534.316 226.89 534.27 226.92H534.194L533.951 227.255L533.495 227.939C532.902 228.836 532.279 229.733 531.625 230.584C530.43 232.35 528.816 233.791 526.927 234.781C526.468 234.981 525.968 235.069 525.468 235.037C524.969 235.006 524.484 234.855 524.054 234.598C523.631 234.374 523.305 234.003 523.137 233.555C522.969 233.107 522.971 232.613 523.142 232.166L523.537 231.025L522.64 231.846C521.976 232.483 521.097 232.847 520.177 232.865C519.732 232.891 519.289 232.791 518.899 232.576C518.508 232.361 518.187 232.039 517.972 231.649C517.546 230.804 517.317 229.873 517.303 228.927C517.238 227.975 517.336 227.019 517.592 226.099L517.79 225.43L517.136 225.719C516.852 225.801 516.553 225.811 516.264 225.75C515.975 225.689 515.706 225.559 515.479 225.37C515.224 225.193 515.007 224.968 514.84 224.707C514.673 224.446 514.559 224.154 514.506 223.849C514.245 222.501 514.219 221.117 514.43 219.76C514.858 217.044 515.64 214.396 516.756 211.884C518.929 206.633 522.018 201.809 525.878 197.638C521.826 201.613 518.57 206.324 516.285 211.519C515.122 214.118 514.324 216.866 513.913 219.684C513.662 221.112 513.662 222.573 513.913 224.001C513.998 224.374 514.136 224.733 514.324 225.066C514.518 225.416 514.794 225.713 515.129 225.932C515.447 226.194 515.826 226.369 516.231 226.441C516.636 226.513 517.052 226.479 517.44 226.343L516.984 225.947C516.707 226.936 516.599 227.964 516.665 228.988C516.683 230.048 516.948 231.09 517.44 232.029C517.704 232.524 518.113 232.927 518.611 233.184C519.087 233.409 519.605 233.534 520.131 233.549C521.213 233.51 522.242 233.071 523.02 232.318L522.533 232.014C522.321 232.593 522.321 233.229 522.533 233.808C522.75 234.38 523.165 234.855 523.704 235.145C524.213 235.448 524.786 235.625 525.376 235.662C525.96 235.68 526.541 235.571 527.079 235.343C529.023 234.271 530.677 232.742 531.899 230.889C532.537 230.007 533.145 229.094 533.723 228.182L534.164 227.498C534.27 227.27 534.605 226.996 534.27 227.072C534.149 227.574 533.936 228.091 533.769 228.593C533.357 229.606 533.081 230.669 532.948 231.755C532.871 232.302 532.945 232.859 533.161 233.367C533.431 233.85 533.878 234.209 534.407 234.37V234.37Z" fill="#E6E6E6"/>
<path d="M611.748 130.849L642.322 149.808C651.677 142.96 660.436 135.331 668.502 127.003C679.327 115.235 665.918 112.088 645.363 118.717C624.807 125.346 611.748 130.849 611.748 130.849Z" fill="#ECEFF1"/>
<path d="M620.429 128.204C627.209 132.02 633.717 136.308 640.193 140.732C642.002 141.978 643.796 143.271 645.545 144.609C642.2 142.632 638.947 140.519 635.678 138.421C632.409 136.323 629.125 134.194 625.902 132.005C624.077 130.758 622.268 129.527 620.474 128.25C620.292 128.265 620.353 128.143 620.429 128.204Z" fill="#E6E6E6"/>
<path d="M657.54 139.424C657.647 139.424 657.616 139.242 657.54 139.303C656.02 140.154 654.606 141.066 653.162 141.994C655.807 139.698 658.361 137.296 660.885 134.848C660.991 134.742 660.885 134.559 660.718 134.666C657.358 137.311 653.998 139.956 650.714 142.723C649.102 144.076 642.595 149.611 642.382 149.656C641.776 149.35 641.187 149.01 640.619 148.638C640.482 148.638 640.36 148.759 640.482 148.835C640.984 149.109 642.261 150.188 642.58 150.249C645.211 148.533 647.725 146.644 650.106 144.593L651.854 143.073C653.785 141.963 655.655 140.701 657.54 139.424Z" fill="#E6E6E6"/>
<path d="M679.054 129.451C674.264 130.272 666.161 124.175 661.874 118.808C661.401 115.487 661.107 112.142 660.992 108.789C660.718 105.581 660.323 102.008 659.745 98.7701L680.908 100.032C680.487 104.28 680.584 108.563 681.197 112.788C681.278 113.236 681.406 113.674 681.577 114.095C681.577 114.095 681.577 114.232 681.577 114.308C682.52 116.817 685.804 128.28 679.054 129.451Z" fill="#F7F7F7"/>
<path d="M680.908 100.078C680.908 100.078 680.817 100.99 680.741 102.419C677.427 108.804 671.254 116.877 661.493 115.935C661.372 114.126 661.205 111.617 660.992 108.85C660.703 105.642 660.338 102.069 659.73 98.8309L680.908 100.078Z" fill="#E6E6E6"/>
<path d="M679.889 70.8868C683.432 77.6524 683.553 99.1045 679.312 104.699C673.23 112.788 661.174 115.707 653.8 107.892C646.426 100.078 647.004 72.3464 651.915 67.0708C659.167 59.3018 674.675 60.9133 679.889 70.8868Z" fill="#F7F7F7"/>
<path d="M661.296 87.0635C661.296 87.0635 661.402 87.0635 661.402 87.1851C661.402 88.7055 661.585 90.2258 662.923 90.7579C662.923 90.7579 662.923 90.8492 662.923 90.8339C661.281 90.6211 661.022 88.4166 661.296 87.0635Z" fill="#E6E6E6"/>
<path d="M662.573 85.5278C664.884 85.3302 665.112 89.9977 662.968 90.1801C660.825 90.3625 660.627 85.6951 662.573 85.5278Z" fill="#E6E6E6"/>
<path d="M653.374 87.778C653.374 87.778 653.253 87.778 653.268 87.9148C653.42 89.3439 653.344 90.9555 652.067 91.594C652.067 91.594 652.067 91.6853 652.067 91.594C653.663 91.3204 653.739 89.1159 653.374 87.778Z" fill="#E6E6E6"/>
<path d="M651.976 86.364C649.65 86.364 649.787 91.0163 651.976 91.0315C654.165 91.0467 653.922 86.3792 651.976 86.364Z" fill="#E6E6E6"/>
<path d="M664.306 83.3082C663.681 83.165 663.067 82.9822 662.466 82.7609C661.793 82.6627 661.172 82.3415 660.702 81.8487C660.583 81.6664 660.527 81.4498 660.544 81.2326C660.56 81.0154 660.648 80.8097 660.794 80.6476C661.132 80.3733 661.537 80.1948 661.968 80.1306C662.398 80.0664 662.838 80.1189 663.241 80.2827C664.123 80.4987 664.89 81.0423 665.385 81.803C665.469 81.9736 665.506 82.1639 665.49 82.3536C665.475 82.5433 665.408 82.7252 665.297 82.8798C665.186 83.0345 665.036 83.156 664.861 83.2315C664.686 83.3069 664.494 83.3335 664.306 83.3082V83.3082Z" fill="#E6E6E6"/>
<path d="M650.015 84.1443C650.628 83.9737 651.232 83.7707 651.824 83.5362C652.495 83.4152 653.105 83.0725 653.557 82.5632C653.668 82.3753 653.715 82.1564 653.69 81.9397C653.665 81.723 653.571 81.5202 653.42 81.3621C653.072 81.1004 652.661 80.9358 652.228 80.8851C651.795 80.8343 651.357 80.8992 650.958 81.0732C650.093 81.301 649.345 81.8431 648.859 82.5936C648.755 82.7715 648.705 82.9764 648.716 83.1826C648.727 83.3888 648.799 83.5871 648.922 83.7527C649.046 83.9182 649.215 84.0437 649.409 84.1134C649.604 84.1831 649.814 84.1938 650.015 84.1443V84.1443Z" fill="#E6E6E6"/>
<path d="M657.966 98.1164C658.614 98.877 659.446 99.4581 660.383 99.804C660.908 99.9716 661.471 99.9716 661.995 99.804C663.12 99.4391 663.105 98.3901 662.846 97.4931C662.705 97.0169 662.511 96.558 662.269 96.1248C661.083 97.2304 659.576 97.9282 657.966 98.1164V98.1164Z" fill="#E6E6E6"/>
<path d="M660.384 99.804C660.908 99.9716 661.471 99.9716 661.995 99.804C663.12 99.4391 663.105 98.39 662.847 97.493C662.235 97.5419 661.658 97.7972 661.21 98.2171C660.763 98.637 660.471 99.1966 660.384 99.804V99.804Z" fill="#F7F7F7"/>
<path d="M647.309 76.9379C655.594 81.2557 665.112 72.0424 665.112 72.0424C665.97 73.6401 667.322 74.9169 668.967 75.6816C670.611 76.4463 672.459 76.6577 674.234 76.2842C674.234 76.2842 677.275 89.0703 680.726 88.6294C685.925 87.9605 685.393 70.0812 683.326 66.8124C681.258 63.5436 676.742 63.1788 676.742 63.1788C675.997 61.1341 674.503 59.4492 672.562 58.4657C668.685 56.17 656.856 61.3239 656.856 61.3239C655.95 59.7708 654.696 58.4489 653.192 57.4623C652.83 57.22 652.422 57.0536 651.993 56.9729C651.564 56.8922 651.124 56.8989 650.698 56.9926C650.272 57.0863 649.869 57.2651 649.514 57.5182C649.159 57.7713 648.859 58.0936 648.631 58.4657C649.4 59.3428 649.962 60.3822 650.273 61.5064C651.337 65.216 648.236 65.5961 647.856 62.1449C647.661 60.8651 647.936 59.5579 648.631 58.4657C646.822 56.398 644.237 55.9723 642.869 57.3558C640.361 59.8796 640.361 73.3499 647.309 76.9379Z" fill="#E7E8E9"/>
<path d="M677.883 89.0095C677.883 89.0095 681.471 81.499 684.8 82.6697C688.13 83.8403 686.229 94.1787 682.869 96.1096C682.455 96.3879 681.989 96.5796 681.499 96.673C681.01 96.7664 680.506 96.7596 680.018 96.6531C679.531 96.5465 679.07 96.3424 678.664 96.0531C678.258 95.7637 677.914 95.395 677.655 94.9693L677.883 89.0095Z" fill="#F7F7F7"/>
<path d="M857.451 112.195L851.689 38.2754C851.796 39.536 852.098 40.7722 852.586 41.9394C853.145 43.2395 853.91 44.4408 854.851 45.4971C861.997 53.7221 880.94 58.2224 911.317 58.9217L917.064 132.841C886.657 132.142 867.729 127.626 860.583 119.416C859.658 118.351 858.899 117.152 858.333 115.859C857.838 114.695 857.54 113.457 857.451 112.195Z" fill="#ECEFF1"/>
<g opacity="0.1">
<path d="M857.451 112.195L851.689 38.2754C851.796 39.536 852.098 40.7722 852.586 41.9394C853.145 43.2395 853.91 44.4408 854.851 45.4971C861.997 53.7221 880.94 58.2224 911.317 58.9217L917.064 132.841C886.657 132.142 867.729 127.626 860.583 119.416C859.658 118.351 858.899 117.152 858.333 115.859C857.838 114.695 857.54 113.457 857.451 112.195Z" fill="#FAFBFB"/>
</g>
<path d="M858.181 101.568C858.269 103.38 858.146 105.196 857.816 106.98C857.498 108.699 857.375 110.448 857.451 112.195L851.689 38.2754C851.621 36.5341 851.743 34.7905 852.054 33.0758C852.381 31.2913 852.508 29.476 852.434 27.6633L858.181 101.568Z" fill="#ECEFF1"/>
<g opacity="0.4">
<path d="M858.181 101.568C858.269 103.38 858.146 105.196 857.816 106.98C857.498 108.699 857.375 110.448 857.451 112.195L851.689 38.2754C851.621 36.5341 851.743 34.7905 852.054 33.0758C852.381 31.2913 852.508 29.476 852.434 27.6633L858.181 101.568Z" fill="#D3D3D3"/>
</g>
<path d="M852.449 27.6634L858.181 101.568C858.074 100.121 857.708 98.7047 857.102 97.3866C856.52 96.1347 855.763 94.9725 854.852 93.9354C847.432 85.3911 828.215 81.3317 796.409 81.575L790.662 7.70117C822.468 7.44271 841.685 11.502 849.105 20.0464C850.019 21.0864 850.777 22.2541 851.355 23.5128C851.963 24.8205 852.333 26.2259 852.449 27.6634Z" fill="#FDFDFD"/>
<path d="M761.335 41.6962C760.732 47.4803 758.533 52.9829 754.984 57.59C751.435 62.1971 746.675 65.7273 741.237 67.7867C735.798 69.8462 729.894 70.3537 724.184 69.2528C718.473 68.1518 713.181 65.4857 708.898 61.5519L693.193 63.8477L701.053 50.2709C699.246 45.8503 698.471 41.0756 698.788 36.3104C699.105 31.5451 700.504 26.9149 702.88 22.7722C705.256 18.6294 708.546 15.0833 712.499 12.4038C716.452 9.72425 720.965 7.9819 725.693 7.30934C730.421 6.63679 735.24 7.05176 739.784 8.52269C744.327 9.99361 748.476 12.4817 751.912 15.7976C755.349 19.1135 757.985 23.1698 759.617 27.6577C761.25 32.1457 761.838 36.9469 761.335 41.6962V41.6962Z" fill="white"/>
<path d="M761.335 41.6962C760.728 47.4775 758.539 52.9798 755.01 57.599C754.128 58.7631 753.174 59.8701 752.152 60.9134C751.112 61.9147 750.01 62.8491 748.853 63.7108C746.531 65.4716 743.972 66.8946 741.251 67.9374C738.539 68.9908 735.694 69.6661 732.798 69.9443C731.382 70.0687 729.96 70.0991 728.541 70.0355C727.082 69.9897 725.629 69.8373 724.193 69.5794C718.415 68.5307 713.041 65.8992 708.67 61.9776L709.035 62.0841L693.269 64.395L692.128 64.5774L692.706 63.574L700.521 49.8909V50.4382C698.675 45.937 697.89 41.0717 698.224 36.2184C698.559 31.3651 700.006 26.6537 702.452 22.4485C704.901 18.2656 708.264 14.69 712.288 11.9885C717.293 8.66363 723.139 6.82935 729.145 6.69943C735.152 6.56952 741.072 8.14932 746.215 11.2547C751.359 14.3602 755.513 18.8633 758.196 24.2395C760.878 29.6156 761.977 35.6433 761.365 41.6202L761.335 41.6962ZM761.335 41.6962C761.848 36.9658 761.266 32.1807 759.634 27.7111C758.002 23.2416 755.364 19.2075 751.923 15.921C748.482 12.6345 744.331 10.1838 739.792 8.75841C735.252 7.33305 730.445 6.97129 725.743 7.70114C721.087 8.39117 716.651 10.1387 712.775 12.8095C708.943 15.5053 705.742 19.0017 703.394 23.0567C701.072 27.125 699.71 31.6698 699.411 36.3445C699.107 41.0133 699.861 45.6905 701.615 50.0277L701.722 50.3166L701.585 50.5598L693.679 64.1213L693.117 63.2851L708.776 61.0958H708.989L709.141 61.2479C713.339 65.171 718.545 67.8503 724.177 68.9865C725.58 69.2727 727.004 69.4456 728.434 69.5034C732.746 69.8154 737.073 69.1824 741.114 67.6485C743.833 66.6684 746.394 65.2957 748.716 63.574C749.875 62.719 750.982 61.795 752.03 60.807C753.046 59.789 753.995 58.7074 754.873 57.5686C758.452 52.9762 760.688 47.4822 761.335 41.6962V41.6962Z" fill="#E6E6E6"/>
<path d="M726.443 56.3371L713.033 42.7603L717.534 38.3057L725.379 46.2419L741.646 20.7305L746.983 24.1361L726.443 56.3371Z" fill="#ECEFF1"/>
</svg>
