<svg width="492" height="507" viewBox="0 0 492 507" fill="none" xmlns="http://www.w3.org/2000/svg">
<path d="M441.625 166.551C480.144 66.2871 388.168 -26.401 269.62 6.90634C217.046 21.6732 196.754 72.4103 184.265 127.69C176.775 141.845 161.325 167.234 139.723 183.326C138.203 184.455 136.957 185.913 136.08 187.592C135.203 189.27 134.717 191.125 134.658 193.017C134.6 194.91 134.969 196.792 135.74 198.521C136.511 200.251 137.663 201.784 139.11 203.005C148.523 210.923 160.257 213.956 167.277 215.095C165.355 223.995 163.276 232.525 160.898 240.514C145.476 292.49 189.933 319.232 240.072 324.287C243.252 340.876 244.181 357.817 242.834 374.654C241.111 396.84 261.346 414.398 283.176 409.998L381.432 390.162C389.557 388.53 396.796 383.963 401.768 377.334C406.74 370.704 409.097 362.476 408.389 354.22C404.912 311.635 404.836 268.842 408.161 226.245C419.539 212.802 430.617 195.159 441.625 166.551Z" fill="#E1E1E1"/>
<path opacity="0.6" d="M441.625 166.551C480.144 66.2871 388.168 -26.401 269.62 6.90634C217.046 21.6732 196.754 72.4103 184.265 127.69C176.775 141.845 161.325 167.234 139.723 183.326C138.203 184.455 136.957 185.913 136.08 187.592C135.203 189.27 134.717 191.125 134.658 193.017C134.6 194.91 134.969 196.792 135.74 198.521C136.511 200.251 137.663 201.784 139.11 203.005C148.523 210.923 160.257 213.956 167.277 215.095C165.355 223.995 163.276 232.525 160.898 240.514C145.476 292.49 189.933 319.232 240.072 324.287C243.252 340.876 244.181 357.817 242.834 374.654C241.111 396.84 261.346 414.398 283.176 409.998L381.432 390.162C389.557 388.53 396.796 383.963 401.768 377.334C406.74 370.704 409.097 362.476 408.389 354.22C404.912 311.635 404.836 268.842 408.161 226.245C419.539 212.802 430.617 195.159 441.625 166.551Z" fill="#F6F6F6"/>
<path d="M451.18 495.025H208.502C206.289 495.026 204.108 494.508 202.132 493.512C200.156 492.517 198.441 491.073 197.124 489.295C195.807 487.517 194.925 485.455 194.55 483.275C194.174 481.095 194.314 478.857 194.96 476.741L222.813 385.605C223.468 383.483 224.609 381.543 226.147 379.941C227.685 378.339 229.577 377.118 231.67 376.377L410.582 313.721C412.46 313.054 414.457 312.791 416.444 312.95C418.431 313.109 420.361 313.686 422.109 314.643C423.857 315.601 425.383 316.917 426.587 318.505C427.79 320.094 428.645 321.919 429.094 323.86L465.021 477.652C465.507 479.734 465.515 481.898 465.046 483.983C464.576 486.068 463.64 488.019 462.308 489.691C460.976 491.362 459.283 492.711 457.356 493.635C455.429 494.558 453.317 495.034 451.18 495.025V495.025Z" fill="#EFEFEF"/>
<path d="M295.395 34.888C292.538 32.3244 289.044 30.5778 285.279 29.8319C281.514 29.0859 277.618 29.3682 274 30.6491C270.382 31.9299 267.176 34.1619 264.719 37.1105C262.261 40.059 260.644 43.6152 260.037 47.4049C255.953 45.7953 251.413 45.7804 247.319 47.3632C243.225 48.9461 239.876 52.0108 237.937 55.9489L257.004 64.0515C255.372 65.3252 254.1 67.0032 253.315 68.9193C252.531 70.8353 252.26 72.9231 252.53 74.9759C252.8 77.0288 253.601 78.9756 254.855 80.6236C256.108 82.2717 257.77 83.5638 259.676 84.3723C261.582 85.1807 263.667 85.4773 265.723 85.2329C267.779 84.9884 269.735 84.2113 271.399 82.9784C273.062 81.7455 274.375 80.0996 275.207 78.2036C276.039 76.3076 276.361 74.2272 276.142 72.1683L297.089 81.0683L305.989 60.1212C303.619 60.3668 301.23 59.8938 299.133 58.7637C297.035 57.6336 295.326 55.8987 294.227 53.7844C293.996 53.3237 293.796 52.848 293.629 52.3604C293.473 51.9332 293.344 51.506 293.23 51.0646C293.009 50.1651 292.894 49.2426 292.889 48.3163C292.889 48.3163 292.889 48.3163 292.889 48.2166C292.899 46.6262 293.223 45.0534 293.843 43.5886C294.65 41.6851 295.94 40.0253 297.585 38.7732C299.23 37.5212 301.174 36.7204 303.224 36.4499C305.273 36.1795 307.358 36.4489 309.272 37.2314C311.185 38.0139 312.862 39.2824 314.135 40.9115L319.973 27.1699C315.588 25.8307 310.902 25.8396 306.522 27.1955C302.142 28.5513 298.271 31.1916 295.409 34.774L295.395 34.888Z" fill="#F6F6F6"/>
<path opacity="0.1" d="M284.786 124.785C286.814 125.649 289.044 125.925 291.222 125.583C294.18 125.12 296.854 123.557 298.707 121.206C300.56 118.855 301.456 115.89 301.215 112.906C300.973 109.922 299.612 107.14 297.405 105.117C295.198 103.095 292.308 101.982 289.314 102.001C288.944 101.98 288.573 101.98 288.203 102.001V102.001L297.089 81.0541L276.142 72.1541C276.36 74.1565 276.061 76.1813 275.273 78.0352C274.567 79.7085 273.487 81.1978 272.115 82.3887C270.744 83.5796 269.118 84.4405 267.362 84.9053C265.606 85.3701 263.767 85.4265 261.986 85.0701C260.205 84.7137 258.529 83.954 257.087 82.8493C255.646 81.7447 254.476 80.3244 253.669 78.6975C252.861 77.0705 252.437 75.2802 252.429 73.4639C252.421 71.6476 252.829 69.8536 253.622 68.2195C254.415 66.5854 255.572 65.1547 257.003 64.0372L237.936 55.9347C236.327 59.1694 235.76 62.8234 236.313 66.3937C236.867 69.964 238.513 73.2749 241.026 75.8707C237.698 76.7208 234.624 78.3609 232.065 80.6521C229.506 82.9432 227.537 85.8178 226.325 89.032C225.113 92.2462 224.695 95.7052 225.105 99.1156C225.515 102.526 226.741 105.787 228.68 108.623V108.623L228.993 109.036C231.005 111.799 233.646 114.045 236.697 115.586C245.626 121.011 259.866 125.554 276.569 129.228L280.044 121.068C281.274 122.698 282.909 123.979 284.786 124.785V124.785Z" fill="#EDEDED"/>
<path d="M381.033 67.8251C382.905 68.6177 384.542 69.8768 385.789 71.4823C387.035 73.0878 387.849 74.986 388.153 76.9957C388.237 77.5521 388.284 78.1134 388.296 78.676V78.7899C388.289 81.2607 387.513 83.6679 386.075 85.6771C384.636 87.6862 382.608 89.1976 380.272 90.0009C377.935 90.8043 375.406 90.8598 373.037 90.1598C370.667 89.4599 368.575 88.0391 367.05 86.095L358.164 107.028L379.111 115.914C377.479 117.187 376.207 118.864 375.422 120.779C374.637 122.695 374.366 124.782 374.635 126.835C374.904 128.887 375.704 130.834 376.957 132.482C378.209 134.13 379.87 135.423 381.775 136.232C383.68 137.042 385.764 137.34 387.82 137.097C389.875 136.854 391.832 136.079 393.496 134.848C395.16 133.617 396.474 131.972 397.308 130.078C398.142 128.183 398.466 126.103 398.25 124.045L417.459 132.204C418.997 127.901 418.795 123.167 416.897 119.01C414.998 114.854 411.552 111.602 407.292 109.947C409.408 106.745 410.623 103.032 410.808 99.1988C410.993 95.3653 410.142 91.5527 408.343 88.162C406.545 84.7712 403.867 81.9276 400.59 79.9301C397.312 77.9326 393.558 76.8549 389.72 76.8105C389.955 73.3834 389.416 69.9472 388.141 66.7572C386.867 63.5672 384.89 60.7052 382.358 58.384C381.522 57.6269 380.632 56.9321 379.695 56.3049L375.181 66.9422C377.175 66.7334 379.19 67.0373 381.033 67.8251V67.8251Z" fill="#F6F6F6"/>
<path opacity="0.1" d="M309.407 37.4084C306.506 36.1798 303.236 36.1526 300.315 37.3327C297.394 38.5128 295.061 40.8037 293.828 43.7025C293.208 45.1672 292.884 46.74 292.874 48.3305C292.874 48.3305 292.874 48.3305 292.874 48.4301C292.88 49.3565 292.994 50.2789 293.216 51.1785C293.33 51.6199 293.458 52.0471 293.614 52.4743C293.782 52.9619 293.981 53.4376 294.213 53.8983C295.311 56.0126 297.02 57.7475 299.118 58.8776C301.216 60.0077 303.605 60.4807 305.975 60.2351V60.2351L297.075 81.1821L318.008 90.0822C317.901 89.1358 317.901 88.1805 318.008 87.2342C318.001 87.2013 318.001 87.1673 318.008 87.1345C318.008 87.1345 318.008 87.0063 318.008 86.9493C318.256 85.4016 318.809 83.9185 319.635 82.5861C320.461 81.2537 321.543 80.0983 322.818 79.1871C324.094 78.2758 325.537 77.6267 327.066 77.2775C328.594 76.9282 330.176 76.8856 331.721 77.1522C332.632 77.2987 333.521 77.5569 334.369 77.9212C335.812 78.5186 337.123 79.3943 338.227 80.4984C339.332 81.6025 340.208 82.9133 340.805 84.356C341.403 85.7986 341.711 87.3449 341.711 88.9065C341.711 90.468 341.403 92.0143 340.806 93.457C340.211 94.8578 339.351 96.1297 338.271 97.2022C337.928 97.5436 337.566 97.8668 337.189 98.1705L358.136 107.056L367.022 86.1234C368.547 88.0675 370.639 89.4883 373.009 90.1883C375.378 90.8883 377.907 90.8327 380.244 90.0293C382.58 89.226 384.608 87.7147 386.046 85.7055C387.484 83.6963 388.261 81.2891 388.268 78.8183V78.7044C388.256 78.1418 388.209 77.5806 388.125 77.0241C387.663 74.0117 386.056 71.2941 383.639 69.4372C381.222 67.5803 378.183 66.7273 375.153 67.0561V67.0561L379.667 56.4188C376.367 54.1777 372.537 52.8421 368.56 52.5455C367.647 48.7921 365.889 45.2971 363.419 42.3276C360.948 39.3581 357.832 36.9928 354.307 35.4126C350.783 33.8323 346.943 33.079 343.083 33.2102C339.223 33.3414 335.443 34.3536 332.034 36.1695C329.101 31.9768 324.85 28.8843 319.958 27.3834L314.12 41.125C312.893 39.503 311.27 38.2232 309.407 37.4084V37.4084Z" fill="#EDEDED"/>
<path opacity="0.1" d="M397.339 129.94C396.632 131.613 395.55 133.102 394.178 134.293C392.806 135.483 391.179 136.344 389.422 136.807C387.666 137.271 385.826 137.326 384.045 136.968C382.264 136.611 380.588 135.849 379.147 134.743C377.706 133.637 376.537 132.215 375.731 130.587C374.925 128.959 374.503 127.168 374.496 125.351C374.49 123.534 374.901 121.74 375.696 120.107C376.491 118.473 377.65 117.044 379.083 115.928L358.136 107.042L349.236 127.989C349.009 127.69 348.738 127.419 348.482 127.135C347.371 125.946 346.022 125.005 344.523 124.372C341.717 123.184 338.562 123.118 335.709 124.188C332.856 125.258 330.523 127.383 329.191 130.123C327.859 132.864 327.63 136.011 328.552 138.916C329.473 141.82 331.474 144.26 334.142 145.732C334.484 145.917 334.854 146.102 335.224 146.259C337.079 147.044 339.102 147.348 341.105 147.142L337.816 154.874C342.764 155.976 347.947 155.097 352.255 152.425C353.154 151.863 354.007 151.23 354.804 150.531C355.382 153.528 356.501 156.394 358.108 158.99C361.13 163.876 365.713 167.6 371.114 169.56C376.515 171.519 382.419 171.6 387.872 169.789C393.325 167.977 398.007 164.379 401.162 159.577C404.316 154.775 405.759 149.049 405.257 143.326C408.041 142.614 410.608 141.229 412.731 139.292C414.854 137.355 416.468 134.926 417.432 132.218L398.222 124.059C398.428 126.062 398.124 128.085 397.339 129.94V129.94Z" fill="#EDEDED"/>
<path d="M38.2912 342.657L38.5333 339.125C38.598 338.52 38.5093 337.908 38.2754 337.345C38.0415 336.783 37.6698 336.288 37.1947 335.907L32.9227 332.732C32.0178 332.104 30.9587 331.735 29.8596 331.665C28.7605 331.595 27.6631 331.826 26.6856 332.333L25.2616 332.96C24.4926 338.869 27.5542 345.177 27.5542 345.177L28.2378 347.114C28.3567 347.503 28.5647 347.859 28.8452 348.154C29.1257 348.449 29.471 348.675 29.8538 348.813C30.2366 348.951 30.6463 348.998 31.0505 348.95C31.4546 348.903 31.8421 348.762 32.1822 348.538L35.9416 346.459C36.6083 346.059 37.1695 345.505 37.5783 344.843C37.9871 344.182 38.2315 343.432 38.2912 342.657Z" fill="#E3E3E3"/>
<path d="M31.9979 329.841L34.1909 331.621C30.6476 334.711 26.9347 337.602 23.0695 340.279C22.2183 339.447 21.3094 338.676 20.3496 337.972L31.9979 329.841Z" fill="#B7BBBD"/>
<path d="M40.3562 271.998C39.5445 273.038 38.5334 274.433 37.6506 275.7C36.7677 276.968 35.8278 278.306 34.945 279.616C33.1934 282.265 31.4989 284.942 29.9467 287.619C28.4258 290.229 27.038 292.915 25.7886 295.665C24.7022 297.948 23.8436 300.333 23.2254 302.785L23.3536 300.336C23.3382 301.109 23.4293 301.88 23.6242 302.628C23.8884 303.789 24.2164 304.935 24.6067 306.06C25.5087 308.675 26.5449 311.242 27.711 313.75C28.9072 316.37 30.2458 319.004 31.6413 321.624C33.0368 324.245 34.4893 326.922 35.9133 329.3L18.5405 340.763C16.5326 337.915 14.7954 335.195 13.0296 332.333C11.2638 329.471 9.59775 326.637 7.97439 323.618C6.29012 320.512 4.76448 317.323 3.40336 314.063C2.7056 312.34 1.97936 310.546 1.43824 308.552C0.74804 306.274 0.294706 303.931 0.0854365 301.56L0 300.564L0.213597 299.14C0.871694 294.889 1.98404 290.721 3.53152 286.708C4.90776 283.09 6.46667 279.545 8.20224 276.085C9.83984 272.739 11.5771 269.506 13.3856 266.345C14.2827 264.764 15.2083 263.184 16.2336 261.631C17.2589 260.079 18.099 258.598 19.2525 256.861L40.3562 271.998Z" fill="#E1E1E1"/>
<path opacity="0.7" d="M40.3562 271.998C39.5445 273.038 38.5334 274.433 37.6506 275.7C36.7677 276.968 35.8278 278.306 34.945 279.616C33.1934 282.265 31.4989 284.942 29.9467 287.619C28.4258 290.229 27.038 292.915 25.7886 295.665C24.7022 297.948 23.8436 300.333 23.2254 302.785L23.3536 300.336C23.3382 301.109 23.4293 301.88 23.6242 302.628C23.8884 303.789 24.2164 304.935 24.6067 306.06C25.5087 308.675 26.5449 311.242 27.711 313.75C28.9072 316.37 30.2458 319.004 31.6413 321.624C33.0368 324.245 34.4893 326.922 35.9133 329.3L18.5405 340.763C16.5326 337.915 14.7954 335.195 13.0296 332.333C11.2638 329.471 9.59775 326.637 7.97439 323.618C6.29012 320.512 4.76448 317.323 3.40336 314.063C2.7056 312.34 1.97936 310.546 1.43824 308.552C0.74804 306.274 0.294706 303.931 0.0854365 301.56L0 300.564L0.213597 299.14C0.871694 294.889 1.98404 290.721 3.53152 286.708C4.90776 283.09 6.46667 279.545 8.20224 276.085C9.83984 272.739 11.5771 269.506 13.3856 266.345C14.2827 264.764 15.2083 263.184 16.2336 261.631C17.2589 260.079 18.099 258.598 19.2525 256.861L40.3562 271.998Z" fill="#F6F6F6"/>
<path d="M109.862 470.148L94.7246 473.266L102.357 490.397L115.017 487.805L109.862 470.148Z" fill="#E3E3E3"/>
<path opacity="0.2" d="M109.862 470.148L94.7109 473.281L98.9972 482.864L112.753 480.045L109.862 470.148Z" fill="#EDEDED"/>
<path d="M74.5316 416.321C66.9844 392.867 48.8996 369.329 50.3236 346.174L100.747 346.046C100.747 346.046 104.037 392.753 105.746 414.398C107.526 436.84 113.15 476.2 113.15 476.2L96.0625 480.785C96.0625 480.785 73.2215 441.44 74.5316 416.321Z" fill="#B7BBBD"/>
<path d="M103.169 496.349L107.113 495.31L107.455 493.8L109.719 494.626C116.91 494.1 123.849 491.752 129.883 487.805C129.151 486.318 128.072 485.028 126.736 484.046C126.736 484.046 120.869 485.47 116.967 484.388C116.338 484.186 115.656 484.231 115.059 484.516C112.624 485.712 106.088 488.66 101.574 488.261C101.476 488.251 101.377 488.267 101.287 488.306C101.197 488.346 101.119 488.408 101.06 488.487C101.001 488.566 100.964 488.659 100.952 488.756C100.939 488.854 100.953 488.953 100.99 489.044C101.909 491.417 102.638 493.86 103.169 496.349V496.349Z" fill="#B7BBBD"/>
<path d="M50.0966 472.27L34.6035 472.426L35.344 490.696L48.2882 490.596L50.0966 472.27Z" fill="#E3E3E3"/>
<path opacity="0.2" d="M50.0966 472.284L34.6035 472.426L35.0165 482.665L49.0856 482.537L50.0966 472.284Z" fill="#EDEDED"/>
<path d="M33.25 410.439C31.9969 386.972 18.8961 362.18 25.2044 347.128L73.4638 346.046C73.4638 346.046 73.0081 391.372 67.9956 412.974C62.7838 435.516 50.5374 479.361 50.5374 479.361H33.7911C33.7911 479.361 26.9559 437.196 33.25 410.439Z" fill="#B7BBBD"/>
<path d="M70.701 228.395C72.3955 230.033 73.549 229.05 73.4493 226.8C74.0782 227.254 74.5777 227.865 74.8984 228.571C75.2191 229.277 75.35 230.055 75.2781 230.827C75.2062 231.599 74.934 232.34 74.4884 232.975C74.0428 233.609 73.4392 234.117 72.7373 234.447C69.576 236.241 66.016 235.23 64.7771 233.294L64.293 226.672C66.6995 225.448 68.152 225.96 70.701 228.395Z" fill="#EFEFEF"/>
<path d="M63.6387 221.218L66.1591 227.697C67.6134 227.49 68.9383 226.749 69.8758 225.618C68.2262 223.622 66.0728 222.103 63.6387 221.218V221.218Z" fill="#DADADA"/>
<path d="M64.08 219.951C64.3791 220.72 65.0341 221.175 65.504 220.962C65.974 220.748 66.1733 219.979 65.86 219.21C65.5468 218.441 64.906 217.986 64.436 218.185C63.9661 218.384 63.7383 219.182 64.08 219.951Z" fill="#B7BBBD"/>
<path d="M66.0734 225.576C65.5382 225.569 65.01 225.452 64.5213 225.234C62.7048 224.319 61.312 222.737 60.6337 220.82C59.2097 217.388 60.0357 213.842 62.3283 212.902C62.7868 212.733 63.2753 212.661 63.7631 212.69C64.2509 212.72 64.7272 212.85 65.1621 213.073C66.9785 213.988 68.3713 215.57 69.0496 217.487C70.4736 220.919 69.6477 224.465 67.355 225.405C66.9442 225.549 66.5078 225.608 66.0734 225.576ZM63.5387 213.372C63.2167 213.376 62.8982 213.438 62.5989 213.557C60.6622 214.355 60.0784 217.487 61.303 220.549C61.9037 222.296 63.1598 223.741 64.8061 224.579C65.1488 224.742 65.5206 224.834 65.8996 224.851C66.2786 224.869 66.6573 224.81 67.0133 224.679C68.9499 223.881 69.5337 220.748 68.3091 217.687C67.7084 215.94 66.4523 214.495 64.8061 213.657C64.4066 213.479 63.9758 213.382 63.5387 213.372V213.372Z" fill="#B7BBBD"/>
<path d="M64.1655 216.519C64.098 216.556 64.022 216.576 63.9448 216.576C63.8676 216.576 63.7916 216.556 63.7241 216.519C63.2396 216.151 62.6743 215.903 62.0751 215.796C61.4758 215.69 60.8597 215.728 60.278 215.907C60.159 215.954 60.0263 215.951 59.9089 215.901C59.7915 215.85 59.699 215.755 59.6514 215.636C59.6041 215.515 59.6059 215.38 59.6564 215.261C59.707 215.141 59.8023 215.046 59.922 214.995C60.6546 214.762 61.4326 214.707 62.1907 214.836C62.9489 214.965 63.6651 215.273 64.2794 215.736C64.332 215.771 64.3768 215.817 64.4111 215.871C64.4455 215.924 64.4686 215.984 64.4793 216.046C64.4899 216.109 64.4878 216.173 64.473 216.234C64.4583 216.296 64.4312 216.354 64.3933 216.405C64.3319 216.467 64.2519 216.507 64.1655 216.519Z" fill="#B7BBBD"/>
<path d="M36.6821 227.313C40.9541 236.526 44.1581 242.678 51.2069 244.486C65.2333 248.075 69.7189 240.328 68.2949 229.99C66.8709 220.691 60.0784 207.206 49.37 207.206C46.9917 207.194 44.6496 207.788 42.5641 208.931C40.4786 210.074 38.7183 211.729 37.4492 213.74C36.18 215.752 35.4436 218.053 35.3094 220.427C35.1752 222.802 35.6476 225.171 36.6821 227.313Z" fill="#E3E3E3"/>
<path d="M67.5548 250.894C66.6132 249.072 65.0824 247.621 63.2116 246.779C62.5021 244.955 62.4517 242.94 63.0692 241.083L41.8516 234.433C43.5604 241.439 44.8989 246.993 42.293 250.396C46.4653 252.931 54.1122 257.516 62.4426 257.274C70.773 257.032 68.9076 253.828 67.5548 250.894Z" fill="#E3E3E3"/>
<path d="M38.5622 249.641C37.2949 245.597 39.2173 245.056 39.2173 245.056C39.2173 245.056 52.3323 241.909 64.4933 245.056C76.6542 248.203 69.3349 252.603 69.3349 252.603L38.5622 249.641Z" fill="#B7BBBD"/>
<path d="M60.0932 226.031C61.4318 222.913 61.5172 216.633 58.897 213.5C58.9059 213.912 58.8178 214.32 58.6396 214.691C58.4615 215.062 58.1984 215.386 57.8717 215.636C57.2025 214.639 53.0444 211.863 47.1917 211.991C47.7039 212.353 48.1115 212.845 48.3737 213.415C48.3737 213.415 39.2031 211.891 34.2476 215.636C34.2476 215.636 35.3013 217.06 34.5324 218C32.7239 219.025 31.9834 220.293 32.7097 224.465C33.4359 228.637 38.4057 235.942 43.233 240.499C52.2612 241.012 57.0886 237.324 57.0886 237.324C57.0886 237.324 62.3146 231.87 60.0932 226.031Z" fill="#EFEFEF"/>
<path d="M55.7063 224.821H55.6208C55.5752 224.811 55.5321 224.792 55.4942 224.765C55.4562 224.738 55.4243 224.703 55.4003 224.663C55.3762 224.623 55.3607 224.578 55.3545 224.532C55.3484 224.486 55.3518 224.439 55.3645 224.394C55.9341 222.172 58.896 220.051 60.8184 219.267C63.6664 218.057 68.1236 216.419 68.1663 216.419C68.2543 216.39 68.3501 216.397 68.4335 216.437C68.5168 216.478 68.5811 216.549 68.6126 216.636C68.6441 216.724 68.6404 216.82 68.6023 216.904C68.5642 216.988 68.4946 217.055 68.4084 217.089C68.4084 217.089 63.9797 218.712 61.089 219.937C59.3517 220.649 56.5607 222.614 56.048 224.579C56.0222 224.649 55.9757 224.71 55.9147 224.753C55.8537 224.796 55.781 224.82 55.7063 224.821V224.821Z" fill="#B7BBBD"/>
<path d="M54.4814 226.302C55.219 228.518 56.7373 230.391 58.7534 231.571C61.2882 232.895 62.6979 230.147 62.1283 227.071C61.6157 224.223 59.6933 220.122 57.0874 220.136C54.4814 220.15 53.4277 223.383 54.4814 226.302Z" fill="#E3E3E3"/>
<path d="M74.3329 250.254C59.9975 248.897 45.5562 249.126 31.2711 250.937C29.3169 251.228 27.4424 251.914 25.7624 252.954C24.0824 253.993 22.6322 255.365 21.5006 256.985C20.3689 258.604 19.5795 260.437 19.1807 262.373C18.782 264.308 18.7822 266.304 19.1814 268.239C25.8742 301.959 22.5705 342.586 23.2683 349.25C23.2683 349.25 65.3617 359.617 103.012 348.325C107.412 307.029 92.6028 272.739 85.8388 258.47C84.7841 256.231 83.1724 254.299 81.1579 252.861C79.1434 251.422 76.7935 250.524 74.3329 250.254V250.254Z" fill="#B7BBBD"/>
<path d="M33.4355 496.349H36.7962L37.6506 494.925L39.4733 496.349H61.1323C61.1873 494.731 60.8192 493.126 60.0643 491.693C60.0643 491.693 52.6453 491.138 50.1818 488.119C50.0959 488 49.9782 487.907 49.8422 487.852C49.7063 487.796 49.5575 487.78 49.4128 487.805C47.4192 488.233 39.4448 489.756 34.945 488.161C34.8369 488.116 34.719 488.098 34.6022 488.11C34.4855 488.122 34.3737 488.164 34.2772 488.23C34.1807 488.297 34.1025 488.387 34.05 488.492C33.9975 488.597 33.9722 488.713 33.9767 488.831C33.9885 491.347 33.8076 493.861 33.4355 496.349V496.349Z" fill="#B7BBBD"/>
<path d="M82.7336 251.749C65.2611 242.55 30.8288 246.437 23.2247 251.991C8.71409 262.6 21.9431 296.989 22.057 329.813C22.1709 362.636 20.5048 399.688 20.5048 440.472C55.9197 467.528 117.024 438.549 117.024 438.549C117.024 438.549 117.849 270.261 82.7336 251.749Z" fill="#E1E1E1"/>
<path opacity="0.8" d="M82.7336 251.749C65.2611 242.55 30.8288 246.437 23.2247 251.991C8.71409 262.6 21.9431 296.989 22.057 329.813C22.1709 362.636 20.5048 399.688 20.5048 440.472C55.9197 467.528 117.024 438.549 117.024 438.549C117.024 438.549 117.849 270.261 82.7336 251.749Z" fill="#F6F6F6"/>
<path opacity="0.2" d="M96.0914 269.705L82.4922 272.141C87.8681 275.745 93.7459 278.538 99.9362 280.428C98.8349 276.792 97.5517 273.213 96.0914 269.705V269.705Z" fill="#E1E1E1"/>
<path d="M141.375 225.205L137.943 226.103C137.351 226.234 136.801 226.514 136.346 226.914C135.89 227.315 135.543 227.824 135.337 228.395L133.714 233.522C133.411 234.581 133.402 235.702 133.688 236.766C133.974 237.829 134.544 238.795 135.337 239.559L136.362 240.642C142.201 239.46 147.199 234.533 147.199 234.533L148.822 233.279C149.167 233.045 149.451 232.731 149.651 232.365C149.851 231.998 149.961 231.59 149.972 231.173C149.983 230.755 149.895 230.342 149.715 229.965C149.535 229.589 149.268 229.261 148.936 229.007L145.775 226.159C145.173 225.657 144.458 225.308 143.692 225.142C142.926 224.975 142.131 224.997 141.375 225.205Z" fill="#E3E3E3"/>
<path d="M129.242 234.675L131.805 231.912C136.337 234.74 140.707 237.821 144.892 241.14C144.22 242.333 143.639 243.576 143.155 244.857L129.242 234.675Z" fill="#B7BBBD"/>
<path d="M74.8735 248.929C77.7215 249.47 80.84 249.997 83.8304 250.482C86.8208 250.966 89.8539 251.45 92.8443 251.906C98.8394 252.788 104.849 253.572 110.559 254.027L108.095 254.198C107.64 254.355 108.095 254.326 108.864 253.942C109.786 253.453 110.659 252.876 111.47 252.219C113.622 250.514 115.636 248.643 117.494 246.622C119.516 244.501 121.495 242.18 123.418 239.787C124.372 238.591 125.326 237.366 126.266 236.142C127.205 234.917 128.131 233.593 128.9 232.511L146.472 243.675C145.433 245.369 144.55 246.751 143.553 248.26C142.556 249.77 141.588 251.194 140.563 252.632C138.526 255.48 136.376 258.328 134.012 261.176C131.553 264.164 128.868 266.958 125.981 269.535C124.295 271.042 122.484 272.404 120.57 273.607C118.006 275.255 115.164 276.423 112.182 277.053L111.314 277.238H109.733C102.997 277.238 96.6037 276.84 90.2242 276.398C87.0344 276.17 83.8589 275.919 80.6976 275.644C77.5079 275.359 74.4035 275.06 71.1426 274.718L74.8735 248.929Z" fill="#E1E1E1"/>
<path opacity="0.8" d="M74.8735 248.929C77.7215 249.47 80.84 249.997 83.8304 250.482C86.8208 250.966 89.8539 251.45 92.8443 251.906C98.8394 252.788 104.849 253.572 110.559 254.027L108.095 254.198C107.64 254.355 108.095 254.326 108.864 253.942C109.786 253.453 110.659 252.876 111.47 252.219C113.622 250.514 115.636 248.643 117.494 246.622C119.516 244.501 121.495 242.18 123.418 239.787C124.372 238.591 125.326 237.366 126.266 236.142C127.205 234.917 128.131 233.593 128.9 232.511L146.472 243.675C145.433 245.369 144.55 246.751 143.553 248.26C142.556 249.77 141.588 251.194 140.563 252.632C138.526 255.48 136.376 258.328 134.012 261.176C131.553 264.164 128.868 266.958 125.981 269.535C124.295 271.042 122.484 272.404 120.57 273.607C118.006 275.255 115.164 276.423 112.182 277.053L111.314 277.238H109.733C102.997 277.238 96.6037 276.84 90.2242 276.398C87.0344 276.17 83.8589 275.919 80.6976 275.644C77.5079 275.359 74.4035 275.06 71.1426 274.718L74.8735 248.929Z" fill="#F6F6F6"/>
<path opacity="0.2" d="M436.825 356.897L437.423 379.111H377.672L376.704 343.099H433.55L432.781 339.838H376.619L375.665 303.825H405.91C405.91 302.728 405.91 301.632 405.91 300.549H375.593L374.682 266.573H369.826L375.892 495.025H380.762L379.865 461.006H439.559L440.471 494.968H445.369L442.322 380.436L436.825 356.897ZM377.815 382.387H437.509L438.463 418.4H378.712L377.815 382.387ZM379.823 457.688L378.869 421.675H438.563L439.517 457.688H379.823Z" fill="#EDEDED"/>
<path d="M477.011 506.132H481.881L440.272 266.615H435.401L441.582 302.215H381.902L375.722 266.615H370.852L412.461 506.132H417.317L411.136 470.532H470.831L477.011 506.132ZM456.519 388.097L463.07 425.861H403.376L396.825 388.097H456.519ZM396.227 384.651L389.663 346.929H449.357L455.921 384.694L396.227 384.651ZM442.194 305.633L448.759 343.412H389.064L382.5 305.633H442.194ZM410.538 467.072L403.974 429.293H463.668L470.232 467.072H410.538Z" fill="#B7BBBD"/>
<path d="M449.299 223.368L448.402 220.364C448.232 219.808 448.198 219.219 448.302 218.647C448.406 218.074 448.645 217.535 449 217.074L452.361 212.717C453.029 211.852 453.895 211.161 454.886 210.703C455.878 210.244 456.966 210.031 458.057 210.083H459.481C461.332 214.953 459.737 221.588 459.737 221.588L459.495 223.525C459.456 223.924 459.338 224.312 459.149 224.665C458.959 225.018 458.701 225.33 458.39 225.583C458.078 225.836 457.72 226.025 457.335 226.139C456.951 226.252 456.548 226.288 456.149 226.245L452.29 225.818C451.607 225.746 450.959 225.476 450.428 225.041C449.897 224.606 449.504 224.024 449.299 223.368V223.368Z" fill="#D2D2D2"/>
<path d="M454.084 209.969L452.489 212.347C456.849 214.418 461.323 216.239 465.889 217.801C466.498 216.737 467.184 215.718 467.94 214.753L454.084 209.969Z" fill="#F6F6F6"/>
<path d="M443.234 138.356C445.854 140.634 448.303 142.841 450.781 145.134C453.259 147.427 455.708 149.719 458.129 152.083C463.139 156.869 467.892 161.917 472.369 167.206L473.123 168.117L473.479 168.815C474.778 171.401 475.58 174.207 475.843 177.089C476.064 179.303 476.102 181.532 475.957 183.753C475.685 187.654 475.119 191.529 474.263 195.344C473.48 199.018 472.525 202.564 471.415 206.053C470.304 209.541 469.25 212.902 467.912 216.505L452.248 210.88C453.187 207.947 454.127 204.643 454.911 201.51C455.694 198.377 456.335 195.145 456.918 192.026C457.444 189.058 457.749 186.054 457.83 183.041C457.858 181.802 457.782 180.564 457.602 179.338C457.563 178.762 457.392 178.202 457.103 177.701L458.228 179.31C453.949 174.807 449.438 170.529 444.715 166.494C442.308 164.401 439.859 162.35 437.381 160.314C434.903 158.277 432.369 156.241 429.934 154.347L443.234 138.356Z" fill="#E1E1E1"/>
<path opacity="0.7" d="M443.234 138.356C445.854 140.634 448.303 142.841 450.781 145.134C453.259 147.427 455.708 149.719 458.129 152.083C463.139 156.869 467.892 161.917 472.369 167.206L473.123 168.117L473.479 168.815C474.778 171.401 475.58 174.207 475.843 177.089C476.064 179.303 476.102 181.532 475.957 183.753C475.685 187.654 475.119 191.529 474.263 195.344C473.48 199.018 472.525 202.564 471.415 206.053C470.304 209.541 469.25 212.902 467.912 216.505L452.248 210.88C453.187 207.947 454.127 204.643 454.911 201.51C455.694 198.377 456.335 195.145 456.918 192.026C457.444 189.058 457.749 186.054 457.83 183.041C457.858 181.802 457.782 180.564 457.602 179.338C457.563 178.762 457.392 178.202 457.103 177.701L458.228 179.31C453.949 174.807 449.438 170.529 444.715 166.494C442.308 164.401 439.859 162.35 437.381 160.314C434.903 158.277 432.369 156.241 429.934 154.347L443.234 138.356Z" fill="#F6F6F6"/>
<path d="M427.669 117.48C426.458 123.033 425.148 133.229 428.95 136.932C428.95 136.932 423.639 136.134 412.831 143.055C409.342 138.413 411.677 136.932 411.677 136.932C417.9 135.508 417.843 130.851 416.861 126.536L427.669 117.48Z" fill="#D2D2D2"/>
<path d="M407.248 108.181C407.106 108.922 406.607 109.463 406.123 109.392C405.639 109.32 405.354 108.637 405.497 107.882C405.639 107.127 406.138 106.601 406.622 106.686C407.106 106.771 407.391 107.441 407.248 108.181Z" fill="#B7BBBD"/>
<path d="M406.807 103.311C406.693 103.294 406.587 103.239 406.508 103.154C406.441 103.06 406.414 102.942 406.432 102.828C406.451 102.713 406.514 102.611 406.608 102.542C407.17 102.103 407.827 101.8 408.527 101.659C409.227 101.518 409.949 101.543 410.638 101.73C410.694 101.746 410.746 101.774 410.791 101.811C410.836 101.848 410.872 101.895 410.898 101.947C410.924 102 410.938 102.057 410.94 102.115C410.941 102.174 410.931 102.232 410.908 102.286C410.867 102.396 410.784 102.485 410.678 102.536C410.572 102.586 410.45 102.593 410.339 102.556C409.791 102.416 409.219 102.403 408.666 102.52C408.113 102.636 407.594 102.877 407.149 103.226C407.103 103.265 407.047 103.293 406.988 103.308C406.929 103.323 406.867 103.324 406.807 103.311Z" fill="#B7BBBD"/>
<path d="M406.679 109.562C405.697 111.137 404.509 112.574 403.147 113.835C403.476 114.17 403.876 114.428 404.316 114.591C404.757 114.753 405.228 114.816 405.696 114.774L406.679 109.562Z" fill="#F5F5F5"/>
<path d="M406.835 106.757L405.141 105.946C405.141 105.946 405.796 107.498 406.835 106.757Z" fill="#B7BBBD"/>
<path d="M432.297 109.534C430.246 118.32 429.577 122.079 424.28 125.896C416.305 131.592 405.853 127.234 405.212 118.035C404.629 109.748 408.06 96.7892 417.459 94.6817C419.506 94.197 421.644 94.2443 423.668 94.8193C425.693 95.3942 427.536 96.4775 429.023 97.9662C430.511 99.4549 431.592 101.299 432.165 103.324C432.738 105.349 432.784 107.487 432.297 109.534V109.534Z" fill="#D2D2D2"/>
<path d="M411.677 110.616C409.285 110.047 410.694 103.012 411.677 101.56C406.878 100.207 403.204 96.3193 408.686 92.5884C414.169 88.8575 418.954 87.462 421.431 89.1138C422.927 84.8418 432.638 86.7642 437.394 94.3684C441.908 101.56 438.391 107.313 435.159 107.555C440.285 111.827 433.592 120.043 427.797 121.695C427.469 127.391 417.629 127.647 413.172 123.347C408.715 119.046 411.677 110.616 411.677 110.616Z" fill="#B7BBBD"/>
<path d="M415.579 112.083C415.341 112.903 414.928 113.662 414.367 114.306C413.807 114.951 413.112 115.465 412.333 115.814C410.353 116.583 409.072 114.304 409.385 111.855C409.67 109.648 411.022 106.586 413.13 106.885C415.238 107.184 416.277 109.876 415.579 112.083Z" fill="#D2D2D2"/>
<path d="M476.384 374.797C482.194 371.123 481.269 369.628 484.458 367.449C487.193 365.583 488.104 365.512 490.325 364.045C492.177 362.821 490.866 360.998 488.901 359.232C487.89 358.335 486.566 357.31 485.014 355.829L476.185 361.411C476.555 364.544 475.786 369.485 472.81 372.006C469.834 374.526 474.063 376.263 476.384 374.797Z" fill="#B7BBBD"/>
<path d="M402.749 384.651C412.632 384.651 411.991 384.352 415.878 384.281C418.726 384.281 417.943 384.651 423.241 384.651C425.476 384.651 425.676 382.13 424.85 380.236C423.969 378.584 423.231 376.859 422.642 375.082H413.087C411.393 378.115 406.708 380.35 401.453 380.778C397.708 381.005 399.972 384.651 402.749 384.651Z" fill="#B7BBBD"/>
<path d="M399.958 195.857C399.958 195.857 398.847 245.697 401.98 277.338C401.98 307.043 413.101 375.081 413.101 375.081C413.329 376.605 421.304 375.993 422.642 375.081C422.642 375.081 428.737 325.241 421.845 277.068C438.164 226.8 436.896 195.9 436.896 195.9L399.958 195.857Z" fill="#B7BBBD"/>
<path d="M409.897 195.857C409.897 195.857 429.036 252.105 437.053 279.73C445.455 308.737 466.174 344.394 476.156 361.411C478.05 361.411 482.877 358.392 484.985 355.829C474.148 336.591 473.849 309.634 457.345 281.012C457.502 212.304 446.281 195.857 446.281 195.857H409.897Z" fill="#B7BBBD"/>
<path d="M473.208 358.421C473.934 359.562 474.581 360.751 475.145 361.981C475.187 362.086 475.25 362.182 475.33 362.263C475.409 362.344 475.504 362.408 475.609 362.452C475.714 362.495 475.826 362.518 475.94 362.518C476.053 362.517 476.165 362.495 476.27 362.451C479.593 360.763 482.646 358.589 485.327 356C485.447 355.882 485.527 355.729 485.556 355.562C485.584 355.396 485.558 355.225 485.483 355.074L483.817 351.6C483.767 351.49 483.693 351.392 483.602 351.312C483.511 351.233 483.404 351.174 483.288 351.139C483.172 351.104 483.051 351.094 482.931 351.109C482.811 351.125 482.696 351.166 482.593 351.229L473.365 357.324C473.283 357.386 473.213 357.463 473.161 357.552C473.109 357.64 473.074 357.738 473.06 357.84C473.045 357.942 473.051 358.045 473.076 358.145C473.102 358.245 473.147 358.338 473.208 358.421V358.421Z" fill="#E1E1E1"/>
<path opacity="0.3" d="M473.208 358.421C473.934 359.562 474.581 360.751 475.145 361.981C475.187 362.086 475.25 362.182 475.33 362.263C475.409 362.344 475.504 362.408 475.609 362.452C475.714 362.495 475.826 362.518 475.94 362.518C476.053 362.517 476.165 362.495 476.27 362.451C479.593 360.763 482.646 358.589 485.327 356C485.447 355.882 485.527 355.729 485.556 355.562C485.584 355.396 485.558 355.225 485.483 355.074L483.817 351.6C483.767 351.49 483.693 351.392 483.602 351.312C483.511 351.233 483.404 351.174 483.288 351.139C483.172 351.104 483.051 351.094 482.931 351.109C482.811 351.125 482.696 351.166 482.593 351.229L473.365 357.324C473.283 357.386 473.213 357.463 473.161 357.552C473.109 357.64 473.074 357.738 473.06 357.84C473.045 357.942 473.051 358.045 473.076 358.145C473.102 358.245 473.147 358.338 473.208 358.421V358.421Z" fill="#F6F6F6"/>
<path d="M411.535 371.536C411.535 372.575 411.607 374.384 411.535 375.808C411.531 376.027 411.612 376.24 411.76 376.402C411.909 376.563 412.114 376.662 412.333 376.676C415.852 376.79 419.375 376.581 422.856 376.05C423.023 376.024 423.177 375.945 423.295 375.824C423.413 375.703 423.489 375.548 423.511 375.381L424.024 371.65C424.038 371.528 424.026 371.404 423.989 371.287C423.951 371.169 423.89 371.062 423.807 370.97C423.725 370.878 423.625 370.805 423.512 370.756C423.4 370.706 423.278 370.681 423.155 370.681L412.262 370.781C412.07 370.798 411.891 370.884 411.757 371.023C411.624 371.161 411.545 371.344 411.535 371.536V371.536Z" fill="#E1E1E1"/>
<path opacity="0.3" d="M411.535 371.536C411.535 372.575 411.607 374.384 411.535 375.808C411.531 376.027 411.612 376.24 411.76 376.402C411.909 376.563 412.114 376.662 412.333 376.676C415.852 376.79 419.375 376.581 422.856 376.05C423.023 376.024 423.177 375.945 423.295 375.824C423.413 375.703 423.489 375.548 423.511 375.381L424.024 371.65C424.038 371.528 424.026 371.404 423.989 371.287C423.951 371.169 423.89 371.062 423.807 370.97C423.725 370.878 423.625 370.805 423.512 370.756C423.4 370.706 423.278 370.681 423.155 370.681L412.262 370.781C412.07 370.798 411.891 370.884 411.757 371.023C411.624 371.161 411.545 371.344 411.535 371.536V371.536Z" fill="#F6F6F6"/>
<path d="M395.529 151.072C395.615 154.817 395.714 159.545 396.697 168.473C397.38 176.035 398.292 183.468 400.029 195.857H446.352C445.027 185.148 439.004 172.93 444.572 148.865C444.888 147.562 444.921 146.206 444.668 144.889C444.415 143.572 443.883 142.325 443.107 141.231C442.33 140.138 441.329 139.224 440.169 138.551C439.009 137.878 437.718 137.462 436.384 137.33C434.874 137.188 433.265 137.06 431.628 136.974C425.326 136.561 419.004 136.561 412.703 136.974C410.823 137.145 408.901 137.387 407.007 137.644C403.792 138.113 400.856 139.732 398.745 142.202C396.635 144.672 395.492 147.823 395.529 151.072V151.072Z" fill="#E1E1E1"/>
<path d="M318.79 181.745C320.141 183.291 321.733 184.608 323.503 185.647C325.754 186.971 328.249 187.825 330.838 188.158C333.428 188.49 336.058 188.295 338.569 187.583L337.886 179.21C336.211 180.325 334.281 180.997 332.275 181.161C331.872 181.182 331.468 181.182 331.065 181.161C329.35 181.13 327.662 180.728 326.117 179.982C324.573 179.236 323.208 178.165 322.117 176.841C321.026 175.518 320.234 173.973 319.797 172.315C319.36 170.656 319.287 168.922 319.583 167.233C319.88 165.543 320.539 163.938 321.515 162.528C322.492 161.118 323.762 159.935 325.239 159.063C326.715 158.19 328.364 157.648 330.07 157.473C331.776 157.298 333.5 157.495 335.123 158.05L336.177 158.448L334.297 135.793L311.513 137.601C311.712 137.159 311.888 136.708 312.04 136.248C312.483 134.792 312.647 133.265 312.524 131.748C312.263 128.609 310.767 125.702 308.364 123.665C305.961 121.628 302.848 120.627 299.708 120.883C298.789 120.97 297.882 121.157 297.003 121.439C295.51 121.918 294.127 122.691 292.935 123.71C291.744 124.73 290.767 125.976 290.062 127.377C289.357 128.778 288.937 130.306 288.828 131.87C288.719 133.435 288.923 135.005 289.427 136.49C289.421 136.552 289.421 136.614 289.427 136.675C289.421 136.704 289.421 136.733 289.427 136.761C289.747 137.66 290.178 138.516 290.709 139.31L268.024 141.175L269.89 163.86C270.203 163.646 270.531 163.475 270.858 163.29C272.637 162.334 274.629 161.848 276.648 161.877C278.667 161.906 280.645 162.448 282.396 163.454C284.146 164.46 285.611 165.896 286.653 167.625C287.694 169.355 288.278 171.321 288.348 173.339C288.418 175.357 287.973 177.359 287.054 179.157C286.135 180.954 284.773 182.488 283.097 183.613C281.42 184.738 279.485 185.417 277.473 185.586C275.461 185.755 273.439 185.408 271.599 184.579L272.325 193.408C280.541 191.172 289.199 188.495 298.057 185.504C301.508 186.939 305.3 187.347 308.977 186.681C312.655 186.014 316.062 184.3 318.79 181.745V181.745Z" fill="#F6F6F6"/>
<path d="M328.245 150.688L331.336 150.132C331.906 150.026 332.493 150.058 333.049 150.227C333.604 150.396 334.11 150.695 334.525 151.101L338.47 154.945C339.247 155.704 339.831 156.638 340.176 157.668C340.52 158.698 340.614 159.796 340.449 160.869L340.236 162.222C335.18 163.489 328.844 161.14 328.844 161.14L326.935 160.67C326.544 160.584 326.174 160.422 325.846 160.193C325.518 159.964 325.238 159.672 325.023 159.335C324.807 158.998 324.66 158.621 324.59 158.227C324.52 157.833 324.528 157.429 324.614 157.039L325.497 153.265C325.659 152.617 326.004 152.029 326.492 151.571C326.979 151.114 327.588 150.807 328.245 150.688V150.688Z" fill="#D2D2D2"/>
<path d="M341.004 156.982L338.826 155.059C336.272 159.157 333.947 163.392 331.862 167.747C332.865 168.474 333.816 169.268 334.71 170.125L341.004 156.982Z" fill="#F6F6F6"/>
<path d="M407.961 135.009C397.993 136.433 391.486 143.269 390.546 165.611C390.215 182.357 390.781 199.108 392.24 215.793C390.816 256.149 388.452 312.881 395.459 331.806C420.877 341.233 462.201 327.99 481.511 318.235C475.259 303.995 462.386 254.839 456.434 216.177C453.316 195.857 449.471 164.443 448.559 151.471C447.648 138.498 440.898 135.892 434.462 134.596C428.025 133.301 418.655 133.5 407.961 135.009Z" fill="#E1E1E1"/>
<path opacity="0.8" d="M407.961 135.009C397.993 136.433 391.486 143.269 390.546 165.611C390.215 182.357 390.781 199.108 392.24 215.793C390.816 256.149 388.452 312.881 395.459 331.806C420.877 341.233 462.201 327.99 481.511 318.235C475.259 303.995 462.386 254.839 456.434 216.177C453.316 195.857 449.471 164.443 448.559 151.471C447.648 138.498 440.898 135.892 434.462 134.596C428.025 133.301 418.655 133.5 407.961 135.009Z" fill="#F6F6F6"/>
<path opacity="0.2" d="M390.545 165.583C390.417 168.602 390.374 172.916 390.431 178C398.348 171.45 401.965 160.399 401.965 160.399L390.545 165.583Z" fill="#E1E1E1"/>
<path d="M412.275 154.903C409.798 157.238 407.434 159.374 404.985 161.553C402.535 163.731 400.057 165.825 397.537 167.946C392.389 172.304 386.992 176.36 381.375 180.093L380.364 180.734L379.637 181.005C376.904 182.011 374.005 182.495 371.093 182.429C368.866 182.394 366.646 182.171 364.457 181.759C360.589 181.048 356.781 180.043 353.065 178.755C349.505 177.544 346.102 176.191 342.741 174.739C339.381 173.286 336.191 171.805 332.773 170.054L340.164 155.202C343.012 156.469 346.145 157.793 349.164 158.933C352.183 160.072 355.315 161.14 358.363 162.023C361.248 162.893 364.194 163.545 367.177 163.973C368.404 164.145 369.642 164.211 370.88 164.173C371.459 164.189 372.036 164.087 372.574 163.874L370.837 164.799C375.578 161.208 380.109 157.347 384.408 153.237C386.643 151.157 388.851 148.965 391.029 146.843C393.208 144.721 395.401 142.428 397.409 140.292L412.275 154.903Z" fill="#E1E1E1"/>
<path opacity="0.8" d="M412.275 154.903C409.798 157.238 407.434 159.374 404.985 161.553C402.535 163.731 400.057 165.825 397.537 167.946C392.389 172.304 386.992 176.36 381.375 180.093L380.364 180.734L379.637 181.005C376.904 182.011 374.005 182.495 371.093 182.429C368.866 182.394 366.646 182.171 364.457 181.759C360.589 181.048 356.781 180.043 353.065 178.755C349.505 177.544 346.102 176.191 342.741 174.739C339.381 173.286 336.191 171.805 332.773 170.054L340.164 155.202C343.012 156.469 346.145 157.793 349.164 158.933C352.183 160.072 355.315 161.14 358.363 162.023C361.248 162.893 364.194 163.545 367.177 163.973C368.404 164.145 369.642 164.211 370.88 164.173C371.459 164.189 372.036 164.087 372.574 163.874L370.837 164.799C375.578 161.208 380.109 157.347 384.408 153.237C386.643 151.157 388.851 148.965 391.029 146.843C393.208 144.721 395.401 142.428 397.409 140.292L412.275 154.903Z" fill="#F6F6F6"/>
<path d="M431.044 89.0854C427.883 88.1598 423.796 91.4919 425.462 96.4617C427.128 101.431 432.07 103.781 435.957 102.158C439.845 100.534 438.036 91.1074 431.044 89.0854Z" fill="#E1E1E1"/>
<path d="M428.78 96.4189C426.659 88.117 437.324 76.2836 442.465 91.4065C445.626 100.734 430.817 104.336 428.78 96.4189Z" fill="#B7BBBD"/>
</svg>
